<svg width="48" height="48" viewBox="0 0 48 48" fill="none" xmlns="http://www.w3.org/2000/svg">
<path fill-rule="evenodd" clip-rule="evenodd" d="M8.78049 7.57895C8 3.69231 11.122 0 15.0244 0C18.5366 0 21.4634 2.91498 21.4634 6.41295V14.1862C22.439 14.1862 23.2195 14.1862 24.1951 14.1862C24.9756 14.1862 25.9512 14.1862 26.7317 14.1862V6.41295C26.7317 2.91498 29.6585 0 33.1707 0C37.0732 0 40.1951 3.69231 39.4146 7.57895L37.6585 16.7125C43.5122 19.2389 48 23.7085 48 29.3441V32.6478C48 37.3117 44.8781 41.1984 40.5854 43.7247C36.2927 46.4454 30.439 48 24 48C17.561 48 11.7073 46.4454 7.41463 43.7247C3.12195 41.1984 0 37.3117 0 32.6478V29.3441C0 23.7085 4.4878 19.2389 10.3415 16.7125L8.78049 7.57895ZM35.5122 18.0729L37.4634 7.38461C38.0488 4.66397 35.9024 2.13765 33.1707 2.13765C30.6341 2.13765 28.6829 4.08098 28.6829 6.60729V16.5182C28.0976 16.5182 27.3171 16.3239 26.7317 16.3239C25.9512 16.3239 24.9756 16.3239 24.1951 16.3239C23.2195 16.3239 22.439 16.3239 21.4634 16.5182C20.878 16.5182 20.0976 16.7125 19.5122 16.7125V6.80162C19.5122 4.2753 17.561 2.33199 15.0244 2.33199C12.2927 2.33199 10.1463 4.8583 10.7317 7.57895L12.6829 18.4615C6.43902 20.7935 2.14634 25.0688 2.14634 29.9271V33.2308C2.14634 40.6154 11.9024 46.6397 24 46.6397C36.0976 46.6397 45.8537 40.6154 45.8537 33.2308V29.9271C46.0488 24.6802 41.7561 20.4049 35.5122 18.0729Z" fill="#633001"/>
<path d="M46.0491 32.8424C46.0491 40.227 36.293 46.2513 24.1955 46.2513C12.0979 46.2513 2.3418 40.227 2.3418 32.8424V29.5388H46.2442V32.8424H46.0491Z" fill="#FEDC90"/>
<path fill-rule="evenodd" clip-rule="evenodd" d="M10.7313 7.19026C10.1459 4.46962 12.2922 1.9433 15.0239 1.9433C17.5605 1.9433 19.5117 3.88662 19.5117 6.41293V16.5182C21.0727 16.3239 22.6337 16.1295 24.1947 16.1295C25.7556 16.1295 27.3166 16.3239 28.6825 16.3239V6.41293C28.6825 3.88662 30.6337 1.9433 33.1703 1.9433C35.902 1.9433 38.0483 4.46962 37.463 7.19026L35.5117 17.8785C41.9508 20.2105 46.2435 24.4858 46.2435 29.3441C46.2435 36.7287 36.4874 42.753 24.3898 42.753C12.2922 42.753 2.53613 36.7287 2.53613 29.3441C2.53613 24.4858 6.82882 20.2105 13.0727 17.8785L10.7313 7.19026Z" fill="#D1884F"/>
<path d="M18.1463 28.567C18.1463 30.5103 16.9756 32.2593 15.8048 32.2593C14.6341 32.2593 13.4634 30.7047 13.4634 28.567C13.4634 26.6237 14.6341 24.8747 15.8048 24.8747C16.9756 24.8747 18.1463 26.4294 18.1463 28.567Z" fill="#633001"/>
<path d="M34.9266 28.567C34.9266 30.5103 33.7558 32.2593 32.5851 32.2593C31.2193 32.2593 30.2437 30.7047 30.2437 28.567C30.2437 26.6237 31.4144 24.8747 32.5851 24.8747C33.7558 24.8747 34.9266 26.4294 34.9266 28.567Z" fill="#633001"/>
</svg>
