<svg width="82" height="96" viewBox="0 0 82 96" fill="none" xmlns="http://www.w3.org/2000/svg">
<path d="M44.8173 18.4365C44.8173 18.4365 28.8879 32.5305 25.4604 41.5323C22.033 50.5341 17.4957 64.4638 17.4957 64.4638C17.4957 64.4638 18.7035 68.6361 29.0837 75.0754C39.4966 81.5146 46.482 80.6275 46.482 80.6275C46.482 80.6275 62.6073 66.0407 67.0792 52.4395C71.5512 38.8383 71.1269 33.7132 71.1269 33.7132C71.1269 33.7132 58.0374 22.0504 44.8173 18.4365L44.8173 18.4365Z" fill="white"/>
<path d="M68.9643 7.90536C68.9643 7.90536 54.2915 12.4682 50.1512 15.0309C46.0109 17.5936 44.8373 18.4479 44.8373 18.4479L52.2743 21.2471L65.1597 28.4556L71.196 34.378C71.1961 34.4108 73.9578 15.2411 68.9643 7.90536Z" fill="#29BC20"/>
<path d="M24.4176 41.9594L19.7824 57.3347L17.4975 64.4309L5.32195 67.5848C5.32195 67.5848 2.74321 69.556 3.75512 62.1969C4.76703 54.8378 9.95714 47.4458 14.2333 45.1133C18.4768 42.8136 24.4176 41.9594 24.4176 41.9594Z" fill="#29BC20"/>
<path d="M32.0886 40.6124C32.0886 40.6124 25.4296 55.692 38.4864 62.3612C51.5433 69.0304 59.965 55.4949 59.965 55.4949C59.965 55.4949 65.5468 40.8752 52.5226 34.6331C39.4983 28.391 32.0886 40.6124 32.0886 40.6124Z" fill="#29BC20"/>
<path d="M61.3025 63.9381L54.872 71.8886L46.0586 81.3174L50.6938 93.9659L53.2398 94.1959C53.2398 94.1959 62.1185 84.9642 63.5874 78.1307C65.0237 71.3301 61.3025 63.9381 61.3025 63.9381Z" fill="#29BC20"/>
<path d="M45.1127 36.5715C45.1127 36.5715 36.1361 36.9328 34.504 46.1974C32.8719 55.462 41.0977 59.3058 41.0977 59.3058C41.0977 59.3058 50.4987 63.0183 56.6354 53.5565C62.8048 44.062 49.8132 35.2245 45.1127 36.5715Z" fill="#633001"/>
<path d="M52.6332 56.9048C52.8617 55.7878 52.9923 54.4736 52.9597 52.9295C52.9597 52.9295 56.3871 50.3341 56.7462 45.5047C56.7462 45.5047 53.4819 44.5191 50.6094 46.1289C49.9892 45.5047 49.2384 44.8805 48.2592 44.322C47.2799 43.7635 46.3659 43.4021 45.5172 43.205C45.452 39.9197 42.9712 37.5543 42.9712 37.5543C39.0214 40.2811 38.4992 44.5848 38.4992 44.5848C37.1608 45.3076 36.0836 46.0961 35.2349 46.8517C33.2764 48.5601 32.8194 51.4511 34.1578 53.6852C35.1697 55.3278 36.8997 57.2662 39.8701 59.0074C42.8406 60.7486 45.354 61.2742 47.2799 61.34C49.8913 61.3071 52.1436 59.4673 52.6332 56.9048Z" fill="#F2AA5B"/>
<path d="M51.5241 58.5474C51.5241 58.5474 51.0671 59.5987 49.7614 59.8944C48.6516 60.1244 47.3786 59.6316 46.6278 58.6788C46.0402 57.9561 45.42 56.9048 45.3874 55.6892C45.3547 54.5722 44.7019 53.4552 43.6247 52.7653C43.5921 52.7324 43.5268 52.6996 43.4941 52.6667C43.4615 52.6339 43.3962 52.601 43.3636 52.601C42.2537 52.0097 40.948 51.9768 39.9688 52.5353C38.9242 53.1267 37.7165 53.0938 36.7698 52.9624C35.5621 52.7653 34.5175 51.9439 34.1585 50.8269C33.7341 49.5457 34.4196 48.6258 34.4196 48.6258C32.7548 48.8558 33.1466 51.5497 33.1466 51.5497C35.2357 56.4448 39.9361 58.9088 39.9361 58.9088C39.9361 58.9088 44.4081 61.767 49.6635 61.1428C49.6309 61.1428 52.1443 60.1244 51.5241 58.5474Z" fill="white"/>
<path d="M43.2662 47.4759L40.8186 46.4575C40.5575 46.3589 40.4269 46.0304 40.4922 45.7676C40.5901 45.5047 40.8186 45.3733 41.0796 45.4062L43.7231 45.7676C44.1147 45.8333 44.3758 46.2275 44.2453 46.6218L44.0821 47.0817C44.0168 47.4431 43.6252 47.6074 43.2662 47.4759Z" fill="white"/>
<path d="M48.0646 50.2356L50.1532 51.8782C50.3817 52.0425 50.708 52.0097 50.9038 51.8125C51.067 51.6154 51.067 51.3197 50.9365 51.1226L49.2721 48.9872C49.011 48.6586 48.5541 48.6586 48.293 48.9543L47.9993 49.3157C47.7382 49.5785 47.7709 50.0056 48.0646 50.2356Z" fill="white"/>
<path d="M40.6539 51.6164C41.8435 51.6164 42.8079 50.6456 42.8079 49.4481C42.8079 48.2506 41.8435 47.2798 40.6539 47.2798C39.4643 47.2798 38.5 48.2506 38.5 49.4481C38.5 50.6456 39.4643 51.6164 40.6539 51.6164Z" fill="#633001"/>
<path d="M40.2635 49.0528C40.8583 49.0528 41.3404 48.5675 41.3404 47.9687C41.3404 47.3699 40.8583 46.8845 40.2635 46.8845C39.6687 46.8845 39.1865 47.3699 39.1865 47.9687C39.1865 48.5675 39.6687 49.0528 40.2635 49.0528Z" fill="white"/>
<path d="M40.8493 50.7284C41.1377 50.7284 41.3715 50.493 41.3715 50.2027C41.3715 49.9124 41.1377 49.6771 40.8493 49.6771C40.5609 49.6771 40.3271 49.9124 40.3271 50.2027C40.3271 50.493 40.5609 50.7284 40.8493 50.7284Z" fill="white"/>
<path d="M47.6725 55.6902C48.8621 55.6902 49.8264 54.7194 49.8264 53.5219C49.8264 52.3243 48.8621 51.3536 47.6725 51.3536C46.4829 51.3536 45.5186 52.3243 45.5186 53.5219C45.5186 54.7194 46.4829 55.6902 47.6725 55.6902Z" fill="#633001"/>
<path d="M47.282 53.1267C47.8768 53.1267 48.359 52.6413 48.359 52.0425C48.359 51.4437 47.8768 50.9583 47.282 50.9583C46.6872 50.9583 46.2051 51.4437 46.2051 52.0425C46.2051 52.6413 46.6872 53.1267 47.282 53.1267Z" fill="white"/>
<path d="M47.8679 54.8022C48.1563 54.8022 48.39 54.5668 48.39 54.2765C48.39 53.9862 48.1563 53.7509 47.8679 53.7509C47.5795 53.7509 47.3457 53.9862 47.3457 54.2765C47.3457 54.5668 47.5795 54.8022 47.8679 54.8022Z" fill="white"/>
<path d="M39.6756 59.3031C37.0642 57.7918 35.1057 55.952 33.8326 53.8494C32.3637 51.4511 32.8533 48.3301 34.9751 46.4903C35.9217 45.669 36.9989 44.9134 38.1414 44.2892C38.3046 43.3364 39.1859 39.6897 42.7766 37.1929L43.0704 36.9958L43.3315 37.2257C43.4294 37.3243 45.7797 39.5912 46.0082 42.8765C46.8568 43.1064 47.7056 43.5007 48.5543 43.9606C49.4029 44.4534 50.1211 45.0119 50.7739 45.6361C53.6791 44.1906 56.8127 45.1105 56.9433 45.1433L57.2697 45.2419L57.2371 45.6033C56.878 49.9728 54.1687 52.5682 53.4506 53.1924C53.4832 54.5065 53.3527 55.8206 53.1242 57.0362C52.5692 59.8287 50.1537 61.7999 47.3465 61.7342C44.8657 61.6028 42.2869 60.8143 39.6756 59.3031ZM42.9398 38.0799C39.4471 40.6753 38.9574 44.552 38.9248 44.5848L38.8922 44.8148L38.6963 44.9134C37.5212 45.5376 36.4766 46.2932 35.4974 47.1145C33.702 48.6915 33.2777 51.3526 34.5181 53.3895C35.7259 55.3607 37.5865 57.1019 40.0673 58.5474C42.5481 59.993 44.9962 60.7486 47.2812 60.8143C49.6641 60.88 51.7205 59.2045 52.1775 56.8062C52.406 55.5578 52.5366 54.2437 52.4713 52.9295V52.6996L52.6345 52.5682C52.6672 52.5353 55.7355 50.1699 56.2252 45.8333C55.3438 45.6361 52.9283 45.3076 50.7739 46.4903L50.4801 46.6874L50.219 46.4246C49.5988 45.7676 48.848 45.1762 47.9667 44.6834C47.118 44.1906 46.2366 43.8292 45.3553 43.5992L45.0942 43.5335L44.9962 43.205V43.1393C45.0615 40.6753 43.56 38.737 42.9398 38.0799Z" fill="#633001"/>
<path d="M42.4842 39.624C41.7989 40.3139 41.3094 41.0367 40.9504 41.7266C40.7872 42.0223 41.0483 42.3837 41.3747 42.318C42.0926 42.1866 42.8759 42.088 43.6265 42.0223C43.8876 41.9895 44.0507 41.7595 43.9855 41.4967C43.757 40.8067 43.4307 40.1825 43.1043 39.6897C42.9738 39.4598 42.6474 39.4269 42.4842 39.624Z" fill="white"/>
<path d="M55.2127 47.016C54.9516 47.9359 54.5926 48.7244 54.201 49.4143C54.0378 49.7099 53.6135 49.6771 53.483 49.3486C53.2219 48.6586 52.9282 47.9359 52.6018 47.246C52.5039 47.016 52.6345 46.7203 52.8956 46.6875C53.6135 46.5232 54.2989 46.5232 54.8863 46.556C55.0821 46.5232 55.2779 46.7532 55.2127 47.016Z" fill="white"/>
<path d="M42.9065 53.6523C42.3191 53.2909 41.8622 53.1267 41.6011 52.9953C41.3074 52.8967 41.0463 53.0938 41.0137 53.3895C41.0137 53.8166 41.1116 54.4737 41.6664 55.0979C41.8296 55.2621 42.0254 55.3935 42.2538 55.4592C43.0697 55.6235 43.6898 55.3935 44.0487 55.1636C44.3098 54.9993 44.3425 54.6708 44.114 54.4736C43.8856 54.2765 43.5266 53.9809 42.9065 53.6523Z" fill="#633001"/>
<path d="M42.55 56.6091C42.1909 56.412 41.8971 56.1163 41.7013 55.7549C41.3096 55.7549 40.8852 55.6564 40.5588 55.4592C39.808 55.0322 39.3837 54.2108 39.449 53.3566L40.1018 53.4223C40.0365 54.0137 40.3629 54.6051 40.8852 54.9336C41.179 55.0979 41.5381 55.1636 41.8645 55.1307L42.1256 55.0979L42.2235 55.3278C42.3541 55.6564 42.5826 55.9192 42.8764 56.0835C43.3987 56.3791 44.0515 56.3463 44.5411 56.0178L44.9002 56.5434C44.2147 56.9705 43.3007 57.0362 42.55 56.6091Z" fill="#633001"/>
<path d="M53.6898 35.2422C53.3184 35.0314 52.9298 34.828 52.5227 34.6329C39.4985 28.3908 32.0886 40.6124 32.0886 40.6124C32.0886 40.6124 25.4295 55.6922 38.4864 62.3614C51.5433 69.0305 59.9646 55.4948 59.9646 55.4948C59.9646 55.4948 65.2034 41.7747 53.6898 35.2422ZM51.1108 38.0017C56.0618 40.8121 60.8767 47.0289 56.6352 53.5565C50.4985 63.0182 41.0976 59.3057 41.0976 59.3057C41.0976 59.3057 32.8717 55.4623 34.5038 46.1977C36.1359 36.9331 45.1127 36.5716 45.1127 36.5716C46.5816 36.1507 48.8603 36.7242 51.1108 38.0017Z" fill="#29BC20"/>
<path d="M23.2398 43.3392C23.2398 43.3392 23.1419 43.3721 22.9134 43.4706C16.7767 45.8361 12.1088 50.9283 10.183 57.269L7.21251 67.1249L2.87109 66.665L3.0343 62.2955L9.30161 48.99L17.7233 43.6349L22.9787 42.3208" fill="#83EF7B"/>
<path d="M40.1172 33.6475L41.5534 37.3271C41.5534 37.3271 47.6575 37.3271 48.0819 37.1957C48.5062 37.0642 51.7378 38.3127 51.7378 38.3127L53.729 34.8302C53.729 34.8631 43.1529 31.9391 40.1172 33.6475Z" fill="#83EF7B"/>
<path d="M67.1773 8.44917C67.1773 8.44917 64.5006 9.33621 64.2395 9.36906C63.9784 9.40192 53.8266 13.9357 53.8266 13.9357L44.8174 18.4365L52.9127 22.1818C59.18 14.6584 68.3524 9.13909 68.3524 9.13909L67.1773 8.44917Z" fill="#83EF7B"/>
<path d="M66.916 30.855C66.916 30.855 63.9455 43.602 60.9751 51.4211L60.5834 42.9778L53.7285 34.896L59.1145 25.5328L66.916 30.855Z" fill="#D5C1C2"/>
<path d="M37.9291 62.0327C37.9291 62.0327 30.1929 58.8131 29.7033 47.0845C29.7033 47.0845 23.1095 62.624 21.8691 69.8517L29.6706 76.3895L39.2022 79.9376C44.784 75.2725 54.8704 61.737 54.8704 61.737C44.5555 67.1578 37.9291 62.0327 37.9291 62.0327Z" fill="#D5C1C2"/>
<path d="M27.4193 80.4633L29.5736 76.7509L20.3359 68.9647L18.3447 75.2068L23.1431 79.0834L27.4193 80.4633Z" fill="#D5C1C2"/>
<path d="M65.4374 69.1947C64.8487 66.7635 64.1292 64.6609 63.2789 62.854C63.5078 62.4598 63.7694 62.0327 63.9984 61.6384C68.348 54.1151 71.2587 46.2303 72.6323 38.1484C74.3656 28.0297 73.6788 17.6152 70.6373 7.20075L70.2776 5.98518L69.0675 6.28086C58.5695 8.84341 49.2487 13.4429 41.367 20.0135C35.0878 25.27 29.7243 31.7421 25.44 39.2983C25.2111 39.7254 24.9822 40.1196 24.7532 40.5467C22.791 40.711 20.5998 41.1381 18.2124 41.828C12.2602 43.6021 7.35456 48.1029 5.13067 53.9179C3.62627 57.7946 2.44892 61.737 1.69672 64.3652C1.36968 65.548 1.66402 66.7635 2.51433 67.6506C2.74326 67.8805 2.97219 68.0777 3.26653 68.2419C4.01872 68.669 4.90174 68.8004 5.78475 68.5705L16.8388 65.6794C17.1986 66.5336 17.8199 67.7163 18.9646 69.129L17.3294 74.8126L17.5583 75.2725C17.6237 75.4039 19.5206 78.9192 26.1595 82.763C32.7985 86.6068 36.7557 86.5083 36.9192 86.5083L37.4425 86.4754L41.5305 82.2045C43.3293 82.5002 44.6701 82.4673 45.5859 82.3359L48.6274 93.3746C48.8563 94.2616 49.4123 94.9515 50.1645 95.4115C50.4261 95.5757 50.7204 95.6743 51.0148 95.7729C52.1921 96.0685 53.4022 95.74 54.2525 94.853C56.1493 92.8818 58.9619 89.8922 61.5455 86.6397C65.4374 81.7774 66.8764 75.2725 65.4374 69.1947ZM68.4789 9.13909C70.5719 16.7939 71.3568 24.3501 70.8336 31.7421C68.4789 29.8366 64.2273 26.5841 59.8776 24.0873C55.5934 21.5904 50.7204 19.5535 47.8752 18.4365C53.5657 14.5599 60.3355 11.2745 68.4789 9.13909ZM5.13067 66.0079C4.73822 66.1065 4.47658 65.9093 4.41118 65.8108C4.31306 65.7122 4.11684 65.4494 4.21495 65.088C4.93444 62.5255 6.1118 58.6488 7.58349 54.8707C9.54575 49.8113 13.7973 45.9018 18.9646 44.3577C20.5017 43.8977 21.9407 43.5692 23.2815 43.3721C18.7029 52.6367 17.0023 60.4886 16.5445 63.0511L5.13067 66.0079ZM36.3633 83.8472C35.2186 83.7158 32.1117 83.1901 27.5004 80.4961C22.8564 77.8022 20.8287 75.4039 20.1746 74.4512L21.0577 71.363C22.9545 73.1699 25.5708 75.2068 29.2991 77.3422C33.0274 79.5106 36.1016 80.7918 38.5872 81.5146L36.3633 83.8472ZM30.6073 75.0754C20.8941 69.4246 19.2589 64.858 19.0627 64.0696C19.3243 62.4598 21.2212 52.0453 27.7293 40.6124C31.3922 34.1732 37.0173 26.617 45.3569 20.3092C47.3846 21.0648 53.533 23.4631 58.6022 26.387C63.7367 29.3766 68.9367 33.5818 70.5392 34.9288C69.46 43.6021 66.5493 52.0782 61.8072 60.2586C55.2009 71.6586 47.1557 78.5578 45.8802 79.6091C45.0299 79.8391 40.2551 80.6604 30.6073 75.0754ZM59.5179 84.997C56.9997 88.1509 54.2525 91.1077 52.3883 93.0132C52.1267 93.3089 51.7997 93.2432 51.6689 93.2103C51.538 93.1775 51.2437 93.0461 51.1129 92.6847L47.9733 81.2518C49.9355 79.5763 55.8877 74.1883 61.5783 65.548C62.0688 66.8292 62.494 68.2419 62.8864 69.8189C64.1619 75.1082 62.8864 80.759 59.5179 84.997Z" fill="#633001"/>
<path d="M54.1544 34.1075C46.24 29.508 36.0362 32.2348 31.4576 40.2182C26.879 48.1686 29.5935 58.4188 37.5406 63.0183C45.4878 67.6177 55.6588 64.8909 60.2374 56.9076C64.7833 48.9242 62.0688 38.7069 54.1544 34.1075ZM38.5218 61.277C31.523 57.2361 29.1356 48.2015 33.1583 41.1709C37.1809 34.1403 46.1746 31.742 53.1733 35.783C60.172 39.8239 62.5594 48.8585 58.5368 55.8891C54.4814 62.9197 45.5205 65.3508 38.5218 61.277Z" fill="#633001"/>
<path d="M52.2897 37.3271C46.1413 33.7461 38.2269 35.8815 34.6948 42.0579C31.13 48.2343 33.2558 56.1848 39.4042 59.7329C45.5526 63.2811 53.4671 61.1785 56.9991 55.0021C60.5639 48.8257 58.4381 40.9081 52.2897 37.3271ZM40.3854 58.0574C35.1527 55.0349 33.3866 48.3 36.3954 43.0764C39.4042 37.8527 46.1086 36.0458 51.3086 39.0683C56.5413 42.0908 58.3073 48.8257 55.2985 54.0493C52.2897 59.273 45.5853 61.0799 40.3854 58.0574Z" fill="#633001"/>
</svg>
