<svg width="32" height="32" viewBox="0 0 32 32" fill="none" xmlns="http://www.w3.org/2000/svg">
<g clip-path="url(#clip0)">
<path d="M6.64971 15.235C6.64975 15.0563 6.68506 14.8794 6.75362 14.7144C6.82219 14.5495 6.92265 14.3996 7.04925 14.2736C7.17585 14.1476 7.32609 14.0478 7.49134 13.98C7.65659 13.9122 7.8336 13.8778 8.0122 13.8786L10.2711 13.886C10.6312 13.886 10.9766 14.0291 11.2313 14.2839C11.486 14.5386 11.6291 14.8842 11.6291 15.2445V23.7896C11.8835 23.7141 12.2091 23.6337 12.5674 23.5493C12.8156 23.4909 13.0368 23.3503 13.1951 23.1503C13.3535 22.9504 13.4397 22.7028 13.4397 22.4477V11.8489C13.4397 11.4886 13.5828 11.143 13.8375 10.8882C14.0921 10.6334 14.4376 10.4902 14.7977 10.4901H17.0635C17.4237 10.4902 17.7691 10.6334 18.0237 10.8882C18.2784 11.143 18.4215 11.4886 18.4215 11.8489V21.6863C18.4215 21.6863 18.9883 21.4568 19.5401 21.2237C19.7451 21.1369 19.9201 20.9917 20.0432 20.8061C20.1662 20.6205 20.232 20.4028 20.2321 20.1801V8.45247C20.2321 8.09222 20.3752 7.74672 20.6298 7.49195C20.8844 7.23719 21.2298 7.09403 21.5899 7.09396H23.8532C24.2132 7.09431 24.5582 7.2376 24.8126 7.49233C25.067 7.74706 25.2099 8.0924 25.2099 8.45247V18.1097C27.1722 16.6871 29.1608 14.976 30.739 12.9186C30.9679 12.6199 31.1194 12.2692 31.18 11.8978C31.2405 11.5263 31.2082 11.1456 31.0859 10.7897C30.3554 8.68723 29.1942 6.76046 27.6765 5.1327C26.1589 3.50493 24.3184 2.21202 22.2726 1.33669C20.2268 0.461359 18.0209 0.0228918 15.796 0.0493475C13.5711 0.0758031 11.3763 0.566597 9.35189 1.49032C7.3275 2.41405 5.51816 3.75036 4.03965 5.41376C2.56114 7.07715 1.44603 9.03099 0.765669 11.1502C0.085308 13.2695 -0.145318 15.5075 0.0885486 17.721C0.322415 19.9346 1.01562 22.0749 2.12382 24.005C2.31689 24.338 2.60094 24.6089 2.9426 24.786C3.28427 24.9631 3.66934 25.0389 4.0526 25.0046C4.48075 24.9669 5.01383 24.9136 5.64762 24.8392C5.92346 24.8078 6.17812 24.6761 6.3631 24.469C6.54809 24.2619 6.65048 23.994 6.65077 23.7162V15.235" fill="white"/>
<path d="M6.60156 28.939C8.98729 30.6753 11.8066 31.7174 14.7477 31.9502C17.6887 32.183 20.6368 31.5973 23.2658 30.258C25.8948 28.9187 28.1022 26.8779 29.6437 24.3615C31.1852 21.8451 32.0008 18.9512 32.0003 15.9998C32.0003 15.6306 31.9832 15.2672 31.9586 14.9048C26.1156 23.6226 15.327 27.6981 6.60156 28.939Z" fill="#F0B90B"/>
</g>
<defs>
<clipPath id="clip0">
<rect width="32" height="32" fill="white"/>
</clipPath>
</defs>
</svg>
