<svg width="283" height="185" viewBox="0 0 283 185" fill="none" xmlns="http://www.w3.org/2000/svg">
<path d="M270.961 82.6102C269.91 80.2637 268.073 78.3577 265.766 77.2212C263.46 76.0847 260.83 75.789 258.329 76.3851C255.848 77.1304 253.414 78.0209 251.038 79.0519C251.735 80.1721 252.171 81.0206 252.748 81.7587C253.376 82.3418 253.969 82.9607 254.526 83.6123C254.994 84.3918 255.02 85.4652 254.028 85.8694C253.236 86.1169 252.39 86.1324 251.59 85.914C251.199 85.8267 250.84 85.191 250.64 84.7281C250.418 84.054 250.007 83.4576 249.457 83.0097C248.906 82.5619 248.239 82.2814 247.533 82.2016C245.63 81.9878 245.637 79.6742 244.202 79.0825C242.803 78.5054 241.001 79.2159 239.802 77.7464C239.641 77.5476 239.441 77.3833 239.215 77.2636C238.988 77.1438 238.74 77.071 238.485 77.0496C234.168 77.2815 229.65 76.5622 225.745 79.5975C226.199 82.5474 225.938 85.563 224.984 88.391C224.896 88.6384 224.747 88.8597 224.551 89.0343C224.355 89.209 224.118 89.3315 223.862 89.3905C223.606 89.4495 223.34 89.4432 223.087 89.372C222.834 89.3009 222.603 89.1672 222.416 88.9834C221.691 87.9972 220.433 86.7862 220.592 85.8802C221.155 82.6645 219.275 80.1388 218.73 77.2689C218.61 76.3694 218.541 75.4639 218.522 74.5565C217.787 73.8406 217.055 73.0909 216.284 72.3843C210.957 67.5021 208.527 66.6149 201.653 67.0478C201.146 67.0782 200.646 67.1777 200.166 67.3434C198.694 67.8612 197.199 68.3399 195.79 68.9996C194.465 69.4161 193.264 70.1546 192.294 71.1489C190.346 74.0697 187.221 76.0586 185.88 79.4328C185.52 79.9947 185.089 80.5081 184.598 80.9604C183.811 79.4309 182.963 77.9778 183.533 76.5953C184.449 74.3738 184.678 71.6831 186.996 70.2229C188.84 69.153 190.61 67.9613 192.295 66.6556C190.99 65.6526 189.768 64.6649 189.488 64.4638C187.646 63.1419 185.939 61.6312 184.19 60.1823C181.224 57.7267 178.207 55.5482 174.006 55.7703C172.25 55.8512 170.496 55.5489 168.868 54.8844C166.102 53.7314 163.693 54.7572 161.227 55.5869C159.381 56.1846 157.586 56.9289 155.859 57.8126C153.581 58.8261 151.761 60.6492 150.752 62.9285C151.887 65.6315 153.267 68.6535 154.426 71.758C155.515 74.6773 156.946 77.6365 155.206 80.8282C155.489 84.2664 153.389 87.1472 152.957 90.4211C152.856 91.002 152.716 91.5754 152.538 92.1372C150.72 92.25 150.204 91.5826 150.259 90.595C150.387 88.3203 150.571 86.0447 150.852 83.7841C151.038 82.0494 150.937 80.2958 150.554 78.5938C150.25 76.1078 150.152 73.6007 150.262 71.0985C148.915 68.4804 147.474 65.6788 145.883 62.5869C141.841 60.3207 138.386 57.1375 135.798 53.2933C133.378 52.5868 130.664 52.4949 128.53 50.6642C127.028 49.3753 125.019 50.6736 123.461 50.0078C121.869 49.3271 120.491 47.8752 118.652 48.1257C116.044 48.5061 113.462 49.0492 110.921 49.752C109.255 50.1968 107.787 51.4121 105.882 50.8577C105.71 50.8241 105.532 50.8315 105.363 50.8795C105.195 50.9274 105.039 51.0145 104.911 51.1335C103.4 53.0743 100.81 52.9827 99.0036 54.3224C96.3318 56.0154 93.8305 57.9635 91.5349 60.1395C88.7627 63.2048 85.6031 66.274 85.592 70.9703C85.6037 71.6732 85.3971 72.3624 85.0006 72.9428C82.1558 76.5475 83.3017 80.6028 83.5982 84.5582C83.6504 85.2511 84.18 85.9879 84.0404 86.6024C83.054 90.9382 85.1188 94.4504 86.9437 98.0448C87.0053 98.1661 86.8981 98.373 86.8126 98.8726C86.1603 98.8797 85.5221 98.6822 84.9878 98.3079C84.4535 97.9335 84.05 97.4011 83.834 96.7854C81.8587 93.0633 79.9368 89.3125 77.9529 85.4927C75.2552 84.2228 72.3144 83.5528 69.333 83.5289C66.3516 83.5049 63.4005 84.1276 60.6829 85.3539C59.7573 85.8394 58.9306 86.4934 58.2451 87.2825C55.935 89.6847 53.6911 92.1505 51.3101 94.7121C51.708 97.1086 51.2427 99.5686 49.9969 101.654C48.4914 104.254 47.6758 107.115 50.579 109.704C52.01 110.981 51.3778 113.399 52.8008 114.876C53.381 115.479 53.5333 116.601 54.1814 117.013C57.7132 119.259 60.929 121.998 65.1058 123.237C66.9857 123.621 68.8934 123.854 70.8105 123.933C71.9152 124.063 72.9457 124.555 73.7415 125.333C72.6902 125.764 71.5784 126.03 70.4457 126.121C64.6919 125.652 58.8938 125.74 53.1783 124.73C52.1477 124.486 51.0636 124.635 50.1362 125.146C48.5855 126.284 46.7379 126.949 44.8173 127.059C44.1113 127.098 43.4213 127.285 42.7915 127.607C42.1618 127.929 41.6062 128.379 41.1604 128.928C40.4347 129.669 39.5146 130.191 38.5058 130.434C36.0278 131.377 33.8108 132.899 32.0395 134.872C30.2422 136.66 28.7102 138.605 29.5095 141.405C29.9591 142.98 28.405 144.24 29.094 146.008C29.5901 148.044 30.4404 149.977 31.6062 151.718C32.4073 152.659 33.0863 153.698 33.6271 154.809C35.7691 159.196 39.8326 161.276 43.8162 163.47C45.2301 164.213 46.8555 164.45 48.4227 164.142C50.5033 163.828 52.6076 163.657 54.7068 163.487C56.6543 163.432 58.5185 162.684 59.9645 161.378C61.8812 159.585 64.8259 159.377 66.632 157.312C67.3151 156.531 68.077 155.818 68.9077 154.967C68.5139 152.749 65.9217 150.435 69.1753 148.289C69.9914 148.328 70.7963 148.495 71.5606 148.784C74.6147 150.469 77.4969 152.507 81.2852 152.159C81.8399 152.108 82.5077 152.794 83.0523 153.228C83.521 153.613 84.0655 153.895 84.6504 154.055C85.2352 154.215 85.8472 154.25 86.4464 154.157C88.3783 154.045 90.3166 154.158 92.2222 154.495C95.0154 154.897 97.863 154.673 100.559 153.839C101.867 153.322 103.26 153.05 104.667 153.039C105.449 153.152 106.247 153.078 106.995 152.822C107.743 152.566 108.419 152.135 108.968 151.566C109.629 150.881 110.502 150.439 111.446 150.313C112.39 150.187 113.348 150.383 114.166 150.87C116.249 148.872 118.827 147.465 121.634 146.793C122.504 146.686 123.314 146.298 123.942 145.688C125.14 144.48 126.56 143.516 128.124 142.849C130.291 141.357 132.197 139.517 133.765 137.405C135.492 135.3 137.562 133.237 136.291 129.9C135.816 128.655 138.589 126.974 139.734 127.939C142.181 129.594 144.937 130.739 147.836 131.304C149.864 131.84 151.919 132.269 153.992 132.587C154.842 132.764 156.063 132.722 156.455 133.26C158.127 135.554 160.406 135.055 162.656 135.025C164.926 135.165 167.202 135.182 169.474 135.077C175.629 134.321 182.064 134.453 187.231 130.066C188.171 129.264 189.261 128.658 190.437 128.283C192.702 127.441 194.794 126.192 196.609 124.597C197.522 124.065 198.317 123.352 198.946 122.503C199.575 121.653 200.024 120.685 200.267 119.656C200.631 118.477 201.228 117.383 202.023 116.438C202.594 115.752 202.888 114.876 202.846 113.984C202.804 113.091 202.43 112.247 201.796 111.617C201.641 111.44 201.824 110.967 201.876 110.314C203.02 109.966 204.23 109.889 205.409 110.089C206.589 110.289 207.705 110.76 208.671 111.466C210.586 112.673 212.777 113.374 215.038 113.5C216.239 113.661 217.418 113.964 218.548 114.402C220.849 115.078 223.305 115.011 225.566 114.211C226.138 113.833 226.78 113.574 227.454 113.448C228.128 113.323 228.821 113.333 229.491 113.479C232.487 113.824 235.512 113.161 238.09 111.596C241.119 109.572 244.461 108.123 247.394 105.884C251.145 103.314 253.908 99.5411 255.226 95.1885C255.743 93.3217 256.484 92.8792 258.322 93.3023C259.99 93.853 261.777 93.9357 263.489 93.5416C265.2 93.1474 266.771 92.2915 268.031 91.0668C268.15 90.9367 268.301 90.839 268.469 90.7827C269.264 90.6642 270.004 90.3082 270.593 89.7613C271.182 89.2145 271.592 88.5024 271.77 87.7185C271.926 85.9751 271.648 84.22 270.961 82.6102Z" fill="white"/>
<path d="M199.47 98.1323C198.42 98.0257 197.361 98.036 196.313 98.163C195.507 98.1717 194.737 98.4982 194.17 99.0715C193.604 99.6448 193.286 100.419 193.287 101.225C193.029 102.797 193.876 104.347 193.185 105.924C191.32 110.7 188.301 114.94 184.397 118.264C177.961 123.212 170.495 126.652 162.551 128.328C160.326 128.929 157.973 128.857 155.789 128.123C152.11 126.788 148.096 127.978 144.406 126.556C143.707 126.286 142.698 126.752 141.85 126.958C141.5 126.997 141.17 127.14 140.903 127.369C140.635 127.597 140.442 127.901 140.348 128.24C140.291 128.591 140.336 128.95 140.477 129.276C140.618 129.602 140.849 129.881 141.144 130.08C142.634 131.25 144.656 131.856 145.152 134.051C145.735 136.624 147.752 137.225 149.977 137.296C151.911 137.071 153.869 137.379 155.64 138.188C158.122 139.823 161.185 139.294 163.607 140.631C166.829 142.41 169.365 140.155 172.202 139.683C172.538 139.576 172.887 139.516 173.239 139.505C176.782 139.963 179.178 137.8 181.555 135.758C182.332 135.108 183.241 134.633 184.22 134.367C186.938 133.753 189.523 132.653 191.85 131.119C194.86 129.028 197.586 126.556 199.96 123.764C200.489 123.037 201.064 122.394 201.022 121.445C200.897 118.624 203.167 116.681 203.715 114.091C203.877 113.33 204.784 113.197 205.485 113.243C206.731 113.343 207.898 113.889 208.773 114.781C209.438 115.615 210.358 116.207 211.393 116.467C214.668 117.137 217.902 117.994 221.079 119.035C222.091 119.343 223.158 119.427 224.205 119.28C227.461 118.57 230.927 118.979 233.867 117.416C237.738 116.651 241.296 114.759 244.096 111.979C244.94 111.081 245.937 110.34 247.04 109.789C248.603 109.188 249.936 108.109 250.849 106.705C251.762 105.301 252.209 103.645 252.125 101.973C252.177 100.751 252.616 99.5474 252.706 98.3229C253.018 94.0703 252.282 90.2934 248.077 87.9967C246.908 87.2154 245.803 86.3416 244.774 85.3838C244.225 84.9553 243.668 84.3023 243.057 84.229C237.89 83.284 232.563 83.8014 227.675 85.7227C227.234 85.955 226.727 86.0307 226.238 85.9375C226.071 85.877 225.918 85.7835 225.788 85.6625C225.657 85.5414 225.553 85.3954 225.481 85.2332C225.408 85.0709 225.37 84.8957 225.367 84.718C225.364 84.5404 225.396 84.3639 225.463 84.1993C227.355 79.6895 224.077 77.0016 221.918 73.9313C221.854 73.8137 221.765 73.7113 221.658 73.6308C221.551 73.5503 221.428 73.4936 221.298 73.4646C221.167 73.4356 221.032 73.4348 220.901 73.4625C220.77 73.4901 220.646 73.5455 220.538 73.6248C220.315 73.8045 220.081 74.2407 220.149 74.4732C220.917 78.1195 220.509 81.9152 218.985 85.315C217.094 90.9473 213.871 95.2353 207.754 96.8289C205.097 97.7717 202.288 98.2137 199.47 98.1323Z" fill="#DEF1FD"/>
<path d="M89.2527 136.682C89.3427 136.702 89.436 136.698 89.5243 136.672C89.6125 136.646 89.6929 136.599 89.7581 136.534C89.8233 136.469 89.8713 136.389 89.8977 136.301C89.9241 136.213 89.928 136.119 89.9092 136.029C89.8048 135.161 89.5752 134.305 89.5077 133.436C89.4269 130.872 90.1609 128.348 91.6042 126.227C93.0475 124.106 95.1258 122.497 97.5406 121.631C101.436 122.173 103.068 120.39 102.816 116.572C102.784 116.083 103.178 115.58 103.278 115.064C103.492 113.652 104.131 112.339 105.108 111.298C106.086 110.257 107.356 109.538 108.752 109.236C114.467 107.766 120.125 106.824 125.098 111.493C126.362 112.422 127.509 113.501 128.515 114.704C128.832 115.14 129.28 115.462 129.793 115.624C130.306 115.785 130.858 115.778 131.366 115.603C132.938 115.344 134.399 114.631 135.57 113.552C136.761 112.262 138.083 111.101 139.516 110.086C141.157 108.783 142.713 107.374 144.172 105.869C146.676 103.159 148.859 100.169 150.677 96.9578C152.647 94.0676 153.878 90.7381 154.262 87.2612C154.861 82.005 154.244 76.6811 152.456 71.7018L150.447 65.1289C147.819 63.7624 147.049 60.7768 144.993 58.8909C141.916 56.0703 138.223 53.9005 135.879 50.2907C135.527 49.9089 135.084 49.6224 134.591 49.4578C133.002 48.7034 131.386 48.005 129.798 47.2485C126.084 45.4787 122.247 46.572 118.45 46.7309C116.684 48.661 114.613 48.1108 112.594 47.355C110.881 46.943 109.115 46.7983 107.358 46.926C106.487 46.8742 105.364 47.1275 105.181 48.0429C104.938 49.2602 106.187 49.241 106.98 49.3963C108.537 49.7007 110.112 49.9141 111.683 50.1495C114.846 50.5594 117.84 51.8136 120.351 53.7804C124.163 56.6331 127.232 60.3624 129.298 64.6526C131.174 68.4641 132.339 72.5858 132.736 76.8154C132.841 82.8907 130.597 88.7718 126.471 93.2321C125.759 94.3521 124.658 95.1688 123.379 95.5244C122.101 95.88 120.736 95.7493 119.548 95.1575C117.56 94.3802 115.374 94.2603 113.313 94.8153C110.564 95.4605 107.857 96.2682 105.205 97.2344C104.688 97.3553 104.211 97.608 103.821 97.9679C101.571 100.574 98.2554 102.382 97.6998 106.281C97.5126 107.142 97.0906 107.935 96.4806 108.572C95.5326 109.63 95.0358 111.017 95.0962 112.437C95.1059 113.153 94.8555 113.847 94.3915 114.392C93.9274 114.937 93.2813 115.295 92.5733 115.399C91.8939 115.589 91.2162 115.795 90.5548 116.04C89.134 116.546 87.8618 117.399 86.8536 118.521C85.8454 119.643 85.133 120.998 84.7809 122.465C84.1897 124.966 84.2475 127.577 84.9487 130.05C85.6498 132.522 86.9712 134.775 88.7873 136.594C88.8753 136.687 89.0938 136.675 89.2527 136.682Z" fill="#DEF1FD"/>
<path d="M164.101 101.841C164.593 102.851 164.391 104.729 166.088 104.371C167.088 104.159 167.019 102.577 167.002 101.554C166.917 99.6157 167.327 97.6881 168.194 95.9526C169.06 94.217 170.354 92.7308 171.954 91.634C173.069 90.7749 174.343 90.1445 175.703 89.7789C177.062 89.4133 178.481 89.3198 179.877 89.5037C181.285 89.509 182.669 89.8689 183.901 90.5502C185.133 91.2314 186.174 92.2121 186.928 93.4017C187.295 93.9919 187.764 94.5127 188.312 94.9403C188.504 95.1241 188.757 95.2306 189.022 95.239C189.288 95.2475 189.547 95.1574 189.75 94.9861C189.849 94.857 189.915 94.7058 189.943 94.5454C189.972 94.385 189.961 94.2202 189.911 94.065C188.526 91.3358 187.806 88.3172 187.811 85.2564C187.817 82.1956 188.547 79.1796 189.943 76.4556C191.023 74.0635 192.592 71.9239 194.548 70.1744C195.45 69.216 196.549 68.4652 197.77 67.9739C198.991 67.4826 200.304 67.2626 201.618 67.3291C201.795 67.3252 201.968 67.277 202.121 67.1888C202.275 67.1006 202.404 66.9754 202.496 66.8245C202.589 66.6737 202.642 66.502 202.651 66.3252C202.66 66.1485 202.624 65.9723 202.548 65.8128C202.453 65.5853 202.312 65.3807 202.132 65.2126C201.952 65.0444 201.739 64.9166 201.505 64.8378C200.815 64.7556 200.115 64.8211 199.451 65.0298C197.757 65.5039 196.097 66.0972 194.406 66.5837C193.273 66.9097 192.187 66.6563 191.792 65.4782C190.306 61.3132 187.573 57.7071 183.965 55.1502C182.876 54.3206 182.149 53.0669 180.487 53.0264C178.201 52.8156 175.904 53.2738 173.875 54.3453C173.693 54.5179 173.557 54.7329 173.479 54.9711C173.401 55.2092 173.384 55.4629 173.428 55.7096C173.69 56.3547 174.067 56.9468 174.541 57.4569C176.626 60.0715 178.11 63.113 178.888 66.3656C179.665 69.6182 179.718 73.0021 179.041 76.277C178.956 77.1666 178.593 78.0069 178.005 78.6794C177.417 79.3519 176.632 79.8225 175.762 80.0249C173.963 80.7203 172.243 81.6023 170.629 82.6566C166.93 84.3729 165.387 87.7793 163.956 91.1655C163.177 92.5661 162.742 94.132 162.688 95.7339C162.634 97.3357 162.962 98.9274 163.645 100.377C163.768 100.874 163.92 101.362 164.101 101.841Z" fill="#DEF1FD"/>
<path d="M114.166 150.871C116.249 148.872 118.826 147.465 121.634 146.794C122.503 146.686 123.314 146.298 123.942 145.688C125.139 144.48 126.559 143.516 128.123 142.849C130.29 141.357 132.196 139.517 133.765 137.405C135.492 135.3 137.562 133.237 136.29 129.9C135.816 128.655 138.588 126.974 139.734 127.939C142.181 129.594 144.936 130.739 147.835 131.304C149.863 131.841 151.918 132.269 153.992 132.587C154.841 132.764 156.063 132.722 156.455 133.26C158.126 135.554 160.405 135.055 162.656 135.025C164.926 135.165 167.201 135.182 169.473 135.078C175.629 134.321 182.063 134.453 187.231 130.066C188.17 129.264 189.26 128.658 190.437 128.283C192.702 127.441 194.794 126.193 196.609 124.598C197.522 124.065 198.317 123.352 198.945 122.503C199.574 121.653 200.024 120.685 200.267 119.656C200.631 118.477 201.228 117.383 202.022 116.438C202.594 115.752 202.887 114.876 202.845 113.984C202.804 113.091 202.429 112.247 201.796 111.617C201.64 111.441 201.824 110.967 201.875 110.314C203.02 109.966 204.229 109.889 205.409 110.089C206.588 110.289 207.705 110.76 208.671 111.466C210.586 112.673 212.777 113.374 215.037 113.5C216.239 113.661 217.417 113.964 218.548 114.402C220.849 115.078 223.304 115.011 225.565 114.211C226.138 113.833 226.78 113.574 227.454 113.449C228.128 113.323 228.82 113.333 229.49 113.479C232.486 113.824 235.511 113.161 238.089 111.596C241.119 109.572 244.461 108.123 247.393 105.885C251.145 103.314 253.908 99.5415 255.225 95.189C255.742 93.3219 256.484 92.8794 258.321 93.3025C259.989 93.8531 261.776 93.9359 263.488 93.5418C265.2 93.1476 266.771 92.2917 268.03 91.067C268.15 90.9369 268.301 90.8392 268.468 90.7829C269.263 90.6644 270.004 90.3083 270.593 89.7615C271.182 89.2146 271.592 88.5026 271.769 87.7186C271.926 85.9751 271.648 84.22 270.96 82.6102C269.909 80.2637 268.072 78.3578 265.766 77.2213C263.46 76.0849 260.829 75.7892 258.328 76.3853C255.848 77.1306 253.414 78.021 251.038 79.052C251.734 80.1722 252.17 81.0208 252.748 81.7589C253.375 82.342 253.969 82.9609 254.525 83.6124C254.994 84.3919 255.019 85.4654 254.027 85.8696C253.236 86.1171 252.39 86.1326 251.59 85.9141C251.198 85.8268 250.839 85.1911 250.639 84.7283C250.417 84.0541 250.007 83.4577 249.456 83.0098C248.905 82.562 248.238 82.2816 247.533 82.2018C245.629 81.9879 245.636 79.6746 244.201 79.0826C242.802 78.5054 241.001 79.2157 239.802 77.7466C239.64 77.5477 239.441 77.3835 239.214 77.2637C238.988 77.1439 238.74 77.0711 238.484 77.0495C234.168 77.2817 229.649 76.5621 225.745 79.5976C226.198 82.5475 225.937 85.5632 224.984 88.3912C224.895 88.6386 224.746 88.8598 224.55 89.0344C224.354 89.2091 224.117 89.3315 223.861 89.3906C223.606 89.4496 223.339 89.4432 223.086 89.3721C222.833 89.301 222.603 89.1674 222.415 88.9836C221.691 87.9973 220.433 86.7864 220.591 85.8803C221.155 82.6646 219.275 80.139 218.73 77.269C218.61 76.3695 218.54 75.464 218.522 74.5566C217.786 73.8408 217.054 73.0911 216.283 72.3844C210.957 67.5022 208.527 66.615 201.653 67.0479C201.146 67.0785 200.645 67.1779 200.165 67.3435C198.694 67.8613 197.198 68.3401 195.79 68.9997C194.465 69.4163 193.264 70.1548 192.294 71.1491C190.346 74.0698 187.22 76.0588 185.879 79.433C185.519 79.9949 185.088 80.5082 184.597 80.9605C183.81 79.4311 182.963 77.978 183.533 76.5954C184.448 74.374 184.677 71.6833 186.995 70.223C189.64 68.8165 192.047 67.0048 194.131 64.8539C194.341 64.5678 194.636 64.3563 194.975 64.2503C198.038 63.7381 200.757 62.0644 203.948 61.8564C207.251 61.8738 210.508 62.6285 213.482 64.0656C214.884 64.7986 216.324 65.4548 217.797 66.0313C218.377 66.1264 218.932 66.339 219.428 66.6559C219.923 66.9728 220.349 67.3874 220.678 67.8744C221.008 68.3614 221.235 68.9105 221.345 69.4882C221.455 70.0659 221.447 70.66 221.319 71.2341C222.726 72.4085 224.193 73.6332 225.514 74.7364C228.605 73.8963 231.769 73.3569 234.964 73.1255C238.109 73.3995 241.21 74.0474 244.202 75.0557C246.223 75.5944 248.155 76.468 250.157 77.2026C252.619 74.8212 255.793 73.3101 259.194 72.8993C261.264 72.5155 263.394 72.6148 265.419 73.1894C267.444 73.7639 269.308 74.7983 270.868 76.2119C272.101 77.3391 273.084 78.7124 273.754 80.243C274.424 81.7737 274.765 83.4276 274.756 85.0983C274.697 86.3175 274.366 87.5081 273.789 88.5838C272.941 90.317 271.858 91.9355 270.667 93.9517C266.963 95.3108 263.069 96.085 259.126 96.2465C258.028 97.3108 257.123 98.5582 256.451 99.9327C255.446 103.43 252.485 105.717 251.286 109.034C246.909 113.835 242.481 118.522 235.321 118.835C234.294 118.908 233.3 119.224 232.418 119.755C230.755 120.759 228.845 121.28 226.903 121.261C224.679 121.26 222.33 122.152 220.54 120.014C217.844 119.689 215.099 118.081 212.807 120.362C210.135 120.001 209.204 117.035 206.615 117.128C206.324 117.314 205.902 117.43 205.762 117.694C204.488 120.193 203.002 122.578 201.319 124.822C200.608 126.011 199.991 127.253 199.472 128.536C199.152 129.123 198.613 130.044 198.183 130.038C195.911 130.009 195.056 131.788 193.647 133C192.115 134.457 190.24 135.502 188.196 136.039C185.258 136.617 182.421 137.629 179.78 139.039C178.409 139.907 176.844 140.421 175.225 140.534C173.606 140.646 171.985 140.355 170.507 139.685C168.095 140.422 165.939 141.137 163.751 141.735C162.819 142.07 161.798 142.054 160.877 141.691C159.956 141.328 159.199 140.641 158.748 139.76C151.795 141.325 146.093 137.878 140.079 135.569C139.142 136.067 138.324 136.762 137.681 137.605C137.037 138.448 136.584 139.421 136.35 140.456C135.575 143.481 134.637 146.181 131.523 147.513C129.747 150.74 125.519 151.109 123.631 154.265C123.377 154.504 123.073 154.684 122.74 154.791C122.408 154.898 122.056 154.929 121.709 154.883C119.235 154.736 116.795 155.514 114.863 157.066C113.809 157.709 112.716 158.285 111.59 158.792C107.506 160.786 102.931 161.549 98.4209 160.99C96.3292 160.849 94.2286 161.056 92.2049 161.603C89.9932 162.132 88.0922 162.338 86.4523 160.37C86.2186 160.11 85.9318 159.904 85.6112 159.764C85.2907 159.625 84.9439 159.556 84.5945 159.562C79.9329 160.251 76.1433 157.867 71.9277 155.981C69.8704 159.079 66.4476 160.771 64.2831 163.801C63.6479 164.396 62.8528 164.794 61.9952 164.944C59.9937 165.556 57.9606 166.065 55.9378 166.607C53.4766 167.555 50.906 168.189 48.2866 168.494C45.6719 168.197 43.1057 167.568 40.6498 166.622C36.3735 165.474 33.073 162.297 28.8905 160.951C27.6132 157.777 23.7814 156.06 23.9668 151.988C24.0453 150.269 23.3215 148.525 23.2902 146.786C23.0029 143.301 23.733 139.808 25.3918 136.73C26.6125 134.694 28.5283 132.875 28.4001 130.184C30.7272 128.175 31.9161 125.053 35.4377 124.141C38.0402 123.653 40.5048 122.603 42.659 121.064C43.7779 120.55 45.0292 120.4 46.238 120.632C47.8 120.707 49.3494 121.048 51.3649 121.342C51.1404 120.397 51.1926 119.632 50.8367 119.282C48.9639 117.443 46.988 115.709 45.2061 114.082C44.7612 112.02 44.3158 110.18 43.9794 108.32C43.7322 106.954 43.583 105.565 43.4725 104.179C43.4804 102.783 43.4058 101.387 43.249 99.9993C42.9986 98.8049 43.2133 97.56 43.8494 96.5185C45.1445 94.0784 46.1444 91.4832 47.3468 88.9909C47.759 88.236 48.2695 87.5391 48.8649 86.9184C49.7817 85.8703 50.828 84.9309 51.6988 83.8483C52.7639 82.2088 54.3961 81.0195 56.2831 80.508C57.2982 80.227 58.2542 79.7649 59.1051 79.144C59.5846 78.7564 60.1439 78.4795 60.743 78.3333C61.342 78.187 61.9659 78.1749 62.5702 78.2978C63.0579 78.4905 63.5928 78.5299 64.1035 78.411C65.3515 77.8165 66.5183 76.3536 67.9138 76.993C70.7779 78.3051 74.2568 77.5079 76.8165 79.7323C77.004 79.895 77.4732 79.7335 78.0813 79.7138C77.7805 78.7227 77.7083 77.6763 77.8701 76.6533C78.0319 75.6303 78.4235 74.6572 79.0154 73.8073C78.0458 71.1935 79.9679 69.2135 80.4004 66.9469C80.9432 64.5548 82.1032 62.3466 83.7649 60.5423C85.932 57.3684 88.6788 54.6323 91.861 52.4777C94.2215 51.1751 97.111 50.3915 98.569 47.6718C99.0071 47.1212 99.6158 46.7317 100.299 46.5648C103.263 45.5504 106.248 44.5925 109.237 43.6542C111.445 42.9991 113.798 43.0148 115.998 43.6995C117.666 44.2605 119.431 44.4756 121.185 44.3318C126.389 43.5392 130.725 46.1651 135.357 47.5815C136.283 48.0776 137.081 48.7813 137.688 49.6375C138.293 50.2699 138.755 51.0779 139.821 50.8403C141.27 50.5174 142.116 51.4448 142.982 52.3384C144.675 54.0874 146.367 55.8384 148.245 57.7809C150.333 56.3805 152.314 54.9912 154.355 53.698C156.975 51.8873 160.069 50.8867 163.252 50.8205C165.187 50.9194 167.125 50.8658 169.051 50.6602C172.879 50.0036 176.817 50.5824 180.295 52.3127C185.294 54.4908 189.416 58.2859 191.999 63.0885C192.194 63.4998 191.987 64.102 191.953 64.9686C191.041 64.8003 190.08 64.8891 189.487 64.464C187.646 63.1421 185.939 61.6314 184.189 60.1824C181.224 57.7268 178.206 55.5483 174.006 55.7704C172.249 55.8513 170.496 55.549 168.868 54.8845C166.102 53.7315 163.692 54.7573 161.227 55.587C159.381 56.1846 157.585 56.9289 155.858 57.8127C153.581 58.8261 151.761 60.6493 150.751 62.9286C151.886 65.6318 153.267 68.6536 154.425 71.7581C155.515 74.6774 156.945 77.6366 155.205 80.8283C155.489 84.2665 153.389 87.1473 152.957 90.4212C152.856 91.0021 152.716 91.5755 152.537 92.1373C150.72 92.2501 150.204 91.583 150.259 90.5953C150.387 88.3205 150.571 86.0448 150.851 83.7841C151.037 82.0494 150.937 80.296 150.553 78.5939C150.249 76.1079 150.152 73.6008 150.262 71.0986C148.915 68.4805 147.474 65.6789 145.883 62.587C141.84 60.3208 138.386 57.1377 135.797 53.2935C133.378 52.5867 130.664 52.4951 128.53 50.6643C127.027 49.3755 125.019 50.6737 123.461 50.0079C121.868 49.3272 120.49 47.8753 118.652 48.1258C116.044 48.5062 113.461 49.0493 110.921 49.7521C109.254 50.1967 107.786 51.4122 105.882 50.8577C105.71 50.8243 105.532 50.8318 105.363 50.8797C105.194 50.9276 105.039 51.0145 104.91 51.1334C103.399 53.0745 100.81 52.9828 99.0032 54.3225C96.3314 56.0154 93.8301 57.9637 91.5346 60.1398C88.7623 63.2049 85.6025 66.2741 85.5915 70.9702C85.6035 71.6732 85.3968 72.3625 85.0002 72.9429C82.1552 76.5477 83.3011 80.6029 83.5978 84.5583C83.6498 85.2512 84.1796 85.9881 84.0398 86.6026C83.0536 90.9383 85.1184 94.4505 86.9431 98.045C87.0047 98.1662 86.8975 98.3732 86.8122 98.8727C86.1599 98.8798 85.5217 98.6823 84.9874 98.308C84.4531 97.9336 84.0495 97.4012 83.8333 96.7856C81.8583 93.0634 79.9364 89.3126 77.9525 85.4928C75.2548 84.2229 72.314 83.5529 69.3326 83.5289C66.3512 83.5049 63.4 84.1275 60.6824 85.3538C59.7569 85.8394 58.9302 86.4936 58.2447 87.2826C55.9346 89.6848 53.6907 92.1506 51.3097 94.7122C51.7076 97.1088 51.2422 99.5688 49.9963 101.654C48.4909 104.254 47.6754 107.115 50.5784 109.704C52.0094 110.981 51.3772 113.399 52.8002 114.877C53.3806 115.479 53.5329 116.601 54.181 117.013C57.7125 119.259 60.9286 121.998 65.1054 123.237C66.9853 123.621 68.8929 123.854 70.8099 123.933C71.9146 124.063 72.9453 124.555 73.7411 125.333C72.6898 125.764 71.578 126.03 70.4453 126.121C64.6915 125.653 58.8932 125.74 53.1777 124.73C52.1471 124.486 51.0629 124.635 50.1356 125.146C48.5849 126.284 46.7375 126.949 44.8169 127.059C44.1108 127.099 43.4208 127.285 42.7911 127.607C42.1614 127.929 41.6058 128.379 41.16 128.928C40.4342 129.669 39.5142 130.191 38.5054 130.434C36.0273 131.377 33.8103 132.899 32.0389 134.872C30.2418 136.66 28.71 138.605 29.5091 141.405C29.9584 142.98 28.4046 144.24 29.0934 146.008C29.5894 148.044 30.4398 149.977 31.6058 151.718C32.407 152.659 33.086 153.698 33.6265 154.81C35.7687 159.197 39.832 161.276 43.8156 163.47C45.2296 164.213 46.855 164.45 48.4223 164.143C50.5029 163.829 52.6072 163.658 54.7064 163.487C56.6539 163.432 58.5181 162.684 59.964 161.379C61.8806 159.585 64.8255 159.377 66.6313 157.312C67.3147 156.531 68.0766 155.818 68.9071 154.967C68.5135 152.749 65.9211 150.435 69.1749 148.289C69.991 148.329 70.7959 148.496 71.5602 148.784C74.6143 150.469 77.4963 152.507 81.2848 152.159C81.8396 152.108 82.5073 152.794 83.0519 153.228C83.5206 153.613 84.065 153.895 84.6498 154.055C85.2346 154.215 85.8466 154.25 86.4458 154.158C88.3777 154.045 90.3161 154.158 92.2218 154.495C95.015 154.897 97.8626 154.673 100.559 153.84C101.867 153.322 103.259 153.051 104.666 153.039C105.449 153.153 106.247 153.078 106.995 152.822C107.743 152.566 108.419 152.135 108.967 151.566C109.628 150.881 110.502 150.439 111.445 150.313C112.389 150.187 113.348 150.383 114.166 150.871Z" fill="#324C76"/>
</svg>
