<svg width="309" height="306" viewBox="0 0 309 306" fill="none" xmlns="http://www.w3.org/2000/svg">
<path d="M247.541 278.951C249.29 276.466 250.117 273.448 249.879 270.419C249.641 267.389 248.353 264.538 246.237 262.357C243.982 260.287 241.607 258.352 239.125 256.561C238.407 257.945 237.809 258.9 237.407 259.933C237.194 260.922 236.924 261.899 236.598 262.858C236.089 263.805 235.013 264.479 234.004 263.715C233.274 263.06 232.748 262.21 232.486 261.265C232.339 260.815 232.768 260.066 233.117 259.583C233.668 258.951 234.026 258.174 234.149 257.344C234.271 256.514 234.153 255.667 233.808 254.902C232.876 252.839 235.231 251.448 234.965 249.633C234.707 247.863 232.897 246.462 233.666 244.357C233.771 244.073 233.817 243.77 233.802 243.468C233.787 243.166 233.711 242.87 233.578 242.597C230.736 238.352 228.738 233.327 223.297 231.193C220.573 233.435 217.352 234.991 213.903 235.73C213.598 235.79 213.283 235.772 212.988 235.678C212.692 235.584 212.424 235.418 212.21 235.193C211.995 234.969 211.841 234.694 211.76 234.394C211.68 234.095 211.676 233.779 211.75 233.478C212.314 232.146 212.785 230.137 213.801 229.751C217.409 228.381 218.839 224.946 221.426 222.66C222.267 221.994 223.145 221.377 224.056 220.81C224.339 219.63 224.659 218.434 224.912 217.224C226.655 208.864 226.089 205.859 221.498 199.137C221.161 198.64 220.758 198.192 220.299 197.804C218.885 196.622 217.495 195.392 215.975 194.359C214.751 193.264 213.276 192.49 211.68 192.105C207.536 191.89 203.627 189.915 199.39 190.591C198.601 190.564 197.819 190.436 197.063 190.21C198.142 188.487 199.107 186.749 200.856 186.493C203.665 186.082 206.537 184.689 209.421 186.163C211.621 187.39 213.901 188.469 216.245 189.392C216.476 187.46 216.742 185.623 216.777 185.217C217.008 182.547 217.512 179.901 217.927 177.248C218.632 172.753 219.022 168.371 216.26 164.238C215.117 162.502 214.366 160.538 214.057 158.482C213.558 154.976 211.061 153.147 208.729 151.143C207.007 149.629 205.167 148.254 203.226 147.033C200.821 145.331 197.87 144.583 194.945 144.934C192.883 147.719 190.647 150.947 188.192 153.999C185.885 156.869 183.742 160.109 179.448 160.268C176.126 162.633 171.931 162.239 168.344 163.777C167.693 164.026 167.026 164.23 166.347 164.387C165.135 162.609 165.501 161.681 166.538 161.141C168.926 159.897 171.35 158.71 173.816 157.63C175.691 156.772 177.412 155.61 178.909 154.193C181.251 152.383 183.739 150.77 186.348 149.37C188.195 146.421 190.171 143.265 192.351 139.781C192.213 134.306 193.361 128.874 195.703 123.922C194.96 121.038 193.414 118.224 193.985 114.951C194.388 112.646 191.856 111.389 191.591 109.405C191.321 107.375 191.964 105.099 190.6 103.382C188.638 100.962 186.527 98.6662 184.278 96.5092C182.82 95.0851 180.699 94.3272 180.112 92.0577C180.042 91.8624 179.927 91.6863 179.777 91.5437C179.626 91.4011 179.444 91.296 179.245 91.2369C176.361 90.8742 174.89 88.1877 172.438 87.1612C169.105 85.4691 165.615 84.1043 162.018 83.086C157.229 82.1206 152.203 80.7638 147.425 83.5886C146.718 84.025 145.893 84.2313 145.064 84.1789C139.683 83.4655 136.255 87.0786 132.416 89.7685C131.743 90.24 131.314 91.223 130.606 91.4523C125.605 93.0685 123.284 97.2872 120.734 101.312C120.648 101.448 120.373 101.464 119.814 101.679C119.412 101.02 119.228 100.252 119.285 99.4836C119.343 98.7147 119.64 97.9832 120.135 97.3919C122.724 93.1373 125.374 88.9196 128.057 84.5972C127.718 81.0896 126.623 77.6972 124.847 74.6536C123.071 71.6101 120.656 68.9878 117.769 66.9673C116.717 66.3201 115.553 65.8751 114.338 65.6552C110.502 64.7588 106.642 63.9681 102.601 63.0959C100.407 64.9475 97.6263 65.9603 94.7551 65.954C91.2041 65.9946 87.805 66.8936 86.9278 71.4067C86.4953 73.6314 83.6561 74.4497 83.0146 76.7874C82.7531 77.7407 81.7051 78.573 81.6778 79.4802C81.5283 84.4251 80.6873 89.3465 81.9511 94.3382C82.6961 96.4801 83.6117 98.5587 84.6892 100.554C85.2238 101.755 85.3461 103.099 85.0369 104.377C83.9637 103.57 83.0222 102.601 82.246 101.505C79.2472 95.3762 75.657 89.5382 73.2318 83.1212C72.8567 81.9272 72.0513 80.9152 70.9721 80.2817C68.8789 79.3937 67.0881 77.9179 65.8164 76.033C65.3496 75.3397 64.7432 74.7514 64.036 74.306C63.3288 73.8605 62.5363 73.5677 61.7094 73.4461C60.5176 73.1567 59.4315 72.5373 58.5757 71.6589C56.121 69.7108 53.2365 68.3771 50.1623 67.769C47.2598 67.0231 44.3583 66.6412 41.9965 69.1439C40.668 70.5518 38.4497 69.7336 37.0686 71.5018C35.2999 73.2351 33.8499 75.2661 32.785 77.5019C32.3124 78.8843 31.6671 80.2014 30.8645 81.4221C27.7008 86.2477 28.0415 91.6321 28.2183 97.0042C28.3173 98.8894 29.0578 100.684 30.317 102.09C31.8925 104.015 33.337 106.049 34.7782 108.079C36.0101 110.024 37.8952 111.467 40.095 112.148C43.0745 113.012 45.0641 115.878 48.253 116.466C49.4594 116.688 50.6433 117.032 52.0094 117.362C54.0255 115.623 54.8109 111.592 58.9558 113.601C59.4089 114.454 59.7252 115.373 59.8934 116.324C60.026 120.444 59.6959 124.603 62.3372 128.242C62.7239 128.775 62.4301 129.867 62.318 130.683C62.2101 131.391 62.2528 132.115 62.4434 132.806C62.6339 133.496 62.968 134.139 63.4238 134.692C64.7046 136.587 65.7601 138.625 66.5687 140.764C67.8471 143.845 69.7942 146.603 72.2691 148.838C73.585 149.855 74.7018 151.106 75.5635 152.528C75.9203 153.392 76.4777 154.158 77.1896 154.763C77.9015 155.369 78.7473 155.795 79.6571 156.009C80.7524 156.267 81.7284 156.887 82.4265 157.77C83.1247 158.652 83.504 159.745 83.5029 160.87C86.791 161.78 89.7775 163.549 92.1549 165.996C92.7887 166.814 93.6727 167.403 94.6722 167.673C96.6221 168.16 98.459 169.021 100.081 170.207C102.906 171.507 105.926 172.333 109.019 172.651C112.201 173.135 115.547 173.992 118.169 170.685C119.147 169.451 122.529 171.253 122.241 172.999C122.037 176.485 122.538 179.975 123.715 183.262C124.394 185.647 125.2 187.993 126.129 190.292C126.462 191.262 127.243 192.477 126.932 193.201C125.612 196.284 127.495 198.298 128.884 200.567C130.113 202.957 131.47 205.28 132.948 207.525C137.433 213.322 141.185 219.94 148.763 222.54C150.145 223.01 151.419 223.752 152.511 224.721C154.734 226.514 157.266 227.885 159.982 228.766C161.075 229.372 162.279 229.749 163.522 229.875C164.764 230.001 166.02 229.873 167.212 229.498C168.63 229.156 170.102 229.102 171.541 229.339C172.584 229.505 173.651 229.274 174.532 228.693C175.413 228.111 176.045 227.221 176.303 226.197C176.388 225.933 176.98 225.833 177.674 225.491C178.719 226.444 179.528 227.626 180.037 228.945C180.546 230.264 180.742 231.683 180.608 233.09C180.537 235.766 181.149 238.414 182.386 240.788C182.948 242.105 183.352 243.485 183.589 244.898C184.292 247.645 185.843 250.099 188.021 251.913C188.751 252.267 189.402 252.762 189.936 253.371C190.471 253.98 190.879 254.69 191.135 255.459C192.594 258.711 195.094 261.384 198.241 263.058C202.127 264.914 205.617 267.434 209.663 269.062C214.54 271.321 220.041 271.85 225.259 270.56C227.468 269.958 228.365 270.444 229.045 272.566C229.493 274.593 230.488 276.459 231.922 277.96C233.356 279.461 235.175 280.541 237.179 281.08C237.384 281.123 237.574 281.218 237.733 281.354C238.333 282.09 239.142 282.627 240.053 282.896C240.965 283.164 241.936 283.15 242.839 282.857C244.705 281.963 246.32 280.621 247.541 278.951Z" fill="white"/>
<path d="M188.598 215.691C188.072 214.559 187.422 213.49 186.66 212.502C186.165 211.688 185.368 211.103 184.444 210.873C183.519 210.644 182.541 210.789 181.723 211.276C179.969 211.963 178.906 213.76 176.886 214.01C170.907 215 164.777 214.493 159.042 212.534C150.128 208.983 142.125 203.474 135.624 196.416C133.671 194.518 132.322 192.085 131.749 189.422C130.884 184.879 127.251 181.519 126.468 176.911C126.319 176.038 125.237 175.293 124.516 174.557C124.264 174.225 123.92 173.976 123.526 173.842C123.132 173.708 122.707 173.695 122.306 173.805C121.915 173.959 121.577 174.221 121.331 174.561C121.085 174.902 120.941 175.305 120.918 175.724C120.628 177.946 121.234 180.365 119.303 182.195C117.041 184.341 117.648 186.754 118.92 189.057C120.316 190.885 121.185 193.061 121.434 195.348C121.271 198.858 123.659 201.65 123.763 204.918C123.901 209.266 127.724 210.481 129.916 213.078C130.228 213.355 130.499 213.673 130.724 214.024C132.398 217.901 136.042 219.029 139.551 220.211C140.682 220.608 141.713 221.245 142.574 222.078C144.84 224.469 147.519 226.431 150.482 227.869C154.424 229.664 158.582 230.941 162.853 231.667C163.911 231.765 164.911 231.962 165.85 231.346C168.64 229.515 171.986 230.647 174.948 229.641C175.819 229.345 176.501 230.187 176.878 230.928C177.529 232.253 177.679 233.769 177.302 235.196C176.856 236.375 176.809 237.668 177.17 238.876C178.468 242.608 179.55 246.412 180.41 250.268C180.709 251.482 181.268 252.616 182.049 253.592C184.737 256.471 186.415 260.24 189.778 262.283C192.893 265.753 196.963 268.226 201.479 269.392C202.901 269.707 204.256 270.273 205.482 271.061C207.036 272.285 208.938 272.988 210.915 273.068C212.893 273.148 214.845 272.602 216.494 271.507C217.767 270.821 219.254 270.541 220.553 269.892C225.062 267.641 228.455 264.613 228.249 258.954C228.337 257.295 228.557 255.644 228.909 254.02C229.013 253.204 229.34 252.243 229.045 251.578C226.885 245.759 223.143 240.658 218.239 236.853C217.736 236.545 217.354 236.076 217.153 235.522C217.113 235.316 217.116 235.104 217.16 234.899C217.205 234.693 217.29 234.499 217.411 234.328C217.532 234.156 217.687 234.011 217.865 233.901C218.044 233.79 218.243 233.717 218.451 233.685C224.175 232.884 224.927 227.931 226.742 223.882C226.823 223.746 226.873 223.595 226.89 223.437C226.908 223.28 226.891 223.121 226.842 222.971C226.792 222.82 226.711 222.682 226.604 222.566C226.497 222.45 226.366 222.358 226.22 222.296C225.903 222.177 225.319 222.204 225.123 222.413C221.883 225.395 217.78 227.273 213.405 227.777C206.541 229.258 200.238 228.572 194.925 223.32C192.362 221.19 190.217 218.603 188.598 215.691Z" fill="#DEF1FD"/>
<path d="M82.8729 126.99C82.9076 127.093 82.9675 127.186 83.0472 127.26C83.1268 127.334 83.2237 127.387 83.329 127.414C83.4343 127.441 83.5447 127.442 83.6501 127.415C83.7556 127.389 83.8528 127.336 83.9329 127.263C84.752 126.633 85.4827 125.883 86.3253 125.289C88.8818 123.658 91.8892 122.88 94.9157 123.066C97.9421 123.251 100.832 124.391 103.17 126.322C104.972 130.606 107.769 131.188 111.495 128.627C111.973 128.298 112.722 128.395 113.306 128.185C114.87 127.55 116.59 127.405 118.238 127.77C119.886 128.135 121.384 128.991 122.534 130.227C127.479 135.146 131.852 140.325 130.111 148.197C129.931 150.043 129.528 151.86 128.913 153.609C128.662 154.193 128.605 154.843 128.75 155.462C128.896 156.081 129.236 156.637 129.721 157.048C130.933 158.488 132.54 159.542 134.344 160.08C136.373 160.511 138.352 161.153 140.248 161.996C142.563 162.877 144.934 163.606 147.344 164.18C151.609 165.088 155.966 165.499 160.326 165.407C164.452 165.664 168.578 164.904 172.343 163.194C178.045 160.629 183.081 156.786 187.06 151.963L192.525 145.953C192.327 142.458 194.895 139.873 195.569 136.644C196.577 131.815 196.551 126.753 198.803 122.192C198.978 121.603 199.002 120.98 198.872 120.38C198.678 118.31 198.412 116.247 198.222 114.176C197.777 109.334 194.349 106.096 191.894 102.334C188.867 101.705 188.176 99.2691 187.724 96.7609C187.108 94.772 186.189 92.8903 184.998 91.1825C184.525 90.2665 183.589 89.2779 182.549 89.6454C181.165 90.1339 181.939 91.3903 182.26 92.2904C182.891 94.0562 183.626 95.7855 184.335 97.5229C185.828 100.984 186.362 104.783 185.88 108.522C185.284 114.118 183.348 119.488 180.237 124.178C177.498 128.386 174.014 132.059 169.956 135.016C163.847 138.792 156.517 140.063 149.494 138.565C147.926 138.518 146.431 137.892 145.298 136.808C144.164 135.724 143.473 134.258 143.357 132.694C142.946 130.204 141.748 127.911 139.939 126.152C137.624 123.749 135.168 121.487 132.585 119.375C132.15 118.923 131.605 118.591 131.004 118.412C126.998 117.7 123.158 115.424 118.862 117.213C117.873 117.543 116.813 117.594 115.798 117.358C114.15 117.034 112.441 117.367 111.035 118.286C110.314 118.728 109.456 118.893 108.623 118.751C107.789 118.608 107.035 118.168 106.502 117.511C105.898 116.936 105.28 116.372 104.632 115.848C103.26 114.71 101.625 113.932 99.8764 113.585C98.1277 113.238 96.32 113.333 94.6172 113.861C91.719 114.771 89.1013 116.407 87.0125 118.612C84.9237 120.818 83.4331 123.52 82.6822 126.464C82.64 126.61 82.7842 126.825 82.8729 126.99Z" fill="#DEF1FD"/>
<path d="M163.472 181.995C162.742 183.105 160.712 184.034 162.101 185.542C162.92 186.43 164.486 185.405 165.515 184.769C167.433 183.513 169.639 182.766 171.925 182.598C174.212 182.43 176.503 182.847 178.584 183.81C180.13 184.425 181.54 185.338 182.733 186.499C183.925 187.66 184.876 189.044 185.533 190.573C186.377 192.007 186.848 193.63 186.9 195.294C186.952 196.957 186.584 198.607 185.83 200.091C185.453 200.821 185.206 201.612 185.103 202.427C185.032 202.733 185.077 203.054 185.228 203.328C185.38 203.603 185.628 203.812 185.925 203.915C186.116 203.937 186.309 203.914 186.489 203.845C186.669 203.777 186.83 203.667 186.958 203.523C188.894 200.467 191.526 197.913 194.639 196.07C197.752 194.227 201.258 193.148 204.868 192.921C207.951 192.574 211.072 192.876 214.031 193.807C215.549 194.144 216.976 194.808 218.212 195.751C219.448 196.695 220.465 197.896 221.191 199.271C221.302 199.448 221.455 199.595 221.637 199.698C221.82 199.801 222.025 199.856 222.234 199.859C222.443 199.862 222.65 199.812 222.835 199.714C223.02 199.617 223.177 199.474 223.293 199.3C223.467 199.067 223.59 198.8 223.652 198.515C223.714 198.231 223.715 197.937 223.654 197.652C223.321 196.901 222.831 196.229 222.218 195.681C220.714 194.246 219.109 192.918 217.593 191.494C216.578 190.54 216.18 189.284 217.138 188.17C220.472 184.145 222.485 179.191 222.904 173.982C223.09 172.374 223.924 170.878 222.961 169.165C221.796 166.716 219.943 164.659 217.629 163.244C217.344 163.163 217.043 163.155 216.754 163.22C216.465 163.284 216.197 163.42 215.973 163.613C215.475 164.269 215.102 165.01 214.87 165.8C213.472 169.497 211.278 172.841 208.444 175.596C205.609 178.35 202.202 180.447 198.466 181.736C197.511 182.187 196.438 182.327 195.4 182.135C194.361 181.943 193.409 181.43 192.678 180.668C190.885 179.261 188.951 178.046 186.905 177.043C182.927 174.321 178.535 174.811 174.23 175.401C172.336 175.456 170.483 175.96 168.823 176.872C167.163 177.785 165.744 179.079 164.683 180.649C164.253 181.073 163.849 181.523 163.472 181.995Z" fill="#DEF1FD"/>
<path d="M83.5023 160.87C86.7904 161.78 89.7768 163.549 92.1543 165.995C92.7881 166.814 93.6721 167.403 94.6718 167.673C96.6217 168.16 98.4587 169.02 100.081 170.207C102.906 171.507 105.925 172.333 109.019 172.651C112.2 173.134 115.547 173.992 118.169 170.685C119.147 169.451 122.529 171.252 122.24 172.999C122.037 176.484 122.538 179.975 123.714 183.262C124.394 185.646 125.2 187.993 126.129 190.292C126.462 191.262 127.242 192.477 126.932 193.201C125.611 196.284 127.494 198.298 128.884 200.567C130.113 202.957 131.469 205.28 132.947 207.525C137.433 213.322 141.184 219.939 148.762 222.54C150.145 223.01 151.419 223.751 152.511 224.72C154.733 226.514 157.265 227.884 159.982 228.765C161.074 229.371 162.278 229.748 163.521 229.874C164.764 230 166.019 229.872 167.211 229.498C168.629 229.156 170.101 229.101 171.54 229.338C172.583 229.504 173.65 229.274 174.532 228.692C175.413 228.111 176.045 227.22 176.302 226.196C176.388 225.932 176.98 225.832 177.674 225.491C178.718 226.443 179.527 227.626 180.036 228.944C180.546 230.263 180.741 231.682 180.608 233.09C180.537 235.765 181.149 238.414 182.385 240.787C182.947 242.105 183.351 243.485 183.589 244.898C184.292 247.644 185.843 250.099 188.021 251.913C188.75 252.266 189.401 252.762 189.936 253.371C190.471 253.98 190.878 254.69 191.134 255.459C192.594 258.71 195.094 261.384 198.24 263.058C202.126 264.914 205.617 267.434 209.662 269.062C214.539 271.321 220.04 271.849 225.258 270.56C227.467 269.958 228.365 270.444 229.044 272.566C229.492 274.593 230.487 276.459 231.921 277.96C233.356 279.461 235.174 280.54 237.179 281.08C237.383 281.123 237.574 281.217 237.732 281.354C238.332 282.09 239.141 282.627 240.053 282.895C240.964 283.164 241.935 283.15 242.839 282.857C244.704 281.963 246.32 280.621 247.54 278.95C249.29 276.465 250.116 273.448 249.878 270.418C249.64 267.389 248.352 264.538 246.236 262.357C243.981 260.287 241.607 258.352 239.124 256.56C238.407 257.944 237.808 258.9 237.407 259.932C237.193 260.922 236.923 261.899 236.597 262.858C236.088 263.805 235.013 264.478 234.003 263.715C233.274 263.06 232.747 262.21 232.486 261.265C232.338 260.815 232.767 260.066 233.116 259.583C233.668 258.951 234.026 258.173 234.148 257.343C234.271 256.514 234.152 255.666 233.808 254.901C232.876 252.839 235.23 251.448 234.965 249.633C234.706 247.863 232.897 246.462 233.666 244.356C233.77 244.072 233.816 243.77 233.801 243.468C233.786 243.165 233.71 242.869 233.578 242.597C230.736 238.352 228.738 233.326 223.296 231.193C220.573 233.435 217.351 234.991 213.902 235.729C213.598 235.789 213.283 235.771 212.987 235.678C212.691 235.584 212.424 235.417 212.209 235.193C211.995 234.968 211.84 234.694 211.76 234.394C211.679 234.094 211.676 233.779 211.749 233.477C212.314 232.146 212.784 230.137 213.801 229.751C217.408 228.381 218.839 224.946 221.426 222.659C222.267 221.994 223.145 221.376 224.056 220.81C224.339 219.63 224.659 218.434 224.911 217.224C226.654 208.863 226.089 205.859 221.497 199.137C221.16 198.64 220.757 198.192 220.299 197.804C218.884 196.622 217.495 195.391 215.974 194.359C214.751 193.264 213.275 192.49 211.679 192.105C207.535 191.89 203.627 189.915 199.389 190.59C198.601 190.563 197.819 190.436 197.063 190.21C198.141 188.487 199.106 186.748 200.855 186.493C203.665 186.081 206.537 184.689 209.42 186.162C212.446 187.999 215.741 189.352 219.185 190.17C219.602 190.21 219.995 190.383 220.307 190.662C222.677 193.465 226.019 195.217 228.158 198.333C230.135 201.699 231.335 205.465 231.671 209.354C231.773 211.221 231.976 213.081 232.28 214.925C232.533 215.572 232.653 216.264 232.63 216.959C232.607 217.654 232.443 218.336 232.147 218.965C231.851 219.594 231.43 220.157 230.91 220.617C230.39 221.078 229.781 221.428 229.121 221.646C228.777 223.784 228.419 226.014 228.096 228.023C230.816 230.655 233.275 233.545 235.439 236.65C237.06 240.011 238.274 243.553 239.057 247.202C239.73 249.581 240.009 252.071 240.471 254.548C244.378 255.612 247.83 257.924 250.301 261.132C251.941 263.002 253.126 265.227 253.765 267.631C254.404 270.035 254.48 272.554 253.985 274.993C253.585 276.926 252.783 278.754 251.632 280.359C250.482 281.964 249.007 283.309 247.305 284.309C246.03 284.985 244.621 285.368 243.18 285.432C240.906 285.616 238.608 285.493 235.84 285.501C232.222 282.558 229.085 279.07 226.54 275.162C224.795 274.688 222.981 274.522 221.179 274.67C217.018 275.76 212.907 274.133 208.813 274.918C201.292 273.371 193.856 271.702 189.214 264.617C188.52 263.618 187.599 262.798 186.526 262.223C184.502 261.139 182.82 259.514 181.666 257.529C180.324 255.269 177.999 253.421 179.09 250.312C177.792 247.376 177.768 243.616 174.067 242.665C172.82 239.732 175.271 236.995 173.613 234.421C173.248 234.237 172.876 233.879 172.523 233.896C169.215 234.111 165.894 234.041 162.598 233.686C160.961 233.682 159.327 233.805 157.709 234.053C156.92 234.082 155.659 234.09 155.404 233.65C154.062 231.325 151.739 231.53 149.656 230.83C147.251 230.153 145.057 228.88 143.277 227.127C140.915 224.491 138.175 222.22 135.146 220.389C133.436 219.52 131.97 218.24 130.877 216.663C129.785 215.087 129.102 213.263 128.89 211.357C126.685 209.352 124.657 207.593 122.728 205.731C121.825 204.987 121.224 203.94 121.037 202.785C120.85 201.63 121.091 200.447 121.713 199.456C115.924 193.336 115.983 185.462 114.697 177.957C113.626 177.306 112.426 176.895 111.181 176.75C109.935 176.606 108.673 176.732 107.481 177.12C103.939 178.159 100.629 178.837 97.3957 176.477C93.0442 176.621 90.1162 172.549 85.7695 172.537C85.3728 172.423 85.0065 172.222 84.6971 171.949C84.3877 171.676 84.1431 171.337 83.9809 170.958C82.6366 168.355 80.3725 166.345 77.6289 165.319C76.3393 164.637 75.0935 163.874 73.8987 163.037C69.4068 160.092 65.8681 155.904 63.7134 150.984C62.5934 148.774 61.1141 146.765 59.3359 145.04C57.4629 143.112 56.1062 141.304 57.1148 138.45C57.2378 138.056 57.2746 137.64 57.2227 137.23C57.1708 136.82 57.0315 136.426 56.8141 136.075C53.2989 131.755 53.4331 126.464 52.8036 121.043C48.413 120.824 44.6275 118.368 40.2416 117.998C39.2531 117.713 38.3694 117.145 37.6989 116.364C35.8684 114.7 34.123 112.942 32.351 111.214C29.9022 109.286 27.7057 107.057 25.8131 104.58C24.5363 101.744 23.6257 98.7571 23.1033 95.691C21.6875 90.6529 22.9223 85.381 21.7638 80.319C24.2177 77.1042 23.6483 72.1742 27.8968 69.9039C29.691 68.9453 31.026 67.1566 32.7734 66.075C36.1407 63.6786 40.1308 62.3107 44.2599 62.1371C47.0649 62.1482 50.0705 62.9959 52.727 61.2407C56.1733 62.3919 60.0628 61.7147 63.1166 64.7415C65.1835 67.0912 67.7389 68.961 70.6039 70.22C71.801 71.0468 72.7098 72.2271 73.2035 73.5957C74.071 75.2277 74.6596 77.0081 75.5783 79.2332C76.4031 78.4343 77.2118 78.0254 77.3521 77.4527C78.0897 74.4392 78.6585 71.3845 79.2349 68.5919C81.0616 66.8944 82.6619 65.3308 84.3482 63.866C85.5876 62.7895 86.9088 61.799 88.2499 60.85C89.6734 60.0148 91.0462 59.0961 92.3613 58.0989C93.4236 57.1233 94.8181 56.5896 96.2603 56.6069C99.5216 56.4492 102.762 55.8978 106.02 55.6144C107.036 55.5773 108.053 55.6751 109.043 55.9053C110.661 56.2038 112.248 56.6995 113.873 56.9304C116.182 57.0225 118.376 57.9626 120.035 59.5709C120.934 60.4325 121.981 61.1248 123.125 61.6143C123.809 61.8674 124.428 62.2685 124.938 62.7888C125.449 63.309 125.838 63.9356 126.078 64.6238C126.176 65.2357 126.459 65.8029 126.889 66.25C128.246 67.1589 130.437 67.461 130.63 69.2649C131.027 72.9672 133.938 76.0203 133.223 79.9642C133.171 80.253 133.619 80.6321 134.006 81.238C134.831 80.3339 135.851 79.6286 136.988 79.1752C138.125 78.7218 139.35 78.532 140.571 78.6203C142.641 76.0566 145.813 76.8138 148.377 75.8845C151.136 74.9913 154.08 74.8364 156.916 75.4352C161.45 75.7202 165.888 76.8586 169.999 78.7905C172.748 80.4022 175.289 82.8646 178.932 82.7036C179.757 82.8161 180.52 83.1994 181.102 83.7931C183.923 86.1921 186.698 88.6455 189.457 91.1162C191.456 92.964 192.861 95.3642 193.493 98.0121C193.931 100.046 194.778 101.969 195.983 103.664C199.931 108.472 199.882 114.464 201.24 120.026C201.295 121.265 201.062 122.501 200.559 123.636C200.282 124.632 199.74 125.589 200.625 126.529C201.828 127.806 201.397 129.226 201.011 130.644C200.257 133.422 199.5 136.197 198.661 139.279C201.344 140.554 203.952 141.728 206.498 143.021C209.92 144.589 212.805 147.128 214.795 150.323C215.862 152.347 217.088 154.285 218.46 156.117C221.439 159.61 223.229 163.961 223.571 168.539C224.377 174.933 223.01 181.413 219.69 186.937C219.39 187.384 218.653 187.537 217.752 188.026C217.373 186.998 216.702 186.075 216.776 185.216C217.007 182.547 217.511 179.9 217.927 177.248C218.631 172.752 219.022 168.371 216.26 164.237C215.117 162.501 214.365 160.538 214.057 158.482C213.558 154.975 211.061 153.147 208.729 151.143C207.007 149.628 205.167 148.254 203.226 147.033C200.821 145.331 197.869 144.583 194.944 144.934C192.883 147.719 190.646 150.946 188.192 153.999C185.884 156.869 183.741 160.109 179.448 160.268C176.126 162.633 171.931 162.239 168.344 163.777C167.693 164.025 167.026 164.229 166.347 164.387C165.135 162.609 165.501 161.681 166.538 161.141C168.926 159.897 171.349 158.71 173.815 157.63C175.69 156.771 177.411 155.61 178.909 154.193C181.251 152.382 183.739 150.769 186.348 149.37C188.194 146.421 190.17 143.264 192.351 139.781C192.212 134.305 193.36 128.873 195.703 123.922C194.96 121.037 193.414 118.224 193.985 114.95C194.387 112.646 191.855 111.389 191.591 109.404C191.321 107.375 191.964 105.098 190.599 103.382C188.637 100.961 186.526 98.6659 184.278 96.509C182.82 95.0846 180.698 94.3268 180.112 92.0574C180.042 91.8622 179.927 91.6862 179.776 91.5436C179.626 91.401 179.444 91.2958 179.245 91.2364C176.36 90.8737 174.89 88.1875 172.438 87.161C169.104 85.4688 165.614 84.1041 162.017 83.0859C157.229 82.1203 152.202 80.7634 147.425 83.5882C146.718 84.0248 145.893 84.2312 145.063 84.1787C139.683 83.465 136.255 87.0782 132.415 89.7683C131.743 90.2395 131.314 91.2228 130.605 91.4518C125.605 93.0682 123.283 97.287 120.733 101.311C120.647 101.447 120.372 101.463 119.813 101.678C119.412 101.02 119.227 100.252 119.285 99.4833C119.343 98.7144 119.64 97.9828 120.135 97.3915C122.724 93.137 125.374 88.9194 128.057 84.597C127.718 81.0893 126.623 77.6969 124.847 74.6533C123.071 71.6098 120.656 68.9874 117.769 66.9669C116.717 66.3198 115.553 65.8749 114.337 65.655C110.501 64.7586 106.641 63.9678 102.601 63.0957C100.406 64.9472 97.6257 65.9599 94.7544 65.9535C91.2038 65.9941 87.8045 66.8934 86.9272 71.4063C86.4947 73.6309 83.6555 74.4492 83.014 76.787C82.7526 77.7405 81.7047 78.5727 81.6774 79.48C81.5276 84.4246 80.6869 89.3462 81.9506 94.3379C82.6957 96.4797 83.6112 98.5583 84.6886 100.554C85.2234 101.755 85.3457 103.099 85.0364 104.377C83.9632 103.57 83.0217 102.601 82.2455 101.505C79.2467 95.376 75.6564 89.5377 73.2311 83.1208C72.8561 81.9268 72.0507 80.9148 70.9714 80.2813C68.8784 79.3933 67.0876 77.9176 65.816 76.0328C65.3493 75.3394 64.7429 74.7511 64.0356 74.3056C63.3284 73.8602 62.5359 73.5673 61.7089 73.4459C60.5172 73.1563 59.4312 72.5369 58.5752 71.6587C56.1205 69.7105 53.2359 68.3768 50.1616 67.7686C47.2594 67.0228 44.358 66.6411 41.9961 69.1437C40.6675 70.5512 38.4493 69.7333 37.0682 71.5012C35.2993 73.2346 33.8493 75.2657 32.7845 77.5017C32.3122 78.8841 31.6668 80.2012 30.8638 81.4217C27.7004 86.2474 28.0409 91.6317 28.2177 97.0038C28.3167 98.889 29.0573 100.684 30.3166 102.09C31.892 104.014 33.3365 106.049 34.7778 108.079C36.0096 110.024 37.8947 111.467 40.0946 112.147C43.0739 113.012 45.0636 115.878 48.2524 116.466C49.459 116.688 50.6429 117.032 52.0088 117.362C54.025 115.622 54.8102 111.591 58.9554 113.601C59.4084 114.454 59.7247 115.373 59.893 116.323C60.0255 120.444 59.6953 124.603 62.3367 128.242C62.7235 128.774 62.4297 129.867 62.3176 130.683C62.2096 131.391 62.2523 132.114 62.4428 132.805C62.6333 133.496 62.9674 134.139 63.4231 134.692C64.7041 136.587 65.7596 138.625 66.5682 140.764C67.8466 143.845 69.7937 146.602 72.2687 148.838C73.5845 149.855 74.7013 151.106 75.5629 152.528C75.9196 153.392 76.4771 154.158 77.1889 154.763C77.9008 155.368 78.7467 155.795 79.6565 156.008C80.7518 156.266 81.7277 156.887 82.4259 157.769C83.124 158.652 83.5034 159.745 83.5023 160.87Z" fill="#324C76"/>
</svg>
