<svg width="584" height="351" viewBox="0 0 584 351" fill="none" xmlns="http://www.w3.org/2000/svg">
<path d="M468.808 125.836C475.639 129.059 483.421 129.509 489.953 133.9C498.06 139.351 507.12 143.477 512.496 152.255C513.029 152.919 513.653 153.505 514.348 153.996C521.302 160.206 524.921 168.484 528.319 176.851C529.153 178.906 528.893 181.42 529.784 183.437C531.406 187.673 532.402 192.123 532.74 196.646C533.433 201.982 534.497 207.272 535.519 212.558C535.646 213.214 536.507 213.728 537.054 214.337C537.545 213.756 538.133 213.386 538.155 212.984C538.55 205.95 538.875 198.913 539.228 191.62C540.555 191.48 541.894 191.54 543.203 191.796C546.415 193.48 549.846 194.709 553.396 195.449C554.151 195.499 554.871 196.249 555.584 196.71C556.081 196.99 556.536 197.336 556.94 197.739C562.051 203.575 568.866 214.307 565.809 225.525C564.642 229.004 562.823 232.229 560.45 235.027C556.526 241.412 550.884 246.564 544.17 249.893C537.456 253.222 529.94 254.594 522.483 253.853C520.096 253.731 517.728 253.254 515.006 252.894C516.202 249.081 517.194 245.918 518.156 242.849C517.299 242.435 516.62 241.864 516.357 242.016C511.361 244.549 506.609 247.538 502.162 250.945C496.543 255.709 491.702 262.133 483.478 263.206C482.099 263.601 480.865 264.389 479.928 265.475C475.085 269.83 469.279 272.975 462.986 274.653C456.619 276.65 450.603 279.958 443.546 279.173C441.833 278.976 440.1 279.308 438.58 280.124C433.577 283.124 427.363 281.233 422.459 284.367C420.951 283.662 419.272 283.4 417.62 283.613C415.968 283.826 414.411 284.504 413.131 285.569C412.704 285.934 411.513 285.334 410.669 285.291C408.163 285.164 405.653 285.059 403.144 285.008C400.594 284.957 398.034 285.117 395.494 284.948C383.549 284.154 372.222 280.469 360.796 277.305C357.409 276.77 354.249 275.267 351.697 272.978C348.654 271.271 345.212 270.403 341.724 270.462C344.97 278.366 353.708 279.096 359.57 283.659C340.819 300.548 307.25 302.446 289.292 290.66C291.649 288.189 294.016 285.823 296.254 283.341C300.99 278.086 305.7 272.805 310.321 267.448C310.618 267.194 310.847 266.871 310.988 266.506C311.128 266.141 311.176 265.747 311.126 265.36C311.076 264.972 310.93 264.603 310.702 264.286C310.474 263.969 310.17 263.714 309.818 263.543C308.499 264.428 307.245 265.406 306.064 266.47C300.144 272.523 294.393 278.743 288.401 284.723C284.273 289.398 279.252 293.199 273.632 295.903C269.435 297.603 265.396 299.537 261.351 301.52C257.719 303.745 253.605 305.061 249.357 305.358C248.055 305.344 246.776 306.428 245.429 306.802C242.986 307.48 240.522 308.119 238.03 308.57C228.476 310.303 218.851 308.379 209.263 308.993C207.563 308.909 205.888 308.547 204.305 307.92C201.86 307.222 199.399 306.533 197.028 305.623C188.564 302.374 180.064 299.201 171.714 295.674C164.428 292.596 157.359 289.006 150.122 285.805C149.164 285.18 148.021 284.899 146.882 285.009C145.743 285.118 144.675 285.612 143.854 286.408C144.096 287.533 144.6 288.586 145.324 289.48C146.048 290.374 146.973 291.085 148.023 291.555C151.243 293.199 154.644 294.483 157.943 295.977C163.203 297.855 168.113 300.598 172.471 304.092C169.184 308.934 164.421 312.585 158.891 314.501C152.048 317.13 145.04 319.309 137.913 321.025C134.948 321.945 131.847 322.351 128.745 322.225C124.286 321.379 119.695 321.55 115.311 322.723C113.949 323.221 112.043 322.415 110.431 322.02C100.363 319.549 90.3117 317.009 80.2438 314.535C79.4656 314.174 78.6031 314.035 77.7508 314.132C76.8986 314.229 76.0898 314.56 75.413 315.087C75.3192 316.06 75.5826 317.034 76.1541 317.827C76.7255 318.62 77.566 319.178 78.5185 319.396C79.8835 319.704 81.4297 319.777 80.8566 321.845C74.7559 324.097 68.4235 323.095 62.3127 322.616C57.801 322.261 55.0737 317.57 51.2734 315.199C50.2216 314.363 49.3425 313.33 48.6851 312.157C47.7551 310.815 47.0414 309.323 46.1141 307.979C44.0107 305.323 42.0694 302.541 40.3011 299.651C38.5997 296.398 37.2121 292.742 40.1979 289.334C40.7954 288.731 41.2434 287.997 41.5059 287.189C41.7684 286.382 41.8382 285.525 41.7095 284.686C41.5989 282.4 42.3052 280.15 43.7021 278.338C44.7106 276.644 45.5543 274.857 46.2216 273.002C47.0491 270.582 48.4007 268.374 50.1798 266.536C51.959 264.698 54.1219 263.276 56.5141 262.37C58.5963 261.482 60.7887 260.856 62.9078 260.049C72.3859 256.441 72.3923 256.395 81.4827 258.681C82.8613 258.975 84.1362 259.632 85.175 260.585C90.5362 266.22 97.7807 267.436 104.803 269.141C105.655 269.347 106.726 268.65 107.711 268.367C107.485 267.678 107.48 267.275 107.295 267.158C105.921 266.183 104.467 265.324 102.95 264.591C92.7546 260.366 86.4292 252.16 80.7963 243.234C74.961 233.482 71.7293 222.395 71.4111 211.035C70.9399 202.715 70.5106 194.066 74.2138 186.015C75.1025 183.326 76.5529 180.858 78.4687 178.774C79.5793 177.877 80.3108 176.595 80.517 175.182C80.396 173.191 80.9026 171.211 81.9655 169.522C83.0285 167.833 84.5942 166.52 86.4424 165.768C87.8168 165.054 88.5869 163.186 89.6495 161.858C90.3385 160.997 90.8975 159.723 91.7939 159.394C92.9769 158.927 94.0514 158.221 94.9505 157.321C95.8496 156.421 96.5542 155.346 97.0207 154.162C97.8291 152.701 98.9831 151.459 100.382 150.547C104.561 147.66 108.986 145.123 113.104 142.157C116.569 139.663 119.707 136.685 124.473 137.483C132.382 133.893 140.805 133.52 149.312 133.098C153.82 132.616 158.363 133.62 162.249 135.957C165.36 138.412 168.875 140.307 172.635 141.558C183.034 143.716 189.106 152.117 197.298 157.403C204.908 165.736 211.749 174.74 217.74 184.304C217.906 184.6 218.703 184.541 219.708 184.754C220.498 182.4 220.368 179.834 219.343 177.572C217.538 172.221 214.689 167.28 210.962 163.037C207.609 159.601 204.579 155.841 201.52 152.13C197.483 147.03 192.511 142.746 186.87 139.507C182.014 137.114 177.929 133.404 175.08 128.801C177.618 125.614 180.949 123.152 184.74 121.66C188.53 120.168 192.646 119.699 196.675 120.3C197.942 124.447 195.868 128.915 199.468 132.954C200.051 131.805 200.513 130.599 200.848 129.355C201.236 126.26 201.555 123.147 201.7 120.031C201.822 115.337 202.935 110.721 204.965 106.487C206.995 102.253 209.897 98.4952 213.48 95.4608C217.203 92.2457 221.682 90.03 226.496 89.022C231.311 88.014 236.302 88.2468 241.002 89.6986C240.833 94.2295 240.67 98.6946 240.5 103.159C240.396 103.616 240.387 104.089 240.474 104.549C240.561 105.009 240.741 105.446 241.004 105.833C241.267 106.221 241.607 106.55 242.002 106.8C242.398 107.05 242.841 107.217 243.303 107.288C244.268 106.083 245.037 104.734 245.585 103.291C246.798 95.5672 248.587 87.9447 250.934 80.487C252.159 77.2119 254.481 74.746 255.562 71.5311C257.575 65.5399 262.472 61.9927 267.23 58.4927C269.535 56.4415 272.372 55.0819 275.415 54.57C279.154 54.4835 280.794 51.7023 283.525 50.4829C284.32 50.1871 285.149 49.9969 285.993 49.9173C290.448 49.2339 294.886 48.2809 299.368 47.9731C307.826 47.3925 316.395 46.6161 323.977 51.8725C324.74 52.229 325.529 52.5259 326.338 52.7605C333.567 55.908 340.351 59.9908 346.517 64.9043C350.674 69.061 354.513 73.524 358.002 78.2556C360.968 82.4653 365.037 85.7769 369.761 87.827C369.991 81.5837 365.61 77.8498 362.923 73.086C364.261 71.9452 365.179 70.5243 366.351 70.2691C372.866 68.8516 377.994 62.9084 385.4 64.4342C385.884 64.534 386.473 64.1485 387.007 63.9698C398.263 60.1989 408.581 63.2432 418.563 68.4098C420.824 69.5797 422.825 71.2457 425.069 72.4521C430.646 75.8527 434.98 80.9588 437.429 87.0145C439.803 92.1255 441.683 97.4519 443.043 102.921C444.232 107.582 444.996 112.342 445.324 117.142C445.408 120.791 445.24 124.441 444.822 128.067C444.584 131.968 445.656 135.868 444.083 139.815C443.393 141.547 444.687 143.607 447.693 144.396C450.694 138.941 451.09 132.712 452.176 126.707C457.594 123.026 463.306 126.408 468.808 125.836ZM358.895 110.859C360.101 110.466 361.887 112.353 363.416 112.37C369.799 112.443 374.052 117.433 379.705 119.101C384.61 124.77 392.073 128.218 394.398 136.148C394.772 137.525 395.455 138.798 396.395 139.872C397.435 140.826 398.227 142.018 398.705 143.346C399.182 144.674 399.33 146.098 399.136 147.496C398.96 148.913 399.156 150.351 399.704 151.669C400.252 152.987 401.134 154.14 402.262 155.015C403.118 155.77 403.777 156.721 404.186 157.787C404.594 158.852 404.739 160.001 404.608 161.134C404.405 162.691 404.531 164.272 404.979 165.776C405.427 167.281 406.186 168.674 407.207 169.866C409.007 171.833 408.233 174.141 408.111 176.366C407.739 183.146 410.722 188.741 414.083 194.663C415.136 193.794 416.115 193.392 416.271 192.78C416.855 190.885 417.158 188.915 417.172 186.933C417.137 179.868 416.642 172.813 415.689 165.812C413.817 156.447 410.756 147.36 406.581 138.771C402.075 128.884 394.825 121.771 387.045 114.798C376.515 105.36 363.571 103.231 350.196 102.277C349.646 102.138 349.076 102.102 348.513 102.17C341.942 104.492 335.088 103.094 328.392 103.744C319.37 105.222 310.804 108.739 303.345 114.028C302.581 113.45 301.429 112.983 300.926 112.132C300.003 110.065 298.454 108.34 296.498 107.2C294.542 106.06 292.278 105.563 290.024 105.78C288.031 105.719 286.078 105.194 284.323 104.246C279.253 102.425 273.8 101.939 268.489 102.835C266.776 102.871 265.111 103.406 263.697 104.375C260.234 107.425 255.252 107.141 251.835 110.669C249.214 113.986 247.087 117.666 245.521 121.594C244.237 123.976 241.805 125.9 241.87 129.675C242.627 129.344 243.333 128.908 243.967 128.38C247.22 124.466 250.965 120.989 255.109 118.036C258.542 115.548 262.52 113.917 266.71 113.278C273.529 111.965 280.285 113.427 287.014 114.002C290.012 114.804 292.859 116.092 295.44 117.815C294.409 120.924 292.679 123.756 290.385 126.093C285.264 130.981 281.854 137.388 280.66 144.366C279.731 147.924 278.609 151.429 277.3 154.865C277.297 155.386 277.426 155.899 277.677 156.356C277.927 156.812 278.289 157.198 278.73 157.476C279.251 157.624 279.799 157.657 280.335 157.573C280.871 157.489 281.382 157.289 281.833 156.988C282.64 156.212 283.255 155.258 283.628 154.203C285.265 150.896 286.82 147.549 288.456 144.242C288.955 143.234 289.437 141.658 290.223 141.447C294.692 140.245 295.636 136.059 297.88 132.979C298.268 132.22 298.835 131.567 299.531 131.075C300.227 130.583 301.032 130.268 301.876 130.156C302.158 130.148 302.434 130.079 302.686 129.952C302.937 129.825 303.158 129.645 303.331 129.423C306.215 122.35 315.149 123.282 318.996 117.529C322.588 115.925 326.396 114.861 330.298 114.369C333.666 114.283 336.939 113.228 339.723 111.33C340.955 110.635 342.22 110 343.78 109.173C349.117 110.252 353.698 112.55 358.895 110.859Z" fill="white"/>
<path d="M359.867 73.8504C360.122 72.8234 360.62 72.5136 361.492 73.3008C364.694 73.3749 365.118 69.0447 368.361 69.0343C370.611 68.8136 372.694 67.7472 374.188 66.0506C375.781 64.9214 377.472 63.937 379.24 63.1093C379.917 62.5933 380.731 62.2899 381.58 62.2374C382.429 62.1849 383.274 62.3858 384.009 62.8146C385.503 63.595 387.138 64.0679 388.818 64.2052C390.497 64.3425 392.188 64.1414 393.788 63.6139C395.727 63.2926 397.663 62.9504 399.6 62.6178C399.809 62.1486 400.135 61.7417 400.549 61.4371C400.962 61.1325 401.447 60.9407 401.957 60.8804C402.466 60.8202 402.983 60.8936 403.456 61.0935C403.928 61.2934 404.341 61.6129 404.653 62.0206C405.212 62.0514 405.773 62.0332 406.33 61.9663C406.972 62.3256 407.614 62.684 408.255 63.0413C409.363 62.8009 410.512 62.825 411.608 63.1119C412.705 63.3988 413.718 63.9402 414.567 64.6923C414.865 64.989 415.097 65.3461 415.247 65.7397C415.396 66.1332 415.46 66.5543 415.434 66.9745C415.407 67.3947 415.291 67.8044 415.094 68.1761C414.896 68.5479 414.622 68.8732 414.288 69.1302C411.446 70.9685 408.043 71.7377 404.687 71.3006C402.162 70.7628 399.537 70.9274 397.099 71.7765C394.661 72.6255 392.502 74.1266 390.858 76.1166C387.234 80.7532 383.856 85.3825 384.7 92.1936C385.81 100.617 388.625 108.725 392.973 116.024C394.665 118.963 396.386 121.891 397.926 124.91C398.552 126.136 399.198 128.342 398.019 128.802C395.968 129.604 395.245 127.404 394.953 125.825C394.168 121.581 389.809 119.92 388.293 116.251C386.524 116.381 384.668 117.12 383.14 115.52C382.42 115.562 381.699 115.457 381.02 115.21C380.342 114.964 379.721 114.581 379.196 114.086C378.587 113.78 378.085 113.297 377.757 112.699C377.429 112.102 377.291 111.419 377.36 110.74C375.124 103.555 373.496 96.1689 369.322 89.6889C365.994 84.5228 363.006 79.1379 359.867 73.8504Z" fill="#DEF1FD"/>
<path d="M197.56 143.677C196.74 136.222 194.727 128.848 196.055 121.25C196.5 120.689 196.944 120.129 197.388 119.569C198.166 116.297 197.703 112.654 199.717 109.765C202.968 104.812 205.906 99.6601 208.512 94.3387C208.94 93.6039 209.51 92.962 210.189 92.4505C210.868 91.939 211.643 91.5682 212.467 91.36C213.45 89.5974 214.587 89.5127 215.872 91.0487C216.149 93.4795 217.157 95.981 215.184 98.1951C214.689 98.7968 214.194 99.3985 213.698 100C212.548 101.724 211.917 103.741 211.881 105.813C211.846 107.885 212.407 109.923 213.497 111.685C214.343 113.118 215.049 114.629 215.606 116.197C215.734 116.81 215.989 117.39 216.355 117.899C216.721 118.407 217.189 118.834 217.729 119.15C218.27 119.467 218.871 119.667 219.493 119.737C220.116 119.807 220.746 119.746 221.343 119.557C225.44 118.778 229.647 118.767 233.748 119.523C234.14 118.821 234.718 118.239 235.417 117.841C236.116 117.443 236.91 117.244 237.715 117.265C240.393 117.08 242.954 116.098 245.07 114.446C244.236 111.19 243.074 108.028 241.601 105.007C240.573 103.311 239.984 101.385 239.889 99.4045C239.793 97.4236 240.193 95.4502 241.052 93.6629C243.088 88.7801 242.496 83.0665 246.121 78.6827C246.806 77.8543 246.208 75.9646 246.203 74.5648C246.663 73.9439 247.123 73.3229 247.583 72.702C248.284 72.266 248.949 71.7745 249.572 71.2323C252.456 67.5385 256.377 64.7897 260.832 63.3377C262.18 63.0333 262.662 61.3917 263.062 60.0488L264.546 58.2251C266.368 58.2836 268.173 57.8512 269.772 56.9733C271.371 56.0954 272.704 54.804 273.633 53.2344C274.365 52.0372 275.352 51.0159 276.523 50.2428C277.695 49.4696 279.022 48.9635 280.41 48.7604C280.875 47.8657 281.447 47.8031 282.123 48.5411C282.775 48.8208 283.317 49.3079 283.664 49.9268C284.011 50.5457 284.145 51.2619 284.044 51.9643C283.58 53.8664 282.876 55.7018 281.949 57.426C280.398 61.2567 277.479 64.8379 278.262 69.2589C278.698 73.4644 278.605 77.708 277.986 81.8904C277.715 83.0687 277.825 84.3027 278.302 85.4137C278.779 86.5247 279.597 87.4551 280.638 88.0701C284.349 90.8051 289.124 92.677 291.066 97.468C291.643 97.8868 292.22 98.3061 292.798 98.726C293.355 98.7614 293.914 98.7665 294.472 98.7412C295.123 99.1673 295.774 99.5927 296.425 100.018C298.243 100.976 300.06 101.935 301.879 102.895C302.541 103.231 303.203 103.567 303.864 103.901C308.246 103.434 311.833 106.073 315.709 107.31C320.375 109.132 325.425 109.746 330.392 109.096C331.044 109.465 331.695 109.833 332.347 110.2C333.634 112.232 333.608 113.628 332.274 114.002C323.433 114.985 314.502 114.8 305.709 113.453C304.922 113.185 304.227 112.656 303.452 112.341C301.639 111.605 299.803 110.925 297.976 110.221C297.31 109.837 296.645 109.453 295.981 109.069C294.003 109.039 292.093 108.345 290.557 107.099C289.03 105.837 287.099 105.17 285.119 105.221C283.926 105.349 282.733 105.478 281.541 105.608C279.821 107.285 277.555 108.286 275.157 108.428C272.759 108.571 270.39 107.845 268.483 106.384C267.872 105.813 267.133 105.396 266.328 105.17C265.523 104.943 264.676 104.913 263.857 105.082C261.204 105.894 258.636 106.963 256.189 108.272C253.923 109.578 255.623 112.547 254.311 114.41C254.15 114.637 254.001 114.874 253.847 115.106C252.949 118.889 252.472 119.119 248.986 117.451C247.831 117.636 246.676 117.821 245.521 118.006L245.521 118.005C244.732 119.792 243.076 119.954 241.441 120.172C240.745 121.647 240.177 123.179 239.742 124.751C239.479 126.668 238.469 128.403 236.932 129.578C236.425 130.161 235.919 130.743 235.412 131.325C229.794 135.461 223.912 139.37 223.341 147.351C223.238 148.803 221.906 149.643 220.943 150.67C219.168 152.252 217.794 154.231 216.932 156.447C216.071 158.663 215.746 161.051 215.986 163.416C216.129 164.535 215.958 165.673 215.492 166.701C215.027 167.729 214.285 168.607 213.349 169.238C212.905 170.145 212.335 170.231 211.64 169.496C209.312 168.508 209.609 165.451 207.635 164.275C203.407 161.755 203.019 157.513 202.452 153.313C200.532 153.541 198.618 153.835 196.691 153.971C195.538 154.052 194.205 153.605 194.057 152.443C193.556 148.512 190.037 148.451 187.566 147.037L187.84 146.675L187.567 147.034C186.912 147.121 186.246 147.058 185.618 146.85C184.991 146.643 184.418 146.296 183.944 145.836L184.073 145.665C184.652 144.967 185.231 144.269 185.811 143.571C186.365 143.888 186.839 144.325 187.199 144.851C187.56 145.377 187.796 145.977 187.892 146.608C191.457 146.757 194.039 143.665 197.56 143.677Z" fill="#DEF1FD"/>
<path d="M545.785 193.137C544.976 192.751 544.481 191.992 545.094 191.218C545.691 190.463 546.559 190.719 547.134 191.415C547.44 191.878 547.693 192.374 547.888 192.894L547.398 193.522C546.848 193.451 546.307 193.322 545.785 193.137Z" fill="#B3E1EB"/>
<path d="M183.944 145.834C183.314 145.916 182.674 145.848 182.075 145.634C181.476 145.421 180.937 145.068 180.501 144.606C181.621 144.375 182.742 144.145 183.863 143.917C182.742 144.146 181.622 144.375 180.501 144.605C176.888 143.329 173.275 142.052 169.661 140.773C169.059 140.854 168.457 140.936 167.855 141.018C165.914 141.421 163.895 141.197 162.09 140.378C156.198 137.779 149.834 136.419 143.394 136.383C141.723 136.049 140 136.083 138.344 136.482C136.688 136.881 135.139 137.636 133.804 138.694C132.037 140.529 129.63 141.611 127.085 141.716C124.536 141.975 122.135 143.037 120.228 144.748C119.703 145.294 119.178 145.84 118.653 146.386C117.802 146.425 116.967 146.632 116.196 146.993C111.792 150.452 107.414 153.951 103.167 157.599C102.2 158.626 101.449 159.836 100.955 161.157C98.4153 166.485 95.7203 171.755 93.5321 177.227C91.9826 180.837 90.9632 184.651 90.5056 188.552C90.0157 196.446 90.4754 204.37 91.8751 212.154C92.0183 212.743 92.1613 213.331 92.3041 213.92C92.3807 216.737 93.4125 219.444 95.2302 221.597C96.2026 222.602 96.8534 223.873 97.0993 225.249C98.2034 229.605 100.474 233.578 103.667 236.74C106.126 239.703 108.492 242.744 110.899 245.751C111.447 246.145 111.995 246.54 112.544 246.936C114.895 247.771 117.157 248.838 119.296 250.123C124.156 253.802 130.056 255.848 136.15 255.97C136.809 256.353 137.469 256.736 138.128 257.118C138.695 257.119 139.263 257.121 139.832 257.125C140.469 257.512 141.106 257.899 141.742 258.285C148.192 257.295 154.509 259.049 160.903 259.227C161.508 259.613 162.112 259.997 162.717 260.381C163.846 260.224 164.977 260.069 166.108 259.916C166.432 259.337 166.915 258.862 167.499 258.547C168.083 258.232 168.745 258.09 169.407 258.137C172.721 257.537 176.034 256.936 179.345 256.334C179.881 255.792 180.418 255.251 180.955 254.711C185.165 254.207 189.091 252.325 192.122 249.36C192.645 248.801 193.169 248.242 193.692 247.683C195.558 246.049 197.469 244.464 199.271 242.762C199.942 242.257 200.395 241.516 200.54 240.689C200.685 239.862 200.51 239.011 200.051 238.308C199.569 237.635 199.219 236.877 199.019 236.074C198.943 235.688 198.947 235.291 199.032 234.906C199.116 234.522 199.279 234.159 199.51 233.841C199.845 233.637 200.225 233.519 200.616 233.496C201.007 233.472 201.399 233.545 201.756 233.707C205.065 235.675 208.28 237.804 211.527 239.879C212.144 240.335 212.761 240.791 213.378 241.246C215.835 244.073 219.117 246.058 222.762 246.922C223.413 247.339 224.063 247.756 224.713 248.172C230.121 251.566 236.753 252.595 241.685 256.934C242.138 257.267 242.679 257.46 243.24 257.488C249.017 258.02 254.706 259.816 260.598 258.733C261.262 259.139 261.926 259.545 262.59 259.95C268.262 262.117 273.75 260.532 279.114 258.838C281.218 258.068 283.364 257.419 285.542 256.895C295.529 255.316 305.125 251.851 313.818 246.686C315.952 245.322 318.214 244.16 320.418 242.905C320.937 242.36 321.456 241.814 321.976 241.269C327.19 238.715 331.631 234.821 334.845 229.985C337.815 226.085 341.047 222.391 344.517 218.928L345.959 217.089C348.065 214.26 349.821 211.187 351.188 207.936C352.019 205.355 353.641 203.101 355.825 201.493C356.36 200.627 356.943 200.674 357.562 201.404C358.652 204.87 356.962 207.942 356.219 211.163C355.52 214.192 356.634 215.851 359.816 216.51C360.923 216.599 362.037 216.547 363.13 216.355C364.924 216.113 366.766 215.476 368.348 216.995C374.693 216.817 380.938 215.369 386.714 212.739C387.249 212.183 387.784 211.627 388.319 211.072C390.319 210.952 392.203 210.091 393.601 208.656C394.726 207.369 396.185 206.417 397.816 205.906C398.1 205.36 398.518 204.896 399.032 204.557C399.545 204.218 400.136 204.015 400.749 203.968C400.943 203.442 401.22 202.95 401.57 202.512C406.168 198.787 409.563 193.786 411.326 188.137C411.547 187.333 413.047 186.882 413.955 186.268C414.882 184.645 415.998 184.511 417.301 185.846C419.028 186.733 419.227 188.424 419.698 190.076C420.619 193.798 422.63 197.161 425.473 199.733C428.317 202.304 431.863 203.968 435.658 204.511C440.14 205.113 444.69 204.954 449.119 204.041C449.783 204.4 450.446 204.759 451.109 205.116C452.237 204.946 453.366 204.777 454.495 204.61C454.815 204.047 455.279 203.58 455.839 203.255C456.4 202.931 457.036 202.762 457.684 202.766C458.53 202.637 459.393 202.832 460.102 203.312C460.811 203.792 461.312 204.521 461.508 205.354C462.13 208.72 463.776 211.812 466.219 214.209C472.061 218.573 478.191 222.812 486.232 221.005C486.826 221.381 487.421 221.758 488.017 222.135C489.714 221.942 491.412 221.751 493.111 221.563C494.202 219.528 496.188 219.588 498.082 219.434C500.451 218.938 502.891 218.886 505.279 219.28C507.403 219.672 509.591 219.534 511.649 218.879L513.153 217.169C515.041 216.003 517.012 214.979 519.051 214.104C524.027 212.357 528.564 209.548 532.344 205.871C532.804 205.559 533.312 205.323 533.847 205.172C534.937 203.541 536.068 203.542 537.239 205.087C537.198 206.445 537.718 208.427 537.021 209.053C533.863 211.886 533.654 215.868 532.342 219.418C530.839 222.257 533.496 223.004 534.851 224.406C535.419 224.331 535.988 224.255 536.556 224.179C536.803 223.521 537.255 222.96 537.845 222.577C538.435 222.195 539.132 222.012 539.833 222.056C541.816 221.868 543.69 221.061 545.189 219.749C546.688 218.436 547.736 216.686 548.184 214.744C548.924 212.057 550.024 209.483 551.454 207.09C552.21 206.045 552.581 204.771 552.506 203.484C552.431 202.197 551.914 200.975 551.042 200.024C549.236 198.247 547.971 195.993 547.394 193.525L547.886 192.894C548.438 192.802 548.996 192.749 549.556 192.734C555.186 192.946 555.569 193.221 556.93 198.581C557.408 200.461 557.407 202.519 559.314 203.718C559.996 203.65 560.676 203.582 561.356 203.513C562.717 203.157 564.111 202.942 565.516 202.872C570.114 203.101 572.524 205.135 572.319 209.675C572.3 215.85 571.431 221.994 569.737 227.933C569.517 228.904 569.025 229.791 568.318 230.492C567.612 231.193 566.72 231.678 565.748 231.891C564.37 232.191 563.085 232.824 562.007 233.734C560.929 234.644 560.09 235.804 559.562 237.113C558.855 238.808 557.772 240.32 556.395 241.535C555.018 242.75 553.382 243.635 551.612 244.124C549.933 244.341 548.364 245.079 547.127 246.235C545.89 247.392 545.048 248.907 544.719 250.568C544.405 251.808 543.686 252.908 542.677 253.695C541.668 254.481 540.426 254.91 539.146 254.912C538.03 255.04 536.932 255.321 535.825 255.532C534.897 257.249 533.793 257.314 532.53 255.881C531.384 256.029 530.238 256.175 529.091 256.321C528.18 258.132 527.057 258.238 525.735 256.739C518.782 257.163 518.731 257.183 516.198 250.653C515.999 249.829 515.494 249.112 514.785 248.646C514.077 248.18 513.218 248.001 512.383 248.146C510.713 248.353 509.074 248.809 507.422 249.155C506.966 249.748 506.511 250.342 506.054 250.935C504.248 255.609 501.864 259.509 495.98 259.509C494.197 259.509 493.263 261.401 491.866 262.293C486.785 265.54 483.092 271.226 476.094 271.212C475.201 271.21 474.354 272.559 473.397 273.135C472.252 273.932 470.998 274.56 469.675 275C464.786 276.247 460.25 278.754 455.067 278.976C453.092 279.095 451.238 279.966 449.886 281.412C448.37 282.882 446.427 283.832 444.336 284.126C442.245 284.421 440.115 284.043 438.252 283.049C437.647 283.13 437.042 283.212 436.438 283.294C434.801 284.856 432.719 285.871 430.481 286.199C428.243 286.527 425.958 286.153 423.941 285.127C422.06 284.288 419.959 283.382 418.301 284.565C414.93 286.973 411.248 285.708 407.722 286.134C407.618 288.096 406.906 289.451 404.646 288.733C403.359 288.243 402.103 287.673 400.888 287.024C399.22 287.134 397.551 287.242 395.882 287.348C395.72 287.138 395.525 286.955 395.305 286.807C395.525 286.955 395.72 287.138 395.882 287.348C395.225 287.439 394.568 287.53 393.913 287.621C392.265 288.073 390.506 287.871 389.004 287.057C388.154 286.337 387.101 285.899 385.991 285.804C380.525 286.431 374.713 284.167 369.574 287.731C368.8 288.089 367.956 288.268 367.103 288.256C365.966 288.321 364.876 288.735 363.981 289.44C363.086 290.145 362.429 291.108 362.099 292.199C361.928 292.968 361.58 293.686 361.082 294.297C360.585 294.907 359.952 295.393 359.233 295.716C358.515 296.039 357.731 296.19 356.945 296.157C356.158 296.124 355.389 295.908 354.701 295.525C353.868 295.37 353.016 295.336 352.174 295.425C351.579 295.518 350.984 295.611 350.389 295.703C347.585 296.152 344.782 296.601 341.978 297.051C340.875 299.184 338.827 299.073 336.88 299.198C329.699 300.655 322.329 300.93 315.059 300.012C304.702 299.26 294.303 299.274 283.948 300.054C283.324 300.262 282.655 300.294 282.013 300.148C281.372 300.001 280.782 299.682 280.31 299.224C276.923 299.607 273.535 299.989 270.145 300.369C265.273 300.173 261.329 303.567 256.589 303.874C252.194 304.675 247.8 305.477 243.407 306.279C242.865 306.8 242.321 307.321 241.777 307.841C240.983 308.13 239.921 308.187 239.439 308.746C238.266 310.344 236.615 311.53 234.726 312.13C232.836 312.731 230.804 312.717 228.923 312.089C225.845 311.333 222.594 311.807 219.86 313.41C219.08 314.011 218.185 314.447 217.231 314.69C216.276 314.933 215.282 314.978 214.31 314.823C213.337 314.668 212.406 314.316 211.575 313.788C210.743 313.261 210.028 312.569 209.473 311.755C209.133 311.369 208.473 311.266 207.961 311.032C207.305 310.628 206.65 310.224 205.994 309.822C204.032 309.859 202.124 309.177 200.63 307.905C200.047 307.303 199.342 306.832 198.562 306.524C197.782 306.217 196.945 306.079 196.108 306.121C191.705 306.776 187.209 305.963 183.315 303.807C180.899 303.168 178.381 303.006 175.903 303.33C175.672 304.043 175.225 304.666 174.623 305.114C174.022 305.561 173.296 305.81 172.547 305.826C172.686 307.769 172.322 309.715 171.49 311.476C170.64 313.799 168.875 315.563 166.471 314.733C162.637 313.409 160.178 315.972 157.197 317.132C156.026 320.704 155.565 320.893 152.236 319.165C150.032 319.399 147.828 319.632 145.625 319.866C144.95 319.979 144.275 320.093 143.601 320.207C141.352 320.44 139.117 320.803 136.909 321.293C134.215 322.038 131.659 323.274 128.979 324.083C125.701 325.073 123.373 321.98 120.109 321.936C114.485 321.792 108.878 321.254 103.329 320.325C99.7311 319.492 95.9501 320.07 92.7654 321.941C91.2826 322.774 89.6095 323.21 87.9087 323.205C83.6795 323.489 79.5513 324.624 75.7718 326.543C73.9908 328.7 73.704 328.661 72.1097 326.035C68.1748 325.87 64.2384 325.542 60.3057 325.584C57.7083 325.612 55.0674 325.963 53.2981 323.653C51.5569 321.378 48.1288 321.93 46.6482 318.818C45.245 315.869 42.5358 313.54 41.5635 310.224C36.6327 307.615 35.4148 302.572 33.1746 298.05C32.2043 296.502 31.6394 294.734 31.5321 292.91C31.4248 291.085 31.7785 289.263 32.5606 287.612C33.3933 285.789 33.5406 283.726 32.9757 281.803C32.6347 280.145 32.7509 278.425 33.3119 276.828C33.873 275.231 34.8577 273.816 36.1606 272.736C38.3268 270.367 41.7719 268.86 41.9709 264.846C42.0385 263.48 43.5298 262.532 44.985 262.189C46.9089 261.736 48.859 261.393 50.7975 261.003C51.3168 260.47 51.8363 259.936 52.356 259.403C55.1814 259.196 57.964 258.595 60.623 257.617C64.7717 255.778 69.2499 254.798 73.7876 254.735C75.729 254.319 77.709 253.633 79.3177 255.53C80.4272 255.469 81.5365 255.408 82.6456 255.348C82.4048 253.566 82.1638 251.784 81.9228 250.001C82.477 250.154 83.0112 250.373 83.5136 250.652C83.0113 250.373 82.4773 250.154 81.9232 250.001C81.5038 246.534 80.7191 243.54 76.7234 242.193C74.4893 241.44 71.7413 240.306 71.5525 237.224C71.1697 230.977 68.2841 225.369 67.1743 219.317C65.2784 218.393 65.1979 217.254 66.7749 215.921C66.8202 212.569 67.3561 209.242 68.3657 206.046C69.1307 204.553 69.5149 202.895 69.4844 201.218C69.4539 199.541 69.0094 197.897 68.1907 196.433C65.1736 190.019 67.0458 184.346 71.0342 179.102C73.5738 175.763 76.2923 172.561 78.9305 169.297C79.4428 168.687 79.9556 168.078 80.4689 167.469C86.7475 166.094 87.0052 165.842 87.8248 160.21C87.8345 159.928 87.8242 159.645 87.7942 159.364C87.7508 157.803 88.1818 156.265 89.0302 154.953C89.8787 153.641 91.1048 152.618 92.5468 152.017C95.385 150.266 97.9514 148.108 100.164 145.613C103.98 142.072 107.28 137.347 112.611 135.919C119.573 134.054 126.313 130.737 133.86 131.834C134.304 130.996 134.865 130.894 135.55 131.569C140.071 130.999 144.594 130.431 149.117 129.866C151.855 127.322 152.326 127.374 154.446 130.457C161.609 131.494 168.282 134.747 175.589 135.143C176.152 133.728 177.027 132.857 178.648 133.573C180.038 134.131 181.229 135.091 182.071 136.329C182.914 137.567 183.369 139.027 183.378 140.524C183.546 141.647 183.713 142.77 183.88 143.893C184.524 143.786 185.168 143.679 185.81 143.571C185.229 144.27 184.65 144.968 184.073 145.664L183.944 145.834Z" fill="#DEF1FD"/>
<path d="M384.618 55.1345C385.688 54.7244 386.847 54.5991 387.98 54.7707C396.57 55.6063 405.503 53.4535 413.716 57.6865C414.257 57.872 414.835 57.9265 415.401 57.8454C420.804 57.6593 424.083 61.591 427.893 64.3909C431.722 67.2042 436.588 68.7953 438.9 73.4652C439.15 73.9682 439.705 74.3542 439.848 74.8696C441.366 78.5268 443.529 81.8807 446.236 84.7705C448.478 87.9049 450.819 91.1747 449.907 95.6085C449.866 97.2829 450.119 98.9517 450.655 100.539C450.908 103.054 451.391 105.542 452.098 107.969C453.516 111.696 451.806 115.668 453.248 119.86C455.897 119.811 458.415 119.565 460.9 119.757C467.396 120.258 473.948 120.555 480.34 121.701C484.993 122.74 489.534 124.229 493.898 126.146C498.413 127.81 502.8 129.804 507.022 132.112C512.006 134.807 516.148 138.827 518.992 143.727C520.659 146.971 522.715 150 525.115 152.746C529.879 157.95 531.012 164.755 533.86 170.741C535.924 175.078 535.863 180.427 536.747 185.313C538.015 185.439 538.847 185.526 539.679 185.603C551.788 186.716 562.052 190.956 568.653 201.975C570.372 204.222 572.342 206.266 574.524 208.067C574.637 209.367 574.683 210.775 574.892 212.158C576.326 221.642 575.888 230.686 569.973 238.911C568.433 241.602 566.238 243.86 563.593 245.477C561.991 246.079 560.558 247.059 559.417 248.335C556.616 252.542 551.874 253.129 547.866 255.056C546.36 255.779 544.555 255.866 543.027 256.555C534.367 260.361 524.574 260.689 515.679 257.472C514.129 256.974 512.65 256.261 511.449 255.774C510.784 256.135 510.138 256.531 509.514 256.96C508.631 257.666 507.777 258.41 506.942 259.172C498.746 266.646 490.109 273.395 479.125 276.371C478.298 276.516 477.554 276.963 477.039 277.626C474.978 282.181 470.472 282.601 466.562 283.963C462.304 285.446 457.975 286.722 453.689 288.126C448.876 289.702 444.077 291.321 439.271 292.921C433.035 291.587 427.248 294.768 420.918 294.489C412.473 294.116 404.003 294.807 395.642 292.831C393.404 292.455 391.148 292.195 388.883 292.052C386.938 291.862 385.007 291.556 383.1 291.135C379.022 290.105 374.986 288.908 370.712 287.718C358.676 299.275 343.45 303.854 327.714 305.869C311.723 308.042 295.459 304.963 281.368 297.094C280.993 297.277 280.63 297.486 280.284 297.719C273.678 303.403 267.568 309.875 258.332 311.337C257.798 311.531 257.32 311.853 256.939 312.275C253.324 315.088 248.862 316.59 244.281 316.536C242.584 316.644 240.906 316.953 239.281 317.456C226.944 321.074 214.781 319.514 202.78 316.008C195.319 313.828 188.027 311.072 180.48 308.515C174.584 313.75 168.159 318.355 161.307 322.255C150.511 327.918 138.492 330.85 126.301 330.796C122.641 330.923 118.979 330.587 115.403 329.796C111.641 328.727 107.395 330.772 104.055 327.795C97.3774 326.841 90.8881 326.157 84.4772 329.739C79.8023 331.859 74.574 332.434 69.5502 331.382C60.7962 330.577 52.5027 327.094 45.7984 321.408C37.9207 314.498 31.6479 306.793 31.5285 295.621C31.5102 293.919 31.2452 292.217 31.2818 290.519C30.87 287.419 31.0779 284.269 31.8933 281.25C34.6939 275.538 35.9787 268.755 42.0502 264.959C44.0114 263.811 45.6683 262.209 46.8812 260.288C49.4713 255.679 55.1606 255.657 58.3486 252.005C58.9326 251.336 60.5006 251.294 61.5947 251.349C64.383 251.49 67.1117 250.412 69.9995 251.467C70.5008 251.686 71.042 251.799 71.5891 251.799C72.1362 251.799 72.6773 251.686 73.1786 251.467C73.6798 251.248 74.1304 250.927 74.5018 250.526C74.8732 250.124 75.1575 249.65 75.3368 249.133C73.9518 246.485 72.3129 243.554 70.8641 240.532C68.7854 236.198 65.7056 231.927 65.1847 227.385C64.7304 223.726 63.6554 220.171 62.0058 216.874C62.6483 214.139 64.2421 211.363 63.439 209.986C61.4088 206.506 63.0252 203.304 63.1356 200.076C63.2695 196.156 64.4814 192.286 64.8428 188.358C65.3295 183.6 66.7423 178.982 69.0016 174.766C71.279 170.32 72.2762 165.214 74.5849 160.788C76.5785 156.397 79.3955 152.428 82.8834 149.098C86.7527 145.868 89.1532 141.303 93.535 138.651C96.4602 136.936 99.1927 134.911 101.686 132.612C104.211 130.144 107.251 128.265 110.588 127.109C113.924 125.953 117.475 125.548 120.986 125.923C123.73 126.165 126.495 125.85 129.115 124.999C134.764 123.111 140.834 122.874 146.613 124.317C153.051 126.026 160.002 125.585 166.422 128.39C168.955 126.335 170.915 123.663 172.113 120.63C172.626 118.988 173.569 117.514 174.843 116.359C176.117 115.203 177.676 114.409 179.36 114.059C184.056 112.676 188.695 109.742 194.017 111.66C194.4 111.798 195.019 111.279 195.86 110.927C196.694 108.194 197.491 105.2 198.537 102.294C199.016 100.378 199.92 98.5931 201.181 97.0724C203.741 94.5657 205.561 91.4029 206.443 87.9303C209.324 87.4555 212.113 86.5368 214.712 85.207C217.558 83.4003 220.706 82.1222 224.005 81.4341C230.447 79.4406 236.862 80.9163 243.56 80.806C244.343 79.703 244.986 78.5071 245.475 77.2456C246.724 72.9238 248.703 68.8476 251.326 65.1932C255.357 59.0637 260.425 53.6842 266.304 49.2967C272.482 44.7302 280.131 42.9449 286.346 37.1732C287.908 38.6273 289.936 39.4799 292.067 39.5793C294.199 39.6787 296.297 39.0183 297.988 37.7158C298.773 37.3783 299.637 37.2682 300.482 37.3979C305.818 37.5879 311.154 37.1182 316.195 39.9984C319.453 41.7424 322.971 42.9493 326.613 43.5725C337.032 45.5876 343.198 53.9593 351.241 59.5153C352.679 63.9501 357.181 65.1981 359.923 68.298C366.892 61.1136 376.305 59.1564 384.618 55.1345ZM447.692 144.396C444.687 143.607 443.393 141.547 444.083 139.815C445.656 135.868 444.584 131.968 444.822 128.067C445.24 124.441 445.408 120.791 445.324 117.142C444.996 112.342 444.232 107.582 443.043 102.921C441.683 97.4519 439.803 92.1255 437.429 87.0145C434.98 80.9588 430.646 75.8527 425.069 72.4522C422.824 71.2458 420.824 69.5798 418.563 68.4099C408.581 63.2432 398.263 60.199 387.007 63.9699C386.473 64.1486 385.883 64.5341 385.399 64.4343C377.993 62.9085 372.865 68.8516 366.351 70.2692C365.179 70.5243 364.261 71.9452 362.923 73.0861C365.609 77.8499 369.99 81.5837 369.761 87.8271C365.037 85.7769 360.968 82.4654 358.001 78.2556C354.513 73.524 350.674 69.0611 346.517 64.9044C340.351 59.9909 333.566 55.908 326.337 52.7606C325.529 52.5259 324.74 52.2291 323.977 51.8726C316.394 46.6161 307.825 47.3926 299.368 47.9731C294.886 48.281 290.448 49.234 285.993 49.9174C285.149 49.997 284.319 50.1871 283.525 50.483C280.794 51.7024 279.154 54.4836 275.414 54.5701C272.372 55.082 269.535 56.4416 267.23 58.4928C262.472 61.9928 257.575 65.54 255.562 71.5311C254.481 74.7461 252.159 77.212 250.934 80.4871C248.586 87.9448 246.798 95.5673 245.585 103.291C245.037 104.734 244.267 106.083 243.303 107.289C242.841 107.217 242.398 107.051 242.002 106.8C241.607 106.55 241.267 106.221 241.004 105.834C240.741 105.446 240.56 105.009 240.474 104.549C240.387 104.089 240.396 103.616 240.5 103.159C240.669 98.6947 240.833 94.2296 241.002 89.6987C236.302 88.2469 231.31 88.0141 226.496 89.0221C221.682 90.0301 217.203 92.2457 213.48 95.4609C209.897 98.4953 206.995 102.253 204.964 106.487C202.934 110.721 201.822 115.337 201.699 120.031C201.555 123.147 201.236 126.26 200.847 129.355C200.513 130.599 200.05 131.805 199.467 132.954C195.868 128.915 197.942 124.448 196.675 120.3C192.646 119.699 188.53 120.168 184.739 121.66C180.949 123.152 177.618 125.614 175.079 128.801C177.928 133.404 182.014 137.114 186.87 139.507C192.511 142.746 197.483 147.03 201.52 152.13C204.579 155.841 207.609 159.601 210.962 163.037C214.688 167.28 217.537 172.221 219.343 177.572C220.367 179.834 220.497 182.4 219.707 184.754C218.703 184.541 217.906 184.6 217.739 184.304C211.749 174.74 204.907 165.736 197.298 157.403C189.106 152.117 183.033 143.716 172.635 141.558C168.874 140.307 165.36 138.412 162.248 135.957C158.363 133.62 153.82 132.616 149.311 133.098C140.805 133.52 132.382 133.893 124.472 137.483C119.706 136.685 116.568 139.663 113.104 142.158C108.986 145.124 104.56 147.66 100.382 150.547C98.9827 151.46 97.8287 152.701 97.0203 154.162C96.5538 155.346 95.8492 156.421 94.95 157.321C94.0509 158.221 92.9765 158.927 91.7934 159.394C90.8971 159.723 90.3382 160.997 89.6492 161.858C88.5866 163.186 87.8164 165.054 86.442 165.768C84.5938 166.521 83.028 167.833 81.9651 169.522C80.9021 171.211 80.3956 173.191 80.5166 175.183C80.3104 176.595 79.5789 177.877 78.4682 178.774C76.5524 180.858 75.102 183.327 74.2134 186.015C70.5102 194.066 70.9394 202.715 71.4107 211.035C71.7289 222.395 74.9606 233.482 80.7958 243.234C86.4287 252.161 92.7543 260.367 102.949 264.591C104.467 265.324 105.92 266.183 107.295 267.158C107.48 267.275 107.485 267.678 107.71 268.367C106.726 268.65 105.655 269.348 104.803 269.141C97.7803 267.436 90.5358 266.22 85.1746 260.585C84.1358 259.632 82.861 258.975 81.4823 258.681C72.392 256.396 72.3856 256.441 62.9075 260.049C60.7884 260.856 58.5958 261.482 56.5137 262.37C54.1214 263.276 51.9585 264.698 50.1794 266.536C48.4002 268.374 47.0487 270.582 46.2211 273.003C45.5539 274.857 44.7102 276.644 43.7018 278.338C42.3049 280.15 41.5985 282.4 41.7092 284.686C41.8378 285.525 41.7681 286.382 41.5056 287.189C41.2431 287.997 40.7951 288.731 40.1975 289.334C37.2118 292.743 38.5994 296.398 40.3007 299.651C42.069 302.542 44.0102 305.323 46.1137 307.979C47.0409 309.324 47.7546 310.815 48.6847 312.157C49.3421 313.33 50.2212 314.363 51.273 315.199C55.0734 317.57 57.8006 322.261 62.3123 322.616C68.423 323.095 74.7554 324.097 80.8561 321.845C81.4293 319.777 79.8831 319.704 78.5181 319.396C77.5655 319.178 76.7251 318.62 76.1536 317.827C75.5822 317.034 75.3188 316.06 75.4126 315.087C76.0893 314.56 76.8983 314.23 77.7505 314.132C78.6027 314.035 79.4652 314.174 80.2434 314.535C90.3112 317.009 100.363 319.549 110.431 322.02C112.042 322.415 113.949 323.222 115.311 322.723C119.694 321.55 124.286 321.379 128.745 322.225C131.847 322.351 134.948 321.945 137.913 321.025C145.04 319.309 152.048 317.13 158.891 314.501C164.421 312.585 169.184 308.935 172.471 304.092C168.113 300.598 163.203 297.856 157.942 295.978C154.644 294.483 151.242 293.199 148.023 291.555C146.973 291.085 146.048 290.374 145.324 289.48C144.599 288.586 144.096 287.533 143.853 286.408C144.675 285.612 145.743 285.118 146.882 285.009C148.021 284.899 149.163 285.18 150.122 285.805C157.359 289.006 164.427 292.596 171.714 295.674C180.063 299.201 188.564 302.374 197.028 305.624C199.399 306.534 201.859 307.222 204.305 307.92C205.888 308.547 207.563 308.91 209.263 308.993C218.851 308.379 228.475 310.303 238.03 308.57C240.522 308.119 242.986 307.48 245.428 306.802C246.775 306.428 248.055 305.344 249.356 305.358C253.605 305.061 257.719 303.745 261.35 301.52C265.396 299.537 269.435 297.603 273.631 295.903C279.251 293.199 284.273 289.398 288.401 284.723C294.393 278.743 300.144 272.523 306.064 266.47C307.244 265.406 308.499 264.429 309.818 263.543C310.17 263.714 310.474 263.969 310.702 264.286C310.93 264.603 311.076 264.972 311.126 265.36C311.176 265.748 311.128 266.141 310.988 266.506C310.847 266.871 310.618 267.194 310.321 267.448C305.7 272.805 300.99 278.086 296.253 283.341C294.016 285.823 291.649 288.189 289.291 290.66C307.249 302.446 340.819 300.548 359.57 283.659C353.708 279.096 344.969 278.366 341.723 270.462C345.212 270.403 348.653 271.271 351.697 272.978C354.249 275.267 357.409 276.77 360.796 277.305C372.221 280.469 383.549 284.154 395.494 284.949C398.034 285.117 400.594 284.957 403.144 285.008C405.653 285.059 408.162 285.164 410.669 285.291C411.512 285.334 412.703 285.934 413.13 285.569C414.411 284.505 415.968 283.826 417.62 283.613C419.272 283.4 420.95 283.662 422.459 284.367C427.362 281.233 433.577 283.124 438.58 280.124C440.1 279.308 441.833 278.977 443.546 279.173C450.603 279.958 456.619 276.65 462.986 274.653C469.279 272.975 475.085 269.83 479.928 265.475C480.865 264.389 482.099 263.601 483.477 263.206C491.701 262.133 496.543 255.709 502.162 250.946C506.609 247.539 511.361 244.549 516.357 242.016C516.62 241.864 517.299 242.435 518.156 242.849C517.194 245.918 516.202 249.081 515.006 252.894C517.728 253.254 520.096 253.731 522.483 253.853C529.94 254.594 537.456 253.222 544.17 249.893C550.884 246.564 556.526 241.412 560.45 235.027C562.823 232.229 564.642 229.004 565.809 225.525C568.866 214.307 562.05 203.575 556.939 197.739C556.536 197.336 556.081 196.99 555.584 196.71C554.871 196.249 554.151 195.499 553.396 195.449C549.846 194.709 546.415 193.48 543.203 191.796C541.894 191.54 540.555 191.48 539.228 191.62C538.875 198.913 538.55 205.95 538.155 212.984C538.133 213.386 537.544 213.756 537.054 214.337C536.507 213.728 535.647 213.214 535.519 212.558C534.497 207.272 533.433 201.982 532.74 196.646C532.402 192.123 531.406 187.673 529.784 183.438C528.893 181.42 529.153 178.906 528.319 176.851C524.921 168.484 521.303 160.206 514.348 153.996C513.653 153.505 513.029 152.919 512.496 152.255C507.12 143.478 498.06 139.351 489.953 133.9C483.421 129.509 475.639 129.059 468.808 125.836C463.306 126.408 457.594 123.026 452.176 126.707C451.09 132.712 450.694 138.941 447.692 144.396Z" fill="#324C76"/>
<path d="M343.78 109.173C349.116 110.252 353.698 112.55 358.895 110.859C360.101 110.466 361.887 112.353 363.415 112.37C369.798 112.443 374.051 117.433 379.705 119.101C384.609 124.77 392.072 128.218 394.398 136.148C394.772 137.525 395.455 138.798 396.395 139.872C397.434 140.826 398.227 142.018 398.705 143.346C399.182 144.674 399.33 146.098 399.136 147.496C398.96 148.913 399.156 150.351 399.704 151.669C400.252 152.987 401.134 154.14 402.262 155.015C403.117 155.77 403.777 156.721 404.186 157.787C404.594 158.852 404.739 160.001 404.607 161.134C404.404 162.69 404.531 164.272 404.979 165.776C405.426 167.281 406.186 168.674 407.207 169.866C409.007 171.833 408.232 174.141 408.11 176.366C407.738 183.146 410.722 188.741 414.083 194.663C415.136 193.794 416.115 193.392 416.271 192.78C416.854 190.885 417.158 188.915 417.172 186.933C417.137 179.868 416.641 172.813 415.688 165.812C413.817 156.447 410.756 147.36 406.58 138.771C402.075 128.884 394.824 121.771 387.045 114.798C376.514 105.359 363.571 103.231 350.195 102.277C349.646 102.138 349.075 102.102 348.513 102.17C341.942 104.492 335.088 103.094 328.392 103.744C319.37 105.222 310.803 108.739 303.345 114.028C302.58 113.45 301.429 112.983 300.925 112.132C300.003 110.065 298.454 108.339 296.498 107.2C294.542 106.06 292.278 105.563 290.024 105.779C288.03 105.719 286.078 105.193 284.323 104.246C279.253 102.424 273.8 101.939 268.488 102.835C266.775 102.871 265.11 103.406 263.697 104.375C260.234 107.425 255.252 107.141 251.835 110.669C249.213 113.986 247.086 117.666 245.521 121.594C244.236 123.976 241.804 125.899 241.87 129.675C242.626 129.344 243.332 128.908 243.967 128.38C247.22 124.466 250.965 120.989 255.109 118.036C258.542 115.548 262.519 113.917 266.71 113.278C273.529 111.965 280.284 113.426 287.014 114.002C290.012 114.804 292.858 116.092 295.44 117.815C294.409 120.924 292.679 123.756 290.384 126.093C285.264 130.981 281.854 137.388 280.66 144.366C279.73 147.924 278.608 151.429 277.299 154.865C277.296 155.386 277.426 155.899 277.676 156.356C277.926 156.812 278.289 157.198 278.729 157.476C279.251 157.624 279.799 157.657 280.334 157.573C280.87 157.489 281.381 157.289 281.833 156.988C282.64 156.212 283.254 155.258 283.627 154.203C285.264 150.896 286.82 147.549 288.456 144.242C288.955 143.234 289.436 141.658 290.223 141.447C294.692 140.245 295.635 136.059 297.88 132.979C298.268 132.22 298.834 131.567 299.53 131.075C300.226 130.583 301.031 130.268 301.876 130.156C302.158 130.148 302.434 130.079 302.685 129.952C302.937 129.825 303.157 129.645 303.331 129.423C306.215 122.35 315.148 123.282 318.996 117.529C322.588 115.925 326.396 114.861 330.298 114.369C333.666 114.283 336.938 113.228 339.723 111.33C340.954 110.635 342.22 110 343.78 109.173Z" fill="#324C76"/>
</svg>
