<svg width="332" height="290" viewBox="0 0 332 290" fill="none" xmlns="http://www.w3.org/2000/svg">
<path d="M94.0889 125.492C95.7543 125.887 97.0837 126.201 98.4126 126.517C98.5489 126.549 98.7227 126.67 98.8112 126.623C100.901 125.507 102.897 126.145 104.867 126.958C106.653 127.696 108.614 127.641 110.399 128.734C112.104 129.778 114.548 129.539 115.79 131.597C117.752 132.321 119.565 133.395 121.144 134.766C122.428 135.598 123.418 136.813 123.973 138.24C123.43 138.31 122.879 138.297 122.34 138.201C119.888 137.202 117.208 136.726 115.084 134.948C114.496 134.593 113.831 134.382 113.145 134.334C112.613 134.233 111.916 134.504 111.522 134.251C108.749 132.469 105.529 132.35 102.468 131.609C101.134 131.188 99.8454 130.633 98.6224 129.953C97.9522 129.571 97.2008 129.352 96.4299 129.317C95.659 129.281 94.8906 129.429 94.1879 129.748C92.988 130.497 91.554 130.778 90.1599 130.537C90.0249 130.505 89.8325 130.442 89.7489 130.503C87.786 131.956 85.2846 131.721 83.2037 132.557C80.8792 133.453 78.5039 134.211 76.0902 134.827C75.9617 134.862 75.7503 134.765 75.685 134.833C74.1305 136.449 72.6563 138.202 70.0484 137.847C68.3477 139.279 66.6644 140.733 64.9386 142.135C64.191 142.75 63.3919 143.299 62.5501 143.777C61.733 144.19 61.0173 144.779 60.4541 145.5C59.8908 146.222 59.4939 147.06 59.2917 147.953C59.1222 148.993 58.7442 149.989 58.1805 150.88C57.6168 151.771 56.8789 152.538 56.0112 153.137C55.0992 153.791 54.4531 154.751 54.1909 155.842C53.1325 159.173 51.9928 162.477 50.9137 165.801C50.741 166.323 50.6549 166.87 50.6589 167.42C50.7215 170.755 50.8238 174.09 50.9131 177.425C50.8983 177.563 50.9038 177.703 50.9293 177.84C51.6615 180.517 52.6179 183.127 53.7883 185.643C54.5753 186.928 55.1744 188.319 55.5674 189.774C55.6237 190.475 55.8115 191.158 56.1211 191.789C58.3088 195.161 60.7837 198.337 63.5182 201.283C63.9133 201.664 64.5167 201.884 64.7932 202.324C66.8988 205.671 70.3243 207.347 73.5395 209.264C75.4468 210.401 77.4742 211.338 79.977 212.64C78.836 213.085 78.1716 213.616 77.6687 213.492C75.8892 213.147 74.1631 212.568 72.5351 211.772C70.2302 210.483 68.1737 208.758 65.9424 207.327C63.6348 206.083 61.5649 204.442 59.8277 202.479C59.3542 202.571 58.896 202.728 58.4663 202.948C55.0906 205.662 52.2835 209.015 50.2058 212.816C49.9291 213.456 49.7518 214.135 49.68 214.829C49.428 216.052 49.1438 217.274 48.9897 218.511C48.7861 220.147 48.2379 221.805 49.1063 223.431C49.2145 223.692 49.2538 223.977 49.2204 224.258C49.0213 226.065 49.2107 227.895 49.7759 229.623C50.3412 231.351 51.2692 232.939 52.4979 234.279C52.7968 234.751 52.9979 235.278 53.0893 235.828C53.1748 236.24 53.2921 236.645 53.4404 237.039C54.1393 238.38 56.1564 238.558 56.3386 240.417C56.4498 241.111 56.7205 241.769 57.1293 242.341C57.5381 242.913 58.0739 243.382 58.6945 243.711C59.307 244.276 59.8442 244.917 60.2928 245.619C60.5124 245.977 60.8199 246.273 61.1862 246.478C62.7433 246.942 64.5339 246.887 65.4723 248.597C67.084 248.604 68.2772 249.71 69.7032 250.194C70.499 250.477 71.3336 250.635 72.1776 250.663C74.2684 250.693 76.3608 250.585 78.4531 250.566C80.3773 250.736 82.3137 250.714 84.2334 250.499C86.4472 250.018 88.9447 250.282 90.7086 248.041C91.8789 247.039 93.2715 246.331 94.7706 245.977C95.6738 245.706 96.5117 245.252 97.2327 244.644C97.9537 244.037 98.5424 243.288 98.9623 242.443C97.4342 241.269 95.9884 239.971 94.3666 238.953C91.2349 236.888 88.5441 234.223 86.4505 231.11C86.1432 230.679 86.1553 230.67 87.0095 229.356C88.7237 230.522 90.357 231.803 91.8982 233.19C95.039 236.388 98.8975 238.604 102.438 241.248C103.521 241.855 104.653 242.371 105.821 242.791C108.918 244.363 112.266 245.32 115.44 246.723C117.676 247.512 120.018 247.957 122.388 248.045C125.138 248.35 127.905 248.482 130.672 248.44C131.819 248.417 132.926 247.483 134.096 247.346C135.154 247.222 136.347 247.939 137.347 247.708C138.801 247.186 140.194 246.506 141.5 245.681C142.476 245.974 143.497 246.085 144.514 246.008C145.65 245.523 146.739 244.934 147.767 244.25C149.396 243.55 150.745 242.053 152.79 242.431C152.992 242.458 153.197 242.438 153.39 242.374C153.582 242.309 153.758 242.202 153.903 242.059C155.706 239.55 159.237 238.837 160.447 235.667C160.908 234.969 161.552 234.413 162.308 234.058C163.478 233.438 164.514 232.594 165.358 231.574C166.202 230.554 166.836 229.378 167.225 228.113C167.456 227.45 167.864 226.863 168.405 226.416C168.735 226.161 168.984 225.814 169.12 225.419C169.257 225.024 169.275 224.598 169.173 224.192C169.07 223.637 169.124 223.063 169.331 222.537C169.537 222.01 169.887 221.552 170.341 221.215C171.193 220.6 171.898 219.803 172.404 218.882C172.911 217.961 173.206 216.939 173.268 215.889C173.267 215.244 173.776 214.6 174.04 213.951C174.252 213.431 174.691 212.864 174.611 212.388C173.882 208.042 176.445 204.346 176.913 200.249C176.933 199.697 176.88 199.145 176.754 198.607C176.646 198.059 176.654 197.495 176.779 196.951C176.903 196.408 177.141 195.896 177.476 195.45C178.817 195.223 179.331 196.232 179.508 197.125C180.119 200.218 181.866 203.218 180.462 206.516C180.597 207.626 180.509 208.753 180.202 209.828C179.895 210.904 179.376 211.907 178.675 212.778C178.103 213.588 177.839 214.576 177.929 215.564C178.154 218.081 177.563 220.604 176.243 222.759C176.124 222.988 176.178 223.305 176.153 223.58C177.551 224.047 178.938 224.549 180.35 224.971C180.921 225.238 181.56 225.327 182.182 225.226C182.805 225.126 183.383 224.841 183.841 224.407C184.287 223.956 184.853 223.643 185.472 223.505C186.092 223.368 186.737 223.412 187.332 223.632C187.979 223.796 188.908 223.977 189.344 223.655C192.293 221.479 196.168 221.441 199.113 219.309C201.566 217.757 203.913 216.042 206.137 214.177C207.14 213.226 208.656 212.702 209.4 211.614C212.709 206.777 217.416 203.004 219.992 197.623C220.896 195.735 221.897 193.89 222.719 191.968C223.39 190.291 224.222 188.684 225.202 187.167C226.461 185.309 227.255 183.176 227.517 180.948C227.586 180.328 228.081 179.757 228.523 178.882C229.98 180.748 228.429 182.31 228.572 183.871C228.569 185.406 228.317 186.93 227.827 188.385C227.437 189.961 226.883 191.497 226.362 193.172C228.458 192.925 230.221 192.752 231.971 192.494C232.657 192.39 233.322 192.184 233.947 191.884C235.734 190.774 237.723 190.03 239.799 189.693C243.035 187.439 247.242 187.406 250.437 185.048C250.761 184.809 251.351 184.81 251.533 184.521C252.221 183.172 253.357 182.103 254.746 181.499C256.079 180.748 257.266 179.762 258.249 178.59C258.682 178.058 259.086 177.503 259.46 176.928C260.361 176.071 261.181 175.131 261.909 174.122C262.422 173.005 263.073 171.957 263.848 171.002C265.009 169.519 266.023 167.927 266.875 166.247C266.407 165.944 266.149 165.639 265.961 165.678C264.882 165.898 263.693 166.649 262.773 166.39C259.849 165.569 256.906 166.246 254.004 165.877C253.491 165.812 253.026 165.391 252.532 165.148C251.918 164.846 251.254 164.242 250.687 164.319C248.244 164.651 246.521 163.197 244.48 162.358C242.526 161.681 240.62 160.871 238.777 159.933C238.308 159.674 237.93 159.278 237.691 158.798C237.453 158.318 237.366 157.777 237.442 157.247C238.207 157.23 239.106 156.943 239.727 157.238C244.66 159.58 250.024 159.793 255.279 160.345C260.013 160.762 264.784 160.451 269.423 159.421C272.394 158.769 275.256 157.693 277.921 156.227C280.218 155.209 282.415 153.976 284.481 152.546C285.285 152.008 286.014 151.366 286.651 150.638C286.915 150.231 287.269 149.889 287.685 149.638C288.101 149.387 288.569 149.235 289.052 149.192C289.614 149.171 290.149 148.952 290.565 148.574C291.223 147.706 291.587 146.614 292.243 145.743C292.806 144.994 294.123 145.403 294.62 144.262C295.778 141.606 298.27 139.702 298.929 136.742C298.999 136.466 299.155 136.22 299.374 136.039C301.458 134.394 301.504 131.848 301.996 129.609C302.464 127.481 302.06 125.203 302.886 123.06C303.098 122.509 302.696 121.703 302.521 121.028C302.075 120.003 301.788 118.916 301.668 117.805C301.925 114.355 300.594 111.269 299.759 108.069C299.528 107.275 299.169 106.524 298.698 105.844C297.399 104.09 296.526 102.057 296.151 99.9061C294.146 97.6934 291.509 96.4375 290.136 93.8782C289.8 93.4231 289.317 93.0979 288.769 92.9575C286.659 92.2697 284.672 91.2535 282.879 89.9463C282.313 89.5755 281.635 89.4154 280.963 89.4941C279.313 89.5876 277.659 89.3937 276.076 88.9209C273.308 88.5796 270.517 88.4556 267.73 88.5502C267.234 88.5351 266.738 88.5074 266.28 88.4871C266.245 88.2832 266.229 88.0763 266.234 87.8694C269.073 86.828 271.746 85.3159 275 85.6722C276.609 85.6875 278.215 85.5224 279.788 85.1801C279.924 85.0415 280.031 84.8768 280.102 84.6958C280.173 84.5149 280.207 84.3215 280.201 84.1272C280.196 83.9329 280.151 83.7417 280.07 83.5651C279.989 83.3884 279.873 83.23 279.729 83.0992C278.408 81.8296 278.222 79.8264 276.568 78.7107C275.311 77.8631 274.407 76.4899 272.632 76.6748C272.491 76.688 272.348 76.66 272.222 76.594C270.837 75.6479 269.362 74.8419 267.817 74.1881C266.199 73.8945 264.563 73.7049 262.92 73.6202C262.251 73.5026 261.684 73.081 260.953 73.484C260.778 73.5927 260.583 73.6633 260.379 73.691C260.175 73.7187 259.967 73.7029 259.77 73.6448C257.166 71.9873 254.995 73.2952 252.794 74.5517C252.199 74.8908 251.469 75.5355 250.97 75.4031C248.629 74.7835 247.301 76.4688 245.743 77.5267C243.908 78.7732 242.252 80.2828 240.428 81.5482C239.278 82.3551 238.437 83.5284 238.041 84.8759C239.089 89.7658 241.463 94.5189 239.379 99.6987C238.898 99.5833 238.465 99.3209 238.141 98.948C237.816 98.5751 237.616 98.1103 237.568 97.6183C237.222 95.8319 236.898 94.0396 236.492 92.2662C235.703 88.4167 234.177 84.756 231.999 81.4854C230.902 79.8993 229.982 78.2059 228.811 76.6308C226.226 73.4893 222.887 71.0542 219.106 69.5528C218.088 68.8776 216.992 68.3282 215.842 67.9167C212.84 67.2794 209.789 66.8955 206.723 66.7692C204.079 66.7657 201.482 67.4611 199.193 68.7848C197.014 70.0013 194.701 70.9741 192.479 72.1175C191.517 72.6127 190.636 73.2666 189.493 73.9913C190.806 75.5944 191.927 76.9794 193.066 78.3506C194.757 80.3885 196.515 82.3738 198.135 84.4663C199.073 85.513 199.797 86.7339 200.264 88.0595C201.124 91.4077 203.641 94.2082 203.46 97.8734C203.422 98.2622 203.365 98.6488 203.289 99.0318C202.316 99.4294 202.043 98.5691 201.548 98.2183C201.075 97.9147 200.667 97.52 200.349 97.0572C199.199 95.1567 198.235 93.1356 196.983 91.3088C195.837 89.2557 194.539 87.2906 193.102 85.4298C191.7 83.9106 190.845 81.9016 189.575 80.2419C188.827 79.0774 187.794 78.1233 186.574 77.4704C185.262 76.9968 184.107 76.1691 183.237 75.079C181.551 72.9197 179.002 71.9352 176.937 70.2967C176.239 69.7425 175.106 69.7502 174.186 69.4572C172.123 68.8 169.58 69.615 168.007 67.4495C167.105 67.5134 166.2 67.3567 165.372 66.993C164.544 66.6292 163.816 66.0693 163.253 65.3616C162.999 65.1059 162.474 65.101 162.066 65.0202C158.866 64.1135 155.509 63.8958 152.218 64.3815C150.557 64.5881 148.87 64.4596 147.259 64.0036C145.777 63.5896 144.2 63.6688 142.767 64.2292C141.253 65.0062 139.509 65.209 137.857 64.8002C137.314 64.6539 136.738 64.6897 136.217 64.9021C133.662 66.0223 130.93 66.5964 128.404 67.9112C126.189 69.0643 124.485 71.1282 121.908 71.5776C119.485 72 117.633 73.5717 115.551 74.6782C114.372 75.1295 113.4 75.9993 112.821 77.1216C112.431 78.0012 111.065 78.3947 110.321 79.1806C108.13 81.4926 105.923 83.8044 103.937 86.2876C102.603 87.9145 101.507 89.7217 100.679 91.6556C100.14 93.5282 99.163 95.2455 97.8291 96.6659C97.4649 97.0973 97.2532 97.6369 97.2271 98.2009C97.0186 100.011 96.3418 101.735 95.2633 103.204C94.7645 104.194 94.5011 105.285 94.4939 106.393C94.5393 107.644 94.4639 108.896 94.2686 110.132C92.6372 114.938 93.6093 119.794 93.7442 124.635C93.8138 124.937 93.9301 125.226 94.0889 125.492Z" fill="white"/>
<path d="M236.946 81.3391C237.068 81.3434 237.215 81.3912 237.305 81.3396C237.389 81.2914 237.412 81.1372 237.461 81.0297L236.882 81.0132L236.946 81.3391Z" fill="white"/>
<path d="M196.502 131.251C195.528 131.269 194.544 131.061 193.575 131.12C189.287 131.377 185.313 132.472 182.422 135.924C181.555 137.021 180.452 137.908 179.195 138.52C177.291 139.408 176.925 139.292 175.755 137.603C173.343 134.121 171.518 130.031 166.765 128.934C166.133 128.788 165.633 128.129 165.037 127.764C163.443 126.593 161.5 125.995 159.524 126.065C158.138 126.195 156.751 125.841 155.597 125.063C154.397 124.363 153.132 123.78 151.82 123.321C150.241 122.793 148.576 122.239 147.376 124.186C147.006 124.788 146.183 124.789 145.49 124.938C143.589 125.344 141.71 125.854 139.822 126.322C139.442 126.251 139.062 126.179 138.683 126.109C136.818 126.988 134.763 127.594 133.848 129.763C133.755 129.946 133.621 130.105 133.458 130.229C133.295 130.353 133.106 130.439 132.906 130.481C132.288 130.556 131.693 130.754 131.153 131.063C130.614 131.373 130.142 131.787 129.765 132.281C128.75 133.389 127.062 132.653 125.86 133.438C125.051 133.967 124.194 134.423 123.358 134.911C123.508 135.4 123.698 136.003 123.219 136.301C122.452 136.78 122.128 136.048 121.766 135.549C119.538 134.452 117.801 132.538 115.4 131.73C114.117 128.77 110.759 130.667 108.935 128.969C108.838 128.868 108.72 128.79 108.59 128.738C106.831 127.916 104.916 127.483 102.975 127.467C101.039 127.645 99.0897 127.31 97.3236 126.497C96.7072 126.18 95.9904 126.121 95.3307 126.333C94.9527 126.237 94.5747 126.141 94.1968 126.045C92.8432 123.012 92.4219 119.645 92.9867 116.372C93.4519 114.347 93.6146 112.265 93.4695 110.192C93.0107 107.324 93.4653 104.383 94.7689 101.787C95.6201 100.166 96.1055 98.3776 96.1909 96.5482C96.1286 95.9981 96.2514 95.443 96.5398 94.9704C96.8282 94.4979 97.2658 94.135 97.7835 93.9389C99.3478 89.7717 101.387 85.7987 103.862 82.0988C105.715 79.4722 107.988 77.1684 110.589 75.2796C110.725 75.1666 111.171 75.244 111.326 75.3893C111.407 75.4916 111.462 75.6114 111.488 75.739C111.514 75.8667 111.51 75.9986 111.475 76.1242C110.357 79.1684 108.153 81.9359 109.13 85.5057C107.865 87.587 108.624 89.5332 109.509 91.4819C109.624 91.7407 109.66 92.0276 109.611 92.3065C109.106 94.7563 110.273 96.9771 110.556 99.3172C110.555 99.8754 110.713 100.422 111.012 100.894C113.737 103.774 114.862 107.656 117.409 110.717C119.575 113.32 122.618 114.932 124.494 117.764C124.752 118.153 125.476 118.269 126.009 118.435C127.061 118.823 128.144 119.119 129.247 119.32C130.797 119.52 132.099 121.06 133.61 120.542C134.979 119.878 136.257 119.04 137.412 118.049C137.576 117.698 137.74 117.346 137.905 116.995C138.595 115.953 139.54 115.104 140.65 114.529C143.498 113.11 146.331 111.662 149.184 110.254C149.678 110.009 150.208 109.844 150.754 109.766C152.94 109.474 155.132 109.235 157.323 108.976C157.69 109.038 158.058 109.1 158.425 109.162C159.36 109.744 160.383 110.172 161.454 110.43C165.436 110.704 168.25 113.268 171.401 115.186C171.636 115.329 171.83 115.539 172.061 115.691C174.434 117.151 176.255 119.358 177.238 121.966C177.294 122.094 177.358 122.217 177.43 122.337C177.804 122.47 178.179 122.604 178.553 122.737L178.553 122.737C178.917 122.813 179.281 122.888 179.646 122.964C181.426 121.885 183.492 121.369 185.571 121.487C186.118 121.467 186.659 121.369 187.178 121.196C187.559 121.275 187.94 121.354 188.321 121.433C188.58 121.351 188.834 121.256 189.082 121.147C189.454 121.233 189.827 121.32 190.199 121.406C191.253 121.743 192.336 121.984 193.433 122.127C197.295 122.303 199.806 125.289 203.1 126.623C205.237 129.141 207.985 131.164 209.19 134.436C209.716 135.724 210.345 136.967 211.07 138.154C212.438 141.038 213.317 144.129 213.669 147.302C213.787 148.138 213.593 148.989 213.124 149.692C213.053 150.202 212.786 150.315 212.346 150.072C211.341 148.045 210.336 146.017 209.33 143.989C209.05 143.46 208.77 142.931 208.49 142.402C208.243 141.898 207.976 141.404 207.754 140.891C206.111 137.157 203.259 134.085 199.656 132.172C198.711 131.578 197.619 131.259 196.502 131.251Z" fill="#DEF1FD"/>
<path d="M76.1039 183.273C76.872 182.937 77.6404 182.602 78.4094 182.268C78.7599 182.329 79.11 182.39 79.4596 182.45C80.9636 181.691 82.4684 180.933 83.9742 180.177C84.0466 179.72 84.2896 179.578 84.7169 179.777C85.4672 179.393 86.2184 179.009 86.9704 178.627C87.1302 178.307 87.29 177.987 87.4497 177.666C88.4241 177.108 89.3984 176.55 90.3724 175.991C90.5777 174.918 91.5079 174.648 92.3131 174.24C93.3092 173.729 94.3051 173.217 95.3009 172.706C95.5618 172.581 95.8224 172.455 96.0829 172.33C96.5651 172.084 97.0472 171.838 97.5292 171.593C97.9003 171.666 98.2713 171.738 98.642 171.811L98.7982 171.851C98.9243 171.893 99.1549 171.927 99.1588 171.977C99.1605 172.209 99.1417 172.441 99.1026 172.669C98.613 172.968 98.1233 173.266 97.6334 173.564C97.4918 173.9 97.3504 174.236 97.209 174.572C93.6175 176.164 90.6608 178.911 88.808 182.375C88.4544 182.809 88.0251 183.174 87.5408 183.454C87.3763 183.785 87.2116 184.115 87.0467 184.446C86.0713 185.809 85.0591 187.148 84.1374 188.546C83.6068 189.188 83.2506 189.956 83.1035 190.775C82.9054 192.156 82.4973 193.497 81.8935 194.754C80.8203 197.485 80.4541 200.443 80.8291 203.354C80.9261 203.896 81.1824 204.589 80.9586 204.979C80.6065 205.726 80.4157 206.539 80.3986 207.365C80.3816 208.19 80.5387 209.01 80.8596 209.771C81.5708 212.592 79.8546 213.97 77.1192 213.078C76.7152 212.993 76.34 212.805 76.0305 212.532C75.0651 211.366 73.5477 211.295 72.3818 210.572C71.3288 209.92 69.9057 209.911 69.1701 208.724C68.8058 208.604 68.4414 208.483 68.0771 208.363C65.7111 206.65 63.4196 204.872 62.6383 201.84C62.5298 201.43 62.3334 201.05 62.0629 200.724C61.7923 200.398 61.4541 200.135 61.0716 199.953C59.1613 199.05 57.6306 197.502 56.7489 195.582C56.4613 195.099 56.0485 194.703 55.5542 194.435C54.7408 193.904 54.0612 193.192 53.5683 192.355C53.0754 191.517 52.7826 190.578 52.7126 189.609C52.2718 186.804 52.2508 183.716 49.8373 181.529C49.2917 181.034 49.6629 180.186 49.5476 179.53C48.9213 175.967 50.8807 172.316 49.1699 168.785C49.075 168.589 49.4634 167.982 49.7633 167.822C49.9473 167.753 50.1437 167.724 50.3397 167.736C50.5358 167.748 50.7271 167.801 50.9013 167.892C51.2559 168.114 51.5379 168.434 51.7126 168.814C53.4274 172.015 55.5675 174.969 58.0748 177.596C59.654 179.696 61.9066 181.19 64.4557 181.828C65.1587 181.89 65.8348 182.128 66.422 182.519C68.2622 184.122 70.3534 183.557 72.4108 183.418C72.7599 183.496 73.1088 183.573 73.4574 183.649C73.9795 183.447 74.5022 183.246 75.0257 183.045C75.3855 183.121 75.7449 183.197 76.1039 183.273Z" fill="#DEF1FD"/>
<path d="M243.529 190.827C246.114 189.299 248.965 188.262 251.177 186.044C252.397 185.149 253.747 184.447 255.18 183.96C256.035 184.427 256.532 184.182 256.665 183.214C258.872 182.068 260.588 180.16 261.496 177.844C262.303 177.416 263.121 177.005 263.916 176.554C264.733 176.089 264.823 175.356 264.581 174.528C264.788 174.165 264.942 173.775 265.038 173.369C265.044 172.675 265.261 171.999 265.66 171.432C266.059 170.864 266.622 170.431 267.273 170.192C269.464 169.284 269.874 167.599 269.314 165.378C269.231 164.947 269.242 164.503 269.346 164.077C269.45 163.651 269.645 163.252 269.917 162.907C270.189 162.563 270.532 162.281 270.922 162.08C271.313 161.88 271.742 161.766 272.18 161.746C273.847 161.863 275.507 161.435 276.91 160.527C281.258 158.306 285.618 156.111 289.974 153.905C291.299 154.17 291.388 154.076 291.244 152.575C291.67 152.248 292.096 151.922 292.522 151.595C292.799 151.455 293.076 151.315 293.353 151.174C293.961 150.556 294.57 149.939 295.178 149.321C296.38 148.507 298.18 148.434 298.555 146.595C301.911 143.041 302.213 142.382 302.564 139.226C302.614 138.256 302.42 137.289 302 136.413C302.108 136.092 302.215 135.772 302.322 135.452C302.166 135.552 302.047 135.7 301.984 135.874C302.047 135.7 302.166 135.552 302.322 135.452L303.008 134.944C303.144 134.587 303.281 134.23 303.418 133.873C303.407 133.545 303.395 133.217 303.38 132.891C303.606 132.787 303.799 132.623 303.94 132.418C304.081 132.212 304.164 131.973 304.18 131.724C304.705 130.596 306.008 129.733 305.376 128.21C305.676 128.042 305.931 127.804 306.12 127.516C306.308 127.228 306.424 126.899 306.457 126.556C306.125 126.665 305.793 126.774 305.46 126.882C305.336 127.287 305.213 127.692 305.09 128.097L305.088 128.097C304.018 128.863 303.226 129.955 302.83 131.21C302.39 131.446 302.025 131.799 301.772 132.229C301.52 132.66 301.391 133.151 301.4 133.65L301.399 133.65C300.099 136.117 297.577 137.434 295.878 139.526C295.574 139.632 295.304 139.82 295.098 140.069C294.892 140.317 294.758 140.617 294.71 140.937L293.273 141.806C293.125 142.148 292.976 142.49 292.828 142.832C292.077 143.206 291.326 143.58 290.575 143.955C290.207 143.895 289.839 143.834 289.47 143.772C286.345 145.788 282.673 146.423 279.294 147.796C278.938 147.725 278.581 147.654 278.225 147.582C276.688 147.655 275.153 147.729 273.617 147.803C273.275 147.735 272.933 147.669 272.592 147.603C270.914 147.752 269.223 147.539 267.633 146.979C266.991 146.697 266.315 146.499 265.622 146.388C261.524 146.045 258.475 143.557 255.138 141.54C250.133 138.515 246.372 134.251 242.624 129.921C241.963 129.204 241.255 128.531 240.507 127.906C240.141 127.58 239.398 127.972 239.19 128.492C238.95 129.45 239.089 130.464 239.58 131.321C239.483 131.682 239.386 132.043 239.289 132.404C239.454 133.049 239.529 133.713 239.511 134.378C239.059 135.656 239.036 137.047 239.445 138.34C239.99 139.507 238.685 140.665 239.259 141.888C239.167 142.238 239.076 142.588 238.983 142.938C238.832 147.209 237.857 151.411 236.113 155.312C235.752 156.074 235.704 156.947 235.979 157.743C235.872 158.058 235.766 158.373 235.66 158.687C235.469 158.885 235.132 159.067 235.109 159.284C234.623 163.734 230.956 166.636 229.572 170.653C229.231 171.246 228.745 171.742 228.161 172.098C227.672 172.563 227.366 173.189 227.301 173.861C226.762 176.124 225.992 178.3 223.55 179.275C223.374 179.608 223.2 179.941 223.026 180.274C221.457 182.484 219.048 183.477 216.736 184.61C215.39 184.295 215.288 184.4 215.452 185.93C215.231 186.488 214.893 186.993 214.459 187.408C214.026 187.824 213.509 188.142 212.942 188.341C212.637 188.173 212.286 188.105 211.94 188.148C211.594 188.191 211.271 188.342 211.016 188.58C209.039 189.285 207.224 190.379 205.677 191.797C204.899 192.378 204.045 192.849 203.139 193.197C202.786 193.139 202.431 193.079 202.076 193.019C200.247 193.845 198.565 195.155 196.364 194.75C196.008 194.7 195.651 194.649 195.293 194.597C193.866 195.597 192.152 196.104 190.411 196.042C190.031 195.954 189.65 195.867 189.269 195.779C185.671 196.034 182.059 195.98 178.471 195.618C175.814 195.495 174.992 195.933 174.069 198.386C173.21 200.735 171.849 202.869 170.081 204.639C168.972 205.868 168.047 207.251 167.334 208.744C166.819 209.74 165.981 210.532 164.958 210.99C164.802 211.328 164.647 211.665 164.492 212.002C164.031 212.298 163.57 212.594 163.109 212.891C162.951 213.237 162.794 213.584 162.637 213.931C160.825 215.615 159.18 217.47 157.726 219.471C157.098 220.382 156.251 221.12 155.262 221.618C155.097 221.945 154.931 222.272 154.767 222.599C153.184 223.343 152.49 225.187 150.803 225.802C150.633 226.141 150.463 226.48 150.295 226.82C148.811 227.621 147.327 228.422 145.843 229.223C145.581 229.385 145.32 229.547 145.058 229.708C144.091 230.188 143.124 230.668 142.157 231.148C141.134 231.659 140.111 232.171 139.087 232.682C138.84 232.806 138.592 232.928 138.343 233.049C137.547 233.472 136.619 233.754 136.428 234.829C135.936 235.177 135.379 235.423 134.79 235.552C134.201 235.681 133.592 235.69 132.999 235.579C132.7 235.445 132.369 235.398 132.044 235.445C131.72 235.491 131.415 235.629 131.166 235.842C129.47 237.083 127.327 236.783 125.478 237.493C123.7 236.759 123.7 236.759 122.913 237.982C122.511 238.217 122.051 238.338 121.584 238.329C121.117 238.321 120.662 238.184 120.268 237.934C119.934 237.719 119.557 237.58 119.163 237.527C118.77 237.474 118.369 237.508 117.99 237.626C117.621 237.547 117.25 237.468 116.88 237.388C113.859 237.182 110.789 237.369 107.893 236.185C107.501 236.043 107.075 236.022 106.671 236.126C105.012 236.424 103.301 236.079 101.888 235.159C100.968 234.545 99.9114 234.167 98.8109 234.058C98.3901 234.061 97.9761 233.953 97.6111 233.743C97.2462 233.534 96.9437 233.231 96.7345 232.866C96.4164 232.327 95.9605 231.883 95.4137 231.578C94.8669 231.274 94.2488 231.121 93.6232 231.135C91.7141 230.811 89.8736 230.166 88.1796 229.228C87.8271 229.111 87.4748 228.995 87.1227 228.879C85.9483 226.851 85.0612 224.67 84.4866 222.398C84.4501 222.009 84.3124 221.635 84.0871 221.315C83.8617 220.995 83.5566 220.739 83.202 220.573C82.8473 220.407 82.4555 220.337 82.0653 220.369C81.6751 220.401 81.3001 220.535 80.9775 220.757C78.3534 221.97 75.6568 223.019 72.9032 223.899C71.8699 224.288 70.773 224.48 69.6691 224.464C69.3809 224.301 69.0518 224.224 68.7211 224.243C68.3904 224.261 68.072 224.375 67.8041 224.57C67.5524 224.676 67.2948 224.767 67.0325 224.842C66.6675 224.747 66.3018 224.652 65.9356 224.556C60.6514 223.961 57.2242 220.634 54.2763 216.612C54.0305 216.276 53.8819 215.871 53.6526 215.521C50.4486 210.636 50.101 211.425 47.2423 215.44C46.1956 216.933 45.7196 218.752 45.9008 220.567C46.0063 222.337 46.6729 224.139 45.5001 225.862C45.2635 226.209 45.5097 226.932 45.6234 227.463C45.8566 228.551 46.1508 229.626 46.4196 230.706C45.875 231.624 46.1383 232.128 47.1978 232.223C47.8652 233.613 48.5235 235.007 49.2043 236.391C49.5136 237.018 49.7138 237.864 50.2302 238.196C51.8011 239.261 52.9674 240.824 53.5409 242.633C53.9253 243.629 55.4777 244.126 56.3799 244.979C58.4591 247.028 60.9613 248.597 63.7109 249.577C64.2336 249.755 64.8302 250.182 65.2691 250.058C67.4034 249.453 68.7069 250.451 69.862 252.058C70.2742 252.632 71.0759 252.636 71.773 252.776C74.3654 253.293 77.0963 252.78 79.6252 253.922C80.1068 254.14 80.9762 253.717 81.5752 253.41C82.76 252.648 84.1729 252.322 85.5718 252.488C86.2726 252.569 86.9826 252.483 87.6439 252.237C88.3052 251.991 88.8989 251.592 89.3766 251.073C91.5354 249.059 94.2416 247.729 97.1547 247.25C98.5098 246.877 99.7806 246.247 100.898 245.395C101.423 245.051 102.027 244.844 102.653 244.794C103.279 244.743 103.907 244.85 104.481 245.104C106.53 245.933 108.663 246.554 110.769 247.24C112.081 247.668 112.749 249.319 114.38 249.124C114.757 249.211 115.134 249.298 115.511 249.386C116.138 249.413 116.765 249.439 117.392 249.465C117.771 249.556 118.151 249.646 118.531 249.737C120.129 250.545 121.907 250.932 123.696 250.862C125.969 250.797 128.352 250.508 130.465 251.904C131.514 252.597 132.61 252.101 133.649 251.676C134.012 251.746 134.376 251.816 134.741 251.887C137.263 251.328 139.784 250.768 142.306 250.208C143.303 251.493 144.305 250.825 145.307 250.22C147.564 250.006 149.735 249.243 151.631 248C153.645 248.793 154.452 247.26 155.418 246.035C156.132 245.67 156.846 245.304 157.56 244.939C158.42 244.547 159.379 244.259 159.532 243.106C160.377 242.682 161.215 242.244 162.069 241.839C162.712 241.63 163.303 241.285 163.8 240.826C164.298 240.368 164.69 239.808 164.951 239.184C165.166 238.762 165.463 238.387 165.825 238.081C166.187 237.776 166.607 237.546 167.059 237.404C167.979 237.864 168.434 237.534 168.508 236.554C168.731 236.388 169.088 236.265 169.155 236.051C169.907 233.645 171.746 231.895 172.899 229.749C173.135 229.096 173.611 228.557 174.229 228.241C174.848 227.925 175.564 227.856 176.231 228.049C176.917 228.097 177.605 228.056 178.28 227.929C178.651 228.015 179.022 228.101 179.393 228.188C180.551 227.736 181.608 226.778 182.915 227.013C187.746 227.882 191.726 224.938 196.181 224.151C196.587 224.044 196.957 223.833 197.256 223.539C199.554 221.504 202.344 220.104 205.35 219.478C207.833 218.916 209.509 216.817 210.975 214.797C211.528 214 212.257 213.343 213.106 212.874C213.43 212.772 213.717 212.574 213.929 212.307C214.14 212.041 214.267 211.717 214.293 211.377C216.033 210.516 217.843 209.701 217.048 207.177C217.253 207.052 217.456 206.925 217.656 206.796C218.803 206.042 219.766 205.041 220.474 203.865C221.183 202.69 221.618 201.37 221.748 200.004C222.76 199.484 223.843 199.011 223.362 197.521C223.915 197.109 224.43 196.648 224.902 196.145C225.228 195.611 225.722 195.199 226.307 194.975C226.892 194.75 227.534 194.725 228.134 194.904C228.53 195.033 228.949 195.074 229.363 195.025C229.776 194.977 230.174 194.839 230.529 194.621C231.06 194.296 231.659 194.099 232.279 194.045C232.899 193.991 233.523 194.083 234.101 194.312C234.962 194.611 235.904 194.573 236.737 194.205C237.57 193.837 238.233 193.167 238.592 192.33C238.852 192.21 239.112 192.091 239.372 191.971C239.666 192.117 239.991 192.19 240.32 192.182C240.648 192.174 240.969 192.086 241.256 191.926C242.849 192.336 242.858 192.331 243.529 190.827ZM305.33 128.192L305.189 128.136L305.33 128.192Z" fill="#DEF1FD"/>
<path d="M305.57 125.386C305.628 125.268 305.711 125.164 305.813 125.08C305.915 124.997 306.034 124.936 306.161 124.901C306.288 124.867 306.422 124.86 306.552 124.882C306.682 124.903 306.806 124.952 306.916 125.025C307.48 125.428 307.168 125.926 306.773 126.322C306.674 126.408 306.568 126.486 306.457 126.556C306.125 126.665 305.793 126.774 305.46 126.882C305.483 126.377 305.364 125.8 305.57 125.386Z" fill="#B3E1EB"/>
<path d="M83.3633 255.168C82.9972 255.385 82.5711 255.48 82.1472 255.439C77.5095 255.058 72.6321 256.363 68.3389 253.503C68.0938 253.364 67.8254 253.271 67.5468 253.228C63.2464 252.302 59.7942 249.467 55.7468 247.959C55.1705 247.574 54.7078 247.043 54.4068 246.419C52.8953 244.225 51.4944 241.95 49.9086 239.812C46.741 235.542 45.558 230.543 44.4645 225.502C44.3529 224.815 44.3278 224.116 44.3898 223.422C44.4404 222.172 44.5271 220.922 44.6349 219.675C44.6469 218.844 44.7602 218.017 44.9723 217.212C45.6657 214.945 46.5258 212.732 47.5457 210.592C49.2896 207.275 50.9339 203.858 54.1437 201.53C55.2634 200.936 56.1183 199.942 56.5383 198.746C56.0522 198.179 55.6013 197.651 55.1481 197.125C53.6011 195.33 51.7893 193.709 51.2869 191.23C49.7498 189.96 50.3433 187.639 49.0603 186.38C47.3589 184.708 47.2919 182.694 47.1444 180.604C47.0563 179.356 46.8963 178.112 46.7485 176.868C46.4064 173.987 45.2073 171.206 45.6673 168.234C46.1363 166.487 46.4352 164.7 46.5595 162.896C46.55 161.219 46.9931 159.57 47.8421 158.123C49.3178 155.168 50.913 152.271 52.3376 149.292C54.2262 145.343 58.3778 143.107 60.0266 138.991C60.1602 138.738 60.3777 138.54 60.6416 138.431C63.2578 137.264 65.3575 135.024 68.0958 134.86C68.7024 133.934 69.0214 132.821 69.6184 132.644C72.4732 131.796 74.8132 129.967 77.489 128.818C78.5468 128.48 79.6313 128.233 80.7309 128.079C81.8208 127.919 82.8881 127.632 83.9112 127.224C84.6123 126.77 85.3964 126.46 86.2183 126.311C87.0401 126.163 87.8832 126.179 88.6987 126.359C88.9385 126.429 89.1918 126.44 89.4369 126.392C89.682 126.343 89.9117 126.236 90.1066 126.08C90.3016 125.924 90.4559 125.723 90.5565 125.494C90.6571 125.265 90.701 125.016 90.6845 124.766C90.746 124.067 90.7638 123.364 90.7376 122.663C90.6286 119.584 90.6536 116.49 90.3381 113.432C90.0292 108.842 90.6403 104.237 92.1356 99.8865C93.5839 95.342 95.6195 91.0063 98.191 86.9893C100.727 83.1556 103.651 79.5938 106.918 76.3604C110.354 72.9216 114.234 69.9573 118.455 67.5461C120.69 66.1176 123.069 64.9283 125.552 63.9977C128.968 62.7954 132.138 60.8922 135.819 60.4525C139.794 58.3342 144.208 58.7962 148.445 58.5143C151.225 58.5739 153.996 58.8549 156.731 59.3547C159.251 59.4424 161.738 59.9567 164.087 60.8756C167.615 60.4867 170.584 62.2166 173.668 63.4575C175.582 64.2545 177.374 65.3195 178.989 66.6204C180.854 68.0742 182.799 69.9679 185.451 70.0395C188.231 67.2439 189.619 66.5047 194.059 65.3347C194.604 65.2064 195.118 64.9691 195.57 64.6369C197.206 63.5489 199.153 63.0263 201.113 63.1488C202.487 63.0772 203.846 62.698 205.219 62.644C208.145 62.5293 211.076 62.4809 214.003 62.5314C214.831 62.6165 215.634 62.8725 216.358 63.2832C218.987 64.5472 221.587 65.8717 224.195 67.1782C224.457 67.2792 224.698 67.4266 224.907 67.6134C228.04 71.1275 232.649 73.1129 235.052 77.3905C235.152 77.5672 235.539 77.5821 235.929 77.7215C237.214 77.0817 237.534 75.1261 239.305 74.9222C242.16 74.5932 244.256 72.5279 246.762 71.3936C248.218 70.6612 249.795 70.2007 251.417 70.0347C253.03 69.916 254.63 69.6092 256.242 69.4533C256.635 69.4153 257.05 69.7161 257.461 69.7369C258.431 69.8847 259.417 69.8803 260.386 69.7241C262.68 69.0808 264.837 69.8549 267.02 70.1802C268.222 70.3596 269.317 71.1726 270.518 71.4653C274.638 72.2903 278.297 74.6371 280.766 78.0383C281.977 79.397 282.934 80.9629 283.589 82.661C283.986 83.8604 284.611 84.9721 285.428 85.9355C286.006 86.6785 286.904 87.6707 287.668 87.678C288.713 87.5544 289.766 87.8132 290.634 88.4065C291.502 88.9999 292.126 89.8876 292.39 90.9054C292.447 91.0853 292.867 91.1542 293.121 91.268C295.069 92.1391 297.102 93.1786 297.79 95.2285C298.561 97.5277 300.985 98.3975 301.762 100.441C303.349 104.611 305.792 108.434 306.77 112.845C307.069 114.191 307.427 115.528 307.656 116.886C308.044 118.652 308.277 120.448 308.35 122.254C308.305 126.284 307.087 130.195 306.902 134.226C306.828 134.641 306.642 135.027 306.363 135.342C303.703 138.902 301.931 143.015 298.817 146.34C295.743 149.757 292.379 152.902 288.763 155.74C286.198 157.676 283.188 158.748 280.532 160.482C279.452 161.11 278.32 161.645 277.148 162.082C275.131 162.951 273.098 163.783 271.227 164.566C270.774 166.828 269.87 168.975 268.567 170.879C267.061 172.979 265.008 174.868 264.504 177.65C264.246 178.304 263.823 178.879 263.278 179.321C260.173 182.861 256.771 186.127 253.109 189.084C247.933 193.104 241.936 195.934 235.543 197.374C231.976 198.17 228.378 198.331 224.824 198.961C224.025 199.103 223.238 199.315 222.45 199.493C221.513 203.238 219.472 206.615 216.592 209.185C216.154 209.541 215.812 210.001 215.6 210.525C214.688 212.435 213.322 214.093 211.623 215.355C209.202 217.659 206.515 219.685 203.927 221.811C203.538 222.215 203.057 222.518 202.525 222.694C199.642 223.361 196.946 224.666 194.635 226.512C194.197 226.857 193.693 227.11 193.154 227.255C192.616 227.399 192.053 227.433 191.501 227.354C189.966 227.085 188.387 227.397 187.069 228.229C186.568 228.613 185.987 228.882 185.369 229.015C184.751 229.148 184.111 229.143 183.496 228.999C182.81 228.849 182.094 228.925 181.455 229.216C179.693 230.019 177.852 229.61 176.053 229.71C175.105 229.678 174.162 229.557 173.236 229.348C170.844 233.496 168.815 237.673 164.814 240.331C164.306 240.814 163.866 241.364 163.507 241.966C163.207 242.439 162.821 242.851 162.368 243.182C159.669 244.55 157.139 246.23 154.83 248.186C154.493 248.43 154.104 248.594 153.694 248.664C148.425 249.937 143.142 251.156 137.883 252.472C135.969 252.909 133.993 253.001 132.047 252.743C130.539 252.586 128.997 252.773 127.471 252.751C125.675 252.724 123.789 253.265 122.138 252.159C120.799 251.386 119.297 250.939 117.754 250.855C116.925 250.849 116.111 250.64 115.381 250.248C114.477 249.589 113.386 249.238 112.268 249.246C111.716 249.221 111.185 249.022 110.751 248.679C108.52 246.615 105.36 246.465 103.187 244.696C101.846 245.631 100.693 246.37 99.6168 247.209C98.8128 247.74 98.1148 248.416 97.5584 249.203C97.0395 250.131 96.3024 250.918 95.411 251.496C94.5195 252.075 93.5005 252.428 92.4421 252.524C91.5273 252.637 90.6442 252.93 89.844 253.387C89.0437 253.845 88.3424 254.457 87.7808 255.188C86.0408 254.837 84.6973 254.246 83.3633 255.168ZM98.4128 126.517C98.5491 126.549 98.7229 126.67 98.8115 126.623C100.901 125.507 102.897 126.145 104.867 126.958C106.654 127.696 108.614 127.641 110.399 128.734C112.104 129.778 114.549 129.539 115.791 131.597C117.752 132.321 119.566 133.395 121.144 134.766C122.429 135.598 123.419 136.813 123.973 138.24C123.43 138.31 122.879 138.297 122.34 138.201C119.888 137.202 117.208 136.726 115.084 134.948C114.496 134.593 113.831 134.382 113.146 134.334C112.613 134.233 111.916 134.504 111.523 134.251C108.749 132.469 105.529 132.35 102.468 131.609C101.134 131.188 99.8456 130.633 98.6227 129.953C97.9525 129.571 97.2011 129.352 96.4302 129.317C95.6592 129.281 94.8908 129.429 94.1882 129.748C92.9882 130.497 91.5543 130.778 90.1602 130.537C90.0251 130.505 89.8328 130.442 89.7492 130.503C87.7863 131.956 85.2848 131.721 83.2039 132.557C80.8795 133.453 78.5042 134.211 76.0905 134.827C75.962 134.862 75.7506 134.765 75.6852 134.833C74.1307 136.449 72.6566 138.202 70.0487 137.847C68.348 139.279 66.6647 140.733 64.9389 142.135C64.1913 142.75 63.3922 143.299 62.5504 143.777C61.7333 144.19 61.0176 144.779 60.4544 145.5C59.8911 146.222 59.4942 147.06 59.292 147.953C59.1224 148.993 58.7445 149.989 58.1808 150.88C57.617 151.771 56.8792 152.538 56.0115 153.137C55.0995 153.791 54.4534 154.751 54.1912 155.842C53.1328 159.173 51.9931 162.477 50.914 165.801C50.7413 166.323 50.6552 166.87 50.6591 167.42C50.7218 170.755 50.8241 174.09 50.9133 177.425C50.8986 177.563 50.9041 177.703 50.9296 177.84C51.6618 180.517 52.6182 183.127 53.7886 185.643C54.5755 186.928 55.1747 188.319 55.5677 189.774C55.624 190.475 55.8118 191.158 56.1213 191.789C58.3091 195.161 60.784 198.337 63.5184 201.283C63.9136 201.664 64.517 201.884 64.7935 202.324C66.8991 205.671 70.3246 207.347 73.5398 209.264C75.4471 210.401 77.4745 211.338 79.9773 212.64C78.8363 213.085 78.1719 213.616 77.669 213.492C75.8895 213.147 74.1634 212.568 72.5354 211.772C70.2305 210.483 68.174 208.758 65.9427 207.327C63.6351 206.083 61.5652 204.442 59.828 202.479C59.3545 202.571 58.8963 202.728 58.4666 202.948C55.0909 205.662 52.2838 209.015 50.2061 212.816C49.9293 213.456 49.752 214.135 49.6803 214.829C49.4282 216.052 49.1441 217.274 48.99 218.511C48.7864 220.147 48.2382 221.805 49.1066 223.431C49.2148 223.692 49.2541 223.977 49.2207 224.258C49.0215 226.065 49.211 227.895 49.7762 229.623C50.3415 231.351 51.2695 232.939 52.4982 234.279C52.797 234.751 52.9982 235.278 53.0896 235.828C53.1751 236.24 53.2924 236.645 53.4407 237.039C54.1396 238.38 56.1567 238.558 56.3389 240.417C56.4501 241.111 56.7208 241.769 57.1296 242.341C57.5383 242.913 58.0742 243.382 58.6948 243.711C59.3073 244.276 59.8444 244.917 60.2931 245.619C60.5126 245.977 60.8202 246.273 61.1865 246.478C62.7436 246.942 64.5342 246.887 65.4726 248.597C67.0843 248.604 68.2775 249.71 69.7034 250.194C70.4993 250.477 71.3339 250.635 72.1778 250.663C74.2686 250.693 76.3611 250.585 78.4534 250.566C80.3776 250.736 82.3139 250.714 84.2337 250.499C86.4475 250.018 88.9449 250.282 90.7089 248.041C91.8791 247.039 93.2718 246.331 94.7709 245.977C95.674 245.706 96.512 245.252 97.233 244.644C97.954 244.037 98.5427 243.288 98.9626 242.443C97.4345 241.269 95.9886 239.971 94.3669 238.953C91.2352 236.888 88.5444 234.223 86.4508 231.11C86.1435 230.679 86.1556 230.67 87.0098 229.356C88.724 230.522 90.3573 231.803 91.8985 233.19C95.0393 236.388 98.8977 238.604 102.439 241.248C103.522 241.855 104.653 242.371 105.821 242.791C108.919 244.363 112.266 245.32 115.44 246.723C117.676 247.512 120.018 247.957 122.388 248.045C125.139 248.35 127.906 248.482 130.673 248.44C131.819 248.417 132.926 247.483 134.096 247.346C135.154 247.222 136.347 247.939 137.347 247.708C138.801 247.186 140.194 246.506 141.5 245.681C142.476 245.974 143.498 246.085 144.514 246.008C145.65 245.523 146.739 244.934 147.767 244.25C149.397 243.55 150.745 242.053 152.791 242.431C152.992 242.458 153.197 242.438 153.39 242.374C153.583 242.309 153.758 242.202 153.903 242.059C155.707 239.55 159.237 238.837 160.447 235.667C160.908 234.969 161.552 234.413 162.308 234.058C163.478 233.438 164.515 232.594 165.358 231.574C166.202 230.554 166.836 229.378 167.226 228.113C167.456 227.45 167.864 226.863 168.405 226.416C168.736 226.161 168.984 225.814 169.121 225.419C169.257 225.024 169.276 224.598 169.174 224.192C169.07 223.637 169.125 223.063 169.331 222.537C169.537 222.01 169.887 221.552 170.341 221.215C171.193 220.6 171.898 219.803 172.405 218.882C172.911 217.961 173.206 216.939 173.268 215.889C173.268 215.244 173.776 214.6 174.04 213.951C174.252 213.431 174.691 212.864 174.611 212.388C173.882 208.042 176.445 204.346 176.913 200.249C176.933 199.697 176.88 199.145 176.754 198.607C176.646 198.059 176.654 197.495 176.779 196.951C176.903 196.408 177.141 195.896 177.477 195.45C178.817 195.223 179.332 196.232 179.508 197.125C180.119 200.218 181.866 203.218 180.462 206.516C180.598 207.626 180.51 208.753 180.203 209.828C179.896 210.904 179.376 211.907 178.675 212.778C178.104 213.588 177.839 214.576 177.93 215.564C178.154 218.081 177.563 220.604 176.243 222.759C176.125 222.988 176.178 223.305 176.152 223.582C177.551 224.047 178.939 224.549 180.35 224.971C180.921 225.238 181.56 225.327 182.182 225.226C182.805 225.126 183.383 224.841 183.841 224.407C184.287 223.956 184.853 223.643 185.473 223.505C186.092 223.368 186.738 223.412 187.332 223.632C187.979 223.796 188.909 223.977 189.345 223.655C192.294 221.479 196.169 221.441 199.113 219.309C201.567 217.757 203.913 216.042 206.138 214.177C207.14 213.226 208.656 212.702 209.4 211.614C212.709 206.777 217.416 203.004 219.993 197.623C220.896 195.735 221.897 193.89 222.719 191.968C223.39 190.291 224.222 188.684 225.202 187.167C226.461 185.309 227.255 183.176 227.517 180.948C227.587 180.328 228.082 179.757 228.524 178.882C229.98 180.748 228.43 182.31 228.573 183.871C228.569 185.406 228.317 186.93 227.827 188.385C227.437 189.961 226.883 191.497 226.363 193.172C228.458 192.925 230.221 192.752 231.972 192.494C232.657 192.39 233.323 192.184 233.947 191.884C235.734 190.774 237.723 190.03 239.799 189.693C243.035 187.439 247.242 187.406 250.437 185.048C250.761 184.809 251.352 184.81 251.533 184.521C252.221 183.172 253.357 182.103 254.746 181.499C256.079 180.748 257.266 179.762 258.249 178.59C258.682 178.058 259.086 177.503 259.461 176.928C260.362 176.071 261.181 175.131 261.909 174.122C262.422 173.005 263.074 171.957 263.848 171.002C265.009 169.519 266.023 167.927 266.875 166.247C266.407 165.944 266.149 165.639 265.962 165.678C264.882 165.898 263.693 166.649 262.773 166.39C259.85 165.569 256.906 166.246 254.005 165.877C253.491 165.812 253.026 165.391 252.532 165.148C251.918 164.846 251.254 164.242 250.687 164.319C248.244 164.651 246.521 163.197 244.48 162.358C242.526 161.681 240.621 160.871 238.777 159.933C238.308 159.674 237.93 159.278 237.692 158.798C237.453 158.318 237.366 157.777 237.443 157.247C238.208 157.23 239.106 156.943 239.728 157.238C244.66 159.58 250.024 159.793 255.279 160.345C260.014 160.762 264.784 160.451 269.424 159.421C272.395 158.769 275.256 157.694 277.921 156.227C280.219 155.209 282.415 153.976 284.482 152.546C285.285 152.008 286.014 151.366 286.651 150.638C286.915 150.231 287.269 149.889 287.685 149.638C288.101 149.387 288.569 149.235 289.053 149.192C289.614 149.171 290.15 148.952 290.565 148.574C291.224 147.706 291.587 146.614 292.243 145.743C292.806 144.994 294.124 145.403 294.621 144.262C295.778 141.606 298.27 139.702 298.929 136.742C298.999 136.466 299.155 136.22 299.375 136.039C301.458 134.394 301.505 131.848 301.997 129.609C302.464 127.481 302.06 125.203 302.886 123.06C303.098 122.509 302.696 121.703 302.521 121.028C302.076 120.003 301.788 118.916 301.668 117.805C301.925 114.355 300.594 111.269 299.759 108.069C299.528 107.275 299.17 106.524 298.699 105.844C297.399 104.09 296.527 102.057 296.151 99.9061C294.146 97.6934 291.51 96.4375 290.136 93.8782C289.8 93.4231 289.317 93.0979 288.769 92.9576C286.66 92.2697 284.672 91.2535 282.879 89.9464C282.313 89.5755 281.635 89.4154 280.963 89.4941C279.313 89.5876 277.66 89.3937 276.076 88.9209C273.308 88.5796 270.518 88.4556 267.73 88.5502C267.234 88.5351 266.739 88.5074 266.28 88.4871C266.245 88.2832 266.23 88.0763 266.235 87.8694C269.073 86.828 271.747 85.3159 275 85.6722C276.61 85.6875 278.216 85.5225 279.788 85.1801C279.924 85.0415 280.031 84.8768 280.102 84.6959C280.173 84.5149 280.207 84.3215 280.202 84.1272C280.196 83.9329 280.151 83.7417 280.07 83.5651C279.989 83.3884 279.873 83.23 279.729 83.0992C278.409 81.8296 278.222 79.8264 276.568 78.7107C275.311 77.8631 274.408 76.49 272.632 76.6748C272.491 76.688 272.349 76.66 272.223 76.594C270.838 75.6479 269.362 74.8419 267.818 74.1881C266.199 73.8945 264.563 73.7049 262.92 73.6202C262.251 73.5026 261.684 73.081 260.954 73.484C260.779 73.5927 260.583 73.6633 260.379 73.691C260.175 73.7187 259.967 73.703 259.77 73.6448C257.166 71.9874 254.996 73.2952 252.794 74.5517C252.2 74.8908 251.469 75.5355 250.97 75.4032C248.629 74.7835 247.302 76.4688 245.744 77.5267C243.908 78.7732 242.252 80.2828 240.428 81.5482C239.278 82.3551 238.437 83.5284 238.041 84.8759C239.089 89.7658 241.463 94.519 239.379 99.6988C238.898 99.5833 238.466 99.3209 238.141 98.948C237.817 98.5751 237.616 98.1103 237.568 97.6183C237.222 95.8319 236.898 94.0396 236.493 92.2662C235.703 88.4168 234.177 84.7561 231.999 81.4854C230.902 79.8993 229.983 78.2059 228.812 76.6308C226.227 73.4893 222.887 71.0542 219.106 69.5528C218.088 68.8776 216.992 68.3282 215.842 67.9167C212.84 67.2794 209.79 66.8956 206.723 66.7692C204.079 66.7657 201.482 67.4611 199.193 68.7848C197.015 70.0013 194.701 70.9741 192.48 72.1175C191.517 72.6127 190.637 73.2666 189.493 73.9913C190.806 75.5944 191.928 76.9794 193.066 78.3506C194.757 80.3885 196.515 82.3738 198.136 84.4663C199.074 85.513 199.797 86.7339 200.264 88.0595C201.124 91.4077 203.641 94.2082 203.46 97.8734C203.423 98.2622 203.366 98.6488 203.289 99.0318C202.317 99.4294 202.043 98.5691 201.548 98.2183C201.075 97.9147 200.668 97.52 200.349 97.0572C199.2 95.1567 198.235 93.1356 196.983 91.3088C195.837 89.2557 194.54 87.2907 193.102 85.4298C191.701 83.9106 190.845 81.9016 189.575 80.2419C188.827 79.0774 187.795 78.1233 186.575 77.4704C185.263 76.9968 184.107 76.1691 183.237 75.079C181.551 72.9198 179.002 71.9352 176.937 70.2967C176.239 69.7425 175.106 69.7502 174.186 69.4572C172.123 68.8 169.58 69.615 168.008 67.4495C167.105 67.5134 166.201 67.3567 165.372 66.993C164.544 66.6292 163.817 66.0693 163.253 65.3616C162.999 65.1059 162.474 65.101 162.067 65.0203C158.866 64.1135 155.51 63.8958 152.219 64.3815C150.557 64.5881 148.871 64.4596 147.259 64.0036C145.777 63.5896 144.201 63.6688 142.768 64.2292C141.254 65.0062 139.509 65.209 137.857 64.8002C137.314 64.6539 136.738 64.6897 136.217 64.9021C133.663 66.0223 130.93 66.5964 128.404 67.9112C126.189 69.0643 124.485 71.1282 121.908 71.5776C119.485 72.0001 117.633 73.5717 115.552 74.6782C114.372 75.1295 113.4 75.9993 112.821 77.1216C112.431 78.0012 111.065 78.3947 110.321 79.1806C108.131 81.4926 105.924 83.8044 103.937 86.2876C102.604 87.9145 101.507 89.7217 100.679 91.6556C100.14 93.5282 99.1633 95.2456 97.8294 96.6659C97.4651 97.0973 97.2535 97.6369 97.2274 98.2009C97.0189 100.011 96.3421 101.735 95.2636 103.204C94.7647 104.194 94.5014 105.285 94.4941 106.393C94.5396 107.644 94.4642 108.896 94.2689 110.132C92.6375 114.938 93.6096 119.794 93.7444 124.635C93.8141 124.937 93.9304 125.226 94.0892 125.492C95.7546 125.887 97.084 126.201 98.4128 126.517ZM237.305 81.3397C237.389 81.2915 237.412 81.1373 237.461 81.0298L236.882 81.0133L236.946 81.3391C237.068 81.3435 237.215 81.3913 237.305 81.3397Z" fill="#324C76"/>
</svg>
