<svg width="479" height="274" viewBox="0 0 479 274" fill="none" xmlns="http://www.w3.org/2000/svg">
<path d="M186.256 -1.17522C187.618 0.928989 188.705 2.60797 189.789 4.28855C189.901 4.46102 189.962 4.76459 190.104 4.80421C193.444 5.74211 194.908 8.4383 196.166 11.2944C197.307 13.8848 199.436 15.8129 200.215 18.7772C200.96 21.608 203.787 23.8312 203.014 27.2661C204.354 30.0187 205.184 32.9914 205.464 36.04C205.979 38.2209 205.794 40.5089 204.935 42.5786C204.29 42.1023 203.721 41.5307 203.248 40.8836C201.669 37.3427 199.317 34.1251 198.873 30.0931C198.611 29.121 198.122 28.2251 197.446 27.4791C196.984 26.8337 195.973 26.4133 195.814 25.7475C194.687 21.0535 191.404 17.6648 188.918 13.7812C187.934 11.984 187.134 10.0921 186.53 8.1342C186.209 7.05053 185.636 6.05855 184.857 5.23973C184.078 4.4209 183.116 3.79868 182.05 3.42422C180.022 3.00075 178.221 1.84505 176.991 0.177919C176.881 0.0066138 176.742 -0.255212 176.591 -0.274621C173.045 -0.727942 170.638 -3.51073 167.591 -4.73479C164.226 -6.1427 160.947 -7.74795 157.77 -9.54209C157.599 -9.63533 157.474 -9.95198 157.336 -9.94649C154.055 -9.81226 150.72 -9.4527 148.323 -12.4708C145.074 -12.679 141.821 -12.8472 138.576 -13.1139C137.163 -13.2214 135.762 -13.4504 134.388 -13.7984C133.105 -14.1892 131.752 -14.292 130.425 -14.0994C129.098 -13.9068 127.83 -13.4236 126.712 -12.6843C125.478 -11.756 124.07 -11.0864 122.572 -10.7157C121.073 -10.345 119.515 -10.2809 117.991 -10.5271C116.364 -10.7598 114.708 -10.3991 113.326 -9.51106C108.832 -7.06241 104.28 -4.72346 99.7708 -2.3025C99.0595 -1.92571 98.4146 -1.43495 97.8618 -0.849743C94.5487 2.74 91.2783 6.36935 87.9939 9.9854C87.838 10.1169 87.702 10.2704 87.5902 10.441C85.6527 14.0125 84.0194 17.7408 82.7078 21.5865C82.2376 23.7427 81.4614 25.8206 80.4029 27.7571C79.7527 28.5547 79.2586 29.4677 78.9466 30.4484C77.8437 36.2294 77.2422 42.0949 77.1487 47.9795C77.1805 48.7827 77.5951 49.6269 77.442 50.372C76.2769 56.044 78.2007 61.2862 79.6572 66.5708C80.5214 69.7057 81.7162 72.7496 83.0427 76.6623C81.385 75.9773 80.1447 75.8653 79.7389 75.2245C78.2073 73.0567 76.9686 70.6963 76.0548 68.2043C74.9237 64.5066 74.4969 60.5997 73.5879 56.8258C72.4085 53.1729 71.8829 49.3405 72.0353 45.5049C71.4415 45.1225 70.7971 44.8252 70.1208 44.6216C63.8022 44.0707 57.437 44.772 51.3897 46.6851C50.4483 47.0817 49.5731 47.6198 48.7941 48.2808C47.2883 49.3187 45.75 50.3226 44.3337 51.4743C42.4611 52.9975 40.2019 54.1948 39.4726 56.7937C39.3221 57.1797 39.0751 57.5207 38.7551 57.7838C36.7133 59.493 35.0604 61.6187 33.9069 64.0186C32.7534 66.4185 32.1261 69.0372 32.0669 71.6993C31.9051 72.5007 31.584 73.2615 31.1226 73.9364C30.7956 74.4585 30.5098 75.0052 30.2676 75.5716C29.648 77.6973 31.6001 79.9293 29.9094 82.0791C29.3239 82.9255 28.9427 83.8961 28.7957 84.9146C28.6487 85.9332 28.7399 86.972 29.0621 87.9493C29.1375 89.1668 29.0558 90.3889 28.8189 91.5856C28.6885 92.1863 28.7142 92.8105 28.8936 93.3985C30.0697 95.4666 32.0179 97.2232 31.2779 99.9815C32.975 101.622 33.1159 104 34.1325 105.957C34.6877 107.062 35.41 108.074 36.2741 108.959C38.454 111.109 40.7754 113.115 43.0064 115.215C44.8685 117.344 46.9383 119.282 49.1852 121.001C52.0132 122.735 54.3864 125.544 58.5218 124.962C60.774 125.088 62.9634 125.751 64.9077 126.895C66.1371 127.523 67.4824 127.893 68.8603 127.981C70.2383 128.069 71.6197 127.873 72.9191 127.406C72.4929 124.617 72.2798 121.779 71.5971 119.06C70.3776 113.704 70.2336 108.16 71.1735 102.748C71.2853 101.981 71.307 101.984 73.542 101.46C74.1726 104.43 74.6014 107.439 74.8256 110.467C74.9065 117.029 76.7405 123.281 77.8048 129.664C78.3351 131.403 79.0083 133.095 79.8176 134.723C81.4999 139.523 84.0695 143.926 86.0036 148.625C87.5684 151.724 89.5934 154.569 92.0099 157.062C94.6086 160.171 97.4002 163.114 100.368 165.874C101.603 167.011 103.721 167.145 105.096 168.186C106.341 169.127 106.875 171.093 108.166 171.862C110.233 172.783 112.394 173.475 114.611 173.926C115.346 175.225 116.314 176.377 117.466 177.325C119.158 177.963 120.906 178.444 122.687 178.763C125.118 179.674 128.061 179.457 129.84 181.93C130.026 182.162 130.262 182.349 130.532 182.476C130.801 182.603 131.095 182.667 131.393 182.664C135.842 181.838 140.297 184.661 144.789 182.536C145.982 182.265 147.227 182.329 148.386 182.72C150.251 183.25 152.201 183.408 154.127 183.185C156.052 182.961 157.915 182.36 159.608 181.417C160.523 180.95 161.549 180.743 162.574 180.819C163.182 180.883 163.796 180.768 164.341 180.489C164.885 180.209 165.336 179.778 165.639 179.246C166.093 178.553 166.732 178.002 167.483 177.655C168.235 177.307 169.068 177.178 169.89 177.28C171.414 177.494 172.967 177.366 174.435 176.905C175.904 176.444 177.252 175.662 178.38 174.616C179.034 173.933 180.224 173.768 181.161 173.349C181.911 173.014 182.95 172.859 183.347 172.275C186.981 166.941 193.434 165.63 198.08 161.774C198.661 161.211 199.164 160.572 199.576 159.876C200.016 159.188 200.596 158.6 201.279 158.151C201.962 157.702 202.731 157.402 203.538 157.271C205.185 158.389 204.707 159.977 203.988 161.1C201.501 164.988 200.308 169.93 195.482 171.995C194.501 173.306 193.267 174.407 191.853 175.233C190.439 176.06 188.873 176.594 187.249 176.804C185.824 177.082 184.544 177.859 183.639 178.994C181.325 181.883 178.144 183.952 174.565 184.893C174.208 185.015 173.944 185.405 173.638 185.67C174.644 187.58 175.602 189.516 176.666 191.392C177 192.253 177.585 192.994 178.345 193.519C179.105 194.043 180.005 194.327 180.929 194.334C181.857 194.308 182.773 194.551 183.567 195.033C184.361 195.515 184.999 196.215 185.405 197.051C185.922 197.88 186.722 199.012 187.51 199.114C192.832 199.801 196.967 203.687 202.24 204.416C206.406 205.261 210.624 205.826 214.866 206.108C216.889 206.118 219.024 207.1 220.911 206.704C229.311 204.941 238.11 205.722 246.286 202.643C249.154 201.563 252.081 200.626 254.897 199.427C257.306 198.335 259.814 197.477 262.387 196.867C265.6 196.178 268.6 194.728 271.135 192.637C271.836 192.053 272.938 191.95 274.293 191.473C273.942 194.921 270.72 195.002 269.29 196.797C267.731 198.416 265.92 199.773 263.928 200.814C261.919 202.086 259.776 203.148 257.53 204.392C259.995 206.254 262.035 207.857 264.147 209.358C264.976 209.942 265.889 210.399 266.854 210.714C269.867 211.351 272.724 212.579 275.26 214.326C280.965 215.223 285.445 219.45 291.213 220.194C291.797 220.269 292.42 220.869 292.905 220.747C295 220.018 297.284 220.039 299.365 220.807C301.535 221.364 303.788 221.524 306.015 221.282C307.011 221.157 308.001 220.98 308.979 220.752C310.801 220.758 312.619 220.595 314.411 220.265C316.085 219.604 317.836 219.156 319.622 218.931C322.352 218.54 325.037 217.884 327.64 216.972C327.452 216.176 327.488 215.593 327.251 215.444C325.886 214.583 323.869 214.171 323.158 212.967C320.899 209.137 317.101 206.869 314.408 203.54C313.931 202.951 313.865 202.035 313.589 201.278C313.246 200.336 313.157 199.025 312.479 198.531C309.56 196.408 309.211 193.125 307.904 190.17C306.524 187.474 305.33 184.687 304.331 181.828C304.098 181.079 304.099 180.277 304.333 179.528C304.567 178.78 305.024 178.12 305.641 177.637C306.468 178.393 307.708 179 308.067 179.942C310.908 187.415 316.364 193.075 321.36 198.982C325.943 204.221 331.302 208.724 337.251 212.336C341.052 214.657 345.167 216.42 349.47 217.569C352.931 218.82 356.502 219.743 360.135 220.324C361.53 220.569 362.951 220.63 364.362 220.506C365.054 220.342 365.775 220.339 366.468 220.495C367.162 220.652 367.811 220.965 368.366 221.41C368.981 221.956 369.769 222.267 370.591 222.288C372.167 222.037 373.657 221.252 375.233 220.995C376.587 220.774 377.566 222.541 379.248 221.838C383.163 220.203 387.726 220.715 391.422 218.253C391.775 218.033 392.189 217.931 392.604 217.962C396.475 218.333 399.102 215.689 401.892 213.82C404.542 212.044 406.423 209.226 409.468 207.797C410.249 207.43 410.641 206.17 411.14 205.279C411.708 203.744 412.505 202.304 413.504 201.007C417.27 197.621 418.99 193.009 421.349 188.781C421.909 187.707 422.291 186.55 422.482 185.354C422.886 182.183 424.023 179.149 425.805 176.494C425.927 172.124 424.412 168.125 425.553 164.028C425.659 163.206 425.478 162.373 425.041 161.669C423.507 158.805 422.436 155.717 421.865 152.518C421.642 151.553 421.087 150.696 420.297 150.099C418.458 148.526 416.906 146.646 415.711 144.542C413.131 141.376 410.306 138.418 407.263 135.694C406.754 135.176 406.258 134.644 405.794 134.158C405.963 133.907 406.157 133.673 406.372 133.459C410.428 135.234 414.786 136.344 417.865 140.017C419.551 141.664 421.416 143.116 423.425 144.348C423.71 144.339 423.99 144.273 424.248 144.154C424.507 144.035 424.738 143.864 424.929 143.653C425.12 143.442 425.267 143.195 425.36 142.926C425.453 142.657 425.491 142.372 425.472 142.088C425.362 139.408 427.194 137.101 426.576 134.245C426.106 132.076 426.542 129.709 424.478 128.106C424.314 127.976 424.192 127.802 424.126 127.605C423.621 125.202 422.877 122.855 421.907 120.599C420.493 118.648 418.955 116.79 417.304 115.036C416.716 114.234 416.544 113.214 415.363 112.9C415.068 112.838 414.79 112.714 414.546 112.536C414.302 112.359 414.099 112.132 413.949 111.871C412.875 107.481 409.256 106.664 405.655 105.762C404.683 105.518 403.257 105.46 402.863 104.814C401.016 101.787 397.906 102.224 395.187 101.764C391.983 101.222 388.703 101.14 385.492 100.63C383.46 100.318 381.381 100.706 379.598 101.73C375.751 107.961 373.446 115.392 365.994 118.757C365.603 118.147 365.411 117.432 365.446 116.709C365.481 115.986 365.74 115.291 366.188 114.722C367.631 112.483 369.105 110.26 370.473 107.974C373.538 103.105 375.634 97.6885 376.645 92.0239C377.092 89.2353 377.836 86.5136 378.193 83.6619C378.643 77.7215 377.58 71.764 375.104 66.3458C374.712 64.6006 374.11 62.9094 373.311 61.3091C370.782 57.5937 367.946 54.0973 364.832 50.8569C362.041 48.1747 358.59 46.278 354.829 45.3589C351.293 44.4376 347.862 43.1223 344.355 42.0803C342.836 41.6287 341.242 41.4279 339.299 41.0357C339.063 44.0606 338.845 46.6612 338.659 49.2639C338.383 53.132 338.23 57.0124 337.823 60.8661C337.754 62.9232 337.282 64.9467 336.433 66.8217C333.95 71.2324 333.774 76.7439 329.869 80.4349C329.435 80.8082 328.984 81.1593 328.515 81.4869C327.084 80.9217 327.666 79.7353 327.498 78.8629C327.306 78.0627 327.275 77.2323 327.406 76.42C328.117 73.2465 329.145 70.1322 329.672 66.9326C330.541 63.6008 331.16 60.209 331.526 56.7854C331.583 53.7591 332.714 50.7684 333.053 47.7268C333.442 45.7382 333.317 43.6831 332.689 41.7567C331.781 39.9268 331.398 37.8812 331.583 35.8468C331.988 31.856 330.291 28.2327 329.768 24.4085C329.591 23.1149 328.386 21.9757 327.71 20.7336C326.194 17.9482 322.68 16.2336 323.212 12.3511C322.193 11.5043 321.395 10.4224 320.888 9.19857C320.381 7.97475 320.179 6.64584 320.3 5.3266C320.291 4.79927 319.741 4.2622 319.392 3.76383C316.927 -0.437568 313.599 -4.0684 309.628 -6.88905C307.661 -8.35422 306.009 -10.1986 304.767 -12.3132C303.62 -14.2525 301.873 -15.7661 299.79 -16.6256C297.402 -17.3381 295.353 -18.8907 294.02 -20.9966C293.594 -21.7017 292.949 -22.2477 292.183 -22.551C288.347 -23.9546 284.877 -26.1159 280.874 -27.2852C277.364 -28.3101 273.471 -27.8549 270.291 -29.9908C267.302 -31.9987 263.752 -32.2132 260.43 -33.1526C258.726 -33.8703 256.817 -33.9355 255.068 -33.3357C253.764 -32.8012 251.921 -33.7687 250.338 -33.6921C245.68 -33.4668 241.004 -33.2589 236.388 -32.6464C233.33 -32.2772 230.34 -31.4777 227.506 -30.2715C225.038 -28.8381 222.266 -28.0121 219.416 -27.862C218.594 -27.7749 217.824 -27.4189 217.225 -26.8491C215.17 -25.1465 212.708 -24.0092 210.08 -23.5492C208.55 -23.0084 207.165 -22.1212 206.035 -20.9569C204.816 -19.5887 203.468 -18.3414 202.009 -17.2325C195.415 -13.8047 191.523 -7.68565 186.76 -2.43074C186.528 -2.041 186.358 -1.61739 186.256 -1.17522Z" fill="white"/>
<path d="M382.023 96.8809C382.148 97.0092 382.255 97.2089 382.403 97.2453C382.54 97.2792 382.72 97.1394 382.882 97.0762L382.286 96.472L382.023 96.8809Z" fill="white"/>
<path d="M288.696 108.674C287.647 107.705 286.818 106.489 285.734 105.569C280.94 101.497 275.63 98.6279 269.076 99.3482C267.048 99.6294 264.983 99.4499 263.034 98.8232C260.12 97.8333 259.852 97.3398 260.326 94.3693C261.303 88.2442 263.517 82.0705 259.604 76.0946C259.085 75.3008 259.224 74.097 258.963 73.1079C258.464 70.2548 257.016 67.6538 254.855 65.7258C253.259 64.4597 252.15 62.6792 251.719 60.6876C251.159 58.7314 250.413 56.8333 249.491 55.0194C248.357 52.8611 247.157 50.5892 243.916 51.4323C242.914 51.693 242.044 50.8605 241.161 50.315C238.739 48.8192 236.236 47.454 233.766 46.0372C233.436 45.5763 233.107 45.1159 232.777 44.6562C229.916 43.697 227.128 42.2556 223.963 43.6218C223.68 43.7201 223.378 43.7535 223.079 43.7195C222.781 43.6856 222.494 43.5852 222.24 43.4258C221.511 42.8802 220.68 42.4859 219.797 42.2662C218.913 42.0465 217.995 42.0058 217.095 42.1466C214.9 42.2909 213.861 39.8017 211.795 39.4141C210.404 39.1529 209.036 38.7671 207.657 38.4369C207.321 39.1057 206.911 39.935 206.102 39.7655C204.806 39.4945 205.205 38.3928 205.328 37.497C204.084 34.081 204.187 30.2969 202.467 27.011C204.11 22.5812 198.636 21.1846 198.429 17.5413C198.428 17.3364 198.384 17.134 198.299 16.9476C197.272 14.2969 195.686 11.8983 193.65 9.91461C191.423 8.14111 189.701 5.81274 188.658 3.16336C188.327 2.2043 187.629 1.41599 186.717 0.971702C186.415 0.486798 186.112 0.00233312 185.81 -0.481752C187.452 -5.05996 190.418 -9.04658 194.331 -11.9348C196.874 -13.6041 199.156 -15.6409 201.103 -17.979C203.524 -21.4765 206.983 -24.1244 210.992 -25.5483C213.534 -26.4 215.859 -27.799 217.803 -29.6465C218.294 -30.2912 218.987 -30.7538 219.77 -30.9611C220.554 -31.1685 221.385 -31.1088 222.13 -30.7915C228.006 -33.6125 234.188 -35.7464 240.552 -37.1511C245.173 -38.0503 249.91 -38.1833 254.573 -37.5449C254.832 -37.5268 255.225 -36.9924 255.242 -36.6817C255.224 -36.4919 255.161 -36.3091 255.059 -36.148C254.957 -35.9868 254.819 -35.8519 254.655 -35.7541C250.388 -33.6689 245.255 -32.9754 242.67 -28.2117C239.224 -27.2929 238.055 -24.4663 237.017 -21.5092C236.876 -21.1193 236.623 -20.7799 236.289 -20.5341C233.273 -18.4561 232.256 -14.9259 230.185 -12.165C229.618 -11.5761 229.231 -10.8377 229.069 -10.0365C229.032 -4.23053 226.288 1.01414 225.88 6.83135C225.533 11.7761 227.117 16.5644 226.231 21.458C226.109 22.1319 226.758 22.9879 227.153 23.7027C227.872 25.1786 228.717 26.5896 229.68 27.9198C231.116 29.7007 230.932 32.648 233.054 33.6314C235.175 34.3171 237.375 34.726 239.6 34.8478C240.129 34.6428 240.658 34.4379 241.188 34.2331C242.974 33.8308 244.833 33.8906 246.59 34.407C251.038 35.7928 255.5 37.132 259.943 38.5346C260.714 38.7749 261.441 39.1374 262.097 39.608C264.704 41.5143 267.264 43.4831 269.842 45.4287C270.168 45.8671 270.493 46.3048 270.819 46.7421C271.219 48.3046 271.866 49.793 272.737 51.1506C276.669 55.4753 277.046 61.0371 278.434 66.257C278.538 66.6468 278.53 67.0652 278.621 67.4593C279.65 71.4079 279.339 75.5865 277.736 79.3393C277.666 79.5307 277.608 79.7264 277.563 79.9253C277.824 80.4462 278.085 80.9668 278.345 81.4872L278.345 81.4868C278.653 81.9356 278.962 82.3846 279.27 82.8339C282.247 83.4963 284.952 85.0447 287.032 87.2752C287.63 87.8081 288.302 88.2529 289.026 88.5961C289.348 89.0657 289.671 89.5353 289.994 90.0049C290.35 90.1805 290.715 90.3367 291.088 90.4727C291.394 90.9419 291.7 91.4106 292.007 91.8788C292.78 93.3031 293.68 94.6551 294.695 95.9184C298.599 100.017 298.229 105.718 300.36 110.465C300.067 115.292 300.924 120.215 298.883 124.896C298.135 126.79 297.54 128.741 297.104 130.731C295.628 135.166 293.425 139.325 290.583 143.036C289.86 144.039 288.793 144.742 287.586 145.01C286.993 145.478 286.597 145.327 286.377 144.624C287.369 141.463 288.361 138.3 289.353 135.137C289.593 134.294 289.832 133.45 290.071 132.608C290.321 131.825 290.54 131.033 290.824 130.264C292.871 124.653 292.967 118.515 291.097 112.843C290.7 111.257 289.868 109.813 288.696 108.674Z" fill="#DEF1FD"/>
<path d="M108.701 41.6906C109.853 42.1139 111.005 42.5384 112.157 42.9641C112.465 43.3838 112.774 43.8026 113.083 44.2205C115.442 44.942 117.8 45.6654 120.159 46.3909C120.698 45.9812 121.099 46.078 121.349 46.7211C122.531 47.075 123.714 47.4306 124.897 47.788C125.39 47.6116 125.883 47.4349 126.377 47.2581C127.973 47.6551 129.568 48.0518 131.164 48.4483C132.468 47.5215 133.725 48.1787 134.99 48.5629C136.561 49.0315 138.132 49.5001 139.703 49.9685C140.106 50.1003 140.508 50.2318 140.911 50.3632C141.669 50.5919 142.428 50.8205 143.187 51.0489C143.505 51.5022 143.824 51.9549 144.142 52.4069L144.267 52.6078C144.358 52.7796 144.567 53.0494 144.52 53.1066C144.287 53.3536 144.032 53.5794 143.759 53.7815C142.94 53.6007 142.119 53.4199 141.299 53.2392C140.809 53.4506 140.32 53.6622 139.83 53.874C134.42 51.9189 128.511 51.8269 123.042 53.6126C122.229 53.7126 121.405 53.6642 120.609 53.4697C120.1 53.6526 119.591 53.8351 119.082 54.0173C116.669 54.4705 114.243 54.8599 111.852 55.4049C110.641 55.5457 109.486 55.9967 108.5 56.7141C106.892 57.9725 105.102 58.9775 103.19 59.6944C99.2884 61.4945 95.9044 64.2509 93.3519 67.7078C92.9049 68.3798 92.4739 69.3717 91.8419 69.5576C90.7128 69.9906 89.6877 70.6566 88.8332 71.5122C87.9786 72.3678 87.3139 73.3939 86.8822 74.5235C84.7759 78.2266 81.5656 77.9445 79.5779 74.2294C79.2365 73.7307 79.0304 73.1518 78.9798 72.5495C79.1405 70.3388 77.6078 68.7268 77.1076 66.7813C76.6557 65.0243 75.1601 63.573 75.5844 61.5735C75.3216 61.0767 75.0585 60.5801 74.7952 60.0838C74.0294 55.8755 73.4079 51.6744 75.654 47.6771C75.954 47.1344 76.1322 46.5329 76.1762 45.9143C76.2202 45.2958 76.129 44.6751 75.9089 44.0954C74.8042 41.2053 74.754 38.0181 75.7673 35.0946C75.9526 34.2926 75.9176 33.4555 75.6661 32.6718C75.3446 31.2859 75.3476 29.8445 75.6748 28.4599C76.0019 27.0754 76.6445 25.7851 77.5523 24.6897C79.928 21.2777 83.0345 17.9916 82.6984 13.2346C82.6229 12.1587 83.8744 11.6384 84.4173 10.8277C87.3653 6.42606 93.1354 4.55183 94.9041 -0.914697C95.0023 -1.2178 96.028 -1.46613 96.5072 -1.33154C96.7714 -1.21794 97.0088 -1.04996 97.2039 -0.838591C97.3989 -0.627225 97.5474 -0.377182 97.6395 -0.104684C97.7898 0.48896 97.7631 1.11364 97.5628 1.69234C96.1329 6.81359 95.4028 12.1048 95.3925 17.4219C94.9342 21.2423 95.802 25.1042 97.8507 28.3611C98.5311 29.139 99.005 30.0754 99.229 31.0843C99.5509 34.6429 102.334 36.1648 104.649 38.1027C104.94 38.5381 105.231 38.9729 105.522 39.4071C106.279 39.7222 107.036 40.0389 107.792 40.357C108.096 40.8023 108.398 41.2468 108.701 41.6906Z" fill="#DEF1FD"/>
<path d="M278.054 219.305C282.335 220.308 286.399 222.1 290.986 221.996C293.183 222.287 295.322 222.912 297.329 223.849C297.76 225.209 298.533 225.453 299.655 224.564C303.15 225.589 306.898 225.311 310.203 223.781C311.491 224.147 312.772 224.541 314.069 224.869C315.403 225.206 316.242 224.521 316.825 223.401C317.411 223.228 317.969 222.971 318.483 222.639C319.192 221.911 320.106 221.417 321.103 221.221C322.1 221.026 323.133 221.138 324.064 221.545C327.299 222.805 329.441 221.439 331.098 218.523C331.448 217.984 331.909 217.526 332.451 217.18C332.993 216.835 333.603 216.61 334.24 216.522C334.876 216.433 335.524 216.482 336.14 216.666C336.756 216.85 337.325 217.164 337.808 217.587C339.452 219.4 341.641 220.63 344.044 221.091C350.891 223.147 357.725 225.244 364.564 227.325C365.697 228.948 365.887 228.939 367.255 227.206C368.036 227.292 368.818 227.378 369.599 227.465C370.034 227.597 370.469 227.729 370.904 227.862C372.173 227.825 373.442 227.789 374.711 227.752C376.807 228.109 378.784 229.855 381.044 228.291C388.192 227.934 389.179 227.542 392.748 224.561C393.784 223.587 394.558 222.368 395.001 221.017C395.44 220.786 395.878 220.556 396.315 220.327C396.05 220.274 395.774 220.311 395.531 220.43C395.774 220.311 396.05 220.274 396.315 220.327L397.555 220.485C398.061 220.246 398.567 220.007 399.074 219.768C399.394 219.41 399.715 219.051 400.028 218.691C400.373 218.809 400.744 218.833 401.101 218.758C401.458 218.684 401.788 218.515 402.057 218.269C403.755 217.607 406.006 218.015 406.882 215.765C407.369 215.891 407.88 215.898 408.371 215.784C408.862 215.67 409.318 215.44 409.7 215.112C409.239 214.891 408.777 214.669 408.316 214.446C407.775 214.748 407.235 215.051 406.693 215.356L406.692 215.353C404.785 215.079 402.84 215.431 401.15 216.357C400.446 216.161 399.702 216.163 399 216.363C398.297 216.562 397.663 216.951 397.167 217.488L397.165 217.487C393.292 218.777 389.291 217.615 385.376 218.105C384.946 217.909 384.471 217.834 384.001 217.889C383.531 217.943 383.086 218.124 382.711 218.413L380.311 217.876C379.808 218.087 379.305 218.298 378.802 218.51C377.628 218.144 376.455 217.779 375.281 217.415C374.954 216.979 374.626 216.541 374.299 216.102C368.952 215.067 364.427 212.018 359.463 210.046C359.158 209.611 358.854 209.174 358.55 208.736C356.851 207.257 355.153 205.779 353.455 204.302C353.161 203.883 352.867 203.467 352.574 203.052C350.648 201.509 349.076 199.571 347.963 197.368C347.569 196.42 347.056 195.525 346.436 194.706C342.45 190.191 341.748 184.471 340.263 178.959C338.037 170.69 338.381 162.371 338.806 153.996C338.832 152.568 338.766 151.139 338.608 149.72C338.552 149.004 337.369 148.667 336.623 149.006C335.398 149.775 334.518 150.988 334.168 152.392C333.7 152.675 333.232 152.959 332.763 153.242C332.284 154.091 331.691 154.868 330.998 155.553C329.225 156.447 327.791 157.894 326.914 159.676C326.308 161.462 323.755 161.363 323.122 163.238C322.672 163.515 322.22 163.792 321.768 164.069C317.28 168.431 311.993 171.886 306.196 174.244C305.043 174.683 304.108 175.557 303.591 176.678C303.159 176.903 302.728 177.127 302.299 177.352C301.896 177.369 301.355 177.22 301.11 177.425C296.088 181.638 289.272 180.99 283.738 183.835C282.777 184.116 281.76 184.149 280.782 183.933C279.794 183.929 278.837 184.281 278.087 184.926C275.224 186.771 272.206 188.293 268.635 186.849C268.113 187.024 267.591 187.198 267.07 187.374C263.171 188.121 259.619 186.73 256.027 185.586C254.923 183.89 254.709 183.898 253.333 185.681C252.533 186.047 251.664 186.237 250.785 186.238C249.905 186.239 249.036 186.051 248.236 185.686C248.083 185.199 247.781 184.773 247.372 184.468C246.962 184.163 246.468 183.995 245.957 183.988C243.153 182.73 240.126 182.048 237.053 181.981C235.643 181.806 234.263 181.439 232.952 180.889C232.637 180.469 232.322 180.047 232.008 179.623C229.238 178.643 226.132 178.325 224.216 175.667C223.89 175.253 223.564 174.837 223.238 174.419C220.717 174.031 218.391 172.831 216.613 171.001C216.299 170.523 215.985 170.045 215.671 169.566C211.61 166.191 207.845 162.473 204.419 158.455C201.734 155.634 200.422 155.264 196.96 156.922C193.672 158.535 190.071 159.412 186.41 159.492C183.992 159.669 181.613 160.193 179.346 161.05C177.792 161.581 176.104 161.569 174.558 161.016C174.052 161.215 173.546 161.414 173.04 161.614C172.253 161.46 171.466 161.307 170.678 161.153C170.16 161.359 169.642 161.566 169.124 161.774C165.503 161.718 161.885 162.014 158.32 162.656C156.733 162.983 155.089 162.905 153.54 162.429C153.034 162.607 152.528 162.786 152.022 162.964C149.595 162.147 146.994 163.394 144.586 162.334C144.063 162.521 143.54 162.708 143.018 162.896C140.638 162.24 138.257 161.584 135.877 160.927C135.436 160.833 134.995 160.738 134.555 160.644C133.047 160.172 131.538 159.7 130.029 159.227C128.43 158.731 126.83 158.235 125.23 157.739C124.843 157.619 124.457 157.497 124.072 157.372C122.8 157.013 121.534 156.372 120.243 157.314C119.37 157.183 118.532 156.879 117.779 156.418C117.025 155.958 116.372 155.351 115.857 154.634C115.678 154.188 115.375 153.804 114.985 153.524C114.595 153.244 114.133 153.081 113.654 153.053C110.603 152.648 108.642 150.159 105.967 149.038C104.83 146.459 104.83 146.459 102.761 146.955C102.096 146.796 101.488 146.458 101.003 145.976C100.519 145.494 100.176 144.888 100.013 144.224C99.8772 143.659 99.619 143.13 99.2567 142.675C98.8945 142.22 98.4369 141.85 97.9163 141.591C97.6053 141.133 97.2946 140.674 96.984 140.214C93.9991 136.936 90.5628 134.024 88.7011 129.837C88.4306 129.289 88.0013 128.836 87.4693 128.537C85.4125 127.172 83.9543 125.073 83.3923 122.669C83.0414 121.088 82.3072 119.617 81.2545 118.387C80.8061 117.965 80.4782 117.43 80.3047 116.839C80.1311 116.248 80.118 115.621 80.2668 115.023C80.4766 114.131 80.4449 113.199 80.175 112.324C79.9052 111.448 79.4069 110.66 78.7314 110.041C77.0414 107.764 75.7487 105.218 74.9082 102.51C74.6535 102.029 74.3989 101.549 74.1443 101.07C74.9572 97.7363 76.229 94.5316 77.9232 91.5477C78.2796 91.0986 78.5125 90.5641 78.5987 89.9972C78.6848 89.4304 78.6213 88.8509 78.4145 88.3162C78.2077 87.7815 77.8647 87.3101 77.4195 86.9488C76.9744 86.5876 76.4425 86.3489 75.8766 86.2566C71.8735 84.8804 67.9592 83.258 64.1563 81.3986C62.6702 80.7626 61.3163 79.8538 60.1647 78.7194C60.0254 78.2547 59.7554 77.8399 59.3868 77.5246C59.0182 77.2093 58.5667 77.0067 58.0861 76.9411C57.7128 76.7982 57.3481 76.6335 56.9942 76.4476C56.7045 75.9773 56.4148 75.5059 56.1248 75.0334C51.1411 69.0505 50.8879 62.0615 51.8467 54.822C51.927 54.2182 52.1806 53.6391 52.2925 53.037C53.854 44.6266 52.6871 45.1086 45.5973 46.4567C42.9781 46.9748 40.6318 48.4158 38.985 50.5176C37.3027 52.4964 36.1815 55.077 33.1968 55.7096C32.5942 55.8376 32.1222 56.8512 31.7048 57.5275C30.8491 58.914 30.0711 60.3483 29.2608 61.7629C27.7549 62.1817 27.5229 62.9808 28.5464 64.1551C27.8439 66.3007 27.1272 68.4418 26.4455 70.5941C26.1363 71.5712 25.4918 72.6676 25.701 73.542C26.2829 76.2595 25.9323 79.0938 24.7056 81.5875C24.1032 83.0297 25.2404 85.1284 25.3305 86.9437C25.4528 91.2166 26.508 95.4109 28.4222 99.2328C28.795 99.9499 28.9926 101.006 29.5825 101.32C32.4515 102.843 32.8192 105.218 32.4116 108.088C32.2663 109.112 33.1092 109.929 33.7052 110.782C35.9214 113.956 39.3287 116.18 40.8449 119.95C41.1338 120.668 42.4817 121.102 43.4255 121.384C45.45 121.779 47.274 122.866 48.5854 124.458C49.2442 125.254 50.0819 125.883 51.0301 126.293C51.9782 126.703 53.0099 126.883 54.0409 126.818C58.3636 126.876 62.5725 128.211 66.138 130.656C67.9482 131.635 69.9297 132.257 71.9747 132.487C72.8786 132.656 73.7258 133.049 74.439 133.63C75.1522 134.21 75.7087 134.96 76.0577 135.811C77.3843 138.762 79.0102 141.581 80.5409 144.439C81.495 146.221 80.5284 148.643 82.45 150.089C82.7604 150.563 83.0706 151.038 83.3807 151.513C84.0163 152.176 84.6521 152.839 85.2881 153.502C85.5981 153.982 85.9079 154.462 86.2176 154.943C87.0879 157.416 88.5753 159.627 90.5388 161.365C93.0072 163.599 95.8198 165.709 96.6391 169.325C97.0457 171.121 98.7076 171.707 100.236 172.309C100.55 172.751 100.863 173.195 101.177 173.639C104.409 175.603 107.642 177.567 110.876 179.529C110.628 181.897 112.365 182.206 114.036 182.582C116.64 184.642 119.708 186.036 122.973 186.642C124.297 189.521 126.703 188.718 128.967 188.402C130.092 188.739 131.217 189.076 132.342 189.413C133.649 189.87 134.953 190.537 136.284 189.473C137.607 189.882 138.937 190.266 140.249 190.704C141.141 191.135 142.115 191.368 143.105 191.387C144.095 191.407 145.078 191.212 145.986 190.817C146.641 190.588 147.335 190.493 148.028 190.537C148.72 190.58 149.397 190.762 150.018 191.071C150.525 192.489 151.34 192.602 152.411 191.64C152.814 191.69 153.317 191.922 153.605 191.763C156.838 189.983 160.555 189.995 163.948 188.895C164.859 188.443 165.908 188.355 166.883 188.648C167.857 188.941 168.683 189.593 169.194 190.473C169.87 191.218 170.639 191.873 171.482 192.422C171.787 192.888 172.091 193.356 172.396 193.824C174.078 194.519 176.166 194.578 177.309 196.15C181.536 201.962 188.727 202.882 194.235 206.565C194.771 206.863 195.377 207.015 195.991 207.007C200.483 207.183 204.851 208.53 208.662 210.913C211.857 212.836 215.755 212.315 219.352 211.663C220.744 211.382 222.181 211.425 223.553 211.789C224 212.01 224.503 212.092 224.997 212.024C225.491 211.957 225.954 211.743 226.325 211.41C229.037 212.263 231.776 213.234 233.493 209.76C233.836 209.837 234.179 209.908 234.521 209.973C236.498 210.339 238.531 210.256 240.47 209.731C242.41 209.205 244.207 208.252 245.73 206.939C247.326 207.415 248.95 208.011 249.951 205.949C250.954 206.073 251.965 206.108 252.973 206.054C253.86 205.82 254.799 205.886 255.644 206.241C256.49 206.596 257.194 207.22 257.648 208.017C257.936 208.554 258.337 209.023 258.824 209.39C259.31 209.758 259.871 210.015 260.467 210.145C261.357 210.339 262.19 210.737 262.9 211.308C263.61 211.88 264.177 212.609 264.557 213.437C265.163 214.625 266.197 215.539 267.451 215.994C268.705 216.45 270.084 216.412 271.312 215.89C271.708 216.028 272.104 216.165 272.5 216.302C272.663 216.755 272.934 217.161 273.289 217.485C273.644 217.809 274.072 218.042 274.537 218.164C275.807 220.211 275.821 220.215 278.054 219.305ZM406.851 215.699L406.758 215.497L406.851 215.699Z" fill="#DEF1FD"/>
<path d="M409.947 212.976C410.129 212.91 410.322 212.884 410.515 212.899C410.707 212.914 410.895 212.969 411.064 213.062C411.233 213.155 411.381 213.283 411.497 213.437C411.613 213.591 411.695 213.769 411.737 213.957C411.925 214.955 411.09 215.166 410.271 215.184C410.079 215.174 409.888 215.15 409.7 215.112C409.238 214.891 408.777 214.669 408.316 214.446C408.853 213.935 409.31 213.205 409.947 212.976Z" fill="#DEF1FD"/>
<path d="M43.5354 125.054C42.9279 124.914 42.3811 124.582 41.9748 124.109C37.4577 119.008 30.9794 115.445 29.3374 108.073C29.2194 107.677 29.0302 107.307 28.7791 106.979C25.1705 101.643 24.3936 95.1479 21.6424 89.4529C21.4225 88.4628 21.472 87.4319 21.7858 86.4674C22.4107 82.6163 23.234 78.7924 23.7235 74.9254C24.7012 67.2014 28.5156 60.7175 32.4661 54.2809C33.0448 53.4408 33.7263 52.6765 34.4949 52.0057C35.815 50.7352 37.1729 49.5018 38.5499 48.2929C39.4052 47.4258 40.363 46.6662 41.4021 46.0309C44.4323 44.3362 47.5838 42.868 50.8306 41.6383C56.035 39.8983 61.2346 37.9525 66.9867 38.7434C68.7726 39.2495 70.6836 39.0645 72.3395 38.2255C72.3999 37.1337 72.458 36.1188 72.5117 35.1037C72.6948 31.6386 72.4217 28.0892 74.4023 24.9592C74.0641 22.0588 77.0426 20.2071 76.9625 17.5752C76.8569 14.0846 78.827 11.8869 80.7888 9.52771C81.9602 8.1188 83.0514 6.6417 84.1548 5.17751C86.7124 1.78464 88.2617 -2.36997 91.7599 -5.04687C94.0251 -6.4178 96.1521 -8.00494 98.1113 -9.78606C99.8006 -11.569 101.94 -12.8633 104.303 -13.5326C108.857 -15.1618 113.478 -16.6082 118.003 -18.3144C124 -20.5758 130.655 -18.7334 136.569 -21.415C136.966 -21.5465 137.396 -21.5354 137.786 -21.3836C141.735 -19.9675 146.224 -20.2079 149.285 -17.6074C150.864 -17.9708 152.329 -18.8243 153.14 -18.4069C157.017 -16.4109 161.344 -15.9743 165.337 -14.4775C166.797 -13.7632 168.195 -12.926 169.514 -11.975C170.828 -11.0398 172.247 -10.2617 173.742 -9.65661C174.943 -9.42603 176.086 -8.9594 177.105 -8.28377C178.125 -7.60813 179 -6.73693 179.68 -5.72062C179.862 -5.40339 180.119 -5.13484 180.427 -4.9378C180.735 -4.74077 181.086 -4.62108 181.451 -4.58886C181.815 -4.55664 182.182 -4.61282 182.52 -4.7527C182.858 -4.89258 183.158 -5.11201 183.393 -5.39232C184.166 -6.0694 184.897 -6.79419 185.58 -7.56245C188.584 -10.9277 191.745 -14.1733 194.51 -17.7263C198.834 -22.8918 204.146 -27.1414 210.134 -30.2257C216.269 -33.563 222.814 -36.0844 229.603 -37.7261C236.168 -39.2102 242.868 -40.013 249.598 -40.1218C256.715 -40.2759 263.82 -39.4786 270.726 -37.7508C274.536 -36.9971 278.256 -35.8445 281.824 -34.3122C286.653 -32.1226 291.933 -30.9229 296.271 -27.6579C302.619 -25.8708 306.818 -20.9097 311.583 -16.9151C314.461 -14.0357 317.106 -10.9314 319.492 -7.63171C322.067 -4.98569 324.175 -1.92226 325.727 1.42846C329.851 4.59205 331.238 9.42917 333.24 13.8652C334.457 16.6477 335.273 19.5889 335.662 22.6008C336.161 26.0275 336.298 29.9997 339.029 32.762C344.801 32.623 347.017 33.2479 352.897 36.509C353.603 36.9263 354.387 37.1962 355.201 37.3025C358.033 37.8096 360.621 39.2296 362.57 41.3457C364.094 42.6617 365.915 43.6377 367.422 44.9716C370.631 47.8144 373.779 50.7332 376.822 53.7519C377.612 54.6815 378.201 55.7647 378.551 56.9333C380.049 60.9328 381.456 64.9669 382.889 68.9907C383.064 69.3626 383.17 69.7631 383.202 70.1727C382.954 77.0622 385.815 83.8302 384.022 90.7879C383.948 91.0752 384.342 91.4833 384.614 92.0263C386.62 92.6517 388.94 90.9085 391.019 92.4872C394.37 95.0317 398.678 94.9713 402.478 96.3119C404.759 97.0125 406.893 98.1236 408.775 99.5907C410.602 101.1 412.603 102.396 414.466 103.865C414.92 104.223 415.054 104.961 415.467 105.4C416.343 106.539 417.39 107.534 418.572 108.349C421.65 109.994 423.146 112.998 425.124 115.553C426.213 116.961 426.547 118.93 427.52 120.456C431.041 125.503 432.531 131.691 431.695 137.787C431.599 140.451 431.024 143.076 429.997 145.536C429.201 147.206 428.735 149.014 428.623 150.86C428.481 152.231 428.426 154.191 429.226 154.973C430.455 155.9 431.307 157.241 431.624 158.748C431.94 160.254 431.7 161.825 430.948 163.168C430.826 163.416 431.2 163.914 431.354 164.292C432.531 167.187 433.627 170.346 432.277 173.21C430.763 176.422 432.444 179.797 431.196 182.745C428.648 188.761 427.358 195.279 423.923 200.933C422.875 202.659 421.9 204.435 420.765 206.102C419.387 208.363 417.813 210.498 416.06 212.482C411.93 216.696 406.68 219.597 402.4 223.67C401.902 224.035 401.314 224.255 400.699 224.305C394.281 225.374 388.241 227.927 381.579 228.287C374.867 228.784 368.124 228.701 361.427 228.038C356.753 227.486 352.484 225.571 347.92 224.713C346.141 224.282 344.402 223.701 342.721 222.976C339.708 221.851 336.715 220.671 333.944 219.603C331.174 221.536 328.042 222.89 324.736 223.582C321.016 224.277 316.931 224.194 313.58 226.624C312.645 227.054 311.615 227.234 310.591 227.149C303.723 227.745 296.817 227.752 289.948 227.168C280.404 226.174 271.196 223.09 262.979 218.134C258.401 215.362 254.434 211.888 250.037 208.953C249.049 208.293 248.003 207.72 246.989 207.11C242.205 210.12 236.626 211.622 230.977 211.422C230.153 211.354 229.325 211.495 228.57 211.833C225.671 212.928 222.547 213.298 219.472 212.91C214.578 212.893 209.685 212.314 204.794 211.938C203.974 211.972 203.158 211.805 202.417 211.451C198.695 209.236 194.522 207.884 190.208 207.495C189.395 207.416 188.606 207.172 187.89 206.78C187.174 206.387 186.545 205.852 186.042 205.209C184.691 203.371 182.705 202.1 180.47 201.644C179.55 201.542 178.664 201.238 177.876 200.753C177.087 200.268 176.416 199.614 175.911 198.838C175.339 197.985 174.505 197.339 173.534 196.999C170.858 196.063 169.326 193.766 167.323 192.049C166.352 191.055 165.478 189.971 164.711 188.813C157.979 190.774 151.603 193.134 144.679 191.891C143.653 191.887 142.631 192.023 141.641 192.296C140.845 192.491 140.018 192.536 139.205 192.427C134.965 191.138 130.589 190.351 126.165 190.08C125.562 189.996 124.986 189.776 124.48 189.435C117.62 185.441 110.8 181.378 103.907 177.441C101.441 175.964 99.258 174.059 97.4612 171.815C96.0266 170.12 94.2066 168.757 92.6164 167.187C90.7452 165.339 88.2021 164.001 87.5778 161.158C86.9452 158.985 85.8099 156.991 84.2637 155.338C83.3941 154.492 82.7441 153.446 82.37 152.292C82.0821 150.68 81.2846 149.203 80.0948 148.079C79.536 147.493 79.1757 146.745 79.0649 145.943C78.7965 141.5 75.6075 138.14 75.103 134.068C72.7387 133.698 70.7702 133.311 68.7829 133.107C67.3946 132.854 65.9713 132.862 64.5858 133.13C63.0976 133.585 61.5209 133.671 59.9923 133.379C58.4636 133.088 57.029 132.428 55.8126 131.457C54.7312 130.65 53.5 130.066 52.1906 129.738C50.8813 129.411 49.5199 129.347 48.1857 129.551C46.7008 127.418 45.8799 125.431 43.5354 125.054ZM189.79 4.28857C189.901 4.46103 189.962 4.7646 190.104 4.80422C193.444 5.74213 194.908 8.43832 196.166 11.2944C197.307 13.8848 199.436 15.813 200.216 18.7773C200.96 21.608 203.787 23.8312 203.015 27.2662C204.355 30.0187 205.184 32.9914 205.464 36.04C205.98 38.2209 205.795 40.5089 204.935 42.5787C204.29 42.1023 203.722 41.5308 203.248 40.8836C201.669 37.3427 199.317 34.1251 198.873 30.0931C198.611 29.1211 198.122 28.2251 197.446 27.4791C196.984 26.8337 195.973 26.4133 195.814 25.7475C194.688 21.0535 191.404 17.6648 188.918 13.7812C187.934 11.984 187.134 10.0921 186.53 8.13421C186.209 7.05055 185.636 6.05857 184.857 5.23974C184.078 4.42091 183.116 3.7987 182.05 3.42424C180.022 3.00077 178.221 1.84506 176.991 0.177934C176.882 0.00662858 176.742 -0.255197 176.591 -0.274604C173.045 -0.727927 170.638 -3.51071 167.591 -4.73477C164.226 -6.14268 160.947 -7.74793 157.771 -9.54208C157.599 -9.63532 157.474 -9.95196 157.336 -9.94648C154.055 -9.81224 150.721 -9.45268 148.324 -12.4708C145.074 -12.679 141.821 -12.8472 138.576 -13.1138C137.163 -13.2214 135.762 -13.4504 134.388 -13.7984C133.106 -14.1892 131.752 -14.292 130.426 -14.0994C129.099 -13.9068 127.831 -13.4236 126.712 -12.6843C125.479 -11.756 124.07 -11.0864 122.572 -10.7157C121.073 -10.345 119.515 -10.2809 117.991 -10.5271C116.365 -10.7598 114.709 -10.3991 113.326 -9.51104C108.833 -7.06239 104.28 -4.72344 99.771 -2.30247C99.0597 -1.92569 98.4148 -1.43493 97.8621 -0.849722C94.549 2.74002 91.2785 6.36937 87.9942 9.98542C87.8383 10.1169 87.7023 10.2704 87.5905 10.441C85.6529 14.0125 84.0197 17.7408 82.708 21.5865C82.2378 23.7428 81.4617 25.8207 80.4031 27.7571C79.7529 28.5547 79.2589 29.4678 78.9469 30.4484C77.8439 36.2295 77.2424 42.095 77.149 47.9795C77.1807 48.7827 77.5954 49.627 77.4422 50.372C76.2772 56.044 78.2009 61.2863 79.6574 66.5708C80.5216 69.7057 81.7164 72.7496 83.043 76.6623C81.3853 75.9773 80.145 75.8653 79.7391 75.2245C78.2076 73.0567 76.9688 70.6963 76.055 68.2043C74.9239 64.5067 74.4971 60.5997 73.5881 56.8258C72.4087 53.1729 71.8831 49.3406 72.0356 45.5049C71.4418 45.1225 70.7973 44.8252 70.121 44.6216C63.8025 44.0708 57.4372 44.772 51.3899 46.6851C50.4486 47.0817 49.5733 47.6198 48.7944 48.2808C47.2885 49.3187 45.7502 50.3226 44.334 51.4743C42.4613 52.9975 40.2022 54.1948 39.4728 56.7937C39.3224 57.1797 39.0753 57.5207 38.7553 57.7839C36.7136 59.493 35.0606 61.6187 33.9071 64.0186C32.7537 66.4186 32.1263 69.0373 32.0671 71.6993C31.9054 72.5007 31.5843 73.2615 31.1229 73.9364C30.7959 74.4585 30.51 75.0052 30.2679 75.5716C29.6482 77.6973 31.6004 79.9293 29.9096 82.0791C29.3242 82.9255 28.9429 83.8961 28.7959 84.9146C28.6489 85.9332 28.7401 86.972 29.0624 87.9493C29.1378 89.1668 29.056 90.3889 28.8192 91.5856C28.6888 92.1864 28.7145 92.8105 28.8938 93.3985C30.0699 95.4666 32.0182 97.2233 31.2781 99.9816C32.9752 101.622 33.1162 104 34.1327 105.957C34.6879 107.062 35.4103 108.074 36.2743 108.959C38.4542 111.109 40.7756 113.115 43.0067 115.215C44.8687 117.344 46.9386 119.282 49.1855 121.001C52.0134 122.735 54.3866 125.544 58.5221 124.962C60.7743 125.088 62.9637 125.751 64.908 126.895C66.1374 127.523 67.4826 127.893 68.8606 127.981C70.2385 128.069 71.6199 127.873 72.9193 127.406C72.4932 124.617 72.28 121.779 71.5973 119.06C70.3778 113.704 70.2338 108.16 71.1737 102.748C71.2855 101.981 71.3072 101.984 73.5423 101.46C74.1729 104.43 74.6017 107.439 74.8258 110.467C74.9068 117.029 76.7408 123.281 77.805 129.664C78.3353 131.403 79.0086 133.095 79.8179 134.723C81.5001 139.523 84.0698 143.926 86.0038 148.625C87.5686 151.724 89.5937 154.569 92.0101 157.062C94.6089 160.171 97.4004 163.114 100.368 165.874C101.603 167.011 103.721 167.145 105.097 168.186C106.341 169.127 106.876 171.093 108.167 171.862C110.233 172.783 112.394 173.475 114.611 173.926C115.346 175.225 116.314 176.377 117.466 177.325C119.159 177.963 120.906 178.444 122.687 178.763C125.118 179.674 128.061 179.457 129.84 181.93C130.026 182.162 130.263 182.349 130.532 182.476C130.801 182.603 131.096 182.667 131.393 182.664C135.842 181.838 140.297 184.661 144.789 182.536C145.982 182.265 147.227 182.329 148.387 182.72C150.251 183.25 152.201 183.408 154.127 183.185C156.052 182.961 157.915 182.36 159.608 181.417C160.523 180.95 161.549 180.743 162.574 180.819C163.182 180.883 163.797 180.768 164.341 180.489C164.885 180.21 165.337 179.778 165.639 179.246C166.093 178.553 166.732 178.002 167.484 177.655C168.235 177.307 169.069 177.178 169.89 177.28C171.414 177.494 172.967 177.366 174.436 176.905C175.904 176.444 177.252 175.662 178.381 174.616C179.034 173.933 180.224 173.768 181.161 173.349C181.911 173.014 182.95 172.859 183.348 172.275C186.981 166.941 193.435 165.63 198.08 161.774C198.661 161.211 199.164 160.572 199.576 159.876C200.016 159.188 200.597 158.6 201.279 158.151C201.962 157.702 202.732 157.402 203.538 157.271C205.185 158.389 204.707 159.977 203.988 161.1C201.501 164.988 200.309 169.93 195.483 171.995C194.501 173.306 193.267 174.407 191.853 175.233C190.439 176.06 188.873 176.594 187.249 176.804C185.824 177.082 184.544 177.859 183.639 178.994C181.326 181.883 178.144 183.952 174.565 184.893C174.209 185.015 173.944 185.405 173.637 185.671C174.644 187.58 175.603 189.516 176.667 191.392C177 192.253 177.585 192.994 178.345 193.519C179.105 194.043 180.005 194.327 180.929 194.334C181.857 194.308 182.773 194.551 183.567 195.033C184.361 195.515 184.999 196.215 185.405 197.051C185.922 197.88 186.723 199.012 187.51 199.114C192.832 199.801 196.968 203.687 202.24 204.416C206.407 205.261 210.625 205.826 214.866 206.108C216.889 206.118 219.024 207.1 220.912 206.704C229.311 204.941 238.11 205.722 246.286 202.643C249.154 201.563 252.081 200.626 254.898 199.427C257.306 198.335 259.814 197.477 262.387 196.867C265.6 196.178 268.6 194.728 271.135 192.637C271.837 192.053 272.939 191.951 274.293 191.473C273.942 194.921 270.721 195.002 269.29 196.797C267.731 198.416 265.921 199.773 263.929 200.814C261.919 202.086 259.777 203.148 257.53 204.392C259.995 206.254 262.035 207.857 264.147 209.358C264.977 209.942 265.889 210.399 266.854 210.714C269.867 211.351 272.724 212.579 275.26 214.326C280.965 215.223 285.446 219.45 291.213 220.194C291.798 220.269 292.421 220.869 292.906 220.747C295.001 220.018 297.284 220.039 299.365 220.807C301.535 221.364 303.788 221.524 306.015 221.282C307.012 221.157 308.001 220.98 308.979 220.752C310.801 220.758 312.619 220.595 314.411 220.265C316.086 219.604 317.836 219.156 319.623 218.931C322.352 218.54 325.038 217.884 327.64 216.972C327.452 216.176 327.488 215.593 327.251 215.444C325.887 214.583 323.869 214.171 323.159 212.967C320.899 209.137 317.102 206.87 314.408 203.54C313.932 202.951 313.866 202.035 313.59 201.278C313.247 200.336 313.157 199.025 312.479 198.531C309.56 196.408 309.211 193.125 307.904 190.17C306.524 187.474 305.33 184.687 304.331 181.828C304.098 181.079 304.099 180.277 304.333 179.528C304.567 178.78 305.024 178.12 305.642 177.637C306.468 178.393 307.709 179 308.067 179.942C310.909 187.415 316.364 193.075 321.361 198.982C325.943 204.221 331.302 208.724 337.251 212.336C341.052 214.657 345.167 216.42 349.47 217.569C352.931 218.82 356.502 219.743 360.135 220.324C361.53 220.569 362.951 220.63 364.362 220.506C365.055 220.342 365.775 220.339 366.469 220.495C367.162 220.652 367.811 220.965 368.366 221.41C368.981 221.956 369.77 222.267 370.592 222.288C372.168 222.037 373.658 221.252 375.234 220.995C376.587 220.774 377.567 222.541 379.248 221.838C383.163 220.203 387.726 220.715 391.422 218.253C391.775 218.033 392.189 217.931 392.605 217.962C396.475 218.333 399.103 215.689 401.892 213.82C404.542 212.044 406.423 209.226 409.468 207.797C410.249 207.43 410.642 206.17 411.14 205.279C411.708 203.744 412.505 202.304 413.505 201.007C417.27 197.621 418.99 193.009 421.35 188.781C421.909 187.707 422.292 186.55 422.482 185.354C422.886 182.183 424.023 179.149 425.805 176.494C425.927 172.124 424.413 168.125 425.553 164.028C425.659 163.206 425.478 162.373 425.041 161.669C423.508 158.805 422.436 155.717 421.865 152.518C421.642 151.553 421.087 150.696 420.297 150.099C418.458 148.526 416.907 146.646 415.712 144.542C413.131 141.377 410.306 138.418 407.263 135.694C406.754 135.176 406.258 134.644 405.794 134.158C405.963 133.907 406.157 133.673 406.372 133.459C410.428 135.234 414.787 136.344 417.865 140.017C419.551 141.664 421.416 143.116 423.426 144.348C423.71 144.339 423.99 144.273 424.248 144.154C424.507 144.035 424.738 143.864 424.93 143.653C425.121 143.442 425.267 143.195 425.36 142.926C425.454 142.657 425.491 142.372 425.472 142.088C425.362 139.408 427.194 137.101 426.576 134.245C426.106 132.076 426.542 129.709 424.478 128.106C424.315 127.976 424.193 127.802 424.126 127.605C423.621 125.202 422.877 122.855 421.907 120.599C420.493 118.648 418.955 116.79 417.304 115.036C416.716 114.234 416.544 113.214 415.363 112.9C415.068 112.838 414.79 112.714 414.546 112.537C414.302 112.359 414.099 112.132 413.949 111.871C412.876 107.481 409.256 106.664 405.655 105.762C404.683 105.518 403.258 105.46 402.864 104.814C401.017 101.787 397.906 102.224 395.187 101.764C391.983 101.222 388.703 101.14 385.493 100.63C383.46 100.318 381.382 100.706 379.598 101.73C375.751 107.961 373.446 115.392 365.994 118.757C365.603 118.147 365.412 117.432 365.446 116.709C365.481 115.986 365.74 115.291 366.188 114.722C367.632 112.483 369.105 110.26 370.473 107.974C373.539 103.105 375.634 97.6885 376.645 92.0239C377.092 89.2353 377.836 86.5137 378.194 83.662C378.643 77.7215 377.58 71.764 375.104 66.3458C374.712 64.6007 374.11 62.9094 373.311 61.3092C370.783 57.5937 367.946 54.0973 364.833 50.8569C362.041 48.1747 358.59 46.278 354.83 45.359C351.294 44.4376 347.862 43.1223 344.355 42.0804C342.836 41.6287 341.242 41.4279 339.299 41.0357C339.063 44.0606 338.846 46.6612 338.66 49.2639C338.383 53.1321 338.231 57.0125 337.823 60.8662C337.755 62.9232 337.282 64.9467 336.433 66.8217C333.95 71.2324 333.774 76.7439 329.869 80.4349C329.436 80.8082 328.984 81.1593 328.515 81.4869C327.084 80.9217 327.667 79.7353 327.499 78.8629C327.306 78.0628 327.275 77.2323 327.407 76.42C328.117 73.2465 329.145 70.1322 329.673 66.9327C330.541 63.6008 331.16 60.209 331.526 56.7854C331.583 53.7592 332.714 50.7684 333.053 47.7268C333.442 45.7383 333.317 43.6831 332.689 41.7567C331.781 39.9268 331.399 37.8812 331.583 35.8469C331.988 31.856 330.291 28.2327 329.768 24.4085C329.591 23.1149 328.386 21.9757 327.71 20.7336C326.194 17.9483 322.68 16.2336 323.212 12.3511C322.193 11.5044 321.396 10.4224 320.888 9.19859C320.381 7.97477 320.179 6.64587 320.301 5.32661C320.291 4.7993 319.741 4.26222 319.392 3.76385C316.927 -0.437551 313.599 -4.06839 309.628 -6.88903C307.662 -8.3542 306.009 -10.1985 304.768 -12.3132C303.62 -14.2525 301.873 -15.7661 299.79 -16.6255C297.402 -17.3381 295.353 -18.8907 294.02 -20.9966C293.594 -21.7017 292.949 -22.2477 292.183 -22.551C288.347 -23.9545 284.877 -26.1159 280.874 -27.2852C277.364 -28.3101 273.471 -27.8549 270.292 -29.9908C267.302 -31.9986 263.752 -32.2132 260.43 -33.1525C258.726 -33.8703 256.817 -33.9355 255.068 -33.3356C253.764 -32.8012 251.922 -33.7687 250.338 -33.6921C245.68 -33.4668 241.005 -33.2588 236.389 -32.6464C233.331 -32.2772 230.34 -31.4777 227.506 -30.2715C225.039 -28.838 222.266 -28.0121 219.417 -27.862C218.594 -27.7749 217.824 -27.4189 217.225 -26.849C215.171 -25.1465 212.708 -24.0091 210.08 -23.5492C208.55 -23.0084 207.166 -22.1212 206.035 -20.9569C204.816 -19.5887 203.468 -18.3414 202.009 -17.2324C195.415 -13.8047 191.523 -7.68563 186.761 -2.43073C186.528 -2.04098 186.358 -1.61738 186.257 -1.1752C187.618 0.929006 188.705 2.60798 189.79 4.28857ZM382.402 97.2454C382.54 97.2793 382.72 97.1394 382.882 97.0762L382.286 96.472L382.023 96.8809C382.148 97.0093 382.255 97.209 382.402 97.2454Z" fill="#324C76"/>
</svg>
