<svg width="144" height="95" viewBox="0 0 144 95" fill="none" xmlns="http://www.w3.org/2000/svg">
<path d="M115.7 52.1089C116.938 53.4326 118.633 54.2224 119.7 55.7801C121.025 57.7137 122.68 59.4364 123.101 61.8699C123.161 62.0651 123.248 62.2509 123.359 62.422C124.36 64.4228 124.433 66.589 124.45 68.7557C124.454 69.2879 124.173 69.8254 124.193 70.3541C124.18 71.4423 124.007 72.5226 123.682 73.5611C123.364 74.8122 123.133 76.086 122.892 77.3553C122.862 77.5128 123.009 77.7037 123.077 77.8879C123.238 77.8018 123.402 77.7713 123.442 77.6837C124.153 76.1504 124.849 74.6101 125.574 73.0152C125.882 73.1016 126.176 73.2335 126.445 73.4066C127.012 74.0666 127.668 74.6446 128.394 75.1241C128.558 75.2021 128.652 75.4331 128.77 75.5992C128.856 75.7056 128.927 75.8231 128.981 75.9486C129.604 77.7027 130.173 80.6993 128.497 82.9297C127.929 83.6021 127.238 84.1601 126.46 84.5738C125.02 85.6498 123.306 86.2987 121.514 86.4462C119.722 86.5937 117.924 86.2339 116.327 85.408C115.806 85.1693 115.32 84.8532 114.745 84.5318C115.349 83.7875 115.851 83.1702 116.337 82.5712C116.183 82.4028 116.082 82.2154 116.01 82.226C114.672 82.3482 113.347 82.5938 112.054 82.9595C110.379 83.5239 108.73 84.5273 106.802 84.0381C106.459 84.0039 106.114 84.0705 105.809 84.2295C104.343 84.7716 102.77 84.9585 101.218 84.7751C99.6219 84.6564 97.9874 84.861 96.4836 84.0608C96.1188 83.8651 95.7031 83.7856 95.2919 83.8329C93.9106 84.0586 92.6925 83.0865 91.3216 83.3508C91.0477 83.0599 90.6966 82.8529 90.3094 82.754C89.9222 82.6552 89.5149 82.6685 89.135 82.7925C89.0076 82.8359 88.7951 82.5967 88.6109 82.5124C88.0632 82.262 87.513 82.0163 86.958 81.7827C86.394 81.5454 85.8089 81.3543 85.2576 81.0917C82.6647 79.8564 80.4654 78.0311 78.198 76.3136C77.4903 75.8942 76.9189 75.2792 76.5525 74.5426C76.0251 73.8925 75.3347 73.3941 74.5516 73.0982C74.5752 75.1481 76.459 76.0849 77.3618 77.6216C71.6846 79.7264 64.0315 77.1756 61.0715 72.9569C61.816 72.6149 62.5534 72.297 63.2722 71.9417C64.7939 71.1895 66.3119 70.4294 67.8168 69.6443C67.9055 69.614 67.9853 69.5621 68.0489 69.4933C68.1126 69.4244 68.158 69.3408 68.1812 69.2499C68.2044 69.1591 68.2047 69.0639 68.1818 68.973C68.159 68.882 68.1139 68.7982 68.0506 68.7291C67.678 68.8096 67.3117 68.9164 66.9543 69.049C65.0981 69.8742 63.2647 70.7516 61.3989 71.5542C60.0644 72.2309 58.6079 72.6336 57.1153 72.7385C56.029 72.7458 54.9571 72.8194 53.8794 72.9031C52.8726 73.0775 51.8386 73.0065 50.8651 72.6963C50.5761 72.5778 50.1948 72.7063 49.8613 72.6704C49.2567 72.6052 48.6506 72.5293 48.055 72.4092C45.7712 71.9491 43.7956 70.6676 41.6034 69.9551C41.2317 69.7858 40.8903 69.5566 40.593 69.2766C40.1095 68.9043 39.6218 68.5328 39.1738 68.1199C37.5744 66.6454 35.9601 65.185 34.4109 63.6589C33.0589 62.3271 31.8009 60.9003 30.4707 59.5456C30.3124 59.3213 30.0826 59.1574 29.8189 59.081C29.5552 59.0045 29.2734 59.02 29.0196 59.1248C28.974 59.3971 28.9931 59.6763 29.0754 59.9399C29.1577 60.2034 29.3009 60.4439 29.4934 60.6418C30.0656 61.2936 30.7103 61.8812 31.3134 62.5066C32.3199 63.3913 33.1718 64.4378 33.8339 65.6029C32.6721 66.3915 31.2866 66.7836 29.8839 66.7209C28.1252 66.7007 26.3696 66.5658 24.6285 66.317C23.8858 66.2595 23.1584 66.0753 22.4779 65.7724C21.5587 65.1889 20.5198 64.8201 19.4384 64.6934C19.0905 64.6839 18.7369 64.3352 18.4126 64.1043C16.3866 62.6614 14.3704 61.2046 12.3447 59.7612C12.2032 59.6118 12.0232 59.5043 11.8246 59.4505C11.6259 59.3967 11.4163 59.3987 11.2187 59.4562C11.1116 59.6649 11.0841 59.9053 11.1412 60.1328C11.1984 60.3602 11.3364 60.5591 11.5294 60.6923C11.8065 60.8817 12.1448 61.035 11.8338 61.4453C10.274 61.407 8.95082 60.6227 7.63077 59.9744C6.65618 59.4957 6.46367 58.2081 5.8263 57.3428C5.66589 57.0631 5.56142 56.7549 5.51869 56.4353C5.43019 56.0537 5.40323 55.6578 5.31555 55.2759C5.08188 54.4972 4.89542 53.7051 4.75719 52.904C4.66606 52.0278 4.68046 51.0899 5.64815 50.5944C5.83479 50.513 5.99975 50.3889 6.1298 50.2321C6.25984 50.0754 6.35135 49.8904 6.397 49.6919C6.57479 49.1725 6.93163 48.7333 7.40364 48.453C7.77855 48.1647 8.12495 47.8411 8.43805 47.4866C8.83699 47.0202 9.33395 46.6476 9.89346 46.3955C10.453 46.1433 11.0612 46.0177 11.6749 46.0278C12.2178 46.0141 12.7622 46.0687 13.3061 46.0766C15.7391 46.1117 15.7446 46.1021 17.569 47.4171C17.8504 47.6047 18.0764 47.8642 18.2236 48.1687C18.9198 49.9001 20.4274 50.8131 21.8422 51.8151C22.0138 51.9367 22.3144 51.876 22.559 51.9002C22.5698 51.7266 22.6044 51.6363 22.5735 51.5939C22.3534 51.2547 22.1054 50.9345 21.8319 50.6366C19.933 48.7914 19.2496 46.4013 18.7844 43.9119C18.3472 41.2207 18.6088 38.4622 19.5442 35.9011C20.1762 34.0042 20.8467 32.0377 22.3856 30.5706C22.8219 30.0499 23.364 29.6281 23.9758 29.333C24.3028 29.2315 24.5796 29.0104 24.7507 28.7137C24.9001 28.2589 25.1884 27.8623 25.5751 27.5799C25.9617 27.2976 26.4271 27.1435 26.9058 27.1395C27.2756 27.1019 27.6127 26.7538 27.9673 26.5518C28.1972 26.4209 28.4347 26.1864 28.6637 26.1924C28.9689 26.1929 29.271 26.1308 29.5512 26.0097C29.8314 25.8887 30.0838 25.7114 30.2927 25.4888C30.6024 25.2345 30.9697 25.06 31.3624 24.9805C32.5499 24.7069 33.7613 24.5334 34.9423 24.2369C35.9357 23.9876 36.8992 23.6016 37.8912 24.2017C39.9729 24.1019 41.8841 24.7649 43.8181 25.4244C44.8661 25.7164 45.79 26.3427 46.4494 27.208C46.9257 28.031 47.5415 28.7649 48.2691 29.377C50.3965 30.7794 51.0062 33.1905 52.3647 35.0948C53.3231 37.627 54.0509 40.2407 54.5394 42.9038C54.5503 42.9846 54.7331 43.0421 54.9383 43.1786C55.323 42.7236 55.5213 42.14 55.4933 41.5449C55.5647 40.1917 55.3672 38.8378 54.9121 37.5615C54.4689 36.4984 54.1264 35.3916 53.7732 34.2932C53.3247 32.7983 52.5956 31.4026 51.6249 30.1807C50.7541 29.217 50.1718 28.0279 49.9443 26.7491C50.7925 26.2634 51.7535 26.0094 52.7308 26.0125C53.7082 26.0156 54.6675 26.2757 55.5126 26.7667C55.4277 27.8038 54.5693 28.6162 55.0142 29.8356C55.246 29.6311 55.4559 29.4032 55.6407 29.1554C56.0015 28.4997 56.3484 27.8338 56.6567 27.1519C57.0998 26.116 57.7568 25.1854 58.5846 24.4212C59.4124 23.6569 60.3923 23.0762 61.4601 22.717C62.575 22.3299 63.77 22.2327 64.9327 22.4344C66.0955 22.6362 67.1878 23.1303 68.1071 23.8703C67.6681 24.8657 67.236 25.8467 66.8028 26.8272C66.7391 26.9198 66.6953 27.0245 66.6738 27.1347C66.6524 27.245 66.6539 27.3585 66.6782 27.4681C66.7025 27.5778 66.7492 27.6813 66.8152 27.7721C66.8812 27.863 66.9652 27.9393 67.062 27.9963C67.3838 27.8129 67.6749 27.5803 67.9248 27.307C68.8797 25.6924 69.9537 24.1512 71.1378 22.6963C71.7011 22.0746 72.4372 21.7304 72.9629 21.1093C73.9426 19.9518 75.3488 19.5947 76.7196 19.2358C77.4153 18.9826 78.1683 18.9308 78.8922 19.0862C79.7336 19.3982 80.3456 18.9234 81.0626 18.8934C81.266 18.8978 81.4678 18.9289 81.6631 18.9859C82.7168 19.2282 83.7908 19.4089 84.8174 19.7373C86.7547 20.3571 88.7341 20.9431 89.9592 22.7868C90.0977 22.9339 90.2474 23.07 90.4068 23.1939C91.7398 24.5361 92.8909 26.0475 93.8305 27.6893C94.3891 28.9844 94.8497 30.3196 95.2084 31.6836C95.497 32.8851 96.1108 33.9839 96.9826 34.8596C97.5868 33.4878 96.9407 32.2672 96.7637 30.967C97.1632 30.8311 97.4937 30.5957 97.7777 30.6426C99.3557 30.9036 101.026 30.0327 102.542 31.029C102.641 31.0941 102.807 31.0604 102.941 31.0679C105.785 31.2243 107.816 32.8171 109.584 34.8534C109.985 35.3145 110.283 35.8632 110.677 36.331C111.619 37.5833 112.133 39.1058 112.143 40.673C112.219 42.0229 112.166 43.3771 111.985 44.7169C111.837 45.8617 111.586 46.9907 111.234 48.09C110.929 48.911 110.569 49.71 110.154 50.4815C109.756 51.3301 109.649 52.2948 108.949 53.0354C108.641 53.3605 108.747 53.9345 109.348 54.3766C110.5 53.4263 111.14 52.0724 111.914 50.8297C113.449 50.4888 114.423 51.749 115.7 52.1089ZM92.5194 39.0324C92.8231 39.0518 93.0542 39.6305 93.3934 39.7699C94.8102 40.3516 95.3165 41.8409 96.4292 42.7137C97.0206 44.4122 98.3792 45.8423 98.1952 47.8163C98.1567 48.1564 98.1962 48.5009 98.3105 48.8236C98.4579 49.1284 98.529 49.4645 98.5178 49.8029C98.5066 50.1413 98.4135 50.4719 98.2463 50.7664C98.0816 51.0667 97.9979 51.4047 98.0033 51.7472C98.0088 52.0896 98.1032 52.4248 98.2774 52.7197C98.4011 52.9639 98.464 53.2344 98.4607 53.5082C98.4573 53.782 98.3878 54.0509 98.2582 54.292C98.075 54.621 97.9631 54.9849 97.9297 55.3599C97.8963 55.735 97.9421 56.1129 98.0642 56.4691C98.2913 57.0674 97.9141 57.5133 97.6898 57.9986C97.0063 59.4774 97.1758 60.9892 97.4006 62.6074C97.7124 62.5068 97.9663 62.5039 98.0554 62.3813C98.3533 62.0105 98.5954 61.5982 98.7742 61.1575C99.3923 59.5791 99.9068 57.962 100.314 56.3167C100.727 54.0628 100.849 51.7654 100.679 49.4804C100.55 46.8768 99.564 44.6484 98.4471 42.4046C96.9352 39.3671 94.2378 37.7458 91.3399 36.3482C91.2296 36.2686 91.1056 36.21 90.9742 36.1754C89.3034 36.1111 87.8989 35.192 86.3484 34.7438C84.2057 34.2741 81.9841 34.2995 79.8526 34.8179C79.7333 34.6214 79.5178 34.4152 79.481 34.181C79.4584 33.6383 79.266 33.1163 78.9308 32.6889C78.5957 32.2614 78.1348 31.9501 77.6131 31.7987C77.1739 31.6085 76.7852 31.3185 76.4778 30.9517C75.5087 30.0965 74.3359 29.5051 73.0722 29.2344C72.687 29.0906 72.2683 29.0625 71.8674 29.1534C70.8249 29.5266 69.7392 29.0218 68.6649 29.5059C67.7865 30.0132 66.9862 30.6453 66.2892 31.3824C65.7918 31.7997 65.0791 32.0132 64.7592 32.861C64.9572 32.8541 65.1533 32.8194 65.3415 32.7578C66.4136 32.1734 67.5566 31.7299 68.7423 31.4384C69.7281 31.1879 70.7594 31.1766 71.7505 31.4053C73.3872 31.7166 74.764 32.641 76.2135 33.3655C76.811 33.8098 77.3316 34.3491 77.7545 34.962C77.2491 35.5639 76.6127 36.0421 75.8939 36.36C74.3192 36.9962 72.9913 38.1228 72.1068 39.5728C71.5844 40.2838 71.0238 40.9659 70.4275 41.6162C70.3807 41.732 70.3641 41.8579 70.3795 41.9819C70.3948 42.1059 70.4414 42.2239 70.515 42.3249C70.6182 42.4042 70.7374 42.4601 70.8643 42.4888C70.9913 42.5175 71.1229 42.5183 71.2502 42.4911C71.4989 42.3896 71.7204 42.2314 71.8971 42.029C72.5551 41.4368 73.1984 40.8284 73.8562 40.2358C74.0566 40.0553 74.3037 39.7466 74.4978 39.7691C75.6006 39.897 76.1819 39.0474 76.9552 38.5593C77.109 38.4245 77.2931 38.329 77.4919 38.2811C77.6906 38.2331 77.8981 38.2341 78.0963 38.2839C78.1598 38.3071 78.2276 38.3161 78.2948 38.3101C78.3621 38.3042 78.4273 38.2834 78.4856 38.2493C79.7552 36.9278 81.6646 37.927 83.0322 36.9851C83.975 36.9457 84.9185 37.0457 85.8321 37.2817C86.5908 37.5609 87.4138 37.6155 88.2027 37.4391C88.539 37.3932 88.8774 37.3636 89.2985 37.3175C90.3928 38.0309 91.2107 38.9492 92.5194 39.0324Z" fill="white"/>
<path d="M96.0148 30.8667C96.1626 30.6603 96.3012 30.6354 96.4258 30.8881C97.1333 31.1883 97.6114 30.2604 98.3355 30.5454C98.8567 30.6955 99.4155 30.6422 99.8991 30.3963C100.354 30.2856 100.818 30.2159 101.286 30.188C101.483 30.1329 101.691 30.1374 101.885 30.2009C102.079 30.2644 102.25 30.3841 102.375 30.5447C102.639 30.8511 102.962 31.1014 103.324 31.2808C103.687 31.4602 104.082 31.5651 104.485 31.5893C104.946 31.6894 105.408 31.7846 105.869 31.8821C105.957 31.7959 106.066 31.7342 106.185 31.7028C106.304 31.6715 106.43 31.6717 106.549 31.7034C106.668 31.7352 106.776 31.7973 106.864 31.8837C106.952 31.9702 107.015 32.078 107.049 32.1965C107.171 32.2529 107.298 32.2986 107.427 32.3329C107.539 32.47 107.65 32.6067 107.762 32.7432C108.03 32.7878 108.284 32.8949 108.503 33.056C108.722 33.2171 108.9 33.4276 109.023 33.6705C109.063 33.7631 109.083 33.8633 109.081 33.9643C109.08 34.0653 109.057 34.1648 109.014 34.2561C108.971 34.3475 108.909 34.4286 108.832 34.494C108.755 34.5594 108.664 34.6076 108.567 34.6353C107.771 34.7934 106.944 34.6635 106.234 34.2687C105.719 33.9251 105.119 33.7293 104.5 33.7026C103.881 33.676 103.267 33.8194 102.724 34.1174C101.505 34.8302 100.342 35.5633 99.9269 37.1567C99.4283 39.1331 99.3376 41.1904 99.6604 43.203C99.7773 44.0083 99.9016 44.8136 99.9777 45.6231C100.009 45.952 99.9573 46.501 99.6535 46.4993C99.1252 46.4962 99.1588 45.9418 99.2336 45.5637C99.4345 44.5479 98.6098 43.7915 98.5969 42.8391C98.1909 42.7112 97.7116 42.7116 97.5127 42.2196C97.3483 42.1652 97.1968 42.0778 97.0674 41.9627C96.938 41.8477 96.8335 41.7074 96.7602 41.5505C96.6515 41.4284 96.5825 41.276 96.5623 41.1138C96.5422 40.9515 96.5718 40.7869 96.6472 40.6418C96.7853 38.8416 97.0766 37.0505 96.72 35.2359C96.4356 33.7892 96.2463 32.3238 96.0148 30.8667Z" fill="#DEF1FD"/>
<path d="M53.6394 32.0575C54.1169 30.3228 54.3215 28.5003 55.2906 26.9237C55.4394 26.8381 55.5881 26.7526 55.7366 26.6671C56.2 26.0063 56.4194 25.1531 57.1244 24.6874C58.2882 23.8711 59.3997 22.9825 60.4521 22.0268C60.6126 21.9009 60.7966 21.8083 60.9934 21.7544C61.1902 21.7005 61.3957 21.6865 61.598 21.713C61.9733 21.4071 62.2342 21.4889 62.3847 21.9453C62.2311 22.5118 62.2342 23.1588 61.5982 23.4777C61.4345 23.568 61.2708 23.6584 61.107 23.7487C60.6978 24.031 60.3784 24.425 60.1869 24.8838C59.9954 25.3426 59.9399 25.8468 60.027 26.3362C60.0885 26.7307 60.1122 27.1301 60.0976 27.5291C60.0718 27.6771 60.0773 27.829 60.1138 27.9748C60.1502 28.1206 60.2169 28.2571 60.3094 28.3756C60.4018 28.4941 60.5181 28.5919 60.6507 28.6626C60.7833 28.7334 60.9292 28.7756 61.0791 28.7865C62.0617 28.9758 63.0005 29.3459 63.848 29.8778C63.9977 29.756 64.1779 29.6775 64.3691 29.6507C64.5602 29.6238 64.7551 29.6498 64.9325 29.7257C65.546 29.9217 66.2042 29.9297 66.8223 29.7487C66.9248 28.949 66.9458 28.1409 66.885 27.3368C66.806 26.8676 66.8454 26.3861 66.9995 25.9359C67.1536 25.4858 67.4175 25.0812 67.7675 24.7588C68.6541 23.8505 69.0283 22.5241 70.2248 21.8677C70.4509 21.7437 70.4851 21.2694 70.6079 20.9568C70.7656 20.8591 70.9231 20.7614 71.0806 20.6637C71.2756 20.6286 71.4674 20.5779 71.6543 20.5122C72.6246 19.9441 73.7423 19.6785 74.8644 19.7494C75.1919 19.801 75.4447 19.4776 75.6529 19.2136L76.1453 18.9384C76.5465 19.113 76.9873 19.1765 77.4215 19.1223C77.8557 19.0682 78.2675 18.8984 78.6136 18.6307C78.883 18.4286 79.1935 18.2883 79.5231 18.2197C79.8528 18.1511 80.1935 18.1558 80.5211 18.2335C80.7039 18.0751 80.8371 18.1119 80.9225 18.3364C81.0431 18.4565 81.1207 18.6131 81.1433 18.7818C81.1659 18.9506 81.1322 19.1221 81.0474 19.2697C80.7756 19.6528 80.4561 19.9997 80.0966 20.302C79.4114 21.0187 78.4433 21.5587 78.2263 22.6138C77.9509 23.5901 77.5542 24.5281 77.0456 25.4058C76.8807 25.6445 76.7962 25.9294 76.8041 26.2194C76.812 26.5094 76.912 26.7893 77.0896 27.0187C77.6747 27.9572 78.5735 28.7976 78.5821 30.0379C78.6736 30.1824 78.7652 30.327 78.8568 30.4718C78.9779 30.529 79.1021 30.5797 79.2287 30.6235C79.3361 30.7762 79.4436 30.9287 79.5512 31.0811C79.8716 31.4558 80.1919 31.8307 80.5123 32.2058C80.6302 32.3395 80.748 32.4729 80.8658 32.606C81.8843 32.8902 82.4502 33.7962 83.2049 34.4155C84.0839 35.235 85.1555 35.8194 86.3205 36.1144C86.4332 36.2544 86.5459 36.3942 86.6587 36.5337C86.7657 37.101 86.6363 37.4099 86.3056 37.375C84.2473 36.8109 82.2722 35.9785 80.431 34.8993C80.2793 34.7698 80.1712 34.5904 80.0263 34.4514C79.6872 34.1266 79.3381 33.8123 78.993 33.4937C78.8787 33.349 78.7645 33.2044 78.6503 33.06C78.2119 32.8781 77.8474 32.5542 77.6154 32.1402C77.3868 31.7235 77.0152 31.4036 76.5692 31.2396C76.2919 31.1626 76.0145 31.0858 75.7373 31.0092C75.2052 31.2306 74.6111 31.253 74.0638 31.0723C73.5165 30.8917 73.0526 30.52 72.7568 30.0253C72.6713 29.8438 72.5434 29.6855 72.384 29.5637C72.2246 29.4418 72.0383 29.36 71.8408 29.3251C71.1772 29.2712 70.51 29.2819 69.8485 29.3573C69.2274 29.4475 69.3436 30.2603 68.886 30.5593C68.83 30.5959 68.7757 30.6355 68.7208 30.6736C68.1856 31.4374 68.0586 31.4465 67.4293 30.7656C67.1554 30.7047 66.8814 30.6436 66.6074 30.5825L66.6074 30.5823C66.2733 30.9107 65.8897 30.8003 65.5059 30.704C65.2201 30.9713 64.9577 31.2625 64.7215 31.5745C64.4929 31.9785 64.114 32.2759 63.6672 32.4019C63.5027 32.4869 63.3381 32.5719 63.1736 32.6568C61.5545 33.0814 59.8967 33.4318 59.0624 35.1607C58.9107 35.4753 58.5392 35.5447 58.2335 35.6882C57.6978 35.8837 57.2159 36.2034 56.8275 36.6211C56.4391 37.0388 56.1553 37.5426 55.9991 38.0912C55.9318 38.3534 55.793 38.5918 55.5981 38.7798C55.4033 38.9678 55.16 39.098 54.8955 39.1558C54.7162 39.3186 54.5815 39.2872 54.4916 39.0618C54.06 38.6352 54.397 37.9799 54.0611 37.5428C53.3415 36.6064 53.6308 35.6262 53.8764 34.6396C53.4282 34.5204 52.9753 34.4163 52.5338 34.2759C52.2694 34.1919 52.0117 33.9741 52.0817 33.7019C52.3183 32.781 51.5391 32.4556 51.1133 31.9214L51.2065 31.8651L51.1139 31.921C50.9601 31.8822 50.8171 31.8092 50.6956 31.7073C50.5741 31.6054 50.4772 31.4774 50.4121 31.3327L50.4561 31.3061C50.6469 31.2018 50.8379 31.0975 51.0291 30.9933C51.1244 31.1129 51.1915 31.2525 51.2252 31.4016C51.259 31.5508 51.2585 31.7056 51.224 31.8546C52.0058 32.2037 52.8553 31.7429 53.6394 32.0575Z" fill="#DEF1FD"/>
<path d="M126.902 73.9344C126.756 73.7767 126.713 73.5636 126.918 73.4453C127.118 73.3299 127.289 73.4639 127.355 73.6699C127.382 73.8003 127.395 73.9333 127.392 74.0665L127.227 74.1632C127.111 74.0987 127.002 74.022 126.902 73.9344Z" fill="#B3E1EB"/>
<path d="M50.4115 31.3325C50.2637 31.295 50.1269 31.223 50.0123 31.1224C49.8978 31.0217 49.8088 30.8954 49.7526 30.7536C50.0228 30.8013 50.2929 30.8493 50.5631 30.8977C50.293 30.8495 50.0228 30.8014 49.7526 30.7535C49.06 30.1489 48.3675 29.5439 47.675 28.9386C47.5336 28.9034 47.3921 28.8683 47.2506 28.8332C46.7822 28.7512 46.3519 28.5224 46.0219 28.18C44.9384 27.0783 43.6399 26.2113 42.2071 25.6328C41.8642 25.4104 41.477 25.2654 41.0724 25.2076C40.6678 25.1499 40.2554 25.181 39.864 25.2986C39.3075 25.5511 38.675 25.5792 38.0983 25.3771C37.507 25.2091 36.8776 25.2331 36.3008 25.4458C36.1354 25.5211 35.9699 25.5963 35.8044 25.6715C35.6113 25.6049 35.4069 25.5769 35.2029 25.5893C33.9144 25.9703 32.6283 26.3626 31.3581 26.7997C31.0517 26.9433 30.7769 27.1464 30.5498 27.3972C29.5115 28.3601 28.4437 29.2966 27.471 30.3229C26.8058 30.9904 26.2406 31.7506 25.7929 32.5799C24.9844 34.2965 24.385 36.1041 24.0075 37.9637C23.9873 38.1076 23.967 38.2515 23.9467 38.3955C23.7142 39.0303 23.7044 39.7254 23.919 40.3665C24.0468 40.6766 24.0793 41.0177 24.0122 41.3464C23.8725 42.4155 24.0269 43.5024 24.4588 44.4903C24.7445 45.3689 25.0027 46.2565 25.2731 47.1402C25.3603 47.2765 25.4475 47.4132 25.5348 47.5502C25.9851 47.9445 26.3949 48.3829 26.7579 48.8588C27.5157 50.1096 28.6498 51.0886 29.9979 51.6556C30.111 51.7995 30.2241 51.9432 30.3373 52.0867C30.4637 52.1372 30.5902 52.1881 30.7167 52.2394C30.8244 52.3821 30.9321 52.5247 31.0396 52.6671C32.5656 53.018 33.8186 53.9686 35.2286 54.5747C35.3293 54.7142 35.43 54.8536 35.5308 54.9927C35.7966 55.0577 36.0623 55.1233 36.3281 55.1894C36.4517 55.089 36.6014 55.0259 36.7595 55.0075C36.9177 54.989 37.0778 55.0159 37.2213 55.085C38.0134 55.2448 38.8053 55.4042 39.5971 55.5633C39.7645 55.4901 39.932 55.417 40.0997 55.344C41.0832 55.6047 42.1252 55.533 43.0638 55.1402C43.2299 55.0619 43.3961 54.9837 43.5623 54.9055C44.123 54.7063 44.6897 54.5222 45.2423 54.3024C45.4365 54.2491 45.6033 54.1241 45.7088 53.9525C45.8144 53.781 45.8508 53.5757 45.8107 53.3783C45.7628 53.1857 45.7519 52.9857 45.7786 52.7889C45.7958 52.6961 45.8319 52.6078 45.8848 52.5296C45.9376 52.4514 46.006 52.3849 46.0857 52.3343C46.1785 52.3187 46.2736 52.326 46.363 52.3554C46.4523 52.3849 46.5331 52.4357 46.5984 52.5035C47.162 53.2355 47.6902 53.9951 48.2304 54.7454C48.3275 54.9017 48.4247 55.0579 48.5219 55.2141C48.8194 56.0621 49.3754 56.7955 50.1115 57.311C50.2196 57.4617 50.3277 57.6122 50.4358 57.7625C51.341 58.9985 52.7285 59.8153 53.4439 61.2197C53.5152 61.3342 53.6188 61.4251 53.7416 61.481C54.9825 62.1115 56.0918 63.0159 57.5014 63.2963C57.6135 63.4457 57.7257 63.595 57.8379 63.7442C58.9105 64.7299 60.2746 64.8625 61.6207 64.96C62.158 64.9747 62.6941 65.0202 63.2262 65.0963C65.593 65.6289 68.0394 65.7065 70.4352 65.3249C71.0319 65.2099 71.6393 65.1511 72.2418 65.0665C72.4058 64.9909 72.57 64.9153 72.7341 64.8398C74.1229 64.7321 75.4582 64.2573 76.6031 63.4638C77.611 62.8574 78.6588 62.32 79.7393 61.8553L80.2237 61.573C80.9439 61.1287 81.6077 60.5989 82.2006 59.9952C82.6146 59.4934 83.1759 59.1345 83.8051 58.9694C84.0013 58.8239 84.127 58.886 84.2005 59.1036C84.1365 59.9729 83.4875 60.5081 83.0364 61.1604C82.6123 61.774 82.7136 62.2424 83.3647 62.6714C83.6037 62.7893 83.8566 62.8764 84.1176 62.9305C84.539 63.0354 85.0062 63.0565 85.2242 63.5352C86.6547 64.0576 88.1754 64.2882 89.6965 64.2134C89.8649 64.1368 90.0334 64.0603 90.2019 63.9838C90.6585 64.1344 91.1547 64.1091 91.5937 63.9131C91.9586 63.7258 92.3681 63.6428 92.7771 63.6733C92.8888 63.5768 93.0232 63.5104 93.1676 63.4803C93.3121 63.4502 93.4619 63.4573 93.6028 63.501C93.6927 63.4009 93.798 63.3158 93.9149 63.2491C95.2701 62.826 96.4699 62.0116 97.3635 60.9083C97.4841 60.7486 97.8584 60.7809 98.1153 60.7243C98.4658 60.4445 98.7265 60.5136 98.8987 60.9267C99.2053 61.2776 99.0997 61.6721 99.0585 62.0823C98.9341 62.9938 99.0846 63.9216 99.4908 64.7469C99.897 65.5723 100.54 66.2575 101.338 66.7148C102.284 67.2459 103.313 67.6136 104.381 67.8023C104.498 67.9413 104.614 68.0799 104.73 68.2184C104.997 68.2803 105.263 68.3427 105.53 68.4055C105.651 68.3083 105.796 68.2452 105.949 68.2225C106.103 68.1999 106.26 68.2186 106.404 68.2768C106.604 68.3231 106.779 68.4431 106.895 68.6128C107.01 68.7825 107.058 68.9896 107.027 69.1927C106.868 69.9983 106.961 70.8335 107.293 71.5845C108.209 73.075 109.201 74.5632 111.154 74.8726C111.253 75.0091 111.352 75.1458 111.452 75.2826C111.847 75.39 112.243 75.4979 112.638 75.6063C113.062 75.2494 113.499 75.4386 113.935 75.5722C114.507 75.6714 115.056 75.8759 115.554 76.1753C115.992 76.4509 116.492 76.6141 117.009 76.6503L117.496 76.4022C118.021 76.3095 118.551 76.2557 119.083 76.2412C120.347 76.2927 121.607 76.0681 122.776 75.583C122.906 75.5543 123.04 75.5467 123.173 75.5605C123.561 75.2932 123.813 75.3937 123.937 75.8418C123.808 76.1411 123.748 76.6291 123.537 76.7069C122.582 77.0589 122.182 77.9282 121.576 78.6036C120.989 79.1035 121.515 79.5054 121.693 79.938C121.826 79.9715 121.96 80.005 122.093 80.0384C122.207 79.9136 122.357 79.8285 122.523 79.7955C122.688 79.7625 122.86 79.7835 123.012 79.8553C123.471 79.9892 123.96 79.9752 124.411 79.8154C124.861 79.6556 125.25 79.358 125.522 78.9649C125.925 78.4313 126.398 77.9547 126.929 77.548C127.19 77.3818 127.386 77.1307 127.483 76.837C127.58 76.5433 127.573 76.225 127.463 75.9359C127.218 75.3795 127.136 74.765 127.226 74.1636L127.391 74.0664C127.522 74.095 127.652 74.1325 127.778 74.1788C129.014 74.7247 129.075 74.82 128.904 76.1357C128.844 76.5973 128.662 77.056 128.98 77.4924C129.138 77.5376 129.296 77.5826 129.454 77.6275C129.789 77.6686 130.119 77.7443 130.438 77.8532C131.443 78.3114 131.8 78.9786 131.352 79.9725C130.801 81.3478 130.063 82.6408 129.159 83.815C129.024 84.0119 128.836 84.1662 128.616 84.2599C128.397 84.3536 128.155 84.3828 127.919 84.3441C127.585 84.2889 127.243 84.3162 126.922 84.4236C126.601 84.531 126.311 84.7153 126.077 84.9604C125.77 85.2757 125.394 85.5169 124.979 85.6658C124.565 85.8146 124.122 85.8671 123.683 85.8194C123.29 85.7189 122.875 85.7446 122.497 85.8929C122.118 86.0411 121.796 86.3044 121.576 86.6456C121.396 86.8942 121.138 87.0759 120.843 87.1619C120.549 87.2479 120.234 87.2333 119.948 87.1204C119.688 87.0502 119.418 87.0155 119.153 86.9645C118.794 87.2651 118.542 87.1817 118.387 86.7504C118.119 86.6818 117.85 86.613 117.582 86.544C117.218 86.8669 116.958 86.7911 116.796 86.3398C115.208 85.8185 115.195 85.8183 115.209 84.138C115.237 83.9366 115.188 83.7319 115.072 83.5653C114.955 83.3987 114.779 83.2827 114.58 83.2409C114.19 83.1392 113.784 83.0956 113.385 83.0264C113.231 83.1183 113.076 83.2103 112.922 83.3022C112.105 84.1843 111.228 84.8427 109.916 84.3214C109.519 84.1635 109.143 84.5026 108.752 84.5778C107.332 84.8517 106.005 85.7923 104.446 85.1693C104.247 85.0896 103.938 85.3155 103.674 85.3592C103.348 85.4352 103.013 85.4642 102.679 85.4452C101.478 85.2901 100.245 85.4474 99.0693 85.0377C98.6184 84.8891 98.1277 84.9192 97.6983 85.1218C97.2301 85.3152 96.7125 85.355 96.2203 85.2353C95.728 85.1157 95.2865 84.8429 94.9592 84.4562C94.8171 84.4207 94.675 84.3853 94.533 84.35C94.0297 84.5533 93.4757 84.5952 92.9475 84.4701C92.4193 84.345 91.943 84.0591 91.5843 83.6517C91.2392 83.298 90.8508 82.9099 90.3764 83.0269C89.4114 83.2649 88.7025 82.6567 87.8785 82.4395C87.6817 82.8678 87.4029 83.1068 86.9626 82.7465C86.7188 82.5232 86.4895 82.2848 86.2758 82.0325C85.8942 81.9092 85.5126 81.7855 85.1309 81.6613C85.1136 81.6 85.0863 81.542 85.0503 81.4895C85.0863 81.542 85.1136 81.6 85.1309 81.6613C84.9764 81.6233 84.822 81.5854 84.6677 81.5478C84.2603 81.5025 83.8861 81.3016 83.6231 80.987C83.4975 80.7512 83.3016 80.5602 83.0626 80.4407C81.7881 80.0964 80.6929 79.0767 79.2311 79.416C79.0269 79.4273 78.8228 79.3925 78.6338 79.3142C78.3744 79.2281 78.0947 79.2237 77.8327 79.3017C77.5707 79.3797 77.3389 79.5362 77.1687 79.7501C77.0624 79.9064 76.9211 80.0357 76.7561 80.1278C76.5911 80.2198 76.4069 80.2721 76.2181 80.2805C76.0294 80.2889 75.8412 80.2531 75.6687 80.176C75.4962 80.0989 75.3441 79.9826 75.2244 79.8364C75.0524 79.7279 74.8656 79.645 74.6698 79.5902C74.5289 79.5582 74.3881 79.5261 74.2473 79.494C73.5824 79.3458 72.9174 79.1976 72.2525 79.0494C71.8175 79.4275 71.3707 79.2211 70.9256 79.0766C69.1954 78.7654 67.5275 78.1737 65.9879 77.3249C63.7452 76.2398 61.4254 75.3218 59.0474 74.5784C58.8898 74.5693 58.7377 74.5172 58.6076 74.4277C58.4776 74.3383 58.3745 74.2149 58.3096 74.0709C57.5205 73.8563 56.7313 73.6412 55.9418 73.4258C54.873 72.9504 53.6928 73.3579 52.6087 73.0063C51.5578 72.7956 50.507 72.5851 49.4565 72.3749C49.2893 72.443 49.122 72.5109 48.9546 72.5788C48.7519 72.5727 48.5101 72.4916 48.3532 72.5733C47.9499 72.8259 47.4769 72.9439 47.0023 72.9104C46.5277 72.877 46.076 72.6938 45.7122 72.3872C45.0929 71.9459 44.326 71.7636 43.5744 71.8789C43.3472 71.9438 43.1091 71.9616 42.8748 71.9313C42.6404 71.9009 42.4148 71.8229 42.2116 71.7022C42.0085 71.5815 41.8322 71.4206 41.6934 71.2292C41.5547 71.0379 41.4565 70.8203 41.4049 70.5897C41.3633 70.4735 41.2253 70.3921 41.1319 70.2944C41.0215 70.1463 40.911 69.9983 40.8005 69.8504C40.3597 69.685 39.9947 69.3639 39.7744 68.9478C39.6976 68.7618 39.5821 68.5944 39.4354 68.4568C39.2888 68.3191 39.1145 68.2143 38.9241 68.1494C37.8843 67.9056 36.9539 67.326 36.2766 66.5002C35.7945 66.1437 35.2475 65.8845 34.6662 65.7372C34.5515 65.8757 34.3965 65.9751 34.2228 66.0216C34.0491 66.0681 33.8652 66.0593 33.6967 65.9965C33.5556 66.442 33.3021 66.8437 32.9606 67.1627C32.5654 67.6053 32.0155 67.8423 31.553 67.4441C30.8154 66.8092 30.04 67.1629 29.2725 67.1576C28.695 67.8502 28.5755 67.8516 27.9864 67.1713C27.4742 67.0282 26.9622 66.8851 26.4502 66.742C26.2896 66.7075 26.1291 66.6731 25.9687 66.6387C25.4465 66.4914 24.9161 66.3744 24.3804 66.2882C23.7136 66.2155 23.0343 66.2647 22.365 66.2077C21.5463 66.138 21.3013 65.2422 20.5775 64.9431C19.3363 64.4128 18.1337 63.7961 16.9788 63.0975C16.2503 62.5929 15.356 62.3869 14.4801 62.5219C14.0757 62.5763 13.6641 62.5252 13.2853 62.3735C12.3171 62.0621 11.2961 61.9496 10.2834 62.0426C9.69517 62.3658 9.63473 62.3316 9.51186 61.6049C8.64909 61.2195 7.80044 60.7977 6.9198 60.4588C6.33816 60.2349 5.71824 60.0792 5.52843 59.4072C5.3417 58.7458 4.52846 58.5651 4.47397 57.7401C4.42232 56.9584 4.02458 56.1991 4.10161 55.3734C3.23327 54.3549 3.40842 53.1227 3.30954 51.9159C3.23036 51.4847 3.26101 51.0405 3.3987 50.6242C3.53638 50.2079 3.77666 49.833 4.09735 49.5341C4.44453 49.2013 4.66009 48.7545 4.70449 48.2756C4.77536 47.8757 4.95362 47.5026 5.2202 47.1961C5.48678 46.8897 5.83166 46.6615 6.21792 46.536C6.91075 46.1998 7.81244 46.1689 8.2124 45.2915C8.3484 44.9931 8.76497 44.9136 9.11982 44.9661C9.5889 45.0356 10.0541 45.1319 10.5209 45.2167C10.6839 45.1437 10.847 45.0708 11.0101 44.998C11.6585 45.2021 12.3321 45.3146 13.0116 45.3322C14.0996 45.2896 15.185 45.4677 16.2023 45.8558C16.672 45.9349 17.1743 45.9574 17.365 46.5227C17.6177 46.6076 17.8704 46.6923 18.1231 46.777C18.2273 46.3583 18.3314 45.9396 18.4356 45.5209C18.5456 45.6041 18.6453 45.7002 18.7326 45.807C18.6453 45.7002 18.5457 45.6042 18.4356 45.521C18.6493 44.7106 18.7396 43.9735 17.968 43.3192C17.5365 42.9535 17.0242 42.4572 17.2552 41.7532C17.7233 40.3264 17.5766 38.8204 17.8653 37.3727C17.5245 36.9985 17.6074 36.7376 18.0771 36.58C18.3842 35.8367 18.7984 35.1424 19.3066 34.5191C19.6094 34.2541 19.8421 33.9183 19.9838 33.5417C20.1256 33.165 20.1721 32.7592 20.1192 32.3603C20.0147 30.6629 20.9347 29.5637 22.2885 28.7478C23.1506 28.2283 24.0405 27.7551 24.9178 27.2611C25.0861 27.1705 25.2544 27.08 25.4228 26.9896C26.9445 27.2394 27.0243 27.2061 27.706 26.0229C27.7332 25.9608 27.7559 25.8969 27.7741 25.8315C27.9028 25.4795 28.1351 25.1747 28.4405 24.9574C28.7459 24.7401 29.11 24.6205 29.4847 24.6143C30.2727 24.4752 31.0361 24.2215 31.7505 23.8612C32.9149 23.4097 34.0694 22.6485 35.3844 22.8023C37.1021 23.0033 38.8988 22.8608 40.4844 23.774C40.6576 23.6264 40.7917 23.6535 40.8847 23.8646C41.9433 24.1381 43.0019 24.4121 44.0606 24.6867C44.8963 24.362 44.9969 24.4153 45.1963 25.2906C46.7017 26.1564 47.9015 27.4729 49.4956 28.2084C49.7465 27.9428 50.0187 27.8261 50.3168 28.1295C50.5771 28.377 50.7578 28.6965 50.8359 29.0471C50.9141 29.3978 50.8861 29.7637 50.7556 30.0984C50.6936 30.3636 50.6314 30.6288 50.5691 30.8941C50.7222 30.9272 50.8752 30.9603 51.028 30.9933C50.8365 31.0976 50.6455 31.2018 50.4551 31.306L50.4115 31.3325Z" fill="#DEF1FD"/>
<path d="M103.192 28.8863C103.466 28.8897 103.736 28.9643 103.973 29.103C105.815 30.0503 107.997 30.3616 109.453 32.033C109.558 32.1223 109.682 32.1857 109.815 32.2177C111.036 32.6549 111.419 33.822 112.021 34.7839C112.625 35.7503 113.569 36.5362 113.671 37.7823C113.682 37.9165 113.772 38.0518 113.758 38.1794C113.772 39.1293 113.958 40.0688 114.305 40.9529C114.527 41.8504 114.76 42.7869 114.164 43.6947C114.006 44.0644 113.915 44.4589 113.894 44.8602C113.727 45.4436 113.615 46.041 113.557 46.6449C113.543 47.6015 112.81 48.3357 112.76 49.398C113.355 49.6217 113.938 49.79 114.475 50.0529C115.879 50.7401 117.314 51.3868 118.638 52.2085C119.583 52.8523 120.464 53.5866 121.267 54.4009C122.126 55.1717 122.928 56.0049 123.665 56.8936C124.537 57.9361 125.105 59.1993 125.305 60.5439C125.389 61.4149 125.579 62.2723 125.871 63.0972C126.472 64.6795 126.122 66.2973 126.227 67.8843C126.303 69.0343 125.815 70.2216 125.58 71.3893C125.851 71.5296 126.029 71.6228 126.208 71.7136C128.809 73.0345 130.722 74.8892 131.218 77.931C131.402 78.5843 131.66 79.2145 131.987 79.8094C131.897 80.1091 131.783 80.4271 131.707 80.7542C131.186 82.9959 130.287 84.9735 128.24 86.2835C127.658 86.7471 126.969 87.0562 126.236 87.1823C125.825 87.1746 125.419 87.2663 125.051 87.4495C124.054 88.1395 122.945 87.8504 121.88 87.9249C121.481 87.9529 121.07 87.8122 120.669 87.8306C118.401 87.912 116.188 87.1177 114.49 85.6122C114.188 85.364 113.921 85.0739 113.697 84.8589C113.517 84.8805 113.338 84.9116 113.16 84.952C112.901 85.0311 112.645 85.1215 112.391 85.2173C109.901 86.1577 107.378 86.8974 104.665 86.588C104.468 86.547 104.262 86.5809 104.089 86.6829C103.226 87.5159 102.184 87.2105 101.191 87.1678C100.11 87.1214 99.032 87.0222 97.9521 86.9555C96.7392 86.8807 95.5258 86.8164 94.3126 86.7476C93.0403 85.8977 91.4679 86.0943 90.0815 85.4713C88.2315 84.6399 86.2817 84.0437 84.5925 82.8625C84.1268 82.5803 83.6467 82.3225 83.1543 82.09C82.7376 81.8755 82.3342 81.6361 81.9461 81.3733C81.1281 80.7822 80.3342 80.1579 79.4867 79.5139C75.7791 81.0246 71.9787 80.6966 68.2915 79.7519C64.5334 78.8199 61.1797 76.6924 58.735 73.6897C58.635 73.6971 58.5357 73.7116 58.4378 73.733C56.4615 74.4151 54.5258 75.3169 52.3368 74.8248C52.2006 74.8208 52.0654 74.8502 51.9432 74.9105C50.888 75.2174 49.7598 75.157 48.7434 74.7391C48.3553 74.613 47.9537 74.5332 47.5469 74.5012C44.4756 74.2153 41.9017 72.7898 39.5365 70.9449C38.066 69.7979 36.6841 68.5374 35.2279 67.2986C33.4497 67.9436 31.6091 68.4012 29.7359 68.6638C26.8269 68.9701 23.8873 68.5592 21.1738 67.4671C20.3464 67.1712 19.5597 66.7719 18.8324 66.2788C18.0883 65.7071 16.9603 65.7869 16.4793 64.8272C15.075 64.023 13.6887 63.2955 11.9419 63.5264C10.7118 63.5848 9.49506 63.2499 8.46812 62.5702C6.5875 61.6153 5.0468 60.1041 4.05572 58.2422C2.91133 56.0037 2.19526 53.7299 3.15832 51.2283C3.30499 50.8473 3.39675 50.4442 3.55534 50.0688C3.7381 49.3412 4.06352 48.6572 4.51273 48.0564C5.64319 47.0309 6.53059 45.6323 8.22067 45.3236C8.75963 45.2415 9.27099 45.0311 9.71166 44.7101C10.6975 43.9119 11.9679 44.411 13.0023 43.8792C13.1918 43.7818 13.5452 43.9112 13.7842 44.0205C14.3935 44.2988 15.0973 44.3003 15.6478 44.7913C15.7401 44.8846 15.8508 44.9578 15.9728 45.0063C16.0948 45.0548 16.2254 45.0775 16.3566 45.073C16.4878 45.0685 16.6167 45.037 16.7351 44.9803C16.8535 44.9236 16.9589 44.8431 17.0446 44.7437C16.9704 44.0305 16.8646 43.2319 16.8092 42.4298C16.7298 41.2791 16.4214 40.0541 16.7076 38.9952C16.9305 38.1391 17.0057 37.2513 16.93 36.3699C17.3155 35.8171 17.9168 35.3393 17.8597 34.9611C17.7153 34.0053 18.3594 33.4344 18.67 32.7245C19.0471 31.8624 19.6602 31.1068 20.0887 30.2631C20.6188 29.2451 21.3428 28.3407 22.2201 27.6008C23.1218 26.8112 23.7965 25.761 24.7033 24.9788C25.5368 24.1762 26.5165 23.5409 27.5892 23.1073C28.7381 22.7299 29.6778 21.9247 30.8897 21.7216C31.6939 21.5982 32.4825 21.3889 33.242 21.0971C34.0238 20.7706 34.8681 20.6209 35.7144 20.6587C36.5608 20.6964 37.3883 20.9207 38.1379 21.3154C38.7285 21.6124 39.3728 21.7872 40.0324 21.8295C41.4592 21.909 42.8337 22.3939 43.9945 23.2275C45.2785 24.179 46.8675 24.6965 48.0505 25.8906C48.7972 25.6568 49.4709 25.2345 50.0068 24.6644C50.2667 24.3439 50.6075 24.0986 50.9939 23.9539C51.3803 23.8092 51.7983 23.7703 52.2048 23.8412C53.3744 23.949 54.6686 23.7057 55.6853 24.6048C55.7585 24.6695 55.9425 24.6087 56.1613 24.6047C56.5893 24.0693 57.0323 23.4722 57.523 22.917C57.7996 22.5321 58.1591 22.2142 58.575 21.9868C59.3679 21.6547 60.054 21.1108 60.5583 20.4146C61.2426 20.5639 61.946 20.6062 62.6432 20.5399C63.4378 20.3892 64.253 20.3831 65.0496 20.522C66.6626 20.6481 67.9622 21.5455 69.4655 22.1142C69.7378 21.9377 69.9871 21.728 70.2077 21.4899C70.8691 20.637 71.6715 19.9034 72.5802 19.321C74.0219 18.3113 75.6286 17.5609 77.3281 17.1034C79.11 16.6325 80.9737 16.912 82.8709 16.1757C83.0904 16.6383 83.4669 17.008 83.9334 17.219C84.3999 17.43 84.9262 17.4686 85.4185 17.328C85.6235 17.3223 85.8259 17.3743 86.0028 17.4781C87.1759 17.9932 88.4072 18.3611 89.276 19.4499C89.8479 20.1274 90.5254 20.7081 91.2823 21.1697C93.4269 22.542 94.0602 24.955 95.3612 26.9062C95.289 28.0225 96.1824 28.6996 96.5191 29.6337C98.7095 28.6491 100.982 29.0466 103.192 28.8863ZM109.348 54.3767C108.748 53.9346 108.642 53.3605 108.949 53.0355C109.649 52.2949 109.756 51.3302 110.154 50.4815C110.569 49.7101 110.93 48.9111 111.234 48.0901C111.586 46.9908 111.837 45.8618 111.985 44.717C112.167 43.3771 112.219 42.023 112.143 40.6731C112.133 39.1058 111.619 37.5834 110.677 36.3311C110.283 35.8633 109.985 35.3146 109.584 34.8535C107.816 32.8171 105.785 31.2243 102.942 31.068C102.807 31.0605 102.641 31.0942 102.542 31.0291C101.026 30.0328 99.3558 30.9037 97.7778 30.6427C97.4939 30.5957 97.1633 30.8312 96.7638 30.967C96.9408 32.2672 97.5869 33.4879 96.9827 34.8597C96.1109 33.984 95.4971 32.8852 95.2085 31.6837C94.8498 30.3197 94.3892 28.9845 93.8306 27.6894C92.891 26.0476 91.7399 24.5362 90.4069 23.194C90.2474 23.0701 90.0978 22.934 89.9593 22.7869C88.7342 20.9431 86.7548 20.3571 84.8175 19.7373C83.7909 19.4089 82.7169 19.2282 81.6631 18.986C81.4679 18.929 81.266 18.8979 81.0627 18.8935C80.3457 18.9234 79.7337 19.3983 78.8922 19.0863C78.1684 18.9309 77.4154 18.9827 76.7197 19.2358C75.3489 19.5948 73.9427 19.9519 72.963 21.1094C72.4373 21.7305 71.7011 22.0746 71.1379 22.6964C69.9537 24.1512 68.8798 25.6924 67.9249 27.3071C67.675 27.5804 67.3838 27.8129 67.0621 27.9963C66.9653 27.9393 66.8813 27.863 66.8153 27.7722C66.7492 27.6813 66.7026 27.5779 66.6783 27.4682C66.654 27.3585 66.6525 27.245 66.6739 27.1348C66.6953 27.0245 66.7392 26.9199 66.8029 26.8273C67.2361 25.8468 67.6682 24.8657 68.1072 23.8704C67.1879 23.1304 66.0955 22.6362 64.9328 22.4345C63.77 22.2328 62.5751 22.33 61.4602 22.7171C60.3924 23.0762 59.4124 23.657 58.5847 24.4212C57.7569 25.1855 57.0999 26.116 56.6568 27.1519C56.3485 27.8338 56.0016 28.4997 55.6408 29.1555C55.456 29.4033 55.2461 29.6312 55.0143 29.8357C54.5694 28.6163 55.4278 27.8038 55.5126 26.7668C54.6676 26.2758 53.7082 26.0157 52.7309 26.0126C51.7536 26.0095 50.7926 26.2635 49.9444 26.7491C50.1718 28.028 50.7542 29.2171 51.6249 30.1808C52.5957 31.4027 53.3248 32.7984 53.7732 34.2932C54.1265 35.3916 54.469 36.4985 54.9122 37.5616C55.3672 38.8379 55.5648 40.1918 55.4934 41.5449C55.5214 42.14 55.3231 42.7237 54.9384 43.1786C54.7332 43.0422 54.5504 42.9847 54.5394 42.9039C54.051 40.2407 53.3232 37.6271 52.3647 35.0948C51.0063 33.1905 50.3966 30.7795 48.2692 29.3771C47.5415 28.765 46.9258 28.0311 46.4494 27.2081C45.7901 26.3428 44.8662 25.7165 43.8182 25.4245C41.8842 24.765 39.9729 24.1019 37.8913 24.2018C36.8993 23.6017 35.9358 23.9877 34.9424 24.237C33.7613 24.5335 32.5499 24.707 31.3624 24.9806C30.9697 25.0601 30.6024 25.2346 30.2927 25.4888C30.0839 25.7114 29.8315 25.8887 29.5513 26.0098C29.2711 26.1308 28.969 26.193 28.6638 26.1925C28.4348 26.1864 28.1973 26.421 27.9674 26.5519C27.6128 26.7538 27.2757 27.102 26.9059 27.1396C26.4272 27.1436 25.9617 27.2976 25.5751 27.58C25.1885 27.8624 24.9002 28.2589 24.7507 28.7138C24.5796 29.0104 24.3029 29.2316 23.9758 29.3331C23.364 29.6281 22.822 30.05 22.3857 30.5706C20.8467 32.0377 20.1762 34.0042 19.5442 35.9012C18.6088 38.4623 18.3472 41.2208 18.7844 43.912C19.2496 46.4014 19.9331 48.7915 21.832 50.6367C22.1054 50.9346 22.3535 51.2548 22.5735 51.594C22.6044 51.6363 22.5698 51.7266 22.5591 51.9003C22.3145 51.8761 22.0138 51.9368 21.8422 51.8152C20.4274 50.8131 18.9198 49.9001 18.2236 48.1688C18.0764 47.8643 17.8504 47.6048 17.569 47.4171C15.7446 46.1022 15.7392 46.1118 13.3062 46.0766C12.7622 46.0687 12.2179 46.0141 11.6749 46.0278C11.0613 46.0178 10.453 46.1434 9.8935 46.3955C9.33399 46.6477 8.83703 47.0203 8.43809 47.4867C8.12499 47.8411 7.77861 48.1648 7.40371 48.4531C6.9317 48.7334 6.57486 49.1726 6.39707 49.692C6.35142 49.8904 6.25991 50.0755 6.12986 50.2322C5.99982 50.3889 5.83486 50.513 5.64821 50.5945C4.68053 51.09 4.66612 52.0279 4.75726 52.9041C4.89548 53.7052 5.08192 54.4973 5.3156 55.276C5.40327 55.6578 5.43023 56.0537 5.51873 56.4353C5.56146 56.7549 5.66595 57.0632 5.82637 57.3429C6.46373 58.2082 6.65623 59.4958 7.63082 59.9745C8.95086 60.6227 10.2741 61.4071 11.8339 61.4454C12.1448 61.035 11.8066 60.8818 11.5294 60.6923C11.3364 60.5592 11.1985 60.3603 11.1413 60.1328C11.0841 59.9054 11.1117 59.6649 11.2188 59.4563C11.4164 59.3988 11.626 59.3968 11.8246 59.4506C12.0233 59.5043 12.2032 59.6118 12.3448 59.7612C14.3705 61.2047 16.3867 62.6615 18.4127 64.1044C18.7369 64.3352 19.0906 64.6839 19.4384 64.6935C20.5198 64.8202 21.5587 65.189 22.478 65.7725C23.1585 66.0754 23.8859 66.2596 24.6285 66.3171C26.3697 66.5658 28.1252 66.7007 29.884 66.7209C31.2867 66.7836 32.6721 66.3915 33.834 65.603C33.1718 64.4379 32.32 63.3914 31.3134 62.5066C30.7103 61.8812 30.0656 61.2936 29.4934 60.6419C29.3009 60.444 29.1578 60.2035 29.0755 59.94C28.9932 59.6764 28.974 59.3972 29.0197 59.1249C29.2734 59.02 29.5553 59.0046 29.8189 59.0811C30.0826 59.1575 30.3125 59.3213 30.4708 59.5456C31.8009 60.9004 33.0589 62.3272 34.411 63.659C35.9602 65.1851 37.5745 66.6455 39.1739 68.1199C39.6219 68.5329 40.1095 68.9044 40.5931 69.2766C40.8904 69.5566 41.2317 69.7859 41.6034 69.9552C43.7956 70.6676 45.7712 71.9492 48.0551 72.4093C48.6507 72.5294 49.2567 72.6053 49.8613 72.6705C50.1948 72.7064 50.5762 72.5779 50.8651 72.6964C51.8387 73.0066 52.8726 73.0776 53.8794 72.9032C54.9572 72.8195 56.029 72.7459 57.1154 72.7386C58.608 72.6337 60.0645 72.231 61.399 71.5543C63.2647 70.7517 65.0982 69.8743 66.9544 69.049C67.3117 68.9165 67.6781 68.8096 68.0507 68.7292C68.114 68.7983 68.1591 68.8821 68.1819 68.9731C68.2047 69.064 68.2045 69.1592 68.1813 69.25C68.1581 69.3409 68.1126 69.4245 68.049 69.4933C67.9854 69.5622 67.9056 69.6141 67.8168 69.6444C66.312 70.4295 64.7939 71.1896 63.2723 71.9418C62.5535 72.297 61.8161 72.6149 61.0715 72.957C64.0316 77.1757 71.6847 79.7265 77.3619 77.6217C76.4591 76.085 74.5753 75.1482 74.5517 73.0982C75.3347 73.3942 76.0252 73.8926 76.5526 74.5427C76.919 75.2793 77.4904 75.8943 78.1981 76.3137C80.4655 78.0312 82.6648 79.8565 85.2577 81.0918C85.809 81.3544 86.3941 81.5454 86.958 81.7828C87.5131 82.0164 88.0633 82.2621 88.611 82.5125C88.7952 82.5968 89.0076 82.836 89.1351 82.7926C89.515 82.6686 89.9223 82.6552 90.3095 82.7541C90.6967 82.853 91.0478 83.06 91.3217 83.3509C92.6926 83.0866 93.9107 84.0587 95.292 83.8329C95.7032 83.7857 96.1189 83.8652 96.4837 84.0609C97.9875 84.8611 99.622 84.6565 101.219 84.7752C102.77 84.9586 104.344 84.7716 105.809 84.2296C106.114 84.0706 106.459 84.004 106.802 84.0382C108.73 84.5274 110.379 83.524 112.054 82.9596C113.347 82.5939 114.672 82.3483 116.01 82.226C116.082 82.2155 116.183 82.4029 116.337 82.5713C115.851 83.1702 115.35 83.7875 114.745 84.5318C115.32 84.8532 115.806 85.1693 116.327 85.408C117.924 86.234 119.722 86.5938 121.514 86.4463C123.306 86.2988 125.02 85.6499 126.461 84.5739C127.238 84.1602 127.929 83.6022 128.497 82.9298C130.173 80.6994 129.604 77.7028 128.981 75.9486C128.927 75.8232 128.856 75.7057 128.77 75.5993C128.652 75.4332 128.558 75.2022 128.394 75.1242C127.668 74.6447 127.012 74.0667 126.445 73.4067C126.176 73.2336 125.882 73.1017 125.574 73.0153C124.849 74.6102 124.153 76.1505 123.442 77.6838C123.402 77.7714 123.238 77.8019 123.077 77.888C123.009 77.7038 122.863 77.5129 122.892 77.3554C123.133 76.0861 123.364 74.8123 123.682 73.5612C124.008 72.5227 124.18 71.4424 124.193 70.3542C124.173 69.8255 124.454 69.288 124.45 68.7558C124.434 66.5891 124.36 64.4229 123.36 62.4221C123.248 62.251 123.161 62.0652 123.101 61.87C122.68 59.4365 121.025 57.7137 119.7 55.7802C118.633 54.2225 116.938 53.4327 115.7 52.109C114.423 51.7491 113.449 50.4889 111.914 50.8297C111.14 52.0725 110.5 53.4264 109.348 54.3767Z" fill="#324C76"/>
<path d="M89.2973 37.3176C90.3916 38.031 91.2096 38.9492 92.5183 39.0325C92.8219 39.0519 93.0531 39.6306 93.3923 39.77C94.8091 40.3516 95.3154 41.841 96.4281 42.7138C97.0195 44.4123 98.3781 45.8423 98.1941 47.8164C98.1556 48.1565 98.195 48.501 98.3094 48.8237C98.4568 49.1285 98.5279 49.4646 98.5167 49.803C98.5055 50.1414 98.4123 50.472 98.2452 50.7665C98.0805 51.0668 97.9968 51.4048 98.0022 51.7473C98.0077 52.0897 98.1021 52.4249 98.2762 52.7198C98.4 52.964 98.4629 53.2345 98.4595 53.5083C98.4562 53.7821 98.3867 54.051 98.257 54.2921C98.0739 54.6211 97.962 54.985 97.9286 55.36C97.8952 55.7351 97.941 56.113 98.0631 56.4692C98.2902 57.0674 97.913 57.5134 97.6887 57.9986C97.0052 59.4775 97.1747 60.9892 97.3994 62.6075C97.7113 62.5069 97.9652 62.504 98.0543 62.3814C98.3522 62.0106 98.5943 61.5983 98.7731 61.1576C99.3912 59.5791 99.9057 57.9621 100.313 56.3168C100.726 54.0628 100.848 51.7654 100.678 49.4804C100.549 46.8769 99.5628 44.6485 98.446 42.4047C96.9341 39.3672 94.2367 37.7459 91.3388 36.3483C91.2285 36.2687 91.1045 36.2101 90.973 36.1755C89.3023 36.1111 87.8978 35.1921 86.3473 34.7439C84.2046 34.2742 81.983 34.2996 79.8515 34.818C79.7322 34.6215 79.5167 34.4153 79.4799 34.1811C79.4573 33.6383 79.2649 33.1164 78.9297 32.689C78.5946 32.2615 78.1336 31.9502 77.612 31.7988C77.1728 31.6086 76.7841 31.3186 76.4767 30.9518C75.5076 30.0966 74.3348 29.5052 73.071 29.2345C72.6859 29.0907 72.2672 29.0625 71.8663 29.1534C70.8238 29.5267 69.7381 29.0219 68.6638 29.5059C67.7854 30.0133 66.9851 30.6454 66.2881 31.3825C65.7907 31.7998 65.078 32.0133 64.7581 32.861C64.9561 32.8542 65.1521 32.8195 65.3404 32.7579C66.4124 32.1735 67.5555 31.73 68.7411 31.4385C69.7269 31.188 70.7583 31.1766 71.7494 31.4053C73.3861 31.7166 74.7629 32.6411 76.2124 33.3656C76.8099 33.8099 77.3305 34.3492 77.7534 34.9621C77.248 35.564 76.6115 36.0422 75.8928 36.36C74.3181 36.9963 72.9902 38.1229 72.1057 39.5729C71.5833 40.2839 71.0227 40.966 70.4263 41.6163C70.3795 41.7321 70.363 41.858 70.3783 41.982C70.3937 42.106 70.4403 42.224 70.5139 42.325C70.6171 42.4043 70.7363 42.4602 70.8632 42.4889C70.9901 42.5176 71.1218 42.5184 71.2491 42.4912C71.4978 42.3897 71.7193 42.2315 71.896 42.0291C72.554 41.4369 73.1973 40.8285 73.8551 40.2359C74.0555 40.0554 74.3026 39.7466 74.4967 39.7692C75.5995 39.8971 76.1807 39.0475 76.9541 38.5594C77.1079 38.4246 77.292 38.3291 77.4908 38.2812C77.6895 38.2332 77.8969 38.2342 78.0952 38.284C78.1587 38.3072 78.2264 38.3162 78.2937 38.3102C78.361 38.3043 78.4262 38.2835 78.4845 38.2494C79.7541 36.9279 81.6635 37.9271 83.0311 36.9852C83.9739 36.9458 84.9174 37.0457 85.831 37.2818C86.5897 37.561 87.4127 37.6156 88.2016 37.4392C88.5378 37.3932 88.8763 37.3637 89.2973 37.3176Z" fill="#324C76"/>
</svg>
