<svg width="59" height="64" viewBox="0 0 59 64" fill="none" xmlns="http://www.w3.org/2000/svg">
<path d="M57.0149 40.6954C56.0144 37.7969 54.543 34.4593 52.3359 30.946C52.3359 30.946 56.9266 20.2013 51.247 8.34402C51.247 8.34402 42.1537 10.5105 37.5041 18.1519C35.2087 17.4785 32.5307 17.0686 29.4997 17.0686C26.4686 17.0686 23.7906 17.4785 21.4952 18.1519C16.8456 10.5105 7.75229 8.34402 7.75229 8.34402C2.07267 20.172 6.66344 30.946 6.66344 30.946C4.48577 34.4886 2.98493 37.8262 1.98438 40.6954C-0.311012 47.3706 2.51408 54.7777 8.72341 58.1446C13.3436 60.6624 20.0532 62.8289 29.4997 62.8289C38.9461 62.8289 45.6557 60.6624 50.2759 58.1446C56.4852 54.7484 59.3103 47.3413 57.0149 40.6954Z" fill="#F2AA5B"/>
<path d="M56.5735 46.1116C56.5735 46.1116 56.8972 49.1857 54.1898 51.6743C51.865 53.7823 48.1865 54.28 45.0965 53.1089C42.7128 52.2013 39.77 50.5618 38.1221 47.7804C36.5624 45.1748 33.4136 43.4474 29.9705 43.3596C29.8233 43.3596 29.6762 43.3596 29.5291 43.3596C29.3819 43.3596 29.2348 43.3596 29.0876 43.3596C25.6445 43.4767 22.4957 45.1748 20.936 47.7804C19.2586 50.5618 16.3158 52.2013 13.9616 53.1089C10.8716 54.3093 7.19312 53.7823 4.8683 51.6743C2.13149 49.215 2.48463 46.1116 2.48463 46.1116C-1.1056 48.9222 3.45575 54.7191 3.45575 54.7191C15.0799 63.3266 29.5585 62.7411 29.5585 62.7411C29.5585 62.7411 44.0371 63.3266 55.6612 54.7191C55.6023 54.7484 60.1637 48.9222 56.5735 46.1116Z" fill="white"/>
<path d="M21.9362 31.3266L14.7263 32.2928C13.9317 32.4099 13.196 31.8829 13.0489 31.0924C12.9018 30.3898 13.2843 29.6871 13.9612 29.4236L20.7885 26.6716C21.8185 26.2617 22.9662 26.8765 23.1722 27.9598L23.4076 29.2187C23.6136 30.2434 22.9367 31.2095 21.9362 31.3266Z" fill="white"/>
<path d="M37.0626 31.3266L44.2725 32.2928C45.067 32.4099 45.8027 31.8829 45.9499 31.0924C46.097 30.3898 45.7144 29.6871 45.0376 29.4236L38.2103 26.6716C37.1803 26.2617 36.0326 26.8765 35.8266 27.9598L35.5912 29.2187C35.3852 30.2434 36.062 31.2095 37.0626 31.3266Z" fill="white"/>
<path d="M18.4065 45.4097C21.6408 45.4097 24.2627 42.8012 24.2627 39.5835C24.2627 36.3658 21.6408 33.7574 18.4065 33.7574C15.1722 33.7574 12.5503 36.3658 12.5503 39.5835C12.5503 42.8012 15.1722 45.4097 18.4065 45.4097Z" fill="#633001"/>
<path d="M15.4633 39.5828C17.0886 39.5828 18.4061 38.272 18.4061 36.6551C18.4061 35.0381 17.0886 33.7274 15.4633 33.7274C13.838 33.7274 12.5205 35.0381 12.5205 36.6551C12.5205 38.272 13.838 39.5828 15.4633 39.5828Z" fill="white"/>
<path d="M19.8772 42.4812C20.6898 42.4812 21.3486 41.8258 21.3486 41.0174C21.3486 40.2089 20.6898 39.5535 19.8772 39.5535C19.0645 39.5535 18.4058 40.2089 18.4058 41.0174C18.4058 41.8258 19.0645 42.4812 19.8772 42.4812Z" fill="white"/>
<path d="M40.595 45.4097C43.8293 45.4097 46.4512 42.8012 46.4512 39.5835C46.4512 36.3658 43.8293 33.7574 40.595 33.7574C37.3607 33.7574 34.7388 36.3658 34.7388 39.5835C34.7388 42.8012 37.3607 45.4097 40.595 45.4097Z" fill="#633001"/>
<path d="M37.6518 39.5828C39.2771 39.5828 40.5946 38.272 40.5946 36.6551C40.5946 35.0381 39.2771 33.7274 37.6518 33.7274C36.0265 33.7274 34.709 35.0381 34.709 36.6551C34.709 38.272 36.0265 39.5828 37.6518 39.5828Z" fill="white"/>
<path d="M42.0656 42.4812C42.8783 42.4812 43.537 41.8258 43.537 41.0174C43.537 40.2089 42.8783 39.5535 42.0656 39.5535C41.253 39.5535 40.5942 40.2089 40.5942 41.0174C40.5942 41.8258 41.253 42.4812 42.0656 42.4812Z" fill="white"/>
<path d="M29.5 64C21.2307 64 14.0503 62.3897 8.16463 59.1693C1.4256 55.5096 -1.63493 47.5755 0.866463 40.2854C1.98473 37.0357 3.48556 33.8445 5.33953 30.7996C4.45669 28.3403 1.51388 18.5618 6.6638 7.81701L7.07579 6.96797L7.98806 7.20219C8.37063 7.29002 17.0225 9.42726 21.9958 16.7758C24.3501 16.1903 26.8515 15.8975 29.5 15.8975C32.1191 15.8975 34.6499 16.1903 37.0042 16.7758C41.9481 9.42726 50.6294 7.29002 51.0119 7.20219L51.9242 6.96797L52.3362 7.81701C57.4861 18.5618 54.5433 28.3403 53.6605 30.7996C55.5144 33.8445 57.0153 37.0357 58.1335 40.2854C60.6349 47.5462 57.5744 55.4803 50.8354 59.1693C44.9498 62.3605 37.7693 64 29.5 64ZM8.40006 9.74931C3.69156 20.5819 7.72321 30.3605 7.75264 30.4776L7.98806 31.0338L7.66435 31.5608C5.78096 34.6057 4.22127 37.8262 3.103 41.0759C0.954749 47.2534 3.57385 54.0165 9.2829 57.1198C14.8154 60.1354 21.6133 61.6578 29.4706 61.6578C37.3573 61.6578 44.1552 60.1354 49.6582 57.1198C55.3967 54.0165 57.9864 47.2534 55.8382 41.0759C54.7199 37.7969 53.1896 34.6057 51.2768 31.5608L50.9531 31.0338L51.1885 30.4776C51.2179 30.3897 55.279 20.5819 50.5411 9.74931C48.1868 10.5105 41.9775 12.9991 38.4756 18.7081L38.0636 19.5279L37.1219 19.2644C34.7676 18.591 32.178 18.2397 29.4411 18.2397C26.7043 18.2397 24.1147 18.591 21.7604 19.2644L21.0836 19.4693L20.4656 18.8545L20.4067 18.7374C16.9342 12.9698 10.7249 10.5105 8.40006 9.74931Z" fill="#633001"/>
<path d="M9.37147 14.0238C8.69463 16.5416 8.51806 18.9131 8.54749 21.021C8.57691 21.9286 9.63632 22.4264 10.3426 21.8408C11.8729 20.5819 13.5797 19.2937 15.3454 18.0933C15.9339 17.6834 15.9928 16.8637 15.4631 16.366C13.9623 15.0192 12.3731 14.0238 10.9312 13.3211C10.3132 12.9991 9.54804 13.3504 9.37147 14.0238Z" fill="white"/>
<path d="M49.629 14.0238C50.3059 16.5416 50.4825 18.9131 50.453 21.021C50.4236 21.9286 49.3642 22.4264 48.6579 21.8408C47.1276 20.5819 45.4208 19.2937 43.6551 18.0933C43.0666 17.6834 43.0077 16.8637 43.5374 16.366C45.0383 15.0192 46.6274 14.0238 48.0693 13.3211C48.6873 12.9991 49.4525 13.3504 49.629 14.0238Z" fill="white"/>
<path d="M29.5 46.3166C27.5872 46.3166 26.3218 46.4629 25.4978 46.6093C24.7032 46.7557 24.2912 47.634 24.7032 48.3367C25.2918 49.3614 26.4395 50.7374 28.5877 51.4694C29.2057 51.6743 29.8531 51.6743 30.4711 51.4694C32.6194 50.7667 33.7671 49.3614 34.3556 48.3367C34.7676 47.634 34.3556 46.7557 33.5611 46.6093C32.6782 46.4337 31.4128 46.3166 29.5 46.3166Z" fill="#633001"/>
<path d="M32.6492 53.753C31.5309 53.753 30.4421 53.4602 29.5004 52.8747C28.5587 53.4602 27.4698 53.753 26.3515 53.753C24.0267 53.753 21.8785 52.377 20.8779 50.2983L22.467 49.5663C23.1733 51.0595 24.7036 52.0256 26.3515 52.0256C27.2932 52.0256 28.2055 51.7329 28.9707 51.1473L29.5004 50.7374L30.0301 51.1473C30.7952 51.7329 31.678 52.0256 32.6492 52.0256C34.2971 52.0256 35.8274 51.0595 36.5337 49.5663L38.1228 50.2983C37.1222 52.377 34.974 53.753 32.6492 53.753Z" fill="#633001"/>
<path d="M39.1816 0.878311C35.356 0.878311 31.9129 1.11253 29.4998 1.49313C27.0867 1.11253 23.6436 0.878311 19.8179 0.878311C12.5492 0.878311 6.66357 1.72735 6.66357 2.81061C6.66357 3.86459 12.5492 4.7429 19.8179 4.7429C21.7896 4.7429 23.673 4.68435 25.3798 4.56724C25.8507 4.53796 26.2627 4.83074 26.3804 5.26989L28.3521 12.2379H29.4998H30.6475L32.6192 5.26989C32.7369 4.83074 33.1489 4.53796 33.6197 4.56724C35.2971 4.68435 37.1805 4.7429 39.1816 4.7429C46.4504 4.7429 52.336 3.89386 52.336 2.81061C52.3066 1.75663 46.4209 0.878311 39.1816 0.878311Z" fill="#55C2CC"/>
<path d="M29.5003 12.1208C7.8118 12.1208 7.31152 29.7456 7.31152 29.7456C7.31152 29.7456 13.1089 32.2635 29.5003 32.2635C45.8918 32.2635 51.6891 29.7456 51.6891 29.7456C51.6891 29.7456 51.1888 12.1208 29.5003 12.1208Z" fill="#E94545"/>
<path d="M29.4998 12.1208C20.4654 14.2287 20.23 31.3266 20.23 31.3266L29.4998 31.9122L38.7697 31.3266C38.7697 31.3559 38.5343 14.2287 29.4998 12.1208Z" fill="#F4C229"/>
<path d="M31.3248 13.1162H27.6758L25.5275 5.50412C25.5275 5.47484 25.4687 5.44556 25.4392 5.44556C23.6735 5.56267 21.7901 5.62123 19.8185 5.62123C16.2577 5.62123 12.9029 5.41629 10.4015 5.03568C7.07609 4.53797 5.78125 3.92315 5.78125 2.81061C5.78125 1.69808 7.07609 1.05398 10.4015 0.585544C12.9323 0.204941 16.2871 0 19.8185 0C23.497 0 26.9401 0.20494 29.5003 0.614821C32.0605 0.234217 35.4742 0 39.1821 0C42.7429 0 46.0977 0.204941 48.5991 0.585544C51.9245 1.08326 53.2193 1.69808 53.2193 2.81061C53.2193 3.92315 51.9245 4.56725 48.5991 5.03568C46.0683 5.41629 42.7135 5.62123 39.1821 5.62123C37.2105 5.62123 35.3271 5.56267 33.5614 5.44556C33.5319 5.44556 33.4731 5.47484 33.4731 5.50412L31.3248 13.1162ZM29.0294 11.3596H30.0006L31.7957 5.03568C32.0311 4.18664 32.8257 3.63037 33.7085 3.68893C35.4448 3.80604 37.2693 3.86459 39.2116 3.86459C45.3326 3.86459 49.2171 3.27905 50.8062 2.81061C49.2171 2.34218 45.3032 1.75663 39.2116 1.75663C35.5919 1.75663 32.1194 1.99085 29.6769 2.37145L29.5003 2.40073L29.3532 2.37145C26.9106 1.99085 23.4381 1.75663 19.8185 1.75663C13.6974 1.75663 9.8129 2.34218 8.22378 2.81061C9.8129 3.27905 13.7268 3.86459 19.8185 3.86459C21.7313 3.86459 23.5852 3.80604 25.3215 3.68893C26.2043 3.63037 26.9989 4.18664 27.2343 5.03568L29.0294 11.3596Z" fill="#633001"/>
<path d="M29.4998 33.4639C13.0495 33.4639 7.10505 30.946 6.84019 30.8582L6.10449 30.5361L6.13392 29.7457C6.13392 29.5407 6.31049 24.9735 9.28273 20.3184C12.0195 16.0439 17.758 10.9497 29.4998 10.9497C41.2416 10.9497 46.9801 16.0439 49.7169 20.3184C52.6892 24.9442 52.8657 29.5407 52.8657 29.7457L52.8952 30.5361L52.1595 30.8582C51.8946 30.946 45.9501 33.4639 29.4998 33.4639ZM8.57645 28.9552C10.6364 29.5993 16.9046 31.1217 29.4998 31.1217C42.1833 31.1217 48.3927 29.5993 50.4232 28.9844C50.2466 27.5499 49.6286 24.505 47.6864 21.5188C44.155 16.0732 38.034 13.3211 29.4998 13.3211C20.9657 13.3211 14.8741 16.0732 11.3133 21.5188C9.37101 24.4758 8.75302 27.5206 8.57645 28.9552Z" fill="#633001"/>
</svg>
