<svg width="614" height="620" viewBox="0 0 614 620" fill="none" xmlns="http://www.w3.org/2000/svg">
<path opacity="0.0714286" d="M201.946 517.691C294.245 566.811 415.671 518.904 473.16 410.689C530.648 302.474 502.428 174.929 410.13 125.809C317.831 76.6896 196.404 124.596 138.916 232.811C81.4274 341.027 109.647 468.572 201.946 517.691Z" stroke="#5ABBF1"/>
<path opacity="0.142857" d="M185.482 504.045C273.152 561.03 398.287 523.898 464.978 421.109C531.67 318.32 514.664 188.797 426.994 131.812C339.324 74.827 214.189 111.959 147.498 214.748C80.8059 317.537 97.812 447.06 185.482 504.045Z" stroke="#5ABBF1"/>
<path opacity="0.214286" d="M169.937 488.982C252.311 553.398 380.202 527.324 455.589 430.744C530.977 334.163 525.313 203.648 442.94 139.231C360.566 74.8146 232.675 100.889 157.288 197.47C81.9003 294.05 87.5636 424.565 169.937 488.982Z" stroke="#5ABBF1"/>
<path opacity="0.285714" d="M155.431 472.587C231.882 543.946 361.555 529.128 445.064 439.49C528.574 349.853 534.297 219.34 457.846 147.981C381.396 76.623 251.722 91.4411 168.213 181.079C84.7032 270.716 78.9807 401.229 155.431 472.587Z" stroke="#5ABBF1"/>
<path opacity="0.357143" d="M142.076 454.958C212.021 532.715 342.49 529.266 433.486 447.254C524.483 365.242 541.547 235.724 471.602 157.967C401.657 80.2098 271.188 83.6591 180.191 165.671C89.1953 247.683 72.1304 377.201 142.076 454.958Z" stroke="#5ABBF1"/>
<path opacity="0.428571" d="M129.975 436.199C192.883 519.762 323.155 527.708 420.945 453.946C518.735 380.184 547.012 252.646 484.104 169.082C421.196 85.5185 290.924 77.5728 193.134 151.335C95.3439 225.097 67.0665 352.635 129.975 436.199Z" stroke="#5ABBF1"/>
<path opacity="0.5" d="M119.221 416.423C174.613 505.157 303.696 524.437 407.536 459.486C511.376 394.535 550.651 269.948 495.258 181.214C439.866 92.4796 310.783 73.1994 206.944 138.15C103.104 203.102 63.8291 327.688 119.221 416.423Z" stroke="#5ABBF1"/>
<path opacity="0.571429" d="M109.898 395.751C157.352 488.981 284.264 519.449 393.364 463.804C502.463 408.158 552.436 287.471 504.981 194.241C457.527 101.011 330.615 70.543 221.516 126.189C112.417 181.834 62.4435 302.522 109.898 395.751Z" stroke="#5ABBF1"/>
<path opacity="0.642857" d="M102.079 374.314C141.235 471.33 265.01 512.754 378.538 466.837C492.067 420.92 552.358 305.05 513.202 208.035C474.046 111.019 350.271 69.595 236.743 115.512C123.215 161.428 62.9237 277.298 102.079 374.314Z" stroke="#5ABBF1"/>
<path opacity="0.714286" d="M95.8236 352.244C126.382 452.307 246.078 504.372 363.172 468.533C480.265 432.695 550.416 322.525 519.857 222.461C489.298 122.398 369.602 70.3335 252.508 106.172C135.415 142.01 65.2647 252.18 95.8236 352.244Z" stroke="#5ABBF1"/>
<path opacity="0.785714" d="M91.1825 329.679C112.912 432.029 227.618 494.338 347.385 468.85C467.153 443.363 546.628 339.731 524.899 237.382C503.169 135.033 388.463 72.7235 268.696 98.2108C148.928 123.698 69.453 227.33 91.1825 329.679Z" stroke="#5ABBF1"/>
<path opacity="0.857143" d="M88.1915 306.764C100.926 410.62 209.769 482.699 331.299 467.757C452.829 452.815 541.025 356.51 528.29 252.653C515.556 148.797 406.713 76.7177 285.183 91.6598C163.653 106.602 75.4568 202.907 88.1915 306.764Z" stroke="#5ABBF1"/>
<path opacity="0.928571" d="M86.8753 283.642C90.5183 388.215 192.67 469.516 315.038 465.233C437.405 460.949 533.65 372.704 530.007 268.131C526.364 163.558 424.212 82.2569 301.845 86.5402C179.477 90.8236 83.2322 179.069 86.8753 283.642Z" stroke="#5ABBF1"/>
<path d="M87.2455 260.462C81.7692 364.956 176.452 454.86 298.726 461.268C421 467.676 524.561 388.162 530.038 283.668C535.514 179.174 440.831 89.2702 318.557 82.8621C196.284 76.454 92.7218 155.968 87.2455 260.462Z" stroke="#5ABBF1"/>
</svg>
