<svg width="32" height="32" viewBox="0 0 32 32" fill="none" xmlns="http://www.w3.org/2000/svg">
<path d="M9.78537 13.4467L15.9997 7.23248L22.2173 13.45L25.8333 9.83396L15.9997 0L6.16943 9.83068L9.78537 13.4467Z" fill="#F3BA2F"/>
<path d="M7.23208 15.9995L3.61621 12.3835L0.000162256 15.9996L3.61603 19.6156L7.23208 15.9995Z" fill="#F3BA2F"/>
<path d="M9.7853 18.5533L15.9996 24.7675L22.217 18.5503L25.835 22.1643L25.8332 22.1663L15.9996 32L6.16912 22.1696L6.16406 22.1645L9.7853 18.5533Z" fill="#F3BA2F"/>
<path d="M28.3839 19.6172L32 16.0011L28.3841 12.3852L24.7681 16.0013L28.3839 19.6172Z" fill="#F3BA2F"/>
<path d="M19.6674 15.9981H19.6689L15.9996 12.3287L13.288 15.0404H13.2878L12.9764 15.352L12.3337 15.9948L12.3286 15.9998L12.3337 16.0051L15.9996 19.6712L19.6689 16.0018L19.6707 15.9998L19.6674 15.9981Z" fill="#F3BA2F"/>
</svg>
