<svg width="59" height="64" viewBox="0 0 59 64" fill="none" xmlns="http://www.w3.org/2000/svg">
<path d="M2.14204 36.2921C2.14204 36.2921 -0.612107 47.0453 3.79452 52.5441C8.20115 58.043 17.6876 62.3809 17.6876 62.3809C17.6876 62.3809 40.6694 64.9165 48.4422 58.2873C56.215 51.6888 57.5003 47.5647 57.5003 47.5647L56.8577 37.1475L55.3582 33.3289C55.3582 33.3289 44.5558 23.1866 31.2442 23.7671C17.9019 24.378 9.70063 25.6 2.14204 36.2921Z" fill="#FEDC90"/>
<path d="M44.7089 27.2191L44.8007 25.6916C45.1373 24.8974 47.157 12.1585 47.157 12.1585C47.157 12.1585 44.3723 5.07111 39.6596 6.10978C34.947 7.14844 33.9983 11.4253 33.9983 11.4253V21.3537H33.8759L33.4169 24.5308C32.1622 24.4086 30.877 24.3475 29.5611 24.3475C28.2452 24.3475 26.9906 24.4086 25.7359 24.5002L25.2463 19.8873H25.2157V9.59235C25.2157 9.59235 19.738 4.36849 15.4844 7.11789C11.2307 9.8673 12.6078 13.6248 12.6078 13.6248L13.9543 23.0644L13.7401 23.1866L14.6275 27.0969C7.31373 30.0601 2.50928 35.1312 2.50928 40.905C2.50928 50.0697 14.6275 57.4625 29.5611 57.4625C44.4947 57.4625 56.6129 50.0391 56.6129 40.905C56.5823 35.2534 51.8696 30.2129 44.7089 27.2191Z" fill="#D1884F"/>
<path d="M46.1472 25.2945L48.1669 13.6248C48.2281 13.2583 48.2587 12.8611 48.2587 12.464C48.2587 10.7532 47.7079 9.1647 46.7286 7.88165C45.321 5.98761 43.0564 4.73511 40.5165 4.73511C36.2629 4.73511 32.7743 8.18714 32.7743 12.464V22.0869C31.7033 21.9952 30.6016 21.9647 29.4999 21.9647C28.3983 21.9647 27.2966 21.9952 26.2256 22.0869V12.464C26.2256 8.21768 22.7676 4.73511 18.4834 4.73511C15.9434 4.73511 13.6789 5.95706 12.2712 7.88165C11.3226 9.1647 10.7412 10.7532 10.7412 12.464C10.7412 12.8611 10.7718 13.2583 10.833 13.6248L12.8527 25.2945C5.11047 28.7771 0 34.5814 0 41.1494V44.7847C0 55.3852 13.2199 64 29.4999 64C45.78 64 58.9999 55.3852 58.9999 44.7847V41.1494C59.0305 34.5814 53.92 28.7466 46.1472 25.2945ZM56.5823 44.7847C56.5823 49.1532 53.8282 53.3079 48.8707 56.485C43.7297 59.7537 36.8749 61.5866 29.5611 61.5866C22.2474 61.5866 15.3926 59.7843 10.2515 56.485C5.26347 53.3079 2.53993 49.1532 2.53993 44.7847V41.1494C2.53993 36.7809 5.29408 32.6263 10.2515 29.4492C11.904 28.4105 13.7401 27.4941 15.6986 26.7609L14.3827 19.3069L14.2909 18.8487L13.3423 13.2277C13.3117 12.9528 13.2811 12.7084 13.2811 12.4334C13.2811 9.53129 15.668 7.14847 18.5752 7.14847C21.4823 7.14847 23.8692 9.53129 23.8692 12.4334V18.0544V22.2702V24.7446C25.7359 24.5003 27.6638 24.3475 29.5917 24.3475C31.5196 24.3475 33.4475 24.4697 35.3142 24.7446V22.2702V18.0544V12.4334C35.3142 9.53129 37.7012 7.14847 40.6083 7.14847C43.5155 7.14847 45.9024 9.53129 45.9024 12.4334C45.9024 12.7084 45.8718 12.9833 45.8412 13.2277L44.8925 18.8487L43.9133 24.317L43.4849 26.7609C45.4434 27.4941 47.2795 28.38 48.9319 29.4492C53.92 32.6263 56.6435 36.7809 56.6435 41.1494V44.7847H56.5823Z" fill="#633001"/>
<path d="M19.0953 44.2959C22.4586 44.2959 25.185 41.5742 25.185 38.2167C25.185 34.8592 22.4586 32.1375 19.0953 32.1375C15.7321 32.1375 13.0056 34.8592 13.0056 38.2167C13.0056 41.5742 15.7321 44.2959 19.0953 44.2959Z" fill="#633001"/>
<path d="M39.6906 44.2959C43.0538 44.2959 45.7803 41.5742 45.7803 38.2167C45.7803 34.8592 43.0538 32.1375 39.6906 32.1375C36.3273 32.1375 33.6008 34.8592 33.6008 38.2167C33.6008 41.5742 36.3273 44.2959 39.6906 44.2959Z" fill="#633001"/>
<path d="M16.0658 38.2167C17.7559 38.2167 19.1259 36.849 19.1259 35.1618C19.1259 33.4746 17.7559 32.1069 16.0658 32.1069C14.3757 32.1069 13.0056 33.4746 13.0056 35.1618C13.0056 36.849 14.3757 38.2167 16.0658 38.2167Z" fill="white"/>
<path d="M20.6255 41.241C21.4706 41.241 22.1556 40.5572 22.1556 39.7136C22.1556 38.87 21.4706 38.1861 20.6255 38.1861C19.7805 38.1861 19.0955 38.87 19.0955 39.7136C19.0955 40.5572 19.7805 41.241 20.6255 41.241Z" fill="white"/>
<path d="M36.6297 38.2167C38.3198 38.2167 39.6899 36.849 39.6899 35.1618C39.6899 33.4746 38.3198 32.1069 36.6297 32.1069C34.9397 32.1069 33.5696 33.4746 33.5696 35.1618C33.5696 36.849 34.9397 38.2167 36.6297 38.2167Z" fill="white"/>
<path d="M41.2208 41.241C42.0658 41.241 42.7508 40.5572 42.7508 39.7136C42.7508 38.87 42.0658 38.1861 41.2208 38.1861C40.3757 38.1861 39.6907 38.87 39.6907 39.7136C39.6907 40.5572 40.3757 41.241 41.2208 41.241Z" fill="white"/>
<path d="M29.4083 49.7642C26.3481 49.7642 23.8694 47.2897 23.8694 44.2348H26.3175C26.3175 45.9456 27.6946 47.3203 29.4083 47.3203C31.122 47.3203 32.499 45.9456 32.499 44.2348H34.9472C34.9472 47.2897 32.4378 49.7642 29.4083 49.7642Z" fill="#633001"/>
<path d="M29.4081 12.9833C10.8942 12.9833 10.4963 28.0744 10.4963 28.0744C10.4963 28.0744 15.4538 30.2434 29.4081 30.2434C43.3624 30.2434 48.3199 28.0744 48.3199 28.0744C48.3199 28.0744 47.8915 12.9833 29.4081 12.9833Z" fill="#E94545"/>
<path d="M29.4082 12.9833C21.6966 14.7857 21.5129 29.4186 21.5129 29.4186L29.4082 29.9074L37.3034 29.4186C37.3034 29.4186 37.1198 14.7857 29.4082 12.9833Z" fill="#F4C229"/>
<path d="M39.4456 0.947021C35.4674 0.947021 31.887 1.19141 29.3777 1.58855C26.8684 1.19141 23.288 0.947021 19.3098 0.947021C11.7512 0.947021 5.63086 1.83294 5.63086 2.96325C5.63086 4.06301 11.7512 4.97948 19.3098 4.97948C21.3601 4.97948 23.3186 4.91838 25.0935 4.79618C25.5831 4.76564 26.0115 5.07113 26.1339 5.52936L28.1842 12.8H29.3777H30.5712L32.6215 5.52936C32.7439 5.07113 33.1723 4.76564 33.6619 4.79618C35.4062 4.91838 37.3647 4.97948 39.4456 4.97948C47.0042 4.97948 53.1245 4.09356 53.1245 2.96325C53.1245 1.83294 47.0042 0.947021 39.4456 0.947021Z" fill="#55C2CC"/>
<path d="M29.4081 31.4654C15.3314 31.4654 10.1903 29.2964 10.0067 29.2048L9.2417 28.8687L9.2723 28.0439C9.2723 27.8912 9.42531 23.8893 11.9958 19.8568C14.3522 16.1604 19.3096 11.7308 29.4388 11.7308C39.5373 11.7308 44.4947 16.1298 46.8817 19.8568C49.4522 23.8587 49.6052 27.8606 49.6052 28.0439L49.6358 28.8687L48.8708 29.2048C48.5953 29.2964 43.4543 31.4654 29.4081 31.4654ZM11.7816 27.2191C13.6789 27.769 19.0036 28.9909 29.4081 28.9909C39.8127 28.9909 45.1374 27.769 47.0347 27.2191C46.6062 24.1337 44.1275 14.2053 29.4081 14.2053C14.6888 14.2053 12.1795 24.1337 11.7816 27.2191Z" fill="#633001"/>
<path d="M31.2748 13.6859H27.4802L25.2463 5.7432C25.2463 5.71265 25.1851 5.6821 25.1545 5.6821C23.3184 5.80429 21.3599 5.86539 19.3096 5.86539C15.6068 5.86539 12.1182 5.65155 9.5171 5.25441C6.05912 4.73508 4.71265 4.09355 4.71265 2.9327C4.71265 1.77184 6.05912 1.09976 9.5171 0.610978C12.1488 0.213842 15.6374 0 19.3096 0C23.1654 0 26.7152 0.213842 29.3775 0.641527C32.0399 0.244391 35.5896 0 39.4454 0C43.1482 0 46.6368 0.213842 49.238 0.610978C52.6959 1.13031 54.0424 1.77184 54.0424 2.9327C54.0424 4.09355 52.6959 4.76563 49.238 5.25441C46.6062 5.65155 43.1176 5.86539 39.4454 5.86539C37.3951 5.86539 35.4366 5.80429 33.6005 5.6821C33.5699 5.6821 33.5087 5.71265 33.5087 5.7432L31.2748 13.6859ZM28.8879 11.853H29.8978L31.7644 5.25441C32.0093 4.36849 32.8355 3.78807 33.7536 3.84916C35.559 3.97136 37.4563 4.03246 39.4761 4.03246C45.8412 4.03246 49.8806 3.42148 51.5331 2.9327C49.8806 2.44391 45.8106 1.83294 39.4761 1.83294C35.7121 1.83294 32.1011 2.07733 29.5611 2.47446L29.4081 2.50501L29.2551 2.47446C26.7152 2.07733 23.1042 1.83294 19.3402 1.83294C12.9751 1.83294 8.93567 2.44391 7.28318 2.9327C8.93567 3.42148 13.0057 4.03246 19.3402 4.03246C21.3293 4.03246 23.2572 3.97136 25.0627 3.84916C25.9807 3.78807 26.807 4.36849 27.0518 5.25441L28.8879 11.853Z" fill="#633001"/>
</svg>
