<svg width="692" height="696" viewBox="0 0 692 696" fill="none" xmlns="http://www.w3.org/2000/svg">
<path opacity="0.0714286" d="M486.298 173.303C408.961 108.428 284.662 129.233 208.669 219.771C132.675 310.31 133.765 436.297 211.102 501.172C288.439 566.046 412.738 545.241 488.732 454.703C564.725 364.164 563.636 238.177 486.298 173.303Z" stroke="#F15AB5"/>
<path opacity="0.142857" d="M499.114 189.483C427.726 118.118 302.084 128.014 218.485 211.585C134.886 295.156 124.987 420.757 196.375 492.122C267.763 563.487 393.405 553.591 477.004 470.02C560.603 386.448 570.502 260.848 499.114 189.483Z" stroke="#F15AB5"/>
<path opacity="0.214286" d="M510.778 206.815C445.882 129.503 319.853 128.414 229.285 204.382C138.717 280.35 117.905 404.608 182.801 481.92C247.697 559.232 373.725 560.321 464.294 484.353C554.862 408.385 575.674 284.126 510.778 206.815Z" stroke="#F15AB5"/>
<path opacity="0.285714" d="M521.194 225.194C463.284 142.523 337.828 130.458 240.979 198.245C144.131 266.032 112.565 388.002 170.474 470.672C228.384 553.343 353.84 565.408 450.689 497.621C547.537 429.834 579.103 307.864 521.194 225.194Z" stroke="#F15AB5"/>
<path opacity="0.357143" d="M530.275 244.506C479.792 157.106 355.863 134.156 253.472 193.246C151.08 252.336 109 371.09 159.482 458.49C209.965 545.89 333.894 568.84 436.286 509.75C538.677 450.66 580.758 331.907 530.275 244.506Z" stroke="#F15AB5"/>
<path opacity="0.428571" d="M537.945 264.634C495.274 173.169 373.815 139.509 266.66 189.452C159.505 239.395 107.23 354.029 149.901 445.493C192.573 536.958 314.032 570.618 421.187 520.675C528.342 470.732 580.617 356.098 537.945 264.634Z" stroke="#F15AB5"/>
<path opacity="0.5" d="M544.139 285.449C509.603 190.617 391.54 146.503 280.436 186.919C169.332 227.335 107.262 336.976 141.797 431.808C176.333 526.641 294.396 570.755 405.5 530.339C516.604 489.923 578.674 380.282 544.139 285.449Z" stroke="#F15AB5"/>
<path opacity="0.571429" d="M548.802 306.821C522.665 209.342 408.895 155.111 294.688 185.692C180.482 216.273 109.087 320.087 135.224 417.566C161.361 515.046 275.131 569.277 389.338 538.696C503.544 508.114 574.939 404.301 548.802 306.821Z" stroke="#F15AB5"/>
<path opacity="0.642857" d="M551.89 328.615C534.351 229.232 425.74 165.295 309.3 185.809C192.86 206.323 112.685 303.519 130.224 402.903C147.763 502.287 256.375 566.224 372.815 545.71C489.254 525.196 569.429 427.999 551.89 328.615Z" stroke="#F15AB5"/>
<path opacity="0.714286" d="M553.375 350.692C544.567 250.159 441.942 177.004 324.154 187.295C206.367 197.585 118.022 287.425 126.83 387.957C135.638 488.489 238.263 561.645 356.05 551.354C473.838 541.064 562.183 451.224 553.375 350.692Z" stroke="#F15AB5"/>
<path opacity="0.785714" d="M553.236 372.91C553.226 271.995 457.368 190.177 339.129 190.166C220.891 190.155 125.048 271.954 125.058 372.869C125.067 473.785 220.926 555.602 339.164 555.613C457.402 555.624 553.245 473.825 553.236 372.91Z" stroke="#F15AB5"/>
<path opacity="0.857143" d="M551.468 395.128C560.256 294.598 471.894 204.741 354.105 194.428C236.316 184.115 133.704 257.251 124.916 357.782C116.127 458.312 204.489 548.169 322.278 558.482C440.067 568.795 542.679 495.659 551.468 395.128Z" stroke="#F15AB5"/>
<path opacity="0.928571" d="M548.083 417.204C565.603 317.824 485.409 220.612 368.966 200.076C252.522 179.54 143.923 243.456 126.403 342.836C108.882 442.217 189.076 539.429 305.52 559.965C421.963 580.501 530.563 516.585 548.083 417.204Z" stroke="#F15AB5"/>
<path d="M543.087 438.997C569.205 341.523 497.791 237.696 383.578 207.093C269.366 176.49 155.606 230.699 129.488 328.174C103.37 425.648 174.784 529.475 288.996 560.078C403.208 590.682 516.969 536.472 543.087 438.997Z" stroke="#F15AB5"/>
</svg>
