<svg width="32" height="32" viewBox="0 0 32 32" fill="none" xmlns="http://www.w3.org/2000/svg">
<path fill-rule="evenodd" clip-rule="evenodd" d="M5.85366 5.05263C5.33333 2.46154 7.41464 0 10.0163 0C12.3577 0 14.3089 1.94332 14.3089 4.2753V9.45749C14.9594 9.45749 15.4797 9.45749 16.1301 9.45749C16.6504 9.45749 17.3008 9.45749 17.8211 9.45749V4.2753C17.8211 1.94332 19.7724 0 22.1138 0C24.7154 0 26.7968 2.46154 26.2764 5.05263L25.1057 11.1417C29.0081 12.8259 32 15.8057 32 19.5628V21.7652C32 24.8745 29.9187 27.4656 27.0569 29.1498C24.1951 30.9636 20.2927 32 16 32C11.7073 32 7.80488 30.9636 4.94309 29.1498C2.0813 27.4656 0 24.8745 0 21.7652V19.5628C0 15.8057 2.99187 12.8259 6.89431 11.1417L5.85366 5.05263ZM23.6748 12.0486L24.9756 4.92308C25.3659 3.10931 23.935 1.4251 22.1138 1.4251C20.4228 1.4251 19.122 2.72065 19.122 4.40486V11.0121C18.7317 11.0121 18.2114 10.8826 17.8211 10.8826C17.3008 10.8826 16.6504 10.8826 16.1301 10.8826C15.4797 10.8826 14.9594 10.8826 14.3089 11.0121C13.9187 11.0121 13.3984 11.1417 13.0081 11.1417V4.53441C13.0081 2.8502 11.7073 1.55466 10.0163 1.55466C8.19512 1.55466 6.76423 3.23887 7.15447 5.05263L8.45529 12.3077C4.29268 13.8624 1.43089 16.7126 1.43089 19.9514V22.1538C1.43089 27.0769 7.93496 31.0931 16 31.0931C24.065 31.0931 30.5691 27.0769 30.5691 22.1538V19.9514C30.6992 16.4534 27.8374 13.6032 23.6748 12.0486Z" fill="#633001"/>
<path d="M30.6992 21.8947C30.6992 26.8178 24.1952 30.834 16.1301 30.834C8.0651 30.834 1.56104 26.8178 1.56104 21.8947V19.6923H30.8293V21.8947H30.6992Z" fill="#FEDC90"/>
<path fill-rule="evenodd" clip-rule="evenodd" d="M7.15433 4.79351C6.76409 2.97974 8.19498 1.29553 10.0161 1.29553C11.7072 1.29553 13.008 2.59108 13.008 4.27529V11.0121C14.0486 10.8826 15.0893 10.753 16.1299 10.753C17.1706 10.753 18.2112 10.8826 19.1218 10.8826V4.27529C19.1218 2.59108 20.4226 1.29553 22.1137 1.29553C23.9348 1.29553 25.3657 2.97974 24.9755 4.79351L23.6747 11.919C27.9673 13.4737 30.8291 16.3239 30.8291 19.5627C30.8291 24.4858 24.3251 28.502 16.26 28.502C8.19498 28.502 1.69092 24.4858 1.69092 19.5627C1.69092 16.3239 4.55271 13.4737 8.71531 11.919L7.15433 4.79351Z" fill="#D1884F"/>
<path d="M12.0975 19.0445C12.0975 20.3401 11.3171 21.5061 10.5366 21.5061C9.75607 21.5061 8.97559 20.4697 8.97559 19.0445C8.97559 17.749 9.75607 16.583 10.5366 16.583C11.3171 16.583 12.0975 17.6194 12.0975 19.0445Z" fill="#633001"/>
<path d="M23.2845 19.0445C23.2845 20.3401 22.5041 21.5061 21.7236 21.5061C20.813 21.5061 20.1626 20.4697 20.1626 19.0445C20.1626 17.749 20.9431 16.583 21.7236 16.583C22.5041 16.583 23.2845 17.6194 23.2845 19.0445Z" fill="#633001"/>
</svg>
