<svg width="48" height="48" viewBox="0 0 48 48" fill="none" xmlns="http://www.w3.org/2000/svg">
<path fill-rule="evenodd" clip-rule="evenodd" d="M47.3337 24C47.3337 36.88 36.857 47.3333 24.0003 47.3333L23.3475 47.3243C10.769 46.9783 0.666992 36.6617 0.666992 24C0.666992 11.1433 11.1203 0.666626 24.0003 0.666626C36.857 0.666626 47.3337 11.1433 47.3337 24ZM19.3803 14.6666C18.7037 15.3666 18.7037 16.4633 19.4037 17.14L26.287 24L19.4037 30.86C18.7037 31.5366 18.7037 32.6566 19.3803 33.3333C20.0803 34.0333 21.177 34.0333 21.8537 33.3333L29.997 25.2366C30.3237 24.91 30.5103 24.4666 30.5103 24C30.5103 23.5333 30.3237 23.09 29.997 22.7633L21.8537 14.6666C21.527 14.3166 21.0837 14.1533 20.6403 14.1533C20.1737 14.1533 19.7303 14.3166 19.3803 14.6666Z" fill="#9C5AF1"/>
</svg>
