<svg width="48" height="48" viewBox="0 0 48 48" fill="none" xmlns="http://www.w3.org/2000/svg">
<path d="M9.97457 22.8145C9.97462 22.5461 10.0276 22.2803 10.1304 22.0325C10.2333 21.7846 10.384 21.5596 10.5739 21.3703C10.7638 21.1809 10.9891 21.031 11.237 20.9292C11.4849 20.8274 11.7504 20.7756 12.0183 20.7768L15.4066 20.7879C15.9468 20.7879 16.465 21.0029 16.847 21.3857C17.229 21.7684 17.4436 22.2875 17.4436 22.8288V35.6657C17.8252 35.5524 18.3136 35.4315 18.851 35.3048C19.2234 35.217 19.5552 35.0058 19.7927 34.7054C20.0302 34.405 20.1595 34.0331 20.1596 33.6498V17.7277C20.1596 17.1864 20.3742 16.6672 20.7562 16.2844C21.1382 15.9016 21.6563 15.6865 22.1966 15.6864H25.5952C26.1355 15.6865 26.6536 15.9016 27.0356 16.2844C27.4176 16.6672 27.6322 17.1864 27.6322 17.7277V32.506C27.6322 32.506 28.4824 32.1613 29.3101 31.8111C29.6177 31.6807 29.8802 31.4626 30.0648 31.1837C30.2494 30.9049 30.3479 30.5779 30.3482 30.2433V12.6254C30.3482 12.0842 30.5628 11.5652 30.9447 11.1824C31.3266 10.7997 31.8446 10.5847 32.3848 10.5845H35.7798C36.3197 10.5851 36.8374 10.8003 37.2189 11.183C37.6005 11.5657 37.8149 12.0845 37.8149 12.6254V27.1331C40.7583 24.996 43.7412 22.4254 46.1084 19.3347C46.4519 18.886 46.6791 18.3592 46.7699 17.8011C46.8608 17.2431 46.8123 16.6712 46.6289 16.1365C45.5331 12.978 43.7912 10.0835 41.5148 7.63821C39.2384 5.19288 36.4775 3.25059 33.4089 1.93562C30.3402 0.620645 27.0314 -0.0380462 23.694 0.00169712C20.3567 0.0414404 17.0644 0.778741 14.0278 2.16642C10.9912 3.5541 8.27723 5.56159 6.05947 8.06044C3.84171 10.5593 2.16904 13.4945 1.1485 16.6781C0.127962 19.8618 -0.217977 23.2239 0.132823 26.5492C0.483622 29.8745 1.52344 33.0898 3.18572 35.9894C3.47533 36.4896 3.90141 36.8966 4.4139 37.1626C4.9264 37.4286 5.50401 37.5425 6.0789 37.491C6.72112 37.4344 7.52074 37.3543 8.47143 37.2426C8.88518 37.1954 9.26718 36.9974 9.54465 36.6863C9.82213 36.3752 9.97571 35.9728 9.97615 35.5556V22.8145" fill="white"/>
<path d="M9.90234 43.4013C13.4809 46.0096 17.71 47.5752 22.1215 47.9249C26.5331 48.2746 30.9553 47.3948 34.8987 45.3828C38.8422 43.3708 42.1532 40.305 44.4655 36.5247C46.7778 32.7444 48.0013 28.397 48.0005 23.9633C48.0005 23.4086 47.9747 22.8626 47.938 22.3182C39.1734 35.4147 22.9904 41.5372 9.90234 43.4013Z" fill="#F0B90B"/>
</svg>
