<svg width="72" height="90" viewBox="0 0 72 90" fill="none" xmlns="http://www.w3.org/2000/svg">
<path d="M43.3334 12.4661C43.3334 12.4661 27.3738 26.5767 23.9398 35.5892C20.5059 44.6016 15.96 58.5478 15.96 58.5478C15.96 58.5478 17.17 62.7251 27.57 69.1719C38.0026 75.6188 45.0014 74.7307 45.0014 74.7307C45.0014 74.7307 61.1573 60.1266 65.6378 46.5093C70.1182 32.892 69.6931 27.7609 69.6931 27.7609C69.6931 27.7609 56.5787 16.0842 43.3334 12.4661Z" fill="white"/>
<path d="M67.5352 1.90771C67.5352 1.90771 52.8182 6.47971 48.6648 9.04529C44.5113 11.6109 43.334 12.4661 43.334 12.4661L50.7906 15.2619L63.7088 22.4652L69.759 28.3858C69.759 28.4187 72.5389 9.24264 67.5352 1.90771Z" fill="#A263D5"/>
<path d="M22.8937 36.0168L18.2497 51.4102L15.9604 58.5149L3.76165 61.6725C3.76165 61.6725 1.17802 63.6461 2.19185 56.2782C3.20569 48.9104 8.40566 41.5097 12.6899 39.1744C16.9415 36.8719 22.8937 36.0168 22.8937 36.0168Z" fill="#A263D5"/>
<path d="M30.579 34.6682C30.579 34.6682 23.9074 49.7656 36.9891 56.4427C50.0708 63.1198 58.5085 49.5683 58.5085 49.5683C58.5085 49.5683 64.1009 34.9313 51.0519 28.6818C38.0029 22.4323 30.579 34.6682 30.579 34.6682Z" fill="#A263D5"/>
<path d="M59.8491 58.0215L53.4063 65.9814L44.5762 75.4214L49.2202 88.0849L51.7711 88.3151C51.7711 88.3151 60.6667 79.0724 62.1384 72.2309C63.5774 65.4222 59.8491 58.0215 59.8491 58.0215Z" fill="#A263D5"/>
<path d="M43.6278 30.6224C43.6278 30.6224 34.6341 30.9843 32.9989 40.2598C31.3637 49.5354 39.6052 53.3837 39.6052 53.3837C39.6052 53.3837 49.024 57.1005 55.1724 47.6276C61.3535 38.1218 48.3372 29.2739 43.6278 30.6224Z" fill="#FEDC90"/>
<path d="M21.7161 37.3983C21.7161 37.3983 21.618 37.4311 21.389 37.5298C15.2406 39.898 10.5639 44.9963 8.63436 51.3445L5.65826 61.2121L1.30859 60.7516L1.47212 56.377L7.75134 43.0557L16.189 37.6943L21.4544 36.3786" fill="#E791FD"/>
<path d="M38.624 27.6951L40.063 31.379C40.063 31.379 46.1787 31.379 46.6039 31.2474C47.029 31.1159 50.2667 32.3658 50.2667 32.3658L52.2617 28.8792C52.2617 28.9121 41.6655 25.9847 38.624 27.6951Z" fill="#E791FD"/>
<path d="M65.7364 2.46692C65.7364 2.46692 63.0547 3.355 62.793 3.3879C62.5314 3.42079 52.3604 7.95989 52.3604 7.95989L43.334 12.4661L51.4447 16.2158C57.7239 8.68352 66.9138 3.15765 66.9138 3.15765L65.7364 2.46692Z" fill="#E791FD"/>
<path d="M65.4742 24.8993C65.4742 24.8993 62.4982 37.6614 59.5221 45.4897L59.1296 37.0364L52.2617 28.945L57.6579 19.5708L65.4742 24.8993Z" fill="#D5C1C2"/>
<path d="M36.4323 56.1138C36.4323 56.1138 28.6814 52.8904 28.1908 41.1479C28.1908 41.1479 21.5846 56.7059 20.3418 63.9421L28.1581 70.4876L37.7078 74.04C43.3002 69.3693 53.4058 55.8178 53.4058 55.8178C43.0713 61.245 36.4323 56.1138 36.4323 56.1138Z" fill="#D5C1C2"/>
<path d="M18.8055 63.0541L16.8105 69.3036L21.6181 73.1848L25.9023 74.5663L28.0608 70.8495L18.8055 63.0541Z" fill="#D5C1C2"/>
<path d="M34.9605 39.3389C34.9605 39.3389 32.2133 42.1676 32.6058 44.6345C32.9982 47.1014 35.124 50.1275 35.124 50.1275C35.124 50.1275 41.6975 54.9955 45.2296 54.3376C48.7617 53.6798 49.9063 52.6601 49.9063 52.6601L51.5415 49.338L51.7378 47.8908C51.7378 47.8908 50.2334 42.8583 46.0472 40.6545C41.8938 38.4837 39.1793 37.3982 34.9605 39.3389Z" fill="#FEDC90"/>
<path d="M49.5787 44.1082L49.873 43.6477C50.102 43.4504 52.9799 39.898 52.9799 39.898C52.9799 39.898 53.3724 37.2338 51.7699 36.7075C50.1347 36.1812 49.0881 37.3324 49.0881 37.3324L47.3221 40.3914L47.2894 40.3585L46.5699 41.2466C46.2102 40.9835 45.8177 40.7532 45.4253 40.523C45.0328 40.2927 44.6404 40.0954 44.2152 39.898L44.8693 38.385L46.7007 35.2274C46.7007 35.2274 45.9485 32.6618 44.1825 32.7276C42.3838 32.8262 42.1548 34.2077 42.1548 34.2077L40.9121 37.3653H40.8467L40.4215 38.7139C37.6743 38.3192 35.2869 39.0428 34.2731 40.819C32.6706 43.6477 35.058 48.0553 39.6039 50.7195C44.1825 53.3838 49.1863 53.2193 50.7888 50.4235C51.8026 48.6802 51.2466 46.312 49.5787 44.1082Z" fill="#D1884F"/>
<path d="M50.3644 43.7793L53.0462 40.5559C53.1443 40.4572 53.2097 40.3256 53.2751 40.1941C53.5694 39.6678 53.7003 39.0757 53.6348 38.5166C53.5367 37.6943 53.0789 36.9049 52.294 36.4444C50.9858 35.6879 49.3179 36.1484 48.5657 37.464L46.8651 40.4243C46.538 40.1941 46.211 39.9967 45.8839 39.7994C45.5569 39.602 45.1971 39.4047 44.8701 39.2402L46.5707 36.2799C47.3229 34.9642 46.8651 33.2867 45.5569 32.5302C44.772 32.0697 43.8563 32.0697 43.1041 32.3987C42.5808 32.6289 42.1229 33.0236 41.8286 33.5499C41.7632 33.6814 41.6978 33.813 41.6324 33.9117L40.1934 37.8587C37.2173 37.5627 34.6337 38.4508 33.4563 40.4572L32.8022 41.5755C30.9381 44.8319 33.4563 49.8314 38.4274 52.7259C43.3984 55.6204 48.9581 55.2915 50.8223 52.0352L51.4764 50.9169C52.6537 48.9105 52.1304 46.2133 50.3644 43.7793ZM50.1028 51.6076C49.3179 52.9562 47.7481 53.7456 45.6877 53.8443C43.5292 53.9429 41.1091 53.2851 38.8852 51.9694C36.6613 50.6866 34.8626 48.9105 33.8815 46.9698C32.933 45.095 32.8022 43.3517 33.5871 42.0031L34.2412 40.8848C35.0261 39.5362 36.5959 38.7468 38.6563 38.6481C39.3431 38.6153 40.0626 38.681 40.7821 38.7797L41.6978 36.247L41.7632 36.0826L42.45 34.1748C42.4827 34.0762 42.5154 34.0104 42.5808 33.9117C43.1041 33.0236 44.2487 32.6947 45.1317 33.221C46.0147 33.7472 46.3418 34.8985 45.8185 35.7865L44.8374 37.5298L44.0852 38.8455L43.66 39.602C44.2814 39.8652 44.8701 40.1612 45.4915 40.4901C46.0802 40.8519 46.6361 41.2137 47.1594 41.6413L47.5846 40.8848L48.3368 39.5691L49.3179 37.8258C49.8412 36.9378 50.9858 36.6088 51.8688 37.1351C52.7518 37.6614 53.0789 38.8126 52.5556 39.7007C52.5229 39.7994 52.4575 39.8652 52.3921 39.9309L51.1166 41.5098L49.8411 43.0228L49.2852 43.6806C49.743 44.2398 50.1682 44.8647 50.4625 45.4568C51.411 47.3316 51.5418 49.0749 50.7569 50.4235L50.1028 51.6076Z" fill="#633001"/>
<path d="M39.8333 45.1279C41.0254 45.1279 41.9918 44.156 41.9918 42.957C41.9918 41.7581 41.0254 40.7861 39.8333 40.7861C38.6412 40.7861 37.6748 41.7581 37.6748 42.957C37.6748 44.156 38.6412 45.1279 39.8333 45.1279Z" fill="#633001"/>
<path d="M46.1126 48.7789C47.3047 48.7789 48.2711 47.8069 48.2711 46.608C48.2711 45.4091 47.3047 44.4371 46.1126 44.4371C44.9205 44.4371 43.9541 45.4091 43.9541 46.608C43.9541 47.8069 44.9205 48.7789 46.1126 48.7789Z" fill="#633001"/>
<path d="M39.4415 42.5623C40.0376 42.5623 40.5208 42.0763 40.5208 41.4769C40.5208 40.8774 40.0376 40.3914 39.4415 40.3914C38.8455 40.3914 38.3623 40.8774 38.3623 41.4769C38.3623 42.0763 38.8455 42.5623 39.4415 42.5623Z" fill="white"/>
<path d="M40.0301 44.2069C40.3191 44.2069 40.5534 43.9713 40.5534 43.6806C40.5534 43.3899 40.3191 43.1543 40.0301 43.1543C39.7411 43.1543 39.5068 43.3899 39.5068 43.6806C39.5068 43.9713 39.7411 44.2069 40.0301 44.2069Z" fill="white"/>
<path d="M45.7199 46.2133C46.3159 46.2133 46.7991 45.7273 46.7991 45.1279C46.7991 44.5284 46.3159 44.0424 45.7199 44.0424C45.1238 44.0424 44.6406 44.5284 44.6406 45.1279C44.6406 45.7273 45.1238 46.2133 45.7199 46.2133Z" fill="white"/>
<path d="M46.3084 47.8579C46.5974 47.8579 46.8317 47.6223 46.8317 47.3316C46.8317 47.041 46.5974 46.8054 46.3084 46.8054C46.0194 46.8054 45.7852 47.041 45.7852 47.3316C45.7852 47.6223 46.0194 47.8579 46.3084 47.8579Z" fill="white"/>
<path d="M63.871 63.2843C63.2823 60.8503 62.5628 58.7452 61.7125 56.9361C61.9414 56.5414 62.203 56.1138 62.432 55.7191C66.7816 48.1868 69.6923 40.2928 71.0659 32.2013C72.7992 22.0706 72.1124 11.6438 69.0709 1.21701L68.7112 0L67.5011 0.296028C57.003 2.86161 47.6823 7.46649 39.8006 14.0449C33.5214 19.3076 28.1579 25.7874 23.8736 33.3525C23.6447 33.7801 23.4158 34.1748 23.1868 34.6024C21.2246 34.7669 19.0334 35.1945 16.646 35.8852C10.6938 37.6614 5.78815 42.1676 3.56426 47.9895C2.05987 51.8708 0.882512 55.8178 0.130313 58.4492C-0.196729 59.6333 0.0976091 60.8503 0.94792 61.7384C1.17685 61.9686 1.40578 62.166 1.70012 62.3304C2.45232 62.758 3.33533 62.8896 4.21835 62.6593L15.2724 59.7648C15.6321 60.62 16.2535 61.8041 17.3982 63.2185L15.763 68.9088L15.9919 69.3693C16.0573 69.5009 17.9541 73.0203 24.5931 76.8687C31.2321 80.7171 35.1893 80.6184 35.3528 80.6184L35.8761 80.5855L39.9641 76.3095C41.7629 76.6056 43.1037 76.5727 44.0195 76.4411L47.0609 87.4928C47.2899 88.3809 47.8459 89.0716 48.5981 89.5321C48.8597 89.6966 49.154 89.7953 49.4484 89.8939C50.6257 90.19 51.8358 89.8611 52.6861 88.973C54.5829 86.9994 57.3955 84.0063 59.9791 80.75C63.8709 75.8819 65.3099 69.3693 63.871 63.2843ZM66.9124 3.15764C69.0055 10.8215 69.7904 18.3867 69.2672 25.7874C66.9125 23.8796 62.6609 20.6233 58.3112 18.1235C54.027 15.6237 49.154 13.5844 46.3088 12.4661C51.9993 8.58482 58.7691 5.29562 66.9124 3.15764ZM3.56426 60.0938C3.17181 60.1924 2.91018 59.9951 2.84477 59.8964C2.74666 59.7977 2.55043 59.5346 2.64854 59.1728C3.36804 56.6072 4.54539 52.7259 6.01708 48.9434C7.97934 43.878 12.2309 39.9638 17.3982 38.4179C18.9353 37.9574 20.3743 37.6285 21.7151 37.4311C17.1365 46.7067 15.4359 54.5679 14.9781 57.1335L3.56426 60.0938ZM34.7968 77.9541C33.6522 77.8226 30.5453 77.2963 25.934 74.5991C21.29 71.902 19.2623 69.5009 18.6082 68.547L19.4912 65.4552C21.3881 67.2642 24.0044 69.3035 27.7327 71.4415C31.461 73.6124 34.5352 74.8952 37.0207 75.6188L34.7968 77.9541ZM29.0409 69.172C19.3277 63.5145 17.6925 58.9425 17.4963 58.1531C17.7579 56.5414 19.6548 46.1146 26.1629 34.6682C29.8258 28.2214 35.4509 20.6562 43.7905 14.3409C45.8182 15.0974 51.9666 17.4986 57.0358 20.426C62.1703 23.4191 67.3703 27.6293 68.9728 28.9779C67.8936 37.6614 64.9829 46.1475 60.2408 54.3376C53.6345 65.7512 45.5893 72.6585 44.3138 73.7111C43.4635 73.9413 38.6887 74.7636 29.0409 69.172ZM57.9515 79.1054C55.4332 82.263 52.6861 85.2233 50.8219 87.131C50.5603 87.427 50.2333 87.3613 50.1025 87.3284C49.9716 87.2955 49.6773 87.1639 49.5465 86.8021L46.4069 75.3557C48.3691 73.6782 54.3213 68.2839 60.0118 59.6333C60.5024 60.9161 60.9276 62.3304 61.32 63.9092C62.5955 69.2048 61.32 74.8623 57.9515 79.1054Z" fill="#633001"/>
<path d="M52.588 28.1556C44.6736 23.5507 34.4698 26.2807 29.8912 34.2735C25.3126 42.2334 28.0271 52.4957 35.9742 57.1006C43.9214 61.7055 54.0924 58.9754 58.671 50.9827C63.2169 42.9899 60.5024 32.7605 52.588 28.1556ZM36.9553 55.3573C29.9566 51.3116 27.5692 42.2663 31.5918 35.2274C35.6145 28.1885 44.6082 25.7873 51.6069 29.8331C58.6056 33.8788 60.993 42.9241 56.9704 49.963C52.915 57.0019 43.9541 59.4359 36.9553 55.3573Z" fill="#633001"/>
<path d="M50.7243 31.379C44.5759 27.7938 36.6614 29.9318 33.1294 36.1155C29.5646 42.2992 31.6904 50.259 37.8388 53.8114C43.9872 57.3637 51.9016 55.2586 55.4337 49.0749C58.9985 42.8912 56.8727 34.9642 50.7243 31.379ZM38.8199 52.1339C33.5872 49.1078 31.8212 42.3649 34.83 37.1351C37.8388 31.9053 44.5432 30.0962 49.7432 33.1223C54.9758 36.1483 56.7419 42.8912 53.7331 48.121C50.7243 53.3509 44.0199 55.1599 38.8199 52.1339Z" fill="#633001"/>
</svg>
