<svg width="401" height="224" viewBox="0 0 401 224" fill="none" xmlns="http://www.w3.org/2000/svg">
<path d="M20.9888 224H401C401 224 339.029 168.921 234.391 125.645C185.394 105.381 128.289 97.1033 128.289 97.1033C128.289 97.1033 58.527 146.135 20.9888 224Z" fill="#FFBB33"/>
<path d="M234.367 125.287C203.906 112.645 170.321 104.654 149.258 100.414C144.693 103.484 141.215 107.919 139.321 113.083C128.571 144.449 189.146 193.705 275.179 224H401C401 224 339.02 168.721 234.367 125.287Z" fill="#FFC533"/>
<path d="M101.649 194.183C108.432 163.092 150.724 132.378 205.471 114.931C188.813 109.612 177.405 106.636 164.201 103.724C97.6219 122.347 58.4738 145.889 20.9888 224H107.922C104.743 219.801 102.532 214.95 101.448 209.795C100.363 204.64 100.432 199.308 101.649 194.183Z" fill="#FFA02E"/>
<path d="M119.306 224H0C0 224 24.2513 164.945 47.0176 157.793C47.0176 157.793 105.721 197.517 119.306 224Z" fill="#F7DDC9"/>
<path d="M46.5198 157.793C23.9283 165.442 0 224 0 224H58.5482C43.7552 199.42 39.21 173.516 46.5198 157.793Z" fill="#EAD0B7"/>
<path d="M144.71 192.071C144.609 191.196 142.551 190.703 140.112 190.969C137.674 191.234 135.779 192.159 135.88 193.033C135.98 193.908 138.039 194.401 140.477 194.135C142.915 193.869 144.81 192.945 144.71 192.071Z" fill="#FFBB33"/>
<path d="M272.445 109.241L277.275 117.188C264.467 131.957 246.344 123.236 246.344 123.236L247.525 111.738C247.525 111.738 261.743 117.971 272.445 109.241Z" fill="#9B9837"/>
<path d="M268.438 124.156C257.305 128.338 246.344 123.191 246.344 123.191L247.577 111.448C249.953 112.37 252.434 113.006 254.966 113.341C259.972 116.28 264.512 119.923 268.438 124.156Z" fill="#B2AF47"/>
<path d="M238.129 68.4816L231.435 71.724C220.745 60.2204 229.122 46.3447 229.122 46.3447L238.152 48.2268C238.152 48.2268 232.063 59.1621 238.129 68.4816Z" fill="#9B9837"/>
<path d="M226.664 62.8965C224.27 54.1938 229.116 46.3447 229.116 46.3447L238.152 48.1828C237.252 49.8992 236.567 51.717 236.111 53.5964C233.44 57.1363 230.258 60.2698 226.664 62.8965Z" fill="#B2AF47"/>
<path d="M87.558 69L94.8264 74.7581C87.8656 92.9318 67.8412 91.0104 67.8412 91.0104L65 79.8766C65 79.8766 80.5009 80.8158 87.558 69Z" fill="#9B9837"/>
<path d="M88.1983 84.501C79.5304 92.1362 67.86 91.0102 67.86 91.0102L65 79.6425C67.464 79.7056 69.9265 79.4666 72.3335 78.9307C77.8634 79.9926 83.2088 81.8694 88.1983 84.501Z" fill="#B2AF47"/>
<path d="M96.2009 197.065L97.2119 206.32C79.1353 214.224 66.2808 198.595 66.2808 198.595L72.3013 188.69C72.3013 188.69 82.6478 200.4 96.2009 197.065Z" fill="#9B9837"/>
<path d="M85.0604 208.552C73.6535 207.706 66.2808 198.631 66.2808 198.631L72.2393 188.69C73.9183 190.484 75.8076 192.067 77.866 193.404C80.9895 198.072 83.4135 203.176 85.0604 208.552Z" fill="#B2AF47"/>
<path d="M148.005 9.99222L146.923 2.14624C162.119 -4.99944 173.435 7.98759 173.435 7.98759L168.548 16.5517C168.548 16.5517 159.461 6.83778 148.005 9.99222Z" fill="#B2AF47"/>
<path d="M156.865 0C166.805 0.446331 173.435 7.9726 173.435 7.9726L168.494 16.5517C166.991 15.0687 165.31 13.77 163.487 12.6841C160.658 8.79705 158.427 4.52335 156.865 0Z" fill="#B2AF47"/>
<path d="M157.133 6.46907C157.203 6.88239 157.355 7.2741 157.579 7.61667C157.803 7.95923 158.094 8.24434 158.43 8.45195C158.766 8.65957 159.14 8.78465 159.526 8.81842C159.912 8.85218 160.3 8.7938 160.662 8.64739C161.025 8.50097 161.354 8.27007 161.625 7.97091C161.897 7.67175 162.105 7.31159 162.235 6.91575C162.365 6.5199 162.413 6.09797 162.377 5.67961C162.341 5.26125 162.22 4.85661 162.025 4.49412C161.819 3.70032 161.334 3.02631 160.675 2.61812C160.015 2.20994 159.234 2.10044 158.501 2.31336C157.817 2.67317 157.29 3.31023 157.034 4.08744C156.779 4.86464 156.814 5.71987 157.133 6.46907Z" fill="#CEC85F"/>
<path d="M95.3742 39.4828L87 35.5163C89.4604 15.8708 109.259 13 109.259 13L114.617 23.3419C114.617 23.3419 99.4198 26.1067 95.3742 39.4828Z" fill="#B2AF47"/>
<path d="M91.4185 24.4738C97.9314 14.7241 109.301 13 109.301 13L114.617 23.6661C112.256 24.2048 109.966 25.0451 107.796 26.1686C102.288 26.4572 96.7698 25.8862 91.4185 24.4738Z" fill="#B2AF47"/>
<path d="M67.3854 122.769L64.1232 131.31C44.9871 130.189 40.873 110.813 40.873 110.813L50.4957 104.827C50.4957 104.827 54.1956 119.663 67.3854 122.769Z" fill="#B2AF47"/>
<path d="M53.2421 128C43.3451 122.113 40.873 110.842 40.873 110.842L50.8216 104.827C51.5097 107.156 52.4849 109.394 53.7258 111.493C54.3943 116.989 54.2313 122.551 53.2421 128Z" fill="#B2AF47"/>
<path d="M121.515 128.552C121.515 127.028 119.29 125.793 116.544 125.793C113.799 125.793 111.573 127.028 111.573 128.552C111.573 130.075 113.799 131.31 116.544 131.31C119.29 131.31 121.515 130.075 121.515 128.552Z" fill="#FFBB33"/>
<path d="M150.485 133.517C149.318 132.894 148.039 132.526 146.727 132.436C145.416 132.346 144.101 132.536 142.865 132.994C140.287 133.908 139.521 135.625 141.152 136.828C142.319 137.451 143.598 137.819 144.909 137.909C146.22 137.999 147.535 137.809 148.772 137.351C151.349 136.437 152.116 134.72 150.485 133.517Z" fill="#FFBB33"/>
<path d="M182.171 124.052C179.362 123.324 176.411 123.451 173.669 124.419C170.98 125.38 170.426 126.775 172.432 127.534C175.242 128.262 178.193 128.135 180.935 127.167C183.624 126.206 184.178 124.811 182.171 124.052Z" fill="#FFBB33"/>
<path d="M149.596 109.277C147.468 107.476 144.878 106.337 142.134 105.995C139.437 105.671 138.406 106.614 139.831 108.102C141.959 109.904 144.549 111.043 147.293 111.384C149.99 111.709 151.021 110.766 149.596 109.277Z" fill="#FFBB33"/>
<path d="M204.995 142.762C204.039 141.884 202.898 141.199 201.644 140.749C200.391 140.298 199.05 140.093 197.707 140.146C194.92 140.221 193.663 141.512 194.901 143.031C195.857 143.91 196.997 144.595 198.251 145.045C199.505 145.495 200.845 145.7 202.188 145.647C204.976 145.573 206.232 144.281 204.995 142.762Z" fill="#FFD86C"/>
<path d="M192.977 163.388C191.589 163.218 190.179 163.328 188.836 163.713C187.494 164.098 186.247 164.748 185.174 165.623C182.923 167.408 182.766 169.303 184.825 169.854C186.213 170.024 187.623 169.913 188.965 169.528C190.308 169.144 191.555 168.493 192.628 167.618C194.879 165.833 195.036 163.939 192.977 163.388Z" fill="#FFD86C"/>
<path d="M328.47 190.265C327.367 189.531 326.128 189.039 324.832 188.82C323.536 188.6 322.21 188.659 320.937 188.992C318.287 189.645 317.364 191.275 318.875 192.631C319.978 193.366 321.216 193.858 322.512 194.077C323.809 194.296 325.135 194.238 326.408 193.905C329.057 193.251 329.98 191.622 328.47 190.265Z" fill="#FFD86C"/>
<path d="M273.368 150.261C271.344 149.049 268.933 148.669 266.637 149.199C264.22 149.703 263.313 150.995 264.613 152.084C266.638 153.296 269.048 153.676 271.344 153.146C273.762 152.642 274.668 151.35 273.368 150.261Z" fill="#FFD86C"/>
<path d="M209.296 206.536C207.272 205.325 204.861 204.945 202.566 205.475C200.148 205.979 199.241 207.27 200.541 208.36C202.566 209.572 204.976 209.952 207.272 209.421C209.69 208.918 210.596 207.626 209.296 206.536Z" fill="#FFD243"/>
<path d="M370.58 209.847C368.556 208.635 366.145 208.255 363.849 208.786C361.432 209.289 360.525 210.581 361.825 211.671C363.849 212.882 366.26 213.262 368.556 212.732C370.973 212.228 371.88 210.936 370.58 209.847Z" fill="#FFD86C"/>
<path d="M238.832 144.89C236.524 144.275 234.047 144.504 231.916 145.531C229.659 146.563 229.095 147.949 230.658 148.627C232.966 149.242 235.443 149.013 237.574 147.986C239.831 146.954 240.395 145.568 238.832 144.89Z" fill="#FFD86C"/>
<path d="M141.621 162.546C139.312 161.93 136.835 162.16 134.705 163.187C132.447 164.218 131.884 165.604 133.446 166.282C135.754 166.898 138.231 166.668 140.362 165.641C142.619 164.609 143.183 163.224 141.621 162.546Z" fill="#FFD243"/>
<path d="M114.003 111.787C111.695 111.171 109.218 111.401 107.087 112.428C104.83 113.46 104.266 114.846 105.828 115.523C108.137 116.139 110.614 115.91 112.744 114.883C115.002 113.851 115.565 112.465 114.003 111.787Z" fill="#FFD243"/>
<path d="M131.777 96.3387C129.724 95.723 127.523 95.9526 125.629 96.9796C123.623 98.0115 123.122 99.3972 124.51 100.075C126.562 100.691 128.764 100.461 130.658 99.4341C132.664 98.4024 133.165 97.0165 131.777 96.3387Z" fill="#FFD243"/>
<path d="M109.683 149.304C107.631 148.689 105.429 148.918 103.535 149.945C101.529 150.977 101.028 152.363 102.416 153.041C104.469 153.656 106.67 153.427 108.564 152.4C110.57 151.368 111.071 149.982 109.683 149.304Z" fill="#FFBB33"/>
<path d="M220.48 180.425C218.765 179.081 216.646 178.518 214.564 178.853C212.376 179.151 211.477 180.339 212.556 181.506C214.271 182.849 216.39 183.412 218.472 183.078C220.66 182.779 221.559 181.592 220.48 180.425Z" fill="#FFD86C"/>
<path d="M162.535 210.967C160.165 210.492 157.678 210.837 155.589 211.929C153.373 213.033 152.889 214.392 154.509 214.964C156.879 215.439 159.366 215.095 161.455 214.002C163.671 212.898 164.155 211.539 162.535 210.967Z" fill="#FFD243"/>
<path d="M111.249 180.615C109.716 178.769 107.656 177.712 105.497 177.663C103.235 177.552 102.144 178.693 103.059 180.213C104.592 182.059 106.653 183.116 108.812 183.165C111.073 183.276 112.164 182.134 111.249 180.615Z" fill="#FFD243"/>
<path d="M217.293 131.311L226.406 133.617C227.603 153.407 208.336 160 208.336 160L201.052 150.849C201.052 150.849 215.737 145.236 217.293 131.311Z" fill="#9B9837"/>
<path d="M224.251 145.747C219.453 156.206 208.323 160 208.323 160L201.052 150.925C203.331 149.966 205.484 148.736 207.465 147.261C212.956 145.939 218.611 145.429 224.251 145.747Z" fill="#B2AF47"/>
<path d="M209.89 194.98C215.567 199.435 222.71 201.467 229.819 200.65C229.819 200.65 228.447 170.303 239.157 177.329L239.716 176.392C233.493 163.267 213.089 161.853 209.89 194.98Z" fill="#FFA02E"/>
<path d="M172.331 224H313.73C313.73 224 266.46 180.693 237.233 175.448C237.233 175.448 180.122 204.579 172.331 224Z" fill="#FFA02E"/>
<path d="M186.691 224H328.091C328.091 224 306.848 171.835 280.774 165.517C280.774 165.517 206.155 200.607 186.691 224Z" fill="#F7DDC9"/>
<path d="M280.005 165.517C271.731 169.485 204.953 201.918 186.691 224H288.322C281.375 211.861 265.834 177.672 280.005 165.517Z" fill="#EAD0B7"/>
<path d="M50.8153 158.897C50.8153 157.678 49.0843 156.69 46.9488 156.69C44.8134 156.69 43.0825 157.678 43.0825 158.897C43.0825 160.116 44.8135 161.104 46.9488 161.104C49.0841 161.104 50.8153 160.116 50.8153 158.897Z" fill="#9B5B50"/>
<path d="M17.6748 187.617C17.6748 187.617 24.3561 193.574 36.7115 189.43C36.7115 189.43 35.1733 156.538 46.878 159.128L47.5013 157.833C40.2367 147.214 21.6496 154.984 17.6748 187.617Z" fill="#FFE8D9"/>
<g style="mix-blend-mode:multiply" opacity="0.5">
<path d="M49.8649 214.069L49.1108 209.782C46.5176 210.147 43.8718 209.865 41.4209 208.963L42.0744 205.955C44.3743 206.847 46.8738 207.137 49.3241 206.795C52.7401 206.308 54.7423 204.238 54.3174 201.819C53.907 199.487 51.7762 198.311 47.9911 197.546C42.7854 196.545 39.411 195.025 38.7618 191.333C38.1416 187.813 40.5097 184.734 44.8242 183.466L44.0698 179.183L47.0517 178.758L47.776 182.873C49.9662 182.574 52.1975 182.778 54.2928 183.468L53.5815 186.44C51.5596 185.735 49.3886 185.535 47.267 185.859C43.5617 186.387 42.5106 188.538 42.8087 190.235C43.1971 192.442 45.1717 193.291 49.6264 194.223C54.8957 195.299 57.7856 197.149 58.4512 200.927C59.0412 204.278 56.9464 207.796 52.1185 209.225L52.8953 213.637L49.8649 214.069Z" fill="#723F3D"/>
</g>
<g style="mix-blend-mode:multiply" opacity="0.5">
<path d="M249.004 210.649L251.783 207.267C249.135 207.291 246.516 206.696 244.135 205.528L247.367 203.326C249.581 204.465 252.036 205.045 254.522 205.017C258.633 205.14 262.541 203.849 264.11 201.941C265.623 200.1 264.3 198.893 260.838 197.762C256.035 196.244 253.653 194.594 256.047 191.681C258.329 188.904 263.479 186.896 269.221 186.552L271.998 183.172L275.587 183.28L272.919 186.526C275.181 186.523 277.418 186.999 279.485 187.924L276.219 190.091C274.232 189.152 272.056 188.687 269.861 188.733C265.401 188.6 262.457 190.09 261.355 191.429C259.925 193.17 261.353 194.105 265.4 195.461C270.209 197.046 271.789 198.877 269.341 201.858C267.168 204.502 261.944 206.885 255.512 207.277L252.651 210.759L249.004 210.649Z" fill="#723F3D"/>
</g>
<path d="M286.113 166.794C286.144 165.325 284.439 163.809 282.304 163.408C280.169 163.007 278.412 163.874 278.381 165.343C278.349 166.813 280.054 168.329 282.189 168.73C284.324 169.13 286.081 168.264 286.113 166.794Z" fill="#9B5B50"/>
<path d="M251.868 187.811C251.868 187.811 258.526 194.473 271.164 192.848C271.164 192.848 270.305 162.32 282.138 166.773L282.799 165.693C275.648 154.639 256.603 158.497 251.868 187.811Z" fill="#FFE8D9"/>
<path d="M258.219 189.793L265.124 195.869C257.282 213.508 237.536 210.576 237.536 210.576L235.297 199.405C235.297 199.405 250.612 201.131 258.219 189.793Z" fill="#9B9837"/>
<path d="M258.496 205.084C249.335 212.327 237.596 210.571 237.596 210.571L235.297 198.949C237.785 199.144 240.287 199.033 242.748 198.621C248.283 199.986 253.589 202.163 258.496 205.084Z" fill="#B2AF47"/>
<path d="M233.722 58.546C233.629 58.0296 233.389 57.5504 233.031 57.1646C232.672 56.7788 232.211 56.5025 231.7 56.368C231.189 56.2335 230.65 56.2465 230.146 56.4054C229.643 56.5642 229.195 56.8624 228.856 57.265C228.517 57.6675 228.301 58.1577 228.232 58.678C228.164 59.1983 228.247 59.7271 228.47 60.2025C228.694 60.6778 229.05 61.08 229.496 61.3617C229.942 61.6434 230.459 61.7931 230.988 61.7931C231.781 61.7164 232.513 61.333 233.025 60.7255C233.536 60.118 233.787 59.3352 233.722 58.546Z" fill="#CEC85F"/>
<path d="M263.843 120.903C264.341 120.575 264.718 120.132 264.93 119.628C265.143 119.123 265.182 118.578 265.042 118.055C264.902 117.533 264.59 117.055 264.143 116.678C263.695 116.301 263.13 116.04 262.514 115.926C261.898 115.813 261.257 115.85 260.665 116.036C260.073 116.221 259.556 116.545 259.174 116.971C258.792 117.398 258.561 117.907 258.508 118.441C258.455 118.975 258.582 119.511 258.874 119.985C259.395 120.662 260.208 121.137 261.138 121.309C262.067 121.481 263.039 121.335 263.843 120.903Z" fill="#CEC85F"/>
<path d="M251.691 205.773C252.189 205.379 252.566 204.848 252.779 204.243C252.991 203.637 253.03 202.983 252.89 202.356C252.751 201.729 252.439 201.155 251.991 200.703C251.543 200.251 250.978 199.938 250.362 199.801C249.746 199.665 249.105 199.71 248.513 199.932C247.922 200.155 247.404 200.544 247.022 201.055C246.64 201.567 246.409 202.179 246.356 202.819C246.303 203.46 246.43 204.103 246.722 204.672C247.243 205.484 248.056 206.055 248.986 206.261C249.915 206.467 250.887 206.292 251.691 205.773Z" fill="#CEC85F"/>
<path d="M217.446 148.489C217.944 148.161 218.321 147.718 218.534 147.214C218.746 146.709 218.785 146.164 218.645 145.641C218.505 145.119 218.193 144.641 217.746 144.264C217.298 143.887 216.733 143.626 216.117 143.512C215.501 143.399 214.86 143.437 214.268 143.622C213.677 143.807 213.159 144.132 212.777 144.558C212.395 144.984 212.164 145.494 212.111 146.027C212.058 146.561 212.185 147.097 212.477 147.572C212.998 148.248 213.811 148.724 214.741 148.895C215.67 149.067 216.642 148.921 217.446 148.489Z" fill="#CEC85F"/>
<path d="M81.0619 205.239C81.5909 205.264 82.115 205.109 82.5726 204.792C83.0302 204.476 83.4024 204.01 83.6455 203.451C83.8885 202.891 83.9923 202.261 83.9448 201.633C83.8972 201.006 83.7002 200.408 83.3769 199.909C83.0536 199.411 82.6174 199.032 82.1195 198.818C81.6216 198.604 81.0827 198.563 80.566 198.7C80.0494 198.838 79.5764 199.148 79.2026 199.594C78.8289 200.04 78.5698 200.604 78.4559 201.219C78.357 202.162 78.5754 203.114 79.0635 203.867C79.5515 204.62 80.2698 205.113 81.0619 205.239Z" fill="#CEC85F"/>
<path d="M51.7791 123.347C52.2257 123.524 52.7069 123.604 53.1891 123.582C53.6712 123.56 54.1426 123.437 54.5699 123.22C54.9973 123.003 55.3703 122.699 55.6628 122.328C55.9553 121.957 56.1601 121.529 56.2629 121.074C56.3657 120.618 56.364 120.146 56.2578 119.692C56.1517 119.237 55.9437 118.81 55.6485 118.441C55.3533 118.073 54.978 117.771 54.5491 117.557C54.1202 117.343 53.6479 117.223 53.1656 117.204C52.719 117.027 52.2378 116.947 51.7556 116.969C51.2734 116.991 50.8021 117.115 50.3748 117.331C49.9474 117.548 49.5744 117.852 49.2819 118.223C48.9894 118.594 48.7846 119.022 48.6818 119.478C48.579 119.933 48.5807 120.405 48.6869 120.86C48.793 121.314 49.001 121.741 49.2962 122.11C49.5914 122.479 49.9667 122.781 50.3956 122.994C50.8245 123.208 51.2968 123.329 51.7791 123.347Z" fill="#CEC85F"/>
<path d="M79.202 85.5487C79.8368 85.5739 80.4656 85.4191 81.0148 85.1024C81.564 84.7857 82.0106 84.3203 82.3023 83.7608C82.5939 83.2013 82.7185 82.5709 82.6615 81.9436C82.6044 81.3163 82.368 80.7182 81.98 80.2195C81.5921 79.7207 81.0686 79.342 80.4712 79.1279C79.8737 78.9137 79.227 78.873 78.607 79.0105C77.987 79.1479 77.4195 79.4579 76.9709 79.9039C76.5224 80.35 76.2115 80.9136 76.0748 81.5287C75.9562 82.4721 76.2182 83.4238 76.8039 84.1767C77.3895 84.9296 78.2514 85.4227 79.202 85.5487Z" fill="#CEC85F"/>
<path d="M97.9054 29.3943C98.826 29.6716 99.8204 29.5803 100.673 29.1403C101.526 28.7002 102.169 27.9467 102.462 27.0431C102.501 26.1162 102.208 25.2051 101.634 24.47C101.059 23.7349 100.241 23.2227 99.3211 23.0233C98.4017 22.824 97.4403 22.9503 96.606 23.38C95.7716 23.8097 95.1175 24.5154 94.7586 25.3731C94.6438 26.316 94.9092 27.2657 95.4977 28.0178C96.0862 28.7698 96.9508 29.2641 97.9054 29.3943Z" fill="#CEC85F"/>
</svg>
