<svg width="72" height="72" viewBox="0 0 72 72" fill="none" xmlns="http://www.w3.org/2000/svg">
<g id="Iconly/Bold/Shield Done">
<g id="Shield Done">
<path id="Shield Done_2" fill-rule="evenodd" clip-rule="evenodd" d="M35.1843 65.741C35.5165 65.9145 35.888 66.0028 36.2595 65.9999C36.631 65.9969 36.9994 65.9057 37.3347 65.7292L48.0383 60.0074C51.0736 58.3894 53.4505 56.5802 55.305 54.4738C59.3369 49.8846 61.5387 44.0275 61.4994 37.9879L61.3726 18.0659C61.3605 15.7713 59.8534 13.7238 57.6245 12.9796L37.7122 6.29869C36.5132 5.89272 35.1994 5.90155 34.0215 6.31929L14.1847 13.2384C11.9679 14.0121 10.488 16.0743 10.5001 18.3719L10.6269 38.2792C10.6662 44.3275 12.9434 50.1582 17.0419 54.7004C18.9144 56.7773 21.3124 58.56 24.381 60.1515L35.1843 65.741ZM32.3508 42.3266C32.7978 42.7561 33.3777 42.968 33.9576 42.9621C34.5375 42.9591 35.1143 42.7414 35.5553 42.306L47.2526 30.7741C48.1314 29.9063 48.1224 28.5119 47.2344 27.6558C46.3435 26.7997 44.9089 26.8056 44.03 27.6735L33.9243 37.6344L29.7867 33.6571C28.8957 32.801 27.4641 32.8099 26.5822 33.6777C25.7033 34.5455 25.7124 35.94 26.6033 36.796L32.3508 42.3266Z" fill="#9C5AF1"/>
</g>
</g>
</svg>
