<svg width="283" height="472" viewBox="0 0 283 472" fill="none" xmlns="http://www.w3.org/2000/svg">
<path d="M187.229 348.517L176.244 344.215C161.712 364.764 177.231 386.285 177.231 386.285L190.919 381.805C190.919 381.805 179.486 364.766 187.229 348.517Z" fill="#9B9837"/>
<path d="M170.407 358.995C168.233 373.92 177.254 386.281 177.254 386.281L191.083 381.789C189.362 379.061 187.957 376.129 186.902 373.059C182.074 367.561 176.516 362.822 170.407 358.995Z" fill="#B2AF47"/>
<path d="M183.248 364.386C183.476 365.601 183.254 366.85 182.63 367.863C182.006 368.877 181.031 369.573 179.915 369.803C178.8 369.697 177.743 369.173 176.93 368.322C176.117 367.471 175.599 366.347 175.466 365.147C175.333 363.947 175.594 362.748 176.204 361.757C176.813 360.767 177.732 360.05 178.8 359.731C179.943 359.739 181.049 360.232 181.882 361.103C182.714 361.974 183.205 363.153 183.248 364.386Z" fill="#CEC85F"/>
<path d="M126.487 368.605L136.945 377.552C125.209 404.194 95.3848 400.268 95.3848 400.268L91.9421 383.567C91.9421 383.567 115.068 385.791 126.487 368.605Z" fill="#9B9837"/>
<path d="M126.038 391.904C112.636 402.551 95.389 400.278 95.389 400.278L91.9367 383.569C95.5904 383.795 99.2628 383.581 102.874 382.931C111.009 384.778 118.814 387.801 126.038 391.904Z" fill="#B2AF47"/>
<path d="M113.198 382.923C112.399 383.457 111.768 384.21 111.381 385.093C110.995 385.976 110.867 386.952 111.014 387.907C111.16 388.863 111.575 389.758 112.209 390.487C112.843 391.217 113.671 391.75 114.594 392.026C115.518 392.301 116.499 392.306 117.423 392.041C118.347 391.776 119.176 391.251 119.811 390.529C120.447 389.806 120.863 388.916 121.011 387.962C121.159 387.008 121.033 386.03 120.648 385.143C119.94 383.867 118.762 382.919 117.369 382.503C115.975 382.088 114.477 382.239 113.198 382.923Z" fill="#CEC85F"/>
<path d="M98.487 302.499L81.8239 310.695C55.2138 281.616 76.0665 246.54 76.0665 246.54L98.5426 251.297C98.5426 251.297 83.3862 278.94 98.487 302.499Z" fill="#9B9837"/>
<path d="M69.9488 288.699C63.9891 266.532 76.0523 246.54 76.0523 246.54L98.5426 251.222C96.3032 255.593 94.5974 260.224 93.4624 265.011C86.8156 274.027 78.8932 282.009 69.9488 288.699Z" fill="#B2AF47"/>
<path d="M88.433 277.319C88.1845 275.946 87.5472 274.673 86.596 273.647C85.6448 272.622 84.4191 271.888 83.0627 271.53C81.7063 271.173 80.2754 271.207 78.9379 271.63C77.6005 272.052 76.4119 272.844 75.5118 273.914C74.6116 274.984 74.0372 276.287 73.8558 277.67C73.6745 279.053 73.8937 280.458 74.4878 281.722C75.082 282.985 76.0264 284.054 77.2102 284.803C78.3941 285.552 79.7683 285.949 81.1716 285.949C83.2794 285.746 85.2221 284.726 86.5806 283.112C87.939 281.497 88.6043 279.417 88.433 277.319Z" fill="#CEC85F"/>
<path d="M23.8358 386.867L8.11925 380.089C12.4277 344.077 49.4035 337.735 49.4035 337.735L59.5753 356.322C59.5753 356.322 31.2016 362.216 23.8358 386.867Z" fill="#9B9837"/>
<path d="M16.6903 358.324C28.383 341.07 49.395 337.725 49.395 337.725L59.668 356.243C55.3124 357.253 51.099 358.79 47.1203 360.82C36.92 361.483 26.6671 360.642 16.6903 358.324Z" fill="#B2AF47"/>
<path d="M35.3585 364.784C36.1654 363.794 36.6718 362.591 36.8183 361.318C36.9648 360.046 36.7453 358.755 36.1856 357.599C35.6259 356.442 34.7492 355.467 33.6583 354.788C32.5674 354.109 31.3076 353.755 30.0267 353.766C28.7458 353.778 27.497 354.155 26.4267 354.853C25.3564 355.551 24.509 356.541 23.984 357.707C23.459 358.873 23.2782 360.167 23.4627 361.437C23.6472 362.707 24.1894 363.9 25.0257 364.876C26.4238 366.221 28.2907 366.965 30.2238 366.948C32.1568 366.931 34.001 366.154 35.3585 364.784Z" fill="#CEC85F"/>
<path d="M61.0953 442.683L66.0714 430.656C93.5059 433.524 98.7485 461.565 98.7485 461.565L84.7284 469.51C84.7284 469.51 79.9249 448.004 61.0953 442.683Z" fill="#9B9837"/>
<path d="M82.7202 436.926C95.9739 445.621 98.7559 461.559 98.7559 461.559L84.7899 469.579C83.9719 466.279 82.7554 463.093 81.1671 460.091C80.5468 452.343 81.0701 444.538 82.7202 436.926Z" fill="#B2AF47"/>
<path d="M78.0186 451.193C78.7813 451.796 79.7014 452.167 80.671 452.264C81.6406 452.361 82.6193 452.179 83.4926 451.741C84.3658 451.302 85.0973 450.625 85.601 449.787C86.1048 448.95 86.3601 447.988 86.3369 447.015C86.3137 446.041 86.013 445.096 85.4701 444.29C84.9271 443.484 84.1645 442.851 83.2716 442.465C82.3787 442.079 81.3926 441.956 80.429 442.111C79.4655 442.265 78.5644 442.691 77.8314 443.338C76.8246 444.416 76.2799 445.844 76.3149 447.314C76.3499 448.783 76.9618 450.177 78.0186 451.193Z" fill="#CEC85F"/>
<path d="M158.215 274.011L172.55 281.073C167.503 314.305 133.121 318.389 133.121 318.389L124.262 300.631C124.262 300.631 150.676 296.543 158.215 274.011Z" fill="#9B9837"/>
<path d="M163.813 300.999C152.579 316.381 133.128 318.398 133.128 318.398L124.155 300.714C128.196 300.002 132.119 298.795 135.839 297.12C145.256 297.031 154.681 298.338 163.813 300.999Z" fill="#B2AF47"/>
<path d="M146.914 293.948C146.144 294.817 145.638 295.889 145.456 297.039C145.274 298.189 145.424 299.368 145.887 300.44C146.351 301.511 147.11 302.43 148.074 303.088C149.038 303.746 150.168 304.116 151.331 304.155C152.494 304.194 153.642 303.899 154.641 303.307C155.639 302.714 156.446 301.848 156.968 300.809C157.489 299.771 157.703 298.603 157.584 297.443C157.465 296.284 157.019 295.18 156.297 294.261C155.08 292.987 153.414 292.24 151.658 292.181C149.903 292.123 148.199 292.757 146.914 293.948Z" fill="#CEC85F"/>
<path d="M134.807 406.353C133.626 405.258 130.179 406.886 127.109 409.988C124.039 413.09 122.508 416.491 123.689 417.585C124.87 418.68 128.317 417.052 131.387 413.95C134.457 410.848 135.988 407.447 134.807 406.353Z" fill="#FFBB33"/>
<path d="M87.1013 351.849C85.7153 352.541 86.1151 356.151 87.9941 359.913C89.8732 363.674 92.5201 366.163 93.9061 365.47C95.292 364.778 94.8921 361.168 93.013 357.406C91.1339 353.645 88.4872 351.157 87.1013 351.849Z" fill="#FFBB33"/>
<path d="M62.7855 402.329C62.9967 400.894 59.6839 399.328 55.3864 398.832C51.0888 398.335 47.4335 399.095 47.2224 400.53C47.0114 401.965 50.3238 403.53 54.6215 404.027C58.9193 404.523 62.5742 403.763 62.7855 402.329Z" fill="#FFBB33"/>
<path d="M148.691 332.695C146.965 332.83 145.889 336.426 146.288 340.726C146.687 345.026 148.409 348.403 150.135 348.268C151.861 348.133 152.937 344.538 152.537 340.237C152.138 335.937 150.416 332.56 148.691 332.695Z" fill="#FFBB33"/>
<path d="M225.622 61.5153L222.529 58.6368C149.185 135.2 90.3354 177.334 69.2111 233.916C69.2111 233.916 99.5867 292.827 192.923 285.463C192.923 285.463 197.816 97.2712 225.622 61.5153Z" fill="#F7DDC9"/>
<path d="M218.529 75.6367C175.979 152.058 163.947 247.755 155.685 254.505C148.018 260.768 97.0175 245.483 69.4503 233.684C69.4204 233.763 69.3863 233.84 69.3566 233.919C69.3566 233.919 99.5931 292.974 192.99 285.34C192.99 285.34 197.348 132.552 218.529 75.6367Z" fill="#EAD0B7"/>
<g style="mix-blend-mode:multiply" opacity="0.5">
<g style="mix-blend-mode:multiply" opacity="0.5">
<path d="M143.891 233.657L144.33 225.739C139.693 225.358 135.228 223.806 131.353 221.229L133.708 216.143C137.326 218.642 141.535 220.149 145.915 220.513C152.026 221.005 156.334 218.121 156.583 213.653C156.822 209.344 153.612 206.407 147.372 203.545C138.768 199.699 133.546 195.657 133.925 188.837C134.284 182.334 139.636 177.803 147.62 177.261L148.057 169.349L153.392 169.778L152.971 177.379C156.883 177.718 160.663 178.967 164.009 181.024L161.568 186.025C158.355 183.969 154.679 182.752 150.874 182.486C144.246 181.952 141.551 185.357 141.376 188.493C141.151 192.569 144.223 194.863 151.555 198.288C160.237 202.293 164.487 206.729 164.102 213.708C163.759 219.9 158.701 225.321 149.763 225.942L149.312 234.094L143.891 233.657Z" fill="#723F3D"/>
</g>
</g>
<path d="M225.947 62.3699C225.974 60.417 224.559 58.4023 222.788 57.8698C221.016 57.3372 219.559 58.4888 219.533 60.4417C219.506 62.3946 220.921 64.4095 222.692 64.9418C224.464 65.4742 225.921 64.3228 225.947 62.3699Z" fill="#9B5B50"/>
<path d="M299.849 63.3233C268.103 48.0438 236.175 51.9644 222.894 62.4149C222.714 62.5581 222.491 62.6378 222.259 62.6416C222.027 62.6454 221.799 62.573 221.611 62.4357C221.423 62.2985 221.285 62.104 221.219 61.8826C221.153 61.6612 221.162 61.4252 221.245 61.2114C226.808 48.2508 245.989 12.3362 286.031 17.6463C292.513 18.5062 279.029 29.2548 286.033 37.4361C292.668 44.8571 297.409 53.7401 299.849 63.3233Z" fill="#FCF1E9"/>
</svg>
