<svg width="48" height="48" viewBox="0 0 48 48" fill="none" xmlns="http://www.w3.org/2000/svg">
<g clip-path="url(#clip0)">
<path d="M9.97457 22.8525C9.97462 22.5845 10.0276 22.3191 10.1304 22.0717C10.2333 21.8242 10.384 21.5995 10.5739 21.4104C10.7638 21.2214 10.9891 21.0717 11.237 20.97C11.4849 20.8683 11.7504 20.8166 12.0183 20.8179L15.4066 20.829C15.9468 20.829 16.465 21.0437 16.847 21.4258C17.229 21.808 17.4436 22.3263 17.4436 22.8667V35.6844C17.8252 35.5712 18.3136 35.4506 18.851 35.324C19.2234 35.2363 19.5552 35.0254 19.7927 34.7255C20.0302 34.4256 20.1595 34.0542 20.1596 33.6715V17.7733C20.1596 17.2328 20.3742 16.7145 20.7562 16.3323C21.1382 15.95 21.6563 15.7353 22.1966 15.7352H25.5952C26.1355 15.7353 26.6536 15.95 27.0356 16.3323C27.4176 16.7145 27.6322 17.2328 27.6322 17.7733V32.5294C27.6322 32.5294 28.4824 32.1852 29.3101 31.8355C29.6177 31.7054 29.8802 31.4875 30.0648 31.2091C30.2494 30.9308 30.3479 30.6042 30.3482 30.2701V12.6787C30.3482 12.1383 30.5628 11.6201 30.9447 11.2379C31.3266 10.8558 31.8446 10.641 32.3848 10.6409H35.7798C36.3197 10.6415 36.8374 10.8564 37.2189 11.2385C37.6005 11.6206 37.8149 12.1386 37.8149 12.6787V27.1646C40.7583 25.0307 43.7412 22.464 46.1084 19.3779C46.4519 18.9299 46.6791 18.4039 46.7699 17.8467C46.8608 17.2895 46.8123 16.7185 46.6289 16.1846C45.5331 13.0308 43.7912 10.1407 41.5148 7.69904C39.2384 5.25739 36.4775 3.31802 33.4089 2.00503C30.3402 0.692038 27.0314 0.0343377 23.694 0.0740212C20.3567 0.113705 17.0644 0.849896 14.0278 2.23548C10.9912 3.62107 8.27723 5.62555 6.05947 8.12064C3.84171 10.6157 2.16904 13.5465 1.1485 16.7254C0.127962 19.9042 -0.217977 23.2613 0.132823 26.5816C0.483622 29.9019 1.52344 33.1123 3.18572 36.0076C3.47533 36.507 3.90141 36.9134 4.4139 37.179C4.9264 37.4446 5.50401 37.5583 6.0789 37.5069C6.72112 37.4503 7.52074 37.3704 8.47143 37.2589C8.88518 37.2118 9.26718 37.0141 9.54465 36.7035C9.82213 36.3928 9.97571 35.991 9.97615 35.5744V22.8525" fill="#12161C"/>
<path d="M9.90234 43.4086C13.4809 46.0129 17.71 47.5762 22.1215 47.9254C26.5331 48.2745 30.9553 47.396 34.8987 45.3871C38.8422 43.3781 42.1532 40.317 44.4655 36.5424C46.7778 32.7678 48.0013 28.4268 48.0005 23.9998C48.0005 23.4459 47.9747 22.9008 47.938 22.3572C39.1734 35.434 22.9904 41.5473 9.90234 43.4086Z" fill="#F0B90B"/>
</g>
<defs>
<clipPath id="clip0">
<rect width="48" height="48" fill="white"/>
</clipPath>
</defs>
</svg>
