<svg width="16" height="16" viewBox="0 0 16 16" fill="none" xmlns="http://www.w3.org/2000/svg">
<g id="Iconly/Bold/Paper">
<g id="Paper">
<path id="Paper_2" fill-rule="evenodd" clip-rule="evenodd" d="M5.95066 10.9267H9.54142C9.81205 10.9267 10.0365 10.7 10.0365 10.4267C10.0365 10.1534 9.81205 9.93336 9.54142 9.93336H5.95066C5.68003 9.93336 5.45561 10.1534 5.45561 10.4267C5.45561 10.7 5.68003 10.9267 5.95066 10.9267ZM8.18168 6.60003H5.95066C5.68003 6.60003 5.45561 6.8267 5.45561 7.10003C5.45561 7.37336 5.68003 7.59336 5.95066 7.59336H8.18168C8.45231 7.59336 8.67673 7.37336 8.67673 7.10003C8.67673 6.8267 8.45231 6.60003 8.18168 6.60003ZM12.8922 6.01711C13.0474 6.01532 13.2163 6.01337 13.3698 6.01337C13.5348 6.01337 13.6668 6.14671 13.6668 6.31337V11.6734C13.6668 13.3267 12.3401 14.6667 10.7031 14.6667H5.44901C3.73284 14.6667 2.3335 13.26 2.3335 11.5267V4.34004C2.3335 2.68671 3.66683 1.33337 5.31039 1.33337H8.83515C9.00676 1.33337 9.13878 1.47337 9.13878 1.64004V3.78671C9.13878 5.00671 10.1355 6.00671 11.3434 6.01337C11.6255 6.01337 11.8743 6.01548 12.092 6.01733C12.2613 6.01876 12.4119 6.02004 12.5447 6.02004C12.6387 6.02004 12.7605 6.01864 12.8922 6.01711ZM13.0742 5.04404C12.5316 5.04604 11.892 5.04404 11.432 5.03937C10.7019 5.03937 10.1006 4.43204 10.1006 3.69471V1.93737C10.1006 1.65004 10.4458 1.50737 10.6432 1.71471C11.0004 2.08987 11.4914 2.60556 11.98 3.1189C12.4674 3.63088 12.9526 4.14052 13.3006 4.50604C13.4934 4.70804 13.3521 5.04337 13.0742 5.04404Z" fill="#F4BF80"/>
</g>
</g>
</svg>
