<svg width="59" height="60" viewBox="0 0 59 60" fill="none" xmlns="http://www.w3.org/2000/svg">
<path d="M57.0149 36.4032C56.0144 33.4684 54.543 30.0889 52.3359 26.5316C52.3359 26.5316 56.9266 15.6522 51.247 3.64626C51.247 3.64626 42.1537 5.83993 37.5041 13.5771C35.2087 12.8953 32.5307 12.4802 29.4997 12.4802C26.4686 12.4802 23.7906 12.8953 21.4952 13.5771C16.8456 5.83993 7.75229 3.64626 7.75229 3.64626C2.07267 15.6225 6.66344 26.5316 6.66344 26.5316C4.48577 30.1186 2.98493 33.498 1.98438 36.4032C-0.311012 43.162 2.51408 50.662 8.72341 54.0711C13.3436 56.6205 20.0532 58.8142 29.4997 58.8142C38.9461 58.8142 45.6557 56.6205 50.2759 54.0711C56.4852 50.6324 59.3103 43.1324 57.0149 36.4032Z" fill="#F2AA5B"/>
<path d="M56.5735 41.8874C56.5735 41.8874 56.8972 45 54.1898 47.5198C51.865 49.6542 48.1865 50.1581 45.0965 48.9724C42.7128 48.0534 39.77 46.3933 38.1221 43.5771C36.5624 40.9388 33.4136 39.1898 29.9705 39.1008C29.8233 39.1008 29.6762 39.1008 29.5291 39.1008C29.3819 39.1008 29.2348 39.1008 29.0876 39.1008C25.6445 39.2194 22.4957 40.9388 20.936 43.5771C19.2586 46.3933 16.3158 48.0534 13.9616 48.9724C10.8716 50.1878 7.19312 49.6542 4.8683 47.5198C2.13149 45.0297 2.48463 41.8874 2.48463 41.8874C-1.1056 44.7332 3.45575 50.6028 3.45575 50.6028C15.0799 59.3182 29.5585 58.7253 29.5585 58.7253C29.5585 58.7253 44.0371 59.3182 55.6612 50.6028C55.6023 50.6325 60.1637 44.7332 56.5735 41.8874Z" fill="white"/>
<path d="M22.2899 24.3676L15.5803 27.2134C14.8446 27.5099 13.9912 27.2134 13.6675 26.4723C13.3438 25.8202 13.5498 25.0494 14.1089 24.6047L19.9651 20.1285C20.848 19.4466 22.1134 19.7727 22.6136 20.7806L23.1728 21.9664C23.6436 22.8557 23.2316 23.9526 22.2899 24.3676Z" fill="white"/>
<path d="M36.7098 24.3676L43.4194 27.2134C44.1551 27.5099 45.0085 27.2134 45.3323 26.4723C45.656 25.8202 45.45 25.0494 44.8908 24.6047L39.0346 20.1285C38.1518 19.4466 36.8864 19.7727 36.3861 20.7806L35.827 21.9664C35.3561 22.8557 35.7681 23.9526 36.7098 24.3676Z" fill="white"/>
<path d="M29.5 60C21.2307 60 14.0503 58.3696 8.16463 55.1087C1.4256 51.4032 -1.63493 43.3696 0.866463 35.9882C1.98473 32.6976 3.48556 29.4664 5.33953 26.3834C4.45669 23.8933 1.51388 13.9921 6.6638 3.11267L7.07579 2.25299L7.98806 2.49015C8.37063 2.57908 17.0225 4.74311 21.9958 12.1838C24.3501 11.5909 26.8515 11.2945 29.5 11.2945C32.1191 11.2945 34.6499 11.5909 37.0042 12.1838C41.9481 4.74311 50.6294 2.57908 51.0119 2.49015L51.9242 2.25299L52.3362 3.11267C57.4861 13.9921 54.5433 23.8933 53.6605 26.3834C55.5144 29.4664 57.0153 32.6976 58.1335 35.9882C60.6349 43.3399 57.5744 51.3735 50.8354 55.1087C44.9498 58.3399 37.7693 60 29.5 60ZM8.40006 5.06919C3.69156 16.0376 7.72321 25.9387 7.75264 26.0573L7.98806 26.6206L7.66435 27.1542C5.78096 30.2372 4.22127 33.498 3.103 36.7885C0.954749 43.0435 3.57385 49.8913 9.2829 53.0336C14.8154 56.087 21.6133 57.6285 29.4706 57.6285C37.3573 57.6285 44.1552 56.087 49.6582 53.0336C55.3967 49.8913 57.9864 43.0435 55.8382 36.7885C54.7199 33.4684 53.1896 30.2372 51.2768 27.1542L50.9531 26.6206L51.1885 26.0573C51.2179 25.9684 55.279 16.0376 50.5411 5.06919C48.1868 5.83995 41.9775 8.35971 38.4756 14.1403L38.0636 14.9704L37.1219 14.7036C34.7676 14.0218 32.178 13.666 29.4411 13.666C26.7043 13.666 24.1147 14.0218 21.7604 14.7036L21.0836 14.9111L20.4656 14.2886L20.4067 14.17C16.9342 8.33006 10.7249 5.83995 8.40006 5.06919Z" fill="#633001"/>
<path d="M9.37147 9.39732C8.69463 11.9467 8.51806 14.3479 8.54749 16.4823C8.57691 17.4013 9.63632 17.9052 10.3426 17.3123C11.8729 16.0376 13.5797 14.7333 15.3454 13.5179C15.9339 13.1029 15.9928 12.2728 15.4631 11.7689C13.9623 10.4052 12.3731 9.39732 10.9312 8.68586C10.3132 8.35977 9.54804 8.7155 9.37147 9.39732Z" fill="white"/>
<path d="M49.629 9.39732C50.3059 11.9467 50.4825 14.3479 50.453 16.4823C50.4236 17.4013 49.3642 17.9052 48.6579 17.3123C47.1276 16.0376 45.4208 14.7333 43.6551 13.5179C43.0666 13.1029 43.0077 12.2728 43.5374 11.7689C45.0383 10.4052 46.6274 9.39732 48.0693 8.68586C48.6873 8.35977 49.4525 8.7155 49.629 9.39732Z" fill="white"/>
<path d="M29.5 42.0949C27.5872 42.0949 26.3218 42.2431 25.4978 42.3913C24.7032 42.5395 24.2912 43.4289 24.7032 44.1403C25.2918 45.1779 26.4395 46.5711 28.5877 47.3123C29.2057 47.5198 29.8531 47.5198 30.4711 47.3123C32.6194 46.6008 33.7671 45.1779 34.3556 44.1403C34.7676 43.4289 34.3556 42.5395 33.5611 42.3913C32.6782 42.2134 31.4128 42.0949 29.5 42.0949Z" fill="#633001"/>
<path d="M32.6487 49.6245C31.5304 49.6245 30.4416 49.3281 29.4999 48.7352C28.5582 49.3281 27.4693 49.6245 26.3511 49.6245C24.0262 49.6245 21.878 48.2313 20.8774 46.1265L22.4666 45.3854C23.1728 46.8973 24.7031 47.8755 26.3511 47.8755C27.2928 47.8755 28.205 47.5791 28.9702 46.9862L29.4999 46.5712L30.0296 46.9862C30.7947 47.5791 31.6776 47.8755 32.6487 47.8755C34.2967 47.8755 35.8269 46.8973 36.5332 45.3854L38.1223 46.1265C37.1217 48.2313 34.9735 49.6245 32.6487 49.6245Z" fill="#633001"/>
<path d="M24.8504 37.915H22.4962C22.4962 35.6324 20.6717 33.7945 18.4057 33.7945C16.1397 33.7945 14.3152 35.6324 14.3152 37.915H11.9609C11.9609 34.3281 14.8449 31.4229 18.4057 31.4229C21.9665 31.4229 24.8504 34.3281 24.8504 37.915Z" fill="#633001"/>
<path d="M47.0394 37.915H44.6852C44.6852 35.6324 42.8606 33.7945 40.5947 33.7945C38.3287 33.7945 36.5042 35.6324 36.5042 37.915H34.1499C34.1499 34.3281 37.0339 31.4229 40.5947 31.4229C44.1555 31.4229 47.0394 34.3281 47.0394 37.915Z" fill="#633001"/>
<path d="M39.5938 2.9051C38.7992 2.9051 38.1518 3.55728 38.1518 4.35767C38.1518 4.86162 38.3872 5.30629 38.7698 5.54344C37.3572 8.21142 33.6493 8.77466 31.501 6.40312C30.6182 5.42486 30.1768 4.32803 29.9708 3.67585C30.5299 3.46834 30.9125 2.93475 30.9125 2.31222C30.9125 1.51182 30.2651 0.85965 29.4705 0.85965C28.676 0.85965 28.0285 1.51182 28.0285 2.31222C28.0285 2.93475 28.4405 3.46834 28.9702 3.67585C28.7937 4.32803 28.3522 5.42486 27.44 6.40312C25.2917 8.77466 21.5544 8.18178 20.1712 5.54344C20.5538 5.27664 20.7892 4.83198 20.7892 4.35767C20.7892 3.55728 20.1418 2.9051 19.3472 2.9051C18.5527 2.9051 17.9053 3.55728 17.9053 4.35767C17.9053 5.12842 18.4938 5.75095 19.2295 5.81024L21.5249 15.2964C21.5249 15.2964 23.7615 16.4229 29.4411 16.4229C35.1207 16.4229 37.3572 15.2964 37.3572 15.2964L39.6526 5.81024C40.3883 5.75095 40.9769 5.12842 40.9769 4.35767C41.0358 3.55728 40.3883 2.9051 39.5938 2.9051Z" fill="#FFC230"/>
<path d="M36.8572 7.70747L28.1759 16.4525H25.8511L34.0027 8.21143" fill="white"/>
<path d="M32.5899 7.70742L24.4972 15.8596H23.2612L31.9131 7.14418" fill="white"/>
<path d="M39.5935 2.01581C38.2987 2.01581 37.2687 3.05336 37.2687 4.3577C37.2687 4.83201 37.4159 5.27668 37.6513 5.66205C37.0922 6.40316 36.2388 6.87747 35.2971 6.99604C34.1199 7.14426 32.9722 6.72924 32.1482 5.83992C31.6185 5.24703 31.2654 4.59486 31.0594 4.09091C31.5303 3.64624 31.8245 3.02371 31.8245 2.3419C31.8245 1.03755 30.7946 0 29.4997 0C28.2049 0 27.1749 1.03755 27.1749 2.3419C27.1749 3.02371 27.4692 3.64624 27.94 4.09091C27.734 4.59486 27.3809 5.24703 26.8512 5.83992C26.0272 6.72924 24.8795 7.17391 23.7024 6.99604C22.7607 6.87747 21.9073 6.37351 21.3481 5.66205C21.613 5.27668 21.7307 4.83201 21.7307 4.3577C21.7307 3.05336 20.7007 2.01581 19.4059 2.01581C18.111 2.01581 17.0811 3.05336 17.0811 4.3577C17.0811 5.33596 17.699 6.19565 18.5525 6.55138L20.8184 15.919L21.1716 16.0968C21.2599 16.1561 23.673 17.3122 29.4997 17.3122C35.3265 17.3122 37.7396 16.1561 37.8279 16.0968L38.181 15.919L40.447 6.55138C41.3298 6.19565 41.9184 5.36561 41.9184 4.3577C41.9184 3.05336 40.8884 2.01581 39.5935 2.01581ZM29.4997 1.74901C29.794 1.74901 30.0588 2.01581 30.0588 2.31225C30.0588 2.54941 29.9117 2.75692 29.6763 2.84585L29.4997 2.90514L29.3231 2.84585C29.0877 2.75692 28.9406 2.54941 28.9406 2.31225C28.9406 2.01581 29.176 1.74901 29.4997 1.74901ZM19.7002 4.83201L19.553 4.95059L19.347 4.92095C19.0527 4.8913 18.8173 4.65415 18.8173 4.3577C18.8173 4.06126 19.0822 3.79447 19.3765 3.79447C19.6707 3.79447 19.9356 4.06126 19.9356 4.3577C19.965 4.53557 19.8767 4.71344 19.7002 4.83201ZM36.6802 14.6146C35.8562 14.9111 33.6196 15.5039 29.4997 15.5039C25.3798 15.5039 23.1432 14.8814 22.3193 14.6146L20.583 7.44071C21.3776 8.15217 22.3781 8.59683 23.467 8.74506C25.2326 8.98221 26.9395 8.33003 28.146 7.02569C28.7934 6.34387 29.2054 5.57312 29.4997 4.92095C29.794 5.57312 30.206 6.31423 30.8534 7.02569C32.06 8.35968 33.7668 8.98221 35.5325 8.74506C36.6213 8.59683 37.6219 8.15217 38.4164 7.44071L36.6802 14.6146ZM39.6524 4.92095L39.4464 4.95059L39.2993 4.83201C39.1521 4.71344 39.0638 4.56521 39.0638 4.3577C39.0638 4.06126 39.3287 3.79447 39.623 3.79447C39.9173 3.79447 40.1821 4.06126 40.1821 4.3577C40.1527 4.65415 39.9467 4.8913 39.6524 4.92095Z" fill="#633001"/>
</svg>
