<svg width="32" height="32" viewBox="0 0 32 32" fill="none" xmlns="http://www.w3.org/2000/svg">
<g id="Iconly/Bold/Shield Done">
<g id="Shield Done">
<path id="Shield Done_2" fill-rule="evenodd" clip-rule="evenodd" d="M15.6378 29.2182C15.7854 29.2953 15.9505 29.3345 16.1157 29.3332C16.2808 29.3319 16.4445 29.2914 16.5935 29.2129L21.3507 26.6699C22.6997 25.9508 23.7561 25.1467 24.5803 24.2106C26.3723 22.1709 27.3508 19.5677 27.3334 16.8835L27.277 8.02927C27.2717 7.00944 26.6018 6.09944 25.6112 5.76865L16.7613 2.79938C16.2284 2.61895 15.6445 2.62287 15.121 2.80853L6.30465 5.88371C5.31939 6.22757 4.66166 7.14411 4.66702 8.16525L4.7234 17.0129C4.74085 19.7011 5.75296 22.2925 7.57448 24.3112C8.40672 25.2343 9.47252 26.0266 10.8363 26.734L15.6378 29.2182ZM14.3784 18.8119C14.5771 19.0028 14.8348 19.0969 15.0926 19.0943C15.3503 19.093 15.6067 18.9962 15.8026 18.8027L21.0014 13.6774C21.392 13.2917 21.388 12.672 20.9934 12.2915C20.5974 11.911 19.9598 11.9136 19.5692 12.2994L15.0778 16.7265L13.2388 14.9588C12.8428 14.5783 12.2066 14.5822 11.8146 14.9679C11.424 15.3536 11.428 15.9734 11.824 16.3538L14.3784 18.8119Z" fill="#F4BF80"/>
</g>
</g>
</svg>
